<svg width="90" height="36" viewBox="0 0 90 36" fill="none" xmlns="http://www.w3.org/2000/svg">
<path fill-rule="evenodd" clip-rule="evenodd" d="M21.6772 23.4224L32.3485 12.5766L41.4405 21.6234L46.106 16.9992L46.2056 20.8831L31.0396 36L29.0924 34.0662L31.5764 31.7289L24.4951 24.4817L21.8793 27.0042L21.6772 23.4224Z" fill="#8C919A"/>
<path fill-rule="evenodd" clip-rule="evenodd" d="M67.9328 9.49991H83.0315V12.8965H80.6489V25.0031L89.9617 19.908L89.9954 28.8033H67.8482V25.2884H70.3322L70.3481 12.8965H67.9497L67.9328 9.49991Z" fill="#8C919A"/>
<path fill-rule="evenodd" clip-rule="evenodd" d="M31.0396 11.7867C34.2606 11.7867 36.9106 9.13 36.9106 5.88399C36.9106 2.63943 34.2606 0 31.0396 0C27.7849 0 25.1498 2.63943 25.1498 5.88399C25.1498 9.13 27.7849 11.7867 31.0396 11.7867Z" fill="#8C919A"/>
<path fill-rule="evenodd" clip-rule="evenodd" d="M0.0846616 9.71927H15.1684V13.1149H12.8012V25.221L22.114 20.1269L22.1299 29.0212H0V25.5236H2.46673L2.48453 13.1149H0.0687876L0.0846616 9.71927Z" fill="#8C919A"/>
<path fill-rule="evenodd" clip-rule="evenodd" d="M58.9068 28.7696H43.1861V25.3562H45.853L45.8025 13.0143H43.1356V9.66779H58.9895C63.5867 9.65144 67.244 12.8628 67.295 19.1841C67.2618 25.7102 63.2014 28.7696 58.9068 28.7696ZM55.768 22.7995C57.5984 22.7836 59.1252 21.7407 59.141 18.9334C59.141 16.2089 57.5647 15.0154 55.8031 15.0154L55.768 22.7995Z" fill="#8C919A"/>
</svg>
