<svg width="66" height="28" viewBox="0 0 66 28" fill="none" xmlns="http://www.w3.org/2000/svg">
<path d="M33.8969 20.3356C36.1753 20.3356 37.7437 18.8064 37.7437 16.6219C37.7437 14.4374 36.1753 12.9072 33.8969 12.9072C31.6185 12.9072 30.0501 14.4364 30.0501 16.6219C30.051 18.8064 31.6195 20.3356 33.8969 20.3356ZM33.8969 6.68042C41.9572 6.68042 45.0384 11.9606 45.0384 16.6209C45.0384 21.7191 41.4918 26.5614 33.9692 26.5614C25.9089 26.5614 22.7563 21.3176 22.7563 16.6209C22.7563 11.6694 26.0879 6.68042 33.8969 6.68042Z" fill="#8A8F98"/>
<path d="M46.5181 1.39355H53.8049V26.2281H46.5181V1.39355Z" fill="#8A8F98"/>
<path d="M63.8227 22.0876C63.8227 19.6167 61.8327 17.6143 59.3774 17.6143C56.922 17.6143 54.9312 19.6177 54.9312 22.0876C54.9312 24.5584 56.922 26.5609 59.3774 26.5609C61.8327 26.5609 63.8227 24.5584 63.8227 22.0876Z" fill="#8A8F98"/>
<path d="M7.28687 20.0662C8.26569 20.2502 9.35402 20.3289 10.0796 20.3289C12.7266 20.3289 14.4671 18.8627 14.4671 16.6143C14.4671 14.4032 12.7628 12.9006 10.2976 12.9006C9.39118 12.9006 8.30284 13.0265 7.28687 13.3582V20.0662ZM0 1.39355H7.28687V7.47475C8.7194 6.92862 10.1989 6.67376 11.74 6.67376C17.4721 6.67376 21.6269 10.8981 21.6269 16.6871C21.6269 21.0571 18.6533 26.2271 11.8827 26.2271H0V1.39355Z" fill="#8A8F98"/>
</svg>
