<svg width="32" height="32" viewBox="0 0 32 32" fill="none" xmlns="http://www.w3.org/2000/svg">
<path fill-rule="evenodd" clip-rule="evenodd" d="M18.0913 3.2078C17.226 2.48672 15.969 2.48672 15.1038 3.2078L12.2355 5.59804H7.93089C6.64223 5.59804 5.59755 6.64271 5.59755 7.93138V12.236L3.20731 15.1043C2.48623 15.9695 2.48623 17.2265 3.20731 18.0918L5.59755 20.9601L5.59757 25.2647C5.59757 26.5534 6.64223 27.5981 7.9309 27.5981H12.2355L15.1038 29.9883C15.969 30.7094 17.226 30.7094 18.0913 29.9883L20.9596 27.5981H25.2642C26.5529 27.5981 27.5976 26.5534 27.5976 25.2647V20.9601L29.9878 18.0918C30.7089 17.2265 30.7089 15.9695 29.9878 15.1043L27.5976 12.236V7.93138C27.5976 6.64271 26.5529 5.59804 25.2642 5.59804H20.9596L18.0913 3.2078ZM21.2136 14.4473C21.8666 14.1071 22.1204 13.3019 21.7802 12.6488C21.4401 11.9957 20.6348 11.742 19.9817 12.0821C18.0778 13.0738 16.5244 14.9721 15.498 16.469C15.4092 16.5986 15.3233 16.7266 15.2406 16.8522C15.0541 17.1357 14.8837 17.4077 14.7305 17.6609C14.6161 17.5641 14.5049 17.4747 14.3993 17.393C14.3654 17.367 14.3322 17.3417 14.2997 17.3171C14.0126 17.101 13.7544 16.9306 13.5658 16.813C13.4712 16.7539 13.393 16.7075 13.3364 16.6746C13.308 16.6582 13.2848 16.645 13.2676 16.6354L13.2462 16.6235L13.239 16.6195L13.2362 16.6181L13.234 16.6169C12.587 16.2654 11.7775 16.505 11.426 17.1521C11.0746 17.799 11.3145 18.6086 11.9612 18.9602L11.964 18.9617L11.9996 18.9821C12.0334 19.0017 12.0866 19.0331 12.1544 19.0754C12.2909 19.1606 12.4827 19.2871 12.6956 19.4474C13.1404 19.7823 13.5936 20.2027 13.8685 20.6405C14.1268 21.0518 14.5882 21.2901 15.0732 21.2626C15.5578 21.2351 15.9894 20.9459 16.1997 20.5083L16.203 20.5014L16.22 20.4671C16.2357 20.4354 16.2602 20.3865 16.2932 20.3223C16.359 20.1939 16.4584 20.0051 16.5881 19.7718C16.8481 19.3039 17.2264 18.6639 17.6973 17.977C18.6709 16.5573 19.9174 15.1223 21.2136 14.4473Z" fill="white"/>
</svg>
