<svg width="32" height="32" viewBox="0 0 32 32" fill="none" xmlns="http://www.w3.org/2000/svg">
<path fill-rule="evenodd" clip-rule="evenodd" d="M16.0002 1.66699C10.2932 1.66699 5.66683 6.29338 5.66683 12.0003C5.66683 17.7073 10.2932 22.3337 16.0002 22.3337C21.7071 22.3337 26.3335 17.7073 26.3335 12.0003C26.3335 6.29338 21.7071 1.66699 16.0002 1.66699ZM17.7448 8.92961L16.5051 6.38861C16.2948 5.9577 15.7055 5.9577 15.4952 6.38861L14.2555 8.92961C14.1732 9.09826 14.0187 9.21564 13.8398 9.24542L11.145 9.69371C10.6883 9.76968 10.5063 10.3543 10.8329 10.6963L12.762 12.7168C12.8898 12.8507 12.9487 13.0402 12.9206 13.227L12.4954 16.0469C12.4233 16.5243 12.9 16.8858 13.3124 16.6663L15.743 15.373C15.9046 15.287 16.0958 15.287 16.2574 15.373L18.6879 16.6663C19.1003 16.8858 19.577 16.5243 19.505 16.0469L19.0798 13.227C19.0516 13.0402 19.1106 12.8507 19.2383 12.7168L21.1675 10.6963C21.494 10.3543 21.312 9.76968 20.8554 9.69371L18.1606 9.24542C17.9816 9.21564 17.8271 9.09826 17.7448 8.92961ZM6.79577 19.7009L4.42314 24.9206C4.27025 25.257 4.31529 25.6502 4.54025 25.9434C4.76522 26.2365 5.13346 26.3815 5.49791 26.3209L8.72359 25.7833L10.4144 29.7283C10.5727 30.0978 10.9367 30.3365 11.3386 30.3345C11.7404 30.3325 12.102 30.0901 12.2566 29.719L14.6695 23.9282C11.5152 23.5802 8.72921 22.0097 6.79577 19.7009ZM19.7464 29.7191L17.3335 23.9283C20.4878 23.5802 23.2738 22.0097 25.2071 19.7009L27.5798 24.9207C27.7327 25.2571 27.6876 25.6503 27.4627 25.9434C27.2378 26.2366 26.8695 26.3817 26.5051 26.321L23.2794 25.7834L21.5886 29.7285C21.4303 30.0978 21.0663 30.3366 20.6644 30.3346C20.2626 30.3325 19.901 30.0902 19.7464 29.7191Z" fill="white"/>
</svg>
