<svg width="384" height="216" viewBox="0 0 384 216" fill="none" xmlns="http://www.w3.org/2000/svg">
<g clip-path="url(#clip0_309_586)">
<rect width="384" height="216" rx="8" fill="#F5FBFF"/>
<path d="M112.174 73.3841C112.174 73.3995 112.189 73.3995 112.189 73.3995C114.083 74.4924 116.238 75.0311 118.547 75.0311C118.716 75.0311 118.885 75.0157 119.055 75.0157V76.1856C116.811 76.9912 114.529 78.5537 114.529 80.9265C114.529 80.9265 114.529 80.9265 114.529 80.9419L114.652 109.695C114.668 111.188 115.637 112.589 117.408 113.62C120.957 115.67 126.746 115.677 130.307 113.62C132.108 112.574 133.108 111.173 133.093 109.649L132.97 80.8957V80.8803C132.954 78.7561 131.123 77.1399 128.598 76.2625L128.583 72.1373C140.86 65.999 153.122 46.8554 153.073 30.6235C153.042 23.2966 150.532 17.8168 146.007 15.1693C143.467 13.6958 138.073 10.5663 138.419 10.767C133.816 8.07332 127.706 8.6582 121.21 12.414C108.095 19.9872 97.4434 38.4121 97.4742 53.4815C97.505 60.8238 100.029 66.3344 104.57 68.9819L112.143 73.3841C112.159 73.3841 112.159 73.3841 112.174 73.3841ZM132.323 109.649C132.339 110.881 131.477 112.05 129.922 112.959C126.566 114.898 121.133 114.883 117.792 112.959C116.269 112.066 115.422 110.911 115.422 109.695L115.314 83.1585C115.33 83.1892 115.345 83.2046 115.36 83.2201C115.836 83.8666 116.519 84.3865 117.207 84.8056C117.238 84.8209 117.254 84.8363 117.284 84.8517C121.444 87.2907 129.167 86.9594 132.154 83.1739C132.169 83.1585 132.2 83.1432 132.215 83.1123L132.323 109.649ZM128.598 77.063C132.969 78.7733 133.352 82.1675 129.783 84.2053C126.358 86.1711 120.925 86.0892 117.669 84.1898C113.804 81.9439 114.956 78.504 119.055 77.0015L119.07 80.1724C119.07 80.9882 119.593 81.7425 120.532 82.2967C122.335 83.3482 125.279 83.38 127.136 82.2967C128.09 81.7425 128.613 80.9883 128.613 80.1571L128.598 77.063ZM104.955 68.32C100.66 65.8111 98.2745 60.5467 98.2437 53.4815C98.2129 38.6584 108.68 20.5414 121.595 13.0759C127.828 9.47409 133.678 8.8892 138.034 11.429L141.944 13.6917C140.64 13.4745 139.185 13.468 137.864 13.6147C134.648 13.9976 131.556 15.1985 128.783 16.8163C115.57 24.442 105.014 42.9916 105.063 57.8992C105.063 57.9609 105.078 58.007 105.078 58.0532C105.078 62.4645 106.113 67.1711 108.88 70.5981L104.955 68.32ZM105.832 57.8992C105.782 43.232 116.189 24.981 129.168 17.4782C129.245 17.4321 129.322 17.4012 129.398 17.3551C141.741 10.2107 152.238 15.7462 152.303 30.6236C152.333 45.4621 141.866 63.6099 128.937 71.0753C122.733 74.6463 116.931 75.2467 112.574 72.7378C107.574 69.8594 105.832 63.6691 105.832 57.8992Z" fill="#0A2222"/>
<path d="M114.945 71.0911C121.718 73.7608 130.235 68.0254 135.386 62.8407C142.221 55.9602 147.454 46.2474 149.178 36.9657C149.578 34.8261 149.809 32.6865 149.794 30.624C149.794 29.5619 149.732 28.5459 149.609 27.5761C148.305 16.7573 140.152 14.0184 130.415 19.649C118.208 26.6988 108.295 43.8616 108.341 57.8842C108.357 62.9176 109.65 66.7658 111.959 69.1209C111.974 69.1362 111.989 69.1362 111.989 69.1362C112.836 69.9829 113.806 70.6293 114.899 71.0757C114.914 71.0757 114.93 71.0911 114.945 71.0911ZM112.451 68.4744C110.312 66.2578 109.111 62.6252 109.111 57.8842C109.065 44.0925 118.793 27.2376 130.8 20.3109C133.924 18.51 136.957 17.5557 139.589 17.5557C139.635 17.5557 139.681 17.571 139.727 17.571C141.882 19.8183 143.037 23.451 143.052 28.1304C143.083 41.9221 133.339 58.8079 121.317 65.7345C118.605 67.3055 115.598 68.4744 112.451 68.4744Z" fill="#1855F1"/>
<path d="M271.549 162.707L240.795 144.959V144.02C240.795 143.959 240.779 143.928 240.764 143.882C240.764 143.867 240.764 143.836 240.749 143.82C240.718 143.759 240.672 143.713 240.61 143.682L228.127 136.478C228.004 136.401 227.865 136.401 227.742 136.478L226.926 136.955L219.353 132.568L219.383 120.224C219.383 120.085 219.307 119.962 219.199 119.885L206.715 112.681C206.592 112.62 206.438 112.62 206.33 112.681L197.942 117.561L197.972 102.614C197.972 102.476 197.895 102.353 197.788 102.276C197.772 102.276 197.772 102.276 197.772 102.276L185.289 95.0722C185.181 95.0106 185.027 95.0106 184.904 95.0722L176.685 99.8593L176.73 78.7253C176.73 78.5867 176.654 78.4637 176.531 78.3866C176.531 78.3866 176.531 78.3866 176.515 78.3866L164.047 71.1829C163.939 71.1213 163.785 71.1213 163.662 71.1829L151.271 78.3866C151.209 78.4328 151.163 78.479 151.133 78.5406C151.086 78.5867 151.071 78.6637 151.071 78.7254L151.025 111.158L112.205 133.723C110.804 134.524 110.034 135.632 110.019 136.817C110.019 136.832 110.004 136.832 110.004 136.848L109.988 144.852C109.988 146.068 110.789 147.192 112.22 148.023L212.103 205.699C214.912 207.304 219.455 207.301 222.2 205.684L271.549 177.023C272.95 176.207 273.735 175.099 273.75 173.883L273.765 165.878C273.765 165.863 273.765 165.863 273.765 165.863C273.766 164.647 272.981 163.538 271.549 162.707ZM219.353 133.461L226.156 137.402L219.322 141.373L219.353 133.461ZM227.942 137.248L239.64 144.02L228.019 150.778C227.865 150.689 215.526 143.571 216.305 144.02C216.461 143.93 228.719 136.795 227.942 137.248ZM215.92 144.682C216.074 144.771 228.413 151.889 227.634 151.44C227.507 186.561 227.551 174.429 227.542 177.069L215.828 170.296C215.847 165.038 215.78 183.695 215.92 144.682ZM206.515 113.466L218.229 120.223C218.073 120.314 205.814 127.433 206.592 126.981L194.894 120.223C195.05 120.133 207.293 113.014 206.515 113.466ZM194.447 141.327C194.478 133.723 194.494 125.765 194.509 120.885C194.663 120.974 206.987 128.093 206.208 127.643L206.115 164.693L194.417 157.935L194.447 141.327ZM185.104 95.8571L196.818 102.614C196.662 102.705 184.403 109.824 185.181 109.372C185.027 109.283 172.688 102.165 173.467 102.614L185.104 95.8571ZM173.083 103.276C173.237 103.365 185.575 110.483 184.796 110.034L184.704 152.333L172.99 145.575C173.021 137.637 173.071 110.248 173.083 103.276ZM163.862 71.9677L175.576 78.725L163.939 85.4824L152.226 78.725L163.862 71.9677ZM151.81 107.217L151.841 79.387C151.995 79.476 164.333 86.6101 163.554 86.1597L163.462 139.972L151.748 133.2L151.81 107.217ZM213.888 205.622C213.396 205.452 212.919 205.268 212.488 205.021L112.605 147.345C111.42 146.668 110.758 145.775 110.758 144.852L110.773 138.818C111.677 139.875 105.471 136.092 212.133 197.679C212.657 197.987 213.257 198.218 213.888 198.403V205.622ZM272.981 173.882C272.965 174.806 272.319 175.683 271.164 176.345L221.816 205.021C221.369 205.283 220.861 205.483 220.323 205.652V198.449C221.015 198.249 221.661 198.002 222.216 197.679C289.865 158.381 266.514 171.945 271.58 169.003C272.078 168.718 272.681 168.215 272.996 167.848L272.981 173.882ZM271.195 168.341C266.128 171.285 289.509 157.702 221.831 197.017C219.276 198.495 215.105 198.495 212.518 197.017L112.62 139.341C111.657 138.798 110.789 137.958 110.789 136.848C110.789 135.939 111.42 135.062 112.59 134.385L151.025 112.05L151.01 116.314C150.886 116.36 150.779 116.406 150.671 116.468C150.04 116.822 150.055 117.422 150.686 117.791C150.779 117.853 150.902 117.868 151.01 117.899L150.979 133.43C150.979 133.569 151.056 133.692 151.179 133.754L163.647 140.957C163.647 140.957 163.647 140.973 163.662 140.973C163.708 141.003 163.785 141.019 163.847 141.019C163.908 141.019 163.955 141.003 164.016 140.973C164.016 140.973 164.032 140.973 164.047 140.973L172.251 136.216L172.221 145.791C172.221 145.929 172.298 146.052 172.421 146.129L184.904 153.333C184.966 153.364 185.027 153.379 185.089 153.379C185.151 153.379 185.227 153.364 185.289 153.333V153.317L193.662 148.453L193.647 158.151C193.647 158.289 193.709 158.412 193.832 158.49L206.315 165.693C206.377 165.724 206.438 165.739 206.5 165.739C206.577 165.739 206.639 165.724 206.7 165.693C206.715 165.693 206.715 165.678 206.731 165.662L215.089 160.798L215.058 170.527C215.058 170.665 215.135 170.788 215.243 170.85L227.726 178.053C227.829 178.131 227.993 178.142 228.111 178.053L240.518 170.85C240.641 170.788 240.702 170.665 240.702 170.527L240.795 145.837L271.165 163.369C273.688 164.863 273.491 166.99 271.195 168.341Z" fill="#0A2222"/>
<path d="M149.558 118.445C148.924 118.079 147.89 118.079 147.26 118.445L136.681 124.591C136.051 124.957 136.054 125.556 136.688 125.922C137.329 126.292 138.356 126.288 138.986 125.922L149.565 119.776C150.195 119.41 150.199 118.816 149.558 118.445Z" fill="#0A2222"/>
<path d="M247.863 176.174C247.359 175.883 246.557 175.878 246.056 176.169L235.765 182.149C235.256 182.445 235.267 182.91 235.771 183.201C236.283 183.497 237.069 183.492 237.578 183.196L247.885 177.225C248.386 176.934 248.375 176.47 247.863 176.174Z" fill="#0A2222"/>
<path d="M197.712 191.537L183.433 183.293C182.729 182.887 182.17 183.206 182.168 184.025C182.166 184.823 182.721 185.796 183.425 186.202L197.704 194.446C198.407 194.852 198.976 194.528 198.978 193.731C198.981 192.911 198.415 191.943 197.712 191.537ZM197.501 193.564C197.168 193.372 196.896 192.9 196.897 192.529C196.898 192.136 197.172 191.979 197.505 192.171C197.837 192.363 198.11 192.836 198.108 193.229C198.107 193.599 197.833 193.756 197.501 193.564Z" fill="#0A2222"/>
<path d="M131.218 152.467C130.29 151.947 129.509 152.393 129.509 153.507C129.509 154.547 130.29 155.922 131.218 156.441C132.184 156.999 132.964 156.553 132.964 155.513C132.964 154.362 132.184 153.024 131.218 152.467Z" fill="#0A2222"/>
<path d="M124.609 148.651C123.68 148.131 122.9 148.577 122.9 149.691C122.9 150.731 123.681 152.105 124.609 152.625C125.575 153.183 126.355 152.737 126.355 151.696C126.355 150.545 125.575 149.208 124.609 148.651Z" fill="#0A2222"/>
<path d="M250.445 183.51L237.491 191.007C236.842 191.383 236.317 192.291 236.319 193.038C236.321 193.785 236.849 194.086 237.499 193.711L250.453 186.214C251.103 185.838 251.628 184.929 251.626 184.183C251.624 183.436 251.096 183.135 250.445 183.51Z" fill="#0A2222"/>
<path d="M254.027 181.443C253.377 181.818 252.852 182.727 252.854 183.474C252.856 184.22 253.385 184.521 254.034 184.146C254.684 183.771 255.209 182.862 255.207 182.115C255.205 181.369 254.677 181.067 254.027 181.443Z" fill="#0A2222"/>
<path d="M257.64 179.357C256.991 179.732 256.466 180.641 256.468 181.388C256.47 182.135 256.998 182.436 257.648 182.06C258.298 181.685 258.816 180.78 258.814 180.033C258.812 179.287 258.29 178.982 257.64 179.357Z" fill="#0A2222"/>
<path d="M230.297 195.162C229.654 195.533 229.129 196.442 229.131 197.189C229.133 197.935 229.662 198.236 230.305 197.865C230.955 197.49 231.48 196.581 231.477 195.834C231.475 195.087 230.947 194.786 230.297 195.162Z" fill="#0A2222"/>
<path d="M280.415 66.2574C280.415 66.2574 280.415 66.2574 280.415 66.2421C275.807 63.582 300.614 77.9016 213.965 27.8836C212.257 26.8832 210.625 26.7445 209.363 27.4834L203.544 30.8698C203.514 30.8852 203.499 30.8852 203.483 30.9006C202.236 31.6087 201.544 33.0863 201.544 35.0412L201.42 81.7116C201.405 85.5905 204.145 90.3314 207.516 92.2864L273.966 130.645C275.798 131.707 277.476 131.753 278.676 130.999L284.479 127.628C285.71 126.904 286.403 125.442 286.403 123.502L286.526 76.8474C286.526 76.8474 286.526 76.8474 286.526 76.832C286.542 72.9532 283.802 68.1969 280.415 66.2574ZM209.748 28.1454C210.764 27.5605 212.118 27.699 213.58 28.5456L279.461 66.5962C279.305 66.6866 274 69.7614 274.335 69.567C253.298 57.4184 226.317 41.8382 208.07 31.3009C207.047 30.7325 206.673 30.7149 206.515 30.6698C206.254 30.5928 205.992 30.5004 205.746 30.4696L209.748 28.1454ZM279.861 80.2648L279.738 126.92C279.738 130.154 277.565 131.835 274.351 129.983L207.901 91.6091C204.73 89.7928 202.175 85.3443 202.19 81.7117L202.313 35.0413C202.313 31.3749 204.854 30.4103 207.593 31.932C207.761 32.0162 211.03 33.9094 274.151 70.352C277.306 72.1837 279.861 76.6013 279.861 80.234C279.861 80.2494 279.861 80.2494 279.861 80.2648ZM285.633 123.503C285.633 125.15 285.079 126.381 284.094 126.966L280.062 129.306C280.077 129.29 280.077 129.259 280.077 129.244C280.419 128.482 280.463 127.756 280.508 126.935L280.646 80.4956L285.757 77.5094L285.633 123.503Z" fill="#0A2222"/>
<path d="M271.088 71.6145L208.871 35.6881C207.461 34.8685 205.684 35.8927 205.684 37.5198L205.561 80.9578C205.546 84.8213 207.624 88.4232 210.964 90.3627L273.181 126.274C274.57 127.094 276.367 126.095 276.367 124.442L276.49 81.004C276.506 77.1405 274.428 73.5386 271.088 71.6145ZM237.532 104.801L229.405 100.122L229.543 62.0248L237.655 66.7197L237.532 104.801ZM267.547 122.133L259.451 117.454L259.543 84.2211L267.64 88.9004L267.547 122.133ZM275.597 124.442C275.597 125.478 274.483 126.136 273.566 125.612L268.317 122.579L268.425 88.6849C268.425 88.5465 268.348 88.4078 268.224 88.3463L259.343 83.2206C259.235 83.1436 259.081 83.1436 258.958 83.2206C258.85 83.2821 258.773 83.4207 258.773 83.5438L258.681 117.007L253.324 113.913L253.386 90.4243C253.386 90.2858 253.309 90.1627 253.186 90.0857L244.304 84.9599C244.181 84.8829 244.042 84.8829 243.92 84.9599C243.796 85.0215 243.719 85.16 243.719 85.2985L243.658 108.341L238.301 105.247L238.44 66.4888C238.44 66.3502 238.363 66.2271 238.239 66.1655L229.343 61.0244C229.235 60.9627 229.081 60.9627 228.973 61.0244C228.85 61.1014 228.773 61.2245 228.773 61.363L228.635 99.6752L223.278 96.5813L223.339 78.0947C223.339 77.9562 223.262 77.8331 223.14 77.7561L214.258 72.6304C214.15 72.5688 213.996 72.5688 213.873 72.6304C213.765 72.7073 213.688 72.8305 213.688 72.969L213.642 91.0092L211.349 89.6854C208.24 87.8998 206.316 84.5443 206.331 80.9578L206.454 37.5198C206.454 36.5224 207.51 35.8274 208.486 36.35L270.703 72.2764C273.812 74.0773 275.736 77.4175 275.721 81.004L275.597 124.442Z" fill="#0A2222"/>
</g>
<defs>
<clipPath id="clip0_309_586">
<rect width="384" height="216" rx="8" fill="white"/>
</clipPath>
</defs>
</svg>
