<svg width="32" height="32" viewBox="0 0 32 32" fill="none" xmlns="http://www.w3.org/2000/svg">
<path d="M9.87124 19.2529C5.92811 20.2091 3 23.7625 3 27.9997C3 28.5519 3.44772 28.9997 4 28.9997H20C20.5523 28.9997 21 28.5519 21 27.9997C21 23.7625 18.0719 20.2091 14.1288 19.2529C16.2035 18.4114 17.6667 16.3763 17.6667 13.9997C17.6667 10.8701 15.1296 8.33301 12 8.33301C8.87039 8.33301 6.33333 10.8701 6.33333 13.9997C6.33333 16.3763 7.79652 18.4114 9.87124 19.2529Z" fill="white"/>
<path d="M14.647 6.80259C17.5767 7.88047 19.6664 10.6962 19.6664 14C19.6664 15.8076 19.0411 17.4677 17.9962 18.7772C19.8086 19.9577 21.2516 21.6577 22.1135 23.6667H27.9998C28.5522 23.6667 28.9998 23.2189 28.9998 22.6667C28.9998 18.4295 26.0718 14.8761 22.1286 13.9199C24.2032 13.0783 25.6664 11.0434 25.6664 8.66667C25.6664 5.53705 23.1295 3 19.9998 3C17.5232 3 15.4178 4.58872 14.647 6.80259Z" fill="white"/>
</svg>
