<svg width="384" height="216" viewBox="0 0 384 216" fill="none" xmlns="http://www.w3.org/2000/svg">
<g clip-path="url(#clip0_246_8841)">
<rect width="384" height="216" rx="8" fill="#F5FBFF"/>
<path d="M117.072 74.163C118.51 73.3331 119.671 71.3219 119.666 69.67C119.661 68.0185 118.493 67.3522 117.055 68.1823C115.618 69.0122 114.457 71.0236 114.461 72.675C114.466 74.3269 115.635 74.9929 117.072 74.163Z" fill="#0A2222"/>
<path d="M124.903 69.6426C126.34 68.8127 127.501 66.8013 127.497 65.1496C127.492 63.498 126.323 62.8319 124.886 63.6617C123.448 64.4916 122.287 66.503 122.292 68.1546C122.296 69.8065 123.465 70.4725 124.903 69.6426Z" fill="#0A2222"/>
<path d="M132.74 65.117C134.177 64.2872 135.339 62.2757 135.334 60.6241C135.329 58.9724 134.16 58.3065 132.723 59.1364C131.286 59.9663 130.124 61.9775 130.129 63.6291C130.134 65.2808 131.303 65.9468 132.74 65.117Z" fill="#0A2222"/>
<path d="M171.025 42.0147L202.192 24.0204C203.279 23.3927 204.155 21.8768 204.151 20.6273C204.148 19.3782 203.267 18.8761 202.179 19.5038L171.013 37.4979C169.932 38.1215 169.05 39.6417 169.054 40.8909C169.057 42.1401 169.945 42.638 171.025 42.0147Z" fill="#0A2222"/>
<path d="M202.338 145.272V88.9305C203.126 88.1919 203.707 87.0401 203.704 86.0402C203.701 84.8082 202.829 84.3114 201.757 84.9303C200.684 85.5491 199.818 87.0492 199.822 88.2813C199.823 88.7598 199.958 89.1236 200.183 89.3578L177.407 126.666C177.088 126.586 176.699 126.651 176.275 126.895C175.671 127.244 175.154 127.88 174.799 128.584L165.698 124.874C165.789 124.562 165.844 124.249 165.843 123.952C165.839 122.72 164.968 122.224 163.896 122.843C162.824 123.462 161.957 124.962 161.961 126.194C161.962 126.663 162.091 127.023 162.307 127.258L145.165 160.395C144.909 160.4 144.625 160.477 144.321 160.652C143.723 160.998 143.209 161.624 142.854 162.319L134.036 157.911C134.27 157.405 134.435 156.878 134.434 156.385C134.431 155.153 133.559 154.656 132.487 155.275C131.415 155.894 130.548 157.394 130.552 158.626C130.553 158.946 130.615 159.214 130.721 159.428L118.295 177.174C117.991 177.123 117.629 177.196 117.239 177.421C116.167 178.04 115.301 179.541 115.305 180.772C115.307 181.763 115.876 182.267 116.654 182.108L116.676 194.274C116.691 197.376 118.991 198.759 121.745 197.165L197.716 153.303C200.308 151.791 202.338 148.275 202.338 145.272ZM197.311 152.605L121.34 196.467C119.162 197.727 117.495 196.789 117.483 194.273L117.46 181.714C118.429 181.029 119.19 179.678 119.187 178.531C119.186 178.159 119.098 177.864 118.957 177.637L131.338 159.954C131.663 160.047 132.063 159.989 132.499 159.736C132.932 159.487 133.311 159.073 133.633 158.612L142.534 163.062C142.44 163.38 142.386 163.7 142.387 164.003C142.39 165.235 143.262 165.732 144.334 165.113C145.406 164.494 146.272 162.994 146.269 161.762C146.267 161.291 146.138 160.93 145.92 160.695L163.06 127.56C163.317 127.556 163.603 127.48 163.908 127.303C164.513 126.955 165.03 126.319 165.384 125.616L174.485 129.327C174.395 129.638 174.34 129.95 174.341 130.246C174.344 131.478 175.216 131.974 176.288 131.356C177.36 130.737 178.226 129.236 178.223 128.005C178.222 127.671 178.153 127.397 178.038 127.179L200.947 89.6487C201.129 89.6421 201.325 89.5906 201.531 89.5009V145.299C201.531 147.969 199.637 151.247 197.311 152.605Z" fill="#0A2222"/>
<path d="M132.327 118.034C140.724 113.186 147.532 101.393 147.504 91.7448C147.477 81.9143 140.422 77.8447 131.826 82.8061C123.43 87.6545 116.623 99.4476 116.649 109.096C116.677 118.939 123.744 122.988 132.327 118.034ZM132.229 83.506C140.246 78.8791 146.671 82.4982 146.697 91.7479C146.712 96.6889 144.872 102.2 141.945 107.009C140.334 103.477 136.52 102.516 132.044 105.093C127.525 107.713 123.682 113.15 122.122 118.611C118.635 116.931 117.468 112.986 117.457 109.092C117.431 99.703 124.058 88.2251 132.229 83.506Z" fill="#1855F1"/>
<path d="M132.089 101.669C134.242 100.426 135.981 97.4133 135.974 94.9398C135.967 92.4661 134.217 91.4686 132.064 92.7115C129.911 93.9543 128.172 96.9666 128.179 99.4402C128.186 101.914 129.937 102.911 132.089 101.669Z" fill="#1855F1"/>
<path d="M157.653 81.3774L199.876 57.0055C201.474 56.0694 202.733 53.9067 202.733 52.0504C202.733 50.0731 201.196 49.1749 199.457 50.1783L157.234 74.5662C155.62 75.4861 154.377 77.6652 154.377 79.5051C154.377 81.5943 156.026 82.3537 157.653 81.3774Z" fill="#1855F1"/>
<path d="M157.653 97.0007L194.147 75.9215C195.744 75.0016 197.003 72.8227 197.003 70.9826C197.003 69.0153 195.513 68.0797 193.727 69.1103L157.234 90.1733C155.62 91.1094 154.377 93.2721 154.377 95.1283C154.377 97.1067 155.913 97.987 157.653 97.0007Z" fill="#1855F1"/>
<path d="M146.899 133.313L116.851 150.661C116.658 150.773 116.592 151.02 116.704 151.213C116.778 151.342 116.914 151.415 117.053 151.415C117.122 151.415 117.191 151.397 117.255 151.361L147.302 134.013C147.496 133.901 147.562 133.654 147.45 133.462C147.339 133.268 147.092 133.203 146.899 133.313Z" fill="#0A2222"/>
<path d="M282.321 159.819L266.729 150.813L266.665 115.046L272.136 111.882C272.378 111.761 272.43 111.391 272.169 111.205L261.564 103.731H261.548C261.548 103.731 261.548 103.731 261.532 103.715L256.803 100.971C256.706 100.907 256.593 100.891 256.48 100.923C256.383 100.955 256.287 101.036 256.238 101.117L245.715 120.792C245.602 120.985 245.682 121.211 245.86 121.324L250.605 124.084C250.765 124.164 250.962 124.131 251.009 124.084L251.348 123.89L251.38 148.601C251.348 148.617 251.299 148.634 251.267 148.666L243.584 153.121L243.552 134.237L249.024 131.073C249.271 130.95 249.313 130.579 249.056 130.395L238.452 122.938H238.435C238.435 122.922 238.435 122.922 238.419 122.922L233.916 120.291C233.884 120.211 233.803 120.162 233.707 120.114C233.513 120.017 233.271 120.114 233.158 120.275L233.125 120.324L222.602 139.982C222.505 140.176 222.57 140.418 222.747 140.531L227.493 143.275C227.599 143.328 227.808 143.363 227.896 143.275L228.251 143.081L228.283 162.014L220.472 166.565L220.439 153.427L225.911 150.28C226.208 150.094 226.162 149.742 225.943 149.586L215.339 142.129C215.339 142.129 215.339 142.129 215.323 142.129C215.323 142.129 215.323 142.113 215.307 142.113L210.739 139.45C210.69 139.369 210.61 139.321 210.529 139.288C210.523 135.43 210.569 164.741 210.336 13.9756C210.336 12.5713 209.932 11.4738 209.206 10.7314C209.19 10.7314 209.206 10.7152 209.19 10.6991C208.706 10.2152 209.142 10.5976 199.441 4.90461C198.343 4.25913 196.81 4.38819 195.26 5.27577C195.26 5.27577 195.26 5.27577 195.244 5.27577L104.601 57.6189C101.566 59.3781 99.1128 63.6391 99.1128 67.1255C99.1277 139.377 99.1286 88.1819 99.3388 202.01C99.3388 203.769 99.9521 205.108 101.082 205.77L110.201 211.064C110.201 211.08 110.217 211.08 110.217 211.08C110.234 211.08 110.234 211.096 110.234 211.096C111.539 211.836 113.097 211.469 114.398 210.725L201.184 160.626L204.38 162.466C204.542 162.628 204.62 162.489 204.783 162.482L205.138 162.272L205.17 175.459L189.418 184.61C187.983 185.434 186.916 186.616 186.916 188.29L186.883 195.279C186.883 196.699 187.787 198.007 189.466 198.943L208.77 210.096C211.944 211.937 217.137 211.977 220.374 210.16C220.423 210.144 220.455 210.128 220.488 210.112L282.337 174.135C283.935 173.247 284.855 171.924 284.855 170.536L284.887 163.515C284.887 163.499 284.887 163.483 284.887 163.483C284.887 163.466 284.887 163.466 284.887 163.45C284.871 162.062 283.967 160.771 282.321 159.819ZM271.184 111.495L266.051 114.465C265.938 114.529 265.858 114.675 265.858 114.82L265.938 162.24L256.964 167.421L256.884 120.453C256.884 120.307 256.819 120.178 256.69 120.098C256.674 120.098 256.674 120.098 256.674 120.098C256.561 120.033 256.4 120.033 256.27 120.098L251.832 122.664L261.468 104.668L271.184 111.495ZM248.071 130.702L242.955 133.656C242.826 133.736 242.745 133.865 242.745 134.011L242.826 175.588L233.851 180.769L233.771 139.644C233.771 139.355 233.457 139.139 233.157 139.288C232.994 139.383 228.442 142.032 228.719 141.871L238.371 123.859L248.071 130.702ZM224.974 149.893L219.842 152.846C219.713 152.927 219.632 153.056 219.632 153.201L219.713 188.936L210.739 194.117L210.723 182.996L210.674 158.85C210.674 158.524 210.337 158.357 210.061 158.495L205.606 161.062L215.258 143.049L224.974 149.893ZM101.486 205.076C100.614 204.576 100.146 203.478 100.146 202.01L99.9198 80.3442L108.264 85.1863C108.497 221.001 108.238 206.495 108.797 209.321L101.486 205.076ZM109.071 72.3871C109.071 69.3299 111.247 65.3212 114.139 63.6391L204.799 11.2961L204.896 11.2479C207.532 9.79782 209.528 11.0261 209.528 13.9757C209.528 14.1441 209.544 26.4214 209.544 26.2582L109.088 84.2502C109.087 84.0878 109.07 71.6443 109.071 72.4357L109.071 72.3871ZM113.994 210.015C111.304 211.595 109.297 210.334 109.297 207.336C109.044 59.8359 109.094 89.1125 109.088 85.1862L209.544 27.1945L209.722 140.128C208.802 141.693 206.397 146.213 199.489 159.19C199.392 159.367 199.457 159.609 199.651 159.722L200.377 160.158L113.994 210.015ZM281.949 166.388C199.176 214.471 225.371 199.254 220.1 202.316C217.126 204.046 212.199 204.041 209.189 202.316C207.214 201.175 216.34 206.447 189.886 191.163C187.096 189.56 186.912 187.001 189.821 185.304L205.17 176.379L205.203 192.051C205.203 192.196 205.283 192.325 205.396 192.406L210.126 195.166C210.19 195.198 210.271 195.214 210.335 195.214C210.4 195.214 210.48 195.198 210.529 195.166C210.545 195.166 210.545 195.166 210.545 195.166L220.31 189.517C220.439 189.436 220.52 189.307 220.52 189.162L220.471 167.485L228.283 162.95L228.315 178.719C228.315 178.864 228.396 178.994 228.509 179.074L233.238 181.818H233.254C233.319 181.85 233.384 181.866 233.448 181.866C233.513 181.866 233.593 181.85 233.658 181.818L243.423 176.169C243.552 176.104 243.632 175.959 243.632 175.83L243.584 154.057L251.396 149.521L251.412 165.371C251.412 165.516 251.493 165.645 251.622 165.726L256.351 168.454C256.351 168.47 256.351 168.47 256.367 168.47C256.415 168.502 256.496 168.519 256.561 168.519C256.625 168.519 256.706 168.502 256.77 168.47L266.535 162.837C266.664 162.756 266.745 162.627 266.745 162.482L266.729 151.749L281.917 160.513C284.789 162.183 284.802 164.71 281.949 166.388Z" fill="#0A2222"/>
<path d="M117.053 139.528C116.914 139.528 116.778 139.455 116.704 139.326C116.592 139.134 116.658 138.886 116.851 138.775L166.185 110.293C166.378 110.181 166.626 110.247 166.736 110.441C166.848 110.633 166.782 110.881 166.589 110.993L117.255 139.474C117.191 139.511 117.122 139.528 117.053 139.528Z" fill="#0A2222"/>
</g>
<defs>
<clipPath id="clip0_246_8841">
<rect width="384" height="216" rx="8" fill="white"/>
</clipPath>
</defs>
</svg>
