<svg width="32" height="32" viewBox="0 0 32 32" fill="none" xmlns="http://www.w3.org/2000/svg">
<path d="M21.3337 5.66797C25.135 5.66797 27.8259 6.39137 29.0642 6.81901C29.887 7.18308 30.3337 8.00405 30.3337 8.82552V23.3229C30.3337 24.2027 29.8527 24.9149 29.249 25.3412C28.7242 25.7116 28.0421 25.9157 27.3479 25.8295C26.091 25.5187 23.8879 25.1472 21.3337 25.1472C18.1993 25.1472 16.431 25.7379 13.8845 26.1028C11.5192 26.4419 8.79978 26.5091 4.36491 25.5677L3.45475 25.3659C2.39546 25.1211 1.66699 24.1728 1.66699 23.1055V8.3763C1.66699 6.84284 3.10405 5.76816 4.54721 6.08202L5.3623 6.2513C9.33215 7.03944 11.7037 6.92856 13.7582 6.62109C15.9386 6.29476 18.0851 5.66797 21.3337 5.66797ZM3.66699 23.1093C3.66699 23.2656 3.7725 23.3899 3.90527 23.4205L4.77506 23.6133C5.97163 23.8675 7.02855 24.0431 7.97689 24.1576C7.7521 21.7841 5.97206 19.864 3.66699 19.4271V23.1093ZM28.3337 20.0951C26.4907 20.4264 24.8513 21.646 24.3102 23.2943C25.6167 23.4248 26.8999 23.7109 27.6631 23.8516C27.8034 23.8524 27.9593 23.8069 28.0954 23.7109C28.273 23.5856 28.3337 23.4383 28.3337 23.3268V20.0951ZM16.0003 12.0013C13.7911 12.0013 12.0003 13.7921 12.0003 16.0013C12.0003 18.2104 13.7911 20.0013 16.0003 20.0013C18.2095 20.0013 20.0003 18.2104 20.0003 16.0013C20.0003 13.7921 18.2095 12.0013 16.0003 12.0013ZM24.697 7.87109C24.9326 9.99497 26.5379 11.9284 28.3337 12.4766V8.82942C28.3337 8.71284 28.2729 8.6593 28.2425 8.64713C27.5771 8.41732 26.3954 8.08257 24.697 7.87109ZM4.12273 8.04036C3.87067 7.98554 3.66703 8.17884 3.66699 8.38021V11.901C5.46942 11.5269 7.01522 10.1884 7.64095 8.65234C6.82819 8.55169 5.94661 8.41029 4.98079 8.21874L4.12273 8.04036Z" fill="white"/>
</svg>
