<svg width="384" height="216" viewBox="0 0 384 216" fill="none" xmlns="http://www.w3.org/2000/svg">
<g clip-path="url(#clip0_309_604)">
<rect width="384" height="216" rx="8" fill="#F5FBFF"/>
<path d="M268.201 146.765C268.201 145.516 267.4 144.364 265.944 143.532L205.108 108.176C202.932 106.912 199.699 106.608 197.01 107.264C198.898 105.279 200.227 102.366 200.211 99.8855L200.019 29.5107C200.003 27.8302 199.41 26.5658 198.338 25.9415C198.322 25.9255 198.306 25.9255 198.274 25.9255L193.744 23.2687C192.656 22.6445 191.248 22.7725 189.759 23.6368L187.167 25.1253C187.112 17.6455 187.174 13.5534 187.054 11.649C186.894 9.90435 186.206 8.57604 185.022 7.88772H185.006L180.012 4.9908C178.652 4.20654 176.827 4.36665 175.002 5.439L118.856 37.8654C118.824 37.8814 118.792 37.8973 118.776 37.9133C115.127 40.01 112.166 45.0836 112.118 49.309C112.087 49.4018 112.15 68.5169 112.15 68.4193L99.8261 75.5416C96.9451 77.2062 94.5923 81.2554 94.5923 84.5686L94.8002 154.943C94.8002 156.624 95.3926 157.888 96.4648 158.513L101.026 161.17C101.042 161.17 101.059 161.186 101.075 161.202C101.766 161.583 102.4 161.621 103.075 161.554C102.004 162.996 102.63 163.689 102.483 171.669C102.483 172.917 103.283 174.054 104.74 174.902L165.576 210.257C168.456 211.922 173.13 211.906 176.011 210.257L265.944 158.336C267.417 157.472 268.233 156.32 268.233 155.055L268.201 146.781V146.765ZM186.254 11.6968C186.378 12.622 186.285 11.7971 186.35 19.7154L117.944 59.2002C117.944 59.039 117.927 51.8464 117.928 52.302C117.928 51.9979 117.96 51.6778 117.992 51.3577C118.965 45.9765 121.902 42.7837 124.186 41.5145L158.949 21.444L180.412 9.05592C182.721 7.51512 185.874 7.85208 186.254 11.6968ZM186.526 87.6416C186.542 91.6269 183.725 96.4925 180.252 98.4931L124.026 130.952C120.594 132.976 118.12 131.204 118.12 127.591L118.024 90.0423L117.944 60.1286L186.35 20.6438L186.526 87.6416ZM112.918 49.4531C112.886 45.4838 115.671 40.6502 119.112 38.6336C119.128 38.6336 119.16 38.6176 119.193 38.6016L175.403 6.12705C176.987 5.21472 178.508 5.0547 179.612 5.67885L182.637 7.43952C182.621 7.43952 182.605 7.45554 182.589 7.45554C181.773 7.55157 180.893 7.83966 180.012 8.35185L157.061 21.6041L123.786 40.8103C120.473 42.7309 117.752 47.0842 117.224 51.0376C117.16 51.4857 117.112 51.9339 117.112 52.382L117.128 59.2002L112.918 56.7355C112.918 56.5711 112.884 49.1181 112.886 49.5811C112.902 49.5492 112.918 49.5011 112.918 49.4531ZM117.816 130.231L114.807 128.487C113.718 127.863 113.111 126.486 113.111 124.678L112.918 57.6638L117.144 60.1286L117.224 90.4745L117.304 127.591C117.33 128.434 117.443 129.424 117.816 130.231ZM114.407 129.175L119.352 132.056C119.368 132.072 119.384 132.088 119.416 132.104C120.98 133.016 122.854 132.557 124.426 131.656L180.652 99.1972C184.35 97.0526 187.343 91.8828 187.327 87.6415L187.199 38.0893L193.376 34.5202L193.569 96.4763C193.569 97.4206 192.496 99.2612 191.664 99.7414L106.036 149.182L105.844 87.2413C105.844 86.265 106.9 84.4565 107.765 83.9763L112.182 81.4155L112.31 124.693C112.31 126.774 113.078 128.423 114.407 129.175ZM100.21 157.616L100.146 136.201L100.002 87.2575C100.002 86.7453 100.082 86.201 100.194 85.6729C100.771 83 102.611 80.199 104.836 78.9187L111.382 75.1255L112.166 74.6773L112.182 80.4871L107.364 83.2721C106.26 83.9122 105.044 85.9929 105.044 87.2413L105.236 149.87C105.236 150.182 105.6 150.374 105.828 150.222L192.08 100.446C193.169 99.8054 194.369 97.7248 194.369 96.4764L194.177 33.832C194.177 33.5441 193.854 33.3259 193.585 33.4799L187.199 37.1771L187.183 31.3673L194.753 26.9978C197.162 25.6034 199.184 26.5187 199.219 29.5266L199.411 99.8854C199.427 102.91 197.298 106.608 194.673 108.176L189.584 111.105C189.007 110.145 188.223 109.297 187.359 108.8C187.231 108.72 187.071 108.72 186.942 108.8L113.991 151.198C113.914 151.236 113.783 151.387 113.783 151.534V154.88L104.74 160.097C104.708 160.113 104.692 160.129 104.66 160.145C102.08 161.639 100.21 160.389 100.21 157.616ZM114.983 151.614C114.967 151.598 114.951 151.582 114.935 151.566L187.151 109.601C188.575 110.545 189.759 112.61 189.855 114.306L117.656 156.272C117.656 156.256 117.64 156.24 117.64 156.224C117.474 154.894 116.506 152.817 114.983 151.614ZM167.96 210.337C167.24 210.161 166.568 209.905 165.992 209.569L105.14 174.214C103.956 173.509 103.283 172.613 103.283 171.669L103.251 165.411C103.589 165.706 103.875 166.095 104.708 166.595C104.708 166.595 104.708 166.595 104.724 166.595L117.896 174.262L165.544 201.951C165.767 202.079 166.008 202.175 166.248 202.287C166.776 202.527 167.352 202.735 167.96 202.879V210.337ZM165.96 201.263L105.124 165.907C102.723 164.489 102.566 162.336 105.06 160.833C105.076 160.817 105.108 160.801 105.14 160.785L114.151 155.584L117.096 157.28C117.2 157.358 117.371 157.374 117.496 157.28L190.464 114.882C190.592 114.802 190.672 114.674 190.672 114.53C190.672 113.666 190.4 112.706 189.967 111.809L195.073 108.864C197.746 107.328 202.067 107.328 204.708 108.864L265.544 144.22C266.744 144.908 267.4 145.82 267.4 146.749C267.4 146.765 267.4 146.765 267.4 146.765C267.4 147.873 266.451 148.779 265.496 149.342L175.579 201.262C172.707 202.923 168.293 202.645 165.96 201.263ZM265.544 157.632C265.544 157.632 265.544 157.632 265.544 157.648L175.611 209.553C174.907 209.969 174.106 210.258 173.242 210.45V202.943C174.234 202.735 175.179 202.415 175.979 201.951L265.912 150.03C266.617 149.613 267.259 149.003 267.4 148.813L267.433 155.055C267.433 156.016 266.76 156.928 265.544 157.632Z" fill="#0A2222"/>
<path d="M194.861 119.512L201.46 123.322C202.063 123.67 203.043 123.675 203.641 123.327L210.207 119.512C210.805 119.164 210.793 118.596 210.191 118.249L203.591 114.438C202.989 114.09 202.009 114.085 201.41 114.433L194.845 118.249C194.246 118.596 194.258 119.164 194.861 119.512Z" fill="#0A2222"/>
<path d="M206.317 126.169L212.916 129.979C213.519 130.327 214.499 130.332 215.097 129.984L221.663 126.169C222.261 125.821 222.249 125.254 221.647 124.906L215.047 121.095C214.445 120.748 213.465 120.743 212.866 121.09L206.301 124.906C205.702 125.254 205.714 125.821 206.317 126.169Z" fill="#0A2222"/>
<path d="M183.478 126.083L190.078 129.893C190.68 130.241 191.66 130.246 192.259 129.898L198.824 126.083C199.423 125.735 199.411 125.168 198.808 124.82L192.209 121.01C191.606 120.662 190.626 120.657 190.028 121.004L183.462 124.82C182.864 125.168 182.876 125.735 183.478 126.083Z" fill="#0A2222"/>
<path d="M172.096 132.655L178.696 136.466C179.298 136.814 180.278 136.819 180.877 136.471L187.442 132.655C188.041 132.308 188.029 131.74 187.426 131.392L180.827 127.582C180.224 127.234 179.244 127.229 178.646 127.577L172.08 131.392C171.482 131.74 171.494 132.308 172.096 132.655Z" fill="#0A2222"/>
<path d="M160.714 139.227L167.313 143.037C167.916 143.385 168.896 143.39 169.494 143.042L176.06 139.227C176.658 138.879 176.646 138.311 176.044 137.963L169.444 134.153C168.842 133.805 167.862 133.8 167.263 134.148L160.698 137.963C160.099 138.311 160.111 138.879 160.714 139.227Z" fill="#0A2222"/>
<path d="M149.331 145.799L155.931 149.609C156.533 149.957 157.514 149.962 158.112 149.614L164.677 145.799C165.276 145.451 165.264 144.883 164.661 144.536L158.062 140.725C157.459 140.378 156.479 140.372 155.881 140.72L149.315 144.536C148.717 144.883 148.729 145.451 149.331 145.799Z" fill="#0A2222"/>
<path d="M137.949 152.37L144.549 156.181C145.151 156.528 146.131 156.533 146.73 156.186L153.295 152.37C153.893 152.022 153.882 151.455 153.279 151.107L146.68 147.297C146.077 146.949 145.097 146.944 144.498 147.292L137.933 151.107C137.335 151.455 137.347 152.022 137.949 152.37Z" fill="#0A2222"/>
<path d="M126.567 158.943L133.166 162.753C133.769 163.101 134.749 163.106 135.347 162.758L141.913 158.942C142.511 158.595 142.499 158.027 141.897 157.679L135.297 153.869C134.695 153.521 133.715 153.516 133.116 153.864L126.551 157.679C125.952 158.027 125.964 158.595 126.567 158.943Z" fill="#0A2222"/>
<path d="M130.514 164.25L123.915 160.44C123.312 160.092 122.332 160.087 121.734 160.435L115.168 164.251C114.57 164.598 114.582 165.166 115.184 165.514L121.784 169.324C122.386 169.672 123.366 169.677 123.965 169.329L130.53 165.514C131.129 165.166 131.117 164.598 130.514 164.25Z" fill="#0A2222"/>
<path d="M203.715 136.556L210.28 132.74C210.879 132.393 210.867 131.825 210.265 131.477L203.665 127.667C203.063 127.319 202.082 127.314 201.484 127.662L194.919 131.477C194.32 131.825 194.332 132.393 194.934 132.74L201.534 136.551C202.136 136.898 203.117 136.904 203.715 136.556Z" fill="#0A2222"/>
<path d="M192.333 143.128L198.898 139.313C199.497 138.965 199.485 138.397 198.882 138.049L192.283 134.239C191.68 133.891 190.7 133.886 190.102 134.234L183.536 138.049C182.938 138.397 182.95 138.965 183.552 139.313L190.152 143.123C190.754 143.471 191.734 143.476 192.333 143.128Z" fill="#0A2222"/>
<path d="M180.95 149.699L187.515 145.884C188.114 145.536 188.102 144.968 187.499 144.621L180.9 140.81C180.297 140.463 179.317 140.457 178.719 140.805L172.153 144.621C171.555 144.968 171.567 145.536 172.169 145.884L178.769 149.694C179.371 150.042 180.351 150.047 180.95 149.699Z" fill="#0A2222"/>
<path d="M169.567 156.272L176.133 152.456C176.731 152.108 176.719 151.541 176.117 151.193L169.517 147.383C168.915 147.035 167.935 147.03 167.337 147.377L160.771 151.193C160.173 151.541 160.185 152.108 160.787 152.456L167.387 156.267C167.989 156.614 168.969 156.619 169.567 156.272Z" fill="#0A2222"/>
<path d="M158.185 162.843L164.751 159.027C165.349 158.68 165.337 158.112 164.735 157.764L158.135 153.954C157.533 153.606 156.553 153.601 155.954 153.949L149.389 157.764C148.79 158.112 148.802 158.68 149.405 159.028L156.004 162.838C156.607 163.186 157.587 163.191 158.185 162.843Z" fill="#0A2222"/>
<path d="M146.753 160.526C146.15 160.178 145.17 160.173 144.572 160.521L138.006 164.336C137.408 164.684 137.42 165.252 138.022 165.6L144.622 169.41C145.224 169.758 146.204 169.763 146.803 169.415L153.368 165.6C153.967 165.252 153.955 164.684 153.352 164.336L146.753 160.526Z" fill="#0A2222"/>
<path d="M141.97 170.909L135.37 167.098C134.768 166.751 133.788 166.745 133.189 167.093L126.624 170.909C126.026 171.256 126.038 171.824 126.64 172.172L133.239 175.982C133.842 176.33 134.822 176.335 135.42 175.987L141.986 172.172C142.584 171.824 142.572 171.256 141.97 170.909Z" fill="#0A2222"/>
<path d="M217.772 132.826L224.372 136.637C224.974 136.984 225.954 136.99 226.553 136.642L233.118 132.826C233.717 132.478 233.705 131.911 233.102 131.563L226.503 127.753C225.9 127.405 224.92 127.4 224.322 127.748L217.756 131.563C217.158 131.911 217.17 132.479 217.772 132.826Z" fill="#0A2222"/>
<path d="M206.39 139.399L212.99 143.209C213.592 143.557 214.572 143.562 215.17 143.214L221.736 139.399C222.334 139.051 222.322 138.483 221.72 138.135L215.12 134.325C214.518 133.977 213.538 133.972 212.94 134.32L206.374 138.135C205.776 138.483 205.788 139.051 206.39 139.399Z" fill="#0A2222"/>
<path d="M210.337 144.707L203.738 140.896C203.135 140.548 202.155 140.543 201.557 140.891L160.844 164.422C160.246 164.77 160.258 165.338 160.86 165.685L167.46 169.496C168.062 169.843 169.042 169.848 169.641 169.501L210.353 145.97C210.952 145.622 210.94 145.054 210.337 144.707Z" fill="#0A2222"/>
<path d="M164.808 170.994L158.208 167.183C157.606 166.836 156.626 166.83 156.027 167.178L149.462 170.994C148.863 171.341 148.875 171.909 149.478 172.257L156.077 176.067C156.68 176.415 157.66 176.42 158.258 176.072L164.824 172.257C165.422 171.909 165.41 171.341 164.808 170.994Z" fill="#0A2222"/>
<path d="M153.425 177.566L146.826 173.756C146.224 173.408 145.243 173.403 144.645 173.75L138.08 177.566C137.481 177.914 137.493 178.481 138.095 178.829L144.695 182.64C145.297 182.987 146.278 182.992 146.876 182.645L153.441 178.829C154.04 178.481 154.028 177.914 153.425 177.566Z" fill="#0A2222"/>
<path d="M230.409 161.748L213.333 151.824C212.039 151.073 209.925 151.073 208.623 151.824L182.769 166.751C181.467 167.503 181.46 168.728 182.753 169.479L199.83 179.403C201.135 180.161 203.249 180.161 204.551 179.41L230.405 164.483C231.707 163.731 231.714 162.507 230.409 161.748Z" fill="#0A2222"/>
<path d="M106.308 169.236C106.067 169.098 105.716 169.246 105.716 169.588V172.933C105.716 172.949 105.716 172.949 105.716 172.949C105.716 173.093 105.796 173.221 105.908 173.301C110.345 175.621 112.358 177.555 112.358 176.326V172.965C112.358 172.821 112.278 172.693 112.166 172.613C112.006 172.52 105.921 169.013 106.308 169.236ZM111.558 175.638L106.9 172.949L109.013 171.732L111.558 173.189V175.638H111.558Z" fill="#0A2222"/>
<path d="M114.695 174.086C114.47 173.925 114.103 174.102 114.103 174.422V177.799C114.103 177.943 114.182 178.071 114.295 178.135L120.152 181.512C120.315 181.674 120.745 181.528 120.745 181.176V177.815C120.745 177.671 120.665 177.527 120.552 177.463C120.392 177.37 114.308 173.862 114.695 174.086ZM119.945 180.488L115.287 177.783L116.904 176.87L117.416 176.566L119.945 178.039V180.488Z" fill="#0A2222"/>
<path d="M139.847 36.4897C138.324 37.3691 137.084 39.5088 137.089 41.2667C137.094 43.0246 138.342 43.728 139.865 42.8487C141.395 41.9654 142.628 39.8296 142.623 38.0717C142.618 36.3138 141.377 35.6064 139.847 36.4897Z" fill="#0A2222"/>
<path d="M131.691 41.23C130.167 42.1093 128.928 44.249 128.933 46.0069C128.938 47.7647 130.185 48.4682 131.708 47.5888C133.238 46.7056 134.472 44.5697 134.466 42.8119C134.462 41.054 133.22 40.3466 131.691 41.23Z" fill="#0A2222"/>
<path d="M123.534 45.9702C122.011 46.8495 120.771 48.9892 120.776 50.7471C120.781 52.505 122.029 53.2084 123.552 52.3291C125.082 51.4458 126.315 49.31 126.31 47.5521C126.305 45.7943 125.064 45.0869 123.534 45.9702Z" fill="#0A2222"/>
<path d="M179.818 42.7078L179.819 42.707L156.459 56.138C154.878 57.0516 153.642 59.1913 153.647 61.0083C153.652 62.9704 155.157 63.836 156.876 62.8417L180.236 49.4108C181.818 48.4972 183.053 46.3621 183.048 44.5514C183.043 42.5759 181.534 41.7137 179.818 42.7078ZM179.836 48.7176L156.477 62.1485C155.286 62.8319 154.451 62.3467 154.448 61.0068C154.443 59.4751 155.525 57.6018 156.859 56.8313L180.218 43.4011C180.219 43.4011 180.219 43.4011 180.219 43.4003C183.125 41.7256 182.811 46.9982 179.836 48.7176Z" fill="#0A2222"/>
<path d="M135.95 56.7035C128.972 60.7208 123.322 70.516 123.354 78.5346C123.387 86.7092 129.282 90.1421 136.43 85.9771C143.392 81.9597 149.042 72.1646 149.026 64.162C148.993 55.966 143.104 52.5632 135.95 56.7035ZM136.366 64.7061C139.529 62.8698 141.856 64.3906 141.856 67.8431C141.872 71.5564 139.247 76.1018 135.998 77.9744C133 79.7153 130.542 78.501 130.508 74.8534C130.508 71.1242 133.133 66.5786 136.366 64.7061ZM136.03 85.2888C129.289 89.1456 124.154 85.9881 124.154 78.5186C124.122 70.9961 129.276 61.8572 135.742 57.7599C135.742 57.92 135.759 64.5513 135.758 64.1299C132.397 66.1945 129.708 70.9482 129.708 74.8534C129.742 79.1414 132.899 80.7011 136.398 78.6786C139.791 76.7099 142.56 72.0045 142.656 68.0672L148.21 64.8662C147.922 72.4687 142.576 81.5115 136.03 85.2888Z" fill="#1855F1"/>
<path d="M135.15 95.564C135.021 95.4839 134.861 95.4839 134.749 95.564L127.275 99.8694C127.147 99.9494 127.067 100.077 127.067 100.221L127.147 124.293C127.147 124.615 127.461 124.785 127.739 124.645L135.214 120.324C135.341 120.26 135.422 120.116 135.406 119.972L135.341 95.9C135.341 95.756 135.261 95.6279 135.15 95.564Z" fill="#0A2222"/>
<path d="M149.152 94.7014C149.027 94.6311 148.875 94.6303 148.752 94.7022L141.277 99.0177C141.153 99.0888 141.076 99.2216 141.077 99.3646L141.126 116.222C141.127 116.535 141.465 116.719 141.726 116.567L149.199 112.252C149.324 112.181 149.4 112.048 149.399 111.904C149.399 111.78 149.352 95.3938 149.352 95.0476C149.352 94.9046 149.275 94.7725 149.152 94.7014ZM141.924 115.529L141.878 99.5944L148.553 95.74C148.588 108.021 148.583 111.003 148.623 111.661L141.924 115.529Z" fill="#0A2222"/>
<path d="M163.111 79.4145C162.999 79.3345 162.838 79.3345 162.711 79.4145L155.236 83.7199C155.124 83.7999 155.044 83.928 155.044 84.0721L155.108 108.144C155.108 108.429 155.417 108.646 155.716 108.496L163.191 104.175C163.303 104.11 163.383 103.966 163.383 103.822L163.319 79.7506C163.319 79.6226 163.239 79.4785 163.111 79.4145Z" fill="#0A2222"/>
<path d="M177.068 59.5519C176.944 59.4817 176.792 59.4808 176.668 59.5528L169.195 63.8674C169.07 63.9385 168.994 64.0714 168.995 64.2144L169.096 100.072C169.097 100.215 169.173 100.347 169.297 100.418C169.359 100.454 169.428 100.472 169.496 100.472C169.565 100.472 169.635 100.454 169.696 100.418L177.17 96.1021C177.294 96.031 177.371 95.8982 177.37 95.7552L177.268 59.8982C177.268 59.7552 177.192 59.623 177.068 59.5519ZM169.895 99.3797L169.796 64.4442L176.47 60.5905L176.569 95.5254L169.895 99.3797Z" fill="#0A2222"/>
<path d="M289.2 67.6987C287.49 66.7117 224.105 30.1167 219.673 27.5577C219.417 27.4136 219.081 27.5896 219.081 27.9098C219.049 34.712 218.905 85.1923 218.889 91.6265C218.889 91.7546 218.969 91.8986 219.097 91.9627C220.297 92.6509 221.674 93.4512 223.194 94.3154L223.178 101.086C223.178 101.23 223.258 101.358 223.37 101.438L234.43 107.808C234.494 107.856 234.558 107.872 234.622 107.872C234.702 107.872 234.766 107.856 234.83 107.808L240.672 104.415C241.92 105.151 243.201 105.887 244.497 106.623L244.481 113.378C244.481 113.522 244.545 113.666 244.673 113.73L255.733 120.116C255.797 120.148 255.861 120.164 255.925 120.164C256.005 120.164 256.069 120.148 256.133 120.116L261.975 116.723V116.707C263.255 117.459 264.536 118.195 265.8 118.915L265.784 125.686C265.784 125.83 265.848 125.958 265.976 126.022L277.036 132.408C277.084 132.44 277.164 132.456 277.228 132.456C277.292 132.456 277.372 132.44 277.436 132.408L283.262 129.015C285.262 130.183 287.071 131.223 288.623 132.104C288.879 132.264 289.232 132.072 289.232 131.768C289.279 114.69 289.375 79.0943 289.407 68.0508C289.408 67.9068 289.328 67.7787 289.2 67.6987ZM243.056 41.9783L253.844 48.2043C253.844 48.4124 253.812 57.2473 253.812 57.9034L243.024 51.6774C243.024 51.4854 243.056 42.6025 243.056 41.9783ZM243.024 52.6058C243.281 52.7499 253.316 58.5437 253.812 58.8318L253.78 68.5149C253.524 68.3709 243.489 62.577 242.992 62.2889L243.024 52.6058ZM242.992 63.2172L253.78 69.4432C253.78 69.6353 253.748 77.83 253.748 79.0143L250.995 77.4298C250.915 77.3818 250.819 77.3818 250.723 77.3978L242.96 72.9163C242.96 72.7084 242.992 63.8415 242.992 63.2172ZM219.865 28.598L230.668 34.824L230.636 44.5231C230.428 44.4111 220.473 38.6653 219.849 38.2971L219.865 28.598ZM219.849 39.2255C220.041 39.3375 230.012 45.0833 230.636 45.4515C230.636 45.6436 230.604 54.4784 230.604 55.1346L219.817 48.9086L219.849 39.2255ZM223.194 93.403L219.689 91.3864L219.721 81.6873C219.801 81.7353 221.322 82.6156 223.21 83.7039C223.199 88.014 223.194 89.5925 223.194 93.403ZM223.21 82.7916C221.433 81.7673 219.945 80.903 219.721 80.7751L219.753 71.0758L223.242 73.0764C223.226 77.2058 223.226 80.3749 223.21 82.7916ZM223.242 72.1482L219.753 70.1476L219.785 60.4485L223.258 62.4491C223.243 69.5962 223.242 67.8772 223.242 72.1482ZM223.45 60.8485C223.338 60.9125 223.258 61.0406 223.258 61.1846V61.5367L219.785 59.5361L219.817 49.837L230.604 56.063V57.9676L229.692 57.4554C229.564 57.3753 229.42 57.3753 229.292 57.4554L223.466 60.8485C223.45 60.8485 223.45 60.8485 223.45 60.8485ZM234.222 106.768L223.978 100.862C224.103 57.9987 224.058 62.1638 224.058 61.8729L234.302 67.7948C234.294 71.7796 234.331 53.3591 234.222 106.768ZM240.064 103.838L235.022 106.767C235.132 53.359 235.094 71.7796 235.102 67.7946C235.264 67.7005 240.474 64.6737 240.144 64.8658L240.064 103.838ZM242.08 104.303L240.864 103.598L240.88 93.9313L242.096 94.6195C242.096 94.7955 242.064 103.678 242.08 104.303ZM242.096 93.6911C242.048 93.6592 241.584 93.387 240.896 92.9869L240.912 83.2878C241.552 83.656 242 83.928 242.128 83.992L242.096 93.6911ZM242.128 83.0638L240.912 82.3595L240.928 72.6604L242.16 73.3646C242.16 73.5727 242.128 82.4075 242.128 83.0638ZM242.16 72.4523L240.928 71.7481L240.944 64.1775C240.944 64.0335 240.864 63.9055 240.752 63.8254C240.476 63.6666 239.634 63.1807 231.405 58.4317V56.5271C231.613 56.6391 241.568 62.3849 242.192 62.7531C242.192 62.9452 242.16 71.796 242.16 72.4523ZM242.192 61.8248C241.984 61.7128 232.029 55.967 231.405 55.5988C231.405 55.4068 231.437 46.5399 231.437 45.9157L242.224 52.1417L242.192 61.8248ZM242.224 51.2134L231.437 44.9874L231.469 35.2882L242.256 41.5143C242.256 41.7223 242.224 50.5572 242.224 51.2134ZM244.497 105.711L242.864 104.767L242.88 102.398L242.896 95.0677L244.513 95.9959L244.497 105.711ZM244.529 95.0836L242.897 94.1554L242.929 84.4562C243.008 84.5042 243.649 84.8883 244.545 85.4005L244.529 95.0836ZM244.689 80.887C244.657 80.9191 244.625 80.9351 244.609 80.9671C244.609 80.983 244.609 80.9991 244.593 80.9991C244.577 81.0631 244.561 81.1111 244.561 81.1592L244.545 84.4562C243.697 83.9601 243.072 83.6079 242.928 83.5279C242.928 83.3358 242.96 74.4529 242.96 73.8288L249.891 77.8301L244.753 80.823C244.737 80.839 244.721 80.8711 244.689 80.887ZM255.525 119.075L245.281 113.154L245.361 81.8634C245.521 81.956 256.291 88.1819 255.605 87.7852L255.525 119.075ZM261.366 116.146L256.325 119.075L256.405 87.7852L261.447 84.8563L261.366 116.146ZM265.256 117.699L262.167 115.922L262.199 106.207C263.783 107.136 265.064 107.872 265.272 108L265.256 117.699ZM265.288 107.072L262.199 105.279L262.215 95.5958L265.304 97.3725C265.304 97.5484 265.272 106.447 265.288 107.072ZM265.304 96.444L262.215 94.6674L262.247 84.9523C263.847 85.8806 265.112 86.6169 265.336 86.7448C265.336 86.953 265.304 95.7878 265.304 96.444ZM265.336 85.8326C265.256 85.7845 263.927 85.0163 262.215 84.024C262.215 84.024 262.215 84.0241 262.215 84.008C262.199 83.992 262.199 83.9761 262.199 83.9601C262.167 83.896 262.119 83.848 262.055 83.816L254.548 79.4785C254.548 78.3901 254.58 70.4996 254.58 69.9075L265.368 76.1335L265.336 85.8326ZM265.368 75.2051L254.58 68.9791L254.612 59.296C254.82 59.4081 264.904 65.2339 265.4 65.522C265.4 65.7141 265.368 74.5489 265.368 75.2051ZM265.4 64.5937C265.192 64.4816 255.108 58.6558 254.612 58.3678C254.612 58.1756 254.644 49.2927 254.644 48.6685L265.432 54.8946L265.4 64.5937ZM266.232 55.3587L277.02 61.6006L276.987 71.2837C276.731 71.1397 266.696 65.3459 266.2 65.0578L266.232 55.3587ZM266.2 65.9862L276.987 72.2122C276.987 72.4042 276.956 81.2552 276.956 81.9113L266.168 75.6694C266.168 75.4772 266.2 66.6103 266.2 65.9862ZM266.168 76.5976C266.424 76.7417 276.635 82.6316 276.956 82.8236L276.94 92.5228C276.683 92.3788 266.472 86.4888 266.136 86.2967L266.168 76.5976ZM266.136 87.2091L276.924 93.4511C276.924 93.5471 276.924 95.2437 276.908 97.2283L272.298 94.5715C272.17 94.4914 272.026 94.4914 271.898 94.5715L266.984 97.4204L266.104 96.9082C266.104 96.7161 266.136 87.8333 266.136 87.2091ZM266.104 97.9326V97.8365L266.184 97.8845L266.104 97.9326ZM276.828 131.367L266.584 125.446L266.664 99.0049L276.907 104.911C276.798 141.167 276.836 128.662 276.828 131.367ZM282.669 128.438L277.628 131.367C277.636 128.662 277.598 141.167 277.708 104.911L282.749 101.998L282.669 128.438ZM288.431 131.079L283.47 128.198L283.502 118.515L288.447 121.38L288.431 131.079ZM288.463 120.452L283.502 117.587L283.534 107.888C285.902 109.264 288.191 110.577 288.479 110.753L288.463 120.452ZM288.495 109.824C288.383 109.76 286.031 108.4 283.534 106.976L283.55 101.294C283.55 101.246 283.534 101.214 283.518 101.182C283.518 101.15 283.518 101.118 283.502 101.102C283.47 101.038 283.406 100.99 283.358 100.942L277.708 97.6925C277.724 95.836 277.724 94.1715 277.724 93.8993L288.511 100.141L288.495 109.824ZM288.511 99.213L277.74 92.987L277.756 83.2879C277.98 83.4159 287.919 89.1459 288.543 89.5139L288.511 99.213ZM288.543 88.5854C288.335 88.4735 278.38 82.7276 277.756 82.3595C277.756 82.1674 277.788 73.3005 277.788 72.6763L288.575 78.9023L288.543 88.5854ZM288.575 77.9741L277.788 71.7481L277.82 62.0489L288.607 68.2749L288.575 77.9741Z" fill="#0A2222"/>
<path d="M286.034 72.107C286.098 72.1437 286.166 72.1609 286.234 72.1609C286.372 72.1609 286.507 72.089 286.581 71.9608C286.692 71.7694 286.626 71.5248 286.435 71.4145L280.394 67.9275C280.204 67.8173 279.958 67.8829 279.848 68.0736C279.737 68.2651 279.803 68.5097 279.994 68.6199L286.034 72.107Z" fill="#0A2222"/>
<path d="M262.841 69.5602C262.905 69.597 262.974 69.6142 263.042 69.6142C263.179 69.6142 263.314 69.5423 263.388 69.4141C263.499 69.2227 263.433 68.978 263.242 68.8678L257.201 65.3799C257.011 65.2713 256.765 65.3354 256.655 65.5261C256.544 65.7175 256.61 65.9621 256.801 66.0724L262.841 69.5602Z" fill="#0A2222"/>
<path d="M222.435 34.4737C222.245 34.365 221.999 34.4291 221.889 34.6198C221.778 34.8113 221.844 35.0559 222.035 35.1661L228.075 38.6532C228.139 38.6899 228.207 38.7071 228.275 38.7071C228.413 38.7071 228.548 38.6352 228.622 38.507C228.733 38.3156 228.667 38.071 228.476 37.9607L222.435 34.4737Z" fill="#0A2222"/>
</g>
<defs>
<clipPath id="clip0_309_604">
<rect width="384" height="216" rx="8" fill="white"/>
</clipPath>
</defs>
</svg>
