<svg width="20" height="20" viewBox="0 0 20 20" fill="none" xmlns="http://www.w3.org/2000/svg">
<path d="M9.99995 17.9365C5.61677 17.9365 2.06348 14.3832 2.06348 9.99996C2.06348 5.61677 5.61677 2.06348 9.99995 2.06348C14.3832 2.06348 17.9365 5.61677 17.9365 9.99996C17.9365 14.3832 14.3832 17.9365 9.99995 17.9365ZM9.99995 16.3492C13.5066 16.3492 16.3492 13.5065 16.3492 9.99996C16.3492 6.49341 13.5066 3.65077 9.99995 3.65077C6.49342 3.65077 3.65078 6.49341 3.65078 9.99996C3.65078 13.5065 6.49342 16.3492 9.99995 16.3492ZM10.7937 9.99996H13.9682V11.5873H9.20633V6.03172H10.7937V9.99996Z" fill="#71717B"/>
</svg>
