<svg width="48" height="48" viewBox="0 0 48 48" fill="none" xmlns="http://www.w3.org/2000/svg">
<path d="M33.443 26.6113C34.0046 26.3865 34.8706 25.9177 35.1704 25.7543C35.6946 25.4063 36.358 25.4311 36.8476 25.7659C37.1474 25.9295 37.9952 26.3865 38.5568 26.6113C39.6874 27.0635 41.2442 27.5039 42.9998 27.5039C43.8282 27.5039 44.4998 28.1755 44.4998 29.0039V34.0039C44.4998 38.0857 42.431 40.7335 40.4266 42.3085C39.4336 43.0887 38.4476 43.6159 37.7118 43.9487C37.4158 44.0827 36.9048 44.2695 36.5974 44.3799C36.4114 44.4609 36.2082 44.5045 35.9998 44.5043C35.8446 44.5045 35.691 44.4799 35.5464 44.4341C35.3214 44.3537 34.6578 44.1161 34.288 43.9487C33.5522 43.6159 32.5662 43.0887 31.5732 42.3085C29.5688 40.7335 27.5 38.0857 27.5 34.0039V29.0039C27.5 28.1755 28.1716 27.5039 29 27.5039C30.7556 27.5039 32.3124 27.0635 33.443 26.6113Z" fill="#1855F1"/>
<path d="M26.708 40.5C25.698 38.7708 25 36.621 25 34.0042V29.0042C25 27.5868 25.737 26.3418 26.8488 25.6312C25.517 24.8476 24.0578 24.2574 22.5098 23.899C26.5828 22.4548 29.5 18.5681 29.5 14C29.5 8.20102 24.799 3.5 19 3.5C13.201 3.5 8.5 8.20102 8.5 14C8.5 18.5681 11.4171 22.4548 15.4902 23.899C8.62044 25.4894 3.5 31.6468 3.5 39C3.5 39.8284 4.17158 40.5 5 40.5H26.708Z" fill="#1855F1"/>
</svg>
