<svg width="1200" height="450" viewBox="0 0 1200 450" fill="none" xmlns="http://www.w3.org/2000/svg">
<g clip-path="url(#clip0_230_1255)">
<rect width="1200" height="450" rx="8" fill="white"/>
<path d="M698.543 221.02C698.679 221.02 698.816 220.986 698.942 220.914L716.163 210.971C716.545 210.749 716.676 210.26 716.454 209.879C716.234 209.495 715.743 209.364 715.364 209.586L698.144 219.529C697.761 219.75 697.63 220.24 697.852 220.621C697.999 220.877 698.268 221.02 698.543 221.02Z" fill="black"/>
<path d="M781.479 202.326L764.259 212.266C763.877 212.487 763.746 212.977 763.967 213.358C764.183 213.734 764.668 213.872 765.057 213.651L782.278 203.711C782.66 203.489 782.791 202.999 782.57 202.619C782.35 202.235 781.86 202.107 781.479 202.326Z" fill="black"/>
<path d="M864.168 125.548L881.387 115.605C881.769 115.383 881.9 114.893 881.678 114.513C881.459 114.129 880.969 113.998 880.588 114.22L863.369 124.163C862.987 124.384 862.856 124.874 863.077 125.255C863.293 125.631 863.778 125.769 864.168 125.548Z" fill="black"/>
<path d="M937.429 265.692L937.014 113.268C937.014 113.236 936.982 113.204 936.982 113.173C936.982 113.109 936.95 113.045 936.918 112.981C936.886 112.853 936.823 112.757 936.695 112.693C936.663 112.661 936.663 112.629 936.631 112.597L922.766 104.515L922.67 76.1449C922.67 75.8572 922.542 75.6019 922.287 75.442C922.031 75.3143 921.743 75.3143 921.488 75.442L888.454 94.515L855.419 113.588C796.982 147.328 748.549 175.292 690.249 208.952C689.994 209.112 689.833 209.368 689.833 209.655L689.93 239.91C689.955 249.478 689.835 205.249 690.185 333.485L689.546 334.571C689.514 334.603 689.482 334.603 689.482 334.635L689.259 335.05C689.259 335.082 689.259 335.082 689.259 335.082C689.076 335.453 689.19 331.817 689.291 391.183C689.291 391.47 689.45 391.726 689.706 391.886L704.243 400.352C704.371 400.416 704.53 400.448 704.658 400.448C704.785 400.448 704.946 400.416 705.041 400.352C705.073 400.32 705.073 400.32 705.073 400.32L937.047 266.395C937.302 266.235 937.429 265.979 937.429 265.692ZM889.827 154.353L889.763 132.725L889.732 125.952L917.974 109.658L893.342 152.309L889.827 154.353ZM891.713 155.12L889.859 158.379L889.827 156.206L891.713 155.12ZM889.668 95.6649L921.104 77.5186L921.168 104.291C921.104 104.355 921.041 104.355 920.977 104.419L919.571 106.879L889.731 124.099L889.668 102.47L889.668 95.6649ZM867.081 197.802L864.173 199.496L856.825 195.311L856.794 175.279C860.019 173.414 845.131 182.023 888.23 157.101L888.262 161.126L867.081 197.802ZM888.23 155.28L856.794 173.426C856.793 173.093 856.691 143.112 856.698 145.024L888.134 126.846C888.135 127.179 888.237 157.192 888.23 155.28ZM888.071 96.5917L888.134 125.025C884.919 126.881 899.78 118.303 856.698 143.172L856.602 114.738L888.071 96.5917ZM790.789 243.712C791.109 243.527 815.229 229.6 813.695 230.485L797.434 258.599L790.821 254.829C790.82 254.501 790.787 243.025 790.789 243.712ZM840.436 185.79C839.388 185.091 839.955 185.156 823.791 212.978L823.759 194.352L855.196 176.206L855.26 194.416L854.972 194.256L840.436 185.79ZM855.197 174.353L823.76 192.499C823.758 192.165 823.657 162.185 823.664 164.097L855.101 145.951C855.102 146.284 855.203 176.265 855.197 174.353ZM855.005 115.664C855.006 115.998 855.107 146.011 855.101 144.098C851.886 145.954 866.745 137.377 823.664 162.244L823.6 133.811L855.005 115.664ZM815.262 227.737C814.942 227.922 789.148 242.805 790.789 241.858L790.725 213.425L822.162 195.278L822.226 215.693L815.262 227.737ZM822.162 193.426L790.693 211.572L790.63 189.975V183.17L822.066 165.024C822.067 165.357 822.169 195.338 822.162 193.426ZM822.002 134.737C822.003 135.071 822.07 165.083 822.066 163.171C818.851 165.027 833.713 156.448 790.63 181.317L790.533 152.884L822.002 134.737ZM757.755 262.752L765.231 258.407L757.787 271.314L757.755 262.752ZM781.141 249.238L789.192 244.606L789.224 253.935C786.32 252.248 780.8 249.04 781.141 249.238ZM789.192 242.785L779.575 248.344C773.719 245.015 773.866 244.79 773.282 244.957C772.73 245.049 772.951 245.226 766.796 255.724L757.755 260.931L757.691 232.498C760.92 230.634 746.047 239.219 789.128 214.351L789.192 242.785ZM789.096 212.498L757.691 230.645C757.69 230.311 757.589 200.33 757.596 202.243L789.032 184.097L789.096 205.693V212.498ZM788.936 153.81L789.032 182.244C785.811 184.104 800.689 175.515 757.596 200.39L757.5 171.956L788.936 153.81ZM756.222 274.03L740.535 301.186L736.797 303.358L736.51 303.518L729.96 299.812L724.785 296.777L724.721 281.857L756.189 263.679L756.222 274.03ZM738.938 303.933L738.523 304.668L738.075 304.444L738.938 303.933ZM724.721 280.004C724.72 279.671 724.619 249.658 724.625 251.57C727.843 249.715 712.969 258.292 756.094 233.424L756.158 261.826L724.721 280.004ZM756.094 231.571L724.625 249.718C724.625 249.384 724.557 219.403 724.561 221.316L755.998 203.17C755.999 203.503 756.101 233.484 756.094 231.571ZM755.902 172.883L755.998 201.317L724.561 219.463C724.56 219.13 724.459 189.117 724.465 191.029L755.902 172.883ZM715.425 291.346C715.233 291.25 715.041 291.218 714.817 291.282C714.626 291.314 714.434 291.474 714.338 291.633L692.965 328.661L691.783 329.332L691.687 300.898L723.124 282.752L723.156 295.851L715.425 291.346ZM691.687 299.077L691.623 270.643C694.843 268.783 679.978 277.372 723.028 252.497L723.124 280.931L691.687 299.077ZM723.028 250.644L691.592 268.79L691.528 240.389L722.964 222.242C722.965 222.576 723.032 252.557 723.028 250.644ZM722.868 191.956L722.964 220.39L691.528 238.536L691.431 210.102L722.868 191.956ZM752.644 370.992L705.456 398.243L705.329 344.091L727.596 305.53L729.865 301.601L752.643 314.572L752.644 370.992ZM811.555 336.999L754.241 370.097V314.316L788.329 255.277L811.555 268.503V336.999ZM813.153 336.073V268.247L854.877 196.013L879.764 210.166V284.701C879.764 285.148 880.115 285.499 880.563 285.499C881.01 285.499 881.361 285.148 881.361 284.701V209.943L935.449 116.239L935.832 265.244L813.153 336.073Z" fill="black"/>
<path d="M1018.51 51.0658L985.927 28.1592C985.927 28.1592 985.927 28.1592 985.895 28.1592C985.895 28.1272 985.895 28.1272 985.895 28.1272L971.326 19.6611C971.135 19.5331 970.911 19.5013 970.72 19.5651C970.496 19.6291 970.336 19.7888 970.24 19.9805L937.909 80.362C937.685 80.7454 937.813 81.2246 938.197 81.4163L952.765 89.8824C952.797 89.9144 952.893 89.9144 952.956 89.9464C952.988 89.9464 953.052 89.9784 953.084 89.9784C953.116 89.9784 953.116 89.9784 953.148 89.9784H953.372C953.403 89.9464 953.404 89.9144 953.436 89.9144C953.467 89.8824 953.5 89.9144 953.564 89.8824L955.289 88.8921L955.481 237.386C955.481 237.673 955.64 237.929 955.863 238.089L970.4 246.555C970.432 246.555 970.432 246.555 970.432 246.555C970.56 246.619 970.688 246.651 970.816 246.651C970.975 246.651 971.103 246.619 971.231 246.555L1001.23 229.207C1001.49 229.079 1001.65 228.824 1001.65 228.536L1001.42 62.2477L1018.45 52.4076C1018.67 52.2797 1018.83 52.0242 1018.83 51.7687C1018.87 51.4809 1018.74 51.2254 1018.51 51.0658ZM1000.21 61.0972C999.952 61.2572 999.824 61.5126 999.824 61.8001L1000.05 228.057L971.614 244.478C971.601 234.803 971.403 88.7818 971.39 79.116C971.39 78.5478 970.778 78.112 970.176 78.4133C969.852 78.6009 954.232 87.66 955.193 87.1029L985.767 29.9801L1016.56 51.6728L1000.21 61.0972Z" fill="#1855F1"/>
<path d="M961.359 312.239C936.476 297.817 895.367 301.28 878.135 318.629C873.407 323.357 870.915 328.788 870.947 334.347L870.915 365.049C870.947 373.452 876.601 381.343 886.76 387.189C907.24 399.01 940.657 399.297 961.518 387.189H961.551C961.551 387.189 961.551 387.157 961.582 387.157C971.71 381.279 977.237 373.42 977.141 365.081L977.205 334.763V334.347C977.173 330.162 975.767 326.073 973.084 322.335C970.4 318.597 966.438 315.178 961.359 312.239ZM886.41 363.452L886.377 385.112C877.464 379.617 872.544 372.525 872.512 365.049L872.544 341.887C875.466 348.237 880.795 353.074 886.41 356.231V363.452ZM960.337 386.039C940.177 397.508 907.942 397.348 887.974 386.039L888.007 374.122C888.454 374.378 888.933 374.569 889.381 374.825C897.431 378.661 905.532 380.947 914.14 381.854C920.794 382.646 927.765 382.6 934.204 381.886C942.956 380.79 952.648 378.527 960.369 374.122L960.337 386.039ZM959.538 372.716C952.947 376.226 945.046 379 934.044 380.32C927.889 380.935 921.2 381.054 914.3 380.288C906.963 379.621 897.773 377.2 888.87 372.748L924.108 352.27C924.578 352.544 958.884 372.34 959.538 372.716ZM975.544 365.081C975.64 372.525 970.816 379.585 961.966 385.08L961.998 372.749C961.998 372.717 961.966 372.685 961.966 372.653V365.017L961.998 356.231C967.285 353.093 972.908 348.205 975.129 343.069C975.288 342.781 975.448 342.462 975.608 342.143L975.544 365.081ZM961.167 354.826L924.491 333.676C924.235 333.516 923.948 333.516 923.692 333.676L887.239 354.858C879.6 350.434 872.849 343.48 872.544 334.347C872.544 329.235 874.844 324.188 879.253 319.747C895.935 302.948 936.255 299.554 960.561 313.613C970.24 319.204 975.576 326.552 975.608 334.347C975.608 343.023 968.65 350.616 961.167 354.826Z" fill="black"/>
<path d="M852.864 369.65C836.059 359.97 808.776 359.97 792.099 369.65C783.889 374.41 779.384 380.8 779.352 387.605L779.288 405.016C779.288 411.917 783.857 418.402 792.195 423.194C803.536 429.724 818.896 431.604 832.193 429.84C832.225 429.84 832.257 429.871 832.257 429.871C832.321 429.871 832.353 429.808 832.385 429.808C839.957 428.785 847.146 426.613 853.024 423.194C861.202 418.434 865.708 412.076 865.739 405.272L865.803 387.86H865.771C865.771 387.828 865.803 387.828 865.803 387.796C865.771 380.927 861.17 374.474 852.864 369.65ZM798.201 400.991C784.913 393.52 784.966 381.87 798.041 374.474C811.74 366.814 833.51 366.974 846.922 374.474C859.972 381.811 860.384 393.446 847.114 400.991C833.663 408.562 811.715 408.562 798.201 400.991ZM792.546 421.533C785.039 417.06 780.885 411.214 780.885 405.048L780.918 394.505C780.982 394.601 781.046 394.697 781.077 394.793C783.53 399.531 787.652 403.115 792.258 405.783C792.354 405.847 792.45 405.879 792.546 405.942V421.533ZM831.459 428.338C818.52 429.967 804.495 427.986 794.144 422.428V406.773C799.416 409.489 805.549 411.31 812.003 412.268V422.875C812.003 423.322 812.354 423.673 812.802 423.673C813.248 423.673 813.6 423.322 813.6 422.875V412.492C819.478 413.226 825.581 413.258 831.458 412.556V428.338H831.459ZM850.915 422.491C845.707 425.303 839.542 427.156 833.056 428.114V412.332C839.509 411.406 845.643 409.584 850.915 406.933V422.491ZM864.141 405.272C864.11 411.406 859.989 417.188 852.513 421.629V406.07C856.831 403.911 861.789 399.529 864.173 394.761L864.141 405.272Z" fill="#1855F1"/>
<path d="M840.565 389.782C840.732 388.109 839.72 386.647 837.563 385.402C835.395 384.15 833.088 383.582 830.62 383.697C828.15 383.812 825.166 384.495 821.679 385.753L821.569 385.817L814.589 381.787C816.756 380.849 819.233 380.242 822.021 379.967L820.999 376.602C816.932 377.043 813.454 378.001 810.552 379.457L808.649 378.358L806.287 379.731L808.145 380.804C805.882 382.26 804.7 383.819 804.566 385.46C804.455 387.114 805.454 388.557 807.59 389.789C809.735 391.028 811.998 391.584 814.368 391.462C816.749 391.335 819.667 390.664 823.1 389.438L830.3 393.595C827.77 394.668 824.565 395.275 820.697 395.435L821.234 398.864C826.271 398.666 830.632 397.682 834.348 395.932L837.058 397.497L839.421 396.124L836.744 394.579C839.127 393.052 840.409 391.449 840.565 389.782ZM814.346 387.631C813.377 387.631 812.471 387.401 811.641 386.922C810.812 386.443 810.434 385.855 810.507 385.172C810.58 384.489 811.117 383.793 812.116 383.097L818.542 386.807C816.716 387.343 815.316 387.618 814.346 387.631ZM834.536 390.057C834.419 390.792 833.827 391.532 832.774 392.286L826.092 388.429C828.018 387.835 829.506 387.522 830.541 387.496C831.588 387.477 832.549 387.714 833.423 388.218C834.285 388.716 834.664 389.329 834.536 390.057Z" fill="#1855F1"/>
<path d="M544.223 282.819L496.295 255.153L495.912 123.526C495.912 118.739 494.22 115.134 491.189 113.379C491.189 113.347 491.157 113.347 491.157 113.347L396.8 58.526C396.544 49.6232 390.514 41.3266 379.729 35.1362C357.264 22.2128 320.696 22.3722 298.199 35.4872C287.127 41.9648 281.064 50.5805 281.095 59.7066V59.8981L281.255 78.4696C281.287 81.6606 282.085 84.756 283.553 87.7555L210.734 129.748C210.734 129.78 210.734 129.78 210.734 129.78C210.734 129.78 210.734 129.78 210.703 129.78C202.438 134.567 195.737 146.214 195.705 155.787C195.705 155.819 195.674 155.85 195.674 155.882L196.025 278.926L147.682 307.038C138.076 312.623 138.204 321.845 147.746 327.333L309.016 420.445C318.271 425.774 333.3 425.806 342.522 420.445L412.468 379.792L449.643 401.236L446.899 410.107L427.848 407.554C427.656 407.522 427.498 407.554 427.338 407.65L418.659 412.691C414.638 410.617 408.511 410.681 404.586 412.915C404.586 412.915 404.555 412.915 404.522 412.915C400.47 415.244 400.406 419.041 404.363 421.371C408.352 423.732 414.925 423.764 419.009 421.435C419.042 421.435 419.073 421.403 419.105 421.403C422.743 419.297 423.093 416.042 420.158 413.649L427.912 409.149L447.345 411.798C447.76 411.83 448.111 411.606 448.238 411.223L451.366 401.108C451.461 400.725 451.334 400.342 451.014 400.151L414.063 378.867L433.017 367.858L462.214 384.706C462.374 384.77 462.566 384.834 462.725 384.802L484.392 381.643L495.592 388.121C492.37 390.45 492.529 393.864 496.199 396.002C500.187 398.396 506.729 398.428 510.845 396.098C510.877 396.098 510.909 396.066 510.94 396.066C514.929 393.736 514.993 390.003 511.036 387.61C507.303 385.408 501.336 385.281 497.187 387.195L484.934 380.143C484.775 380.047 484.615 380.016 484.423 380.048L462.789 383.175L434.581 366.933L461.64 351.201L494.188 369.996C494.316 370.06 494.443 370.092 494.603 370.092H494.73L503.825 368.56C504.303 369.135 504.878 369.677 505.676 370.156C509.665 372.517 516.238 372.549 520.322 370.219H520.418C524.438 367.89 524.47 364.125 520.545 361.731C516.557 359.402 510.015 359.37 505.899 361.699C505.899 361.699 505.867 361.731 505.835 361.731C503.283 363.167 502.325 365.209 502.931 367.092L494.73 368.464L463.236 350.276L544.35 303.145C553.955 297.561 553.763 288.308 544.223 282.819ZM201.8 310.517L201.768 322.068C201.736 325.004 203.651 327.716 207.161 329.726C214.022 333.683 225.126 333.683 231.923 329.726C232.593 329.343 233.168 328.928 233.71 328.514L306.655 370.89L306.591 382.983C306.591 385.919 308.506 388.663 312.016 390.674C318.845 394.599 329.949 394.63 336.778 390.674C340.192 388.695 342.075 385.983 342.075 383.111L342.107 373.347L445.558 313.612C446.196 314.122 446.866 314.633 447.664 315.08C451.078 317.058 455.577 318.047 460.045 318.047C464.544 318.047 469.012 317.058 472.427 315.08C475.84 313.101 477.723 310.421 477.723 307.517L477.787 295.008L481.266 292.998C483.562 291.69 485.701 289.807 487.615 287.669L517.1 304.677L342.139 406.373C334.385 410.872 321.685 410.872 313.867 406.373L174.9 326.152L201.8 310.517ZM203.364 322.068L203.396 310.9L232.178 327.62C231.827 327.876 231.508 328.131 231.125 328.354C224.743 332.056 214.373 332.056 207.959 328.354C204.991 326.631 203.332 324.397 203.364 322.068ZM447.09 312.718L471.309 298.742C471.693 298.551 472.107 298.391 472.458 298.199C472.809 298.008 473.065 297.785 473.351 297.561L476.16 295.934L476.128 307.517C476.128 309.815 474.532 312.016 471.596 313.707C465.247 317.409 454.843 317.409 448.461 313.707C447.951 313.42 447.537 313.069 447.09 312.718ZM487.87 113.985C488.094 114.017 488.317 114.017 488.508 114.049C489.179 114.208 489.817 114.432 490.391 114.751C492.912 116.219 494.316 119.314 494.316 123.526L494.73 266.896C494.763 275.991 488.348 287.063 480.468 291.594L332.151 377.24C328.481 379.378 325.067 379.729 322.515 378.293V378.261L322.482 378.229C321.844 377.878 321.302 377.399 320.791 376.857C320.759 376.793 320.759 376.729 320.696 376.698C320.28 376.187 319.898 375.581 319.61 374.911C318.94 373.443 318.589 371.624 318.589 369.518L318.175 226.116C318.175 224.106 318.526 221.968 319.132 219.862C321.142 212.427 326.312 204.96 332.438 201.45V201.418L360.263 185.367L480.786 115.804C481.68 115.294 482.509 114.911 483.339 114.592C483.435 114.56 483.498 114.528 483.595 114.496C484.36 114.241 485.126 114.049 485.86 113.953C485.988 113.953 486.115 113.953 486.243 113.921C486.817 113.889 487.36 113.921 487.87 113.985ZM385.632 131.95C378.771 135.524 370.443 138.109 361.54 139.481L361.476 122.409C362.21 122.313 362.912 122.218 363.646 122.09C363.774 122.09 363.869 122.058 363.997 122.058C365.496 121.771 366.965 121.452 368.401 121.133C368.687 121.069 368.975 121.037 369.262 120.941C370.826 120.59 372.389 120.143 373.889 119.696C374.049 119.633 374.208 119.601 374.399 119.569C375.995 119.058 377.559 118.516 379.091 117.941C379.155 117.909 379.218 117.878 379.282 117.846C382.473 116.633 385.504 115.197 388.312 113.538C389.556 112.836 390.706 112.07 391.822 111.304C392.141 111.081 392.429 110.858 392.716 110.666C393.609 109.996 394.439 109.326 395.268 108.656C395.428 108.496 395.652 108.337 395.811 108.177C396.768 107.348 397.63 106.518 398.427 105.624C398.619 105.433 398.779 105.242 398.97 105.05C399.608 104.316 400.183 103.614 400.725 102.848C400.884 102.625 401.076 102.401 401.236 102.178C401.874 101.253 402.448 100.328 402.926 99.37C402.99 99.2745 403.023 99.1469 403.087 99.0509C403.405 98.4447 403.693 97.8383 403.947 97.2001L404.043 107.922C404.107 117.367 397.438 125.344 387.227 131.056L387.195 122.536C387.195 122.089 386.844 121.739 386.397 121.739C385.95 121.739 385.599 122.121 385.599 122.536L385.632 131.95ZM334.194 139.8C325.673 138.651 317.409 136.226 310.038 132.397L309.974 115.548C310.388 115.772 310.771 115.995 311.186 116.187C318.047 119.41 325.929 121.516 334.13 122.601L334.194 139.8ZM327.174 109.613L327.078 92.5418C330.843 92.9884 334.672 93.2118 338.47 93.2118H338.948C340.192 93.2118 341.437 93.148 342.681 93.0842C343.287 93.0842 343.894 93.0842 344.5 93.0202C345.362 92.9883 346.192 92.8927 347.053 92.7969C348.043 92.7333 348.999 92.6693 349.989 92.5418C350.403 92.5098 350.819 92.414 351.265 92.3502L351.329 109.454C343.383 110.507 335.151 110.571 327.174 109.613ZM308.57 42.3797C325.322 32.5834 352.637 32.4558 369.39 42.0926C377.335 46.6555 381.707 52.7184 381.739 59.1322C381.771 65.5779 377.367 71.7046 369.358 76.3955C352.574 86.1916 325.291 86.3193 308.57 76.6826C300.592 72.1196 296.221 66.0566 296.189 59.643C296.157 53.1652 300.561 47.0386 308.57 42.3797ZM325.482 92.3184L325.578 109.39C316.834 108.177 308.506 105.752 301.422 102.083L301.326 85.2663C308.506 88.8082 316.803 91.1696 325.482 92.3184ZM296.189 105.497C296.252 105.593 296.348 105.689 296.412 105.752C296.987 106.39 297.593 106.997 298.199 107.603C298.359 107.731 298.519 107.89 298.678 108.018C299.253 108.56 299.891 109.103 300.529 109.613C300.752 109.773 300.943 109.964 301.167 110.156C301.805 110.634 302.475 111.113 303.177 111.592C303.4 111.751 303.656 111.943 303.879 112.102C304.837 112.74 305.793 113.347 306.815 113.921C307.325 114.208 307.868 114.464 308.378 114.719L308.442 131.567C308.219 131.44 307.995 131.344 307.804 131.216C297.338 125.217 291.562 117.208 291.498 108.752L291.37 98.0942C292.455 100.679 294.083 103.136 296.189 105.497ZM359.881 122.664L359.976 139.704C352.126 140.789 343.862 140.949 335.789 139.991L335.725 122.824C343.671 123.749 351.935 123.686 359.881 122.664ZM395.428 77.6399C395.492 86.2236 389.684 94.3608 379.091 100.551C378.931 100.647 378.771 100.711 378.612 100.806L378.58 92.2546C378.58 91.8078 378.196 91.4569 377.782 91.4569C377.335 91.4569 376.984 91.8078 376.984 92.2546L377.016 101.636C369.964 105.369 361.667 107.922 352.924 109.231L352.86 92.1271C353.69 91.9993 354.551 91.9037 355.381 91.776C355.669 91.7124 355.892 91.6484 356.179 91.5845C357.679 91.3293 359.178 91.0101 360.679 90.6592C360.743 90.6592 360.838 90.6272 360.901 90.5952C362.561 90.2123 364.188 89.7656 365.784 89.255C366.071 89.1911 366.327 89.0635 366.613 88.9679C367.986 88.553 369.358 88.0744 370.698 87.5639C371.208 87.3724 371.687 87.1491 372.166 86.9257C373.251 86.4789 374.304 86.064 375.325 85.5536C376.856 84.8514 378.293 84.0857 379.697 83.2559C380.941 82.5221 382.09 81.7882 383.206 80.9904C383.526 80.7989 383.813 80.5756 384.068 80.3842C384.993 79.714 385.855 79.0439 386.653 78.3419C386.845 78.2141 387.035 78.0546 387.195 77.895C388.153 77.0653 389.014 76.2356 389.812 75.3422C390.004 75.1507 390.162 74.9594 390.323 74.7678C390.96 74.0337 391.567 73.2999 392.109 72.5661C392.269 72.3428 392.461 72.1193 392.619 71.8959C393.258 70.9706 393.832 70.0133 394.312 69.0878C394.375 68.9923 394.407 68.8963 394.471 68.8007C394.758 68.1625 395.077 67.5243 395.332 66.9179L395.428 77.6399ZM282.851 78.4694L282.755 67.8118C282.947 68.2585 283.202 68.7051 283.426 69.184C283.521 69.3755 283.616 69.5988 283.712 69.7902C284.223 70.7155 284.766 71.609 285.404 72.5023C285.563 72.7257 285.722 72.9492 285.914 73.1725C286.425 73.8745 286.999 74.5765 287.605 75.2465C287.797 75.4698 287.988 75.7251 288.212 75.9486C289.01 76.7784 289.871 77.6079 290.796 78.4057C290.956 78.5652 291.148 78.6928 291.306 78.8523C292.104 79.5225 292.966 80.1927 293.859 80.8307C294.147 81.0222 294.434 81.2456 294.753 81.4369C295.838 82.2027 296.987 82.9368 298.199 83.6386C298.71 83.9259 299.22 84.1812 299.731 84.4364L299.827 101.253C299.603 101.157 299.38 101.03 299.189 100.934C288.722 94.903 282.914 86.9256 282.851 78.4694ZM284.318 89.1594C285.691 91.5207 287.509 93.7862 289.775 95.9243L289.902 108.752C289.966 117.814 296.029 126.302 307.006 132.588C322.354 141.427 342.585 143.757 360.71 141.172C360.743 141.172 360.743 141.204 360.774 141.204C360.807 141.204 360.838 141.14 360.87 141.14C385.217 137.662 405.767 125.313 405.639 107.89L405.447 89.255C405.447 89.223 405.447 89.223 405.447 89.223C405.416 82.937 402.416 76.9699 396.96 71.8005L396.864 60.3768L486.179 112.294C486.147 112.294 486.115 112.326 486.083 112.326C485.796 112.358 485.477 112.39 485.19 112.453C484.999 112.485 484.839 112.485 484.647 112.549C483.148 112.868 481.584 113.475 479.989 114.4L357.328 185.207L332.024 199.822L212.713 130.482L284.318 89.1594ZM316.579 226.562L316.994 369.518C316.994 371.624 317.377 373.442 318.015 375.038C318.079 375.293 318.143 375.549 318.239 375.772C318.239 375.772 318.239 375.772 318.239 375.804L201.609 307.996C199.12 306.56 197.716 303.464 197.684 299.252L197.269 157.254L316.579 226.562ZM543.553 301.773L341.724 419.073C332.949 424.147 318.653 424.147 309.814 419.073L148.543 325.961C140.023 321.015 139.991 313.325 148.479 308.411L196.025 280.777L196.057 291.339L169.571 306.72C165.455 309.113 163.189 312.336 163.189 315.814C163.189 319.292 165.487 322.547 169.667 324.94L313.069 407.745C317.185 410.139 322.61 411.319 328.035 411.319C333.428 411.319 338.852 410.139 342.937 407.745L519.046 305.411C519.078 305.379 519.11 305.379 519.11 305.379L522.109 303.624L522.429 303.433C522.939 303.145 523.418 302.826 523.896 302.507C527.087 300.242 528.811 297.402 528.811 294.37C528.811 290.892 526.513 287.637 522.333 285.212L496.071 270.055C496.199 268.97 496.326 267.917 496.326 266.896L496.295 257.004L543.425 284.223C551.945 289.137 552.009 296.859 543.553 301.773Z" fill="black"/>
<path d="M469.714 226.18L469.618 192.515C472.235 190.856 474.277 187.282 474.245 184.218L474.213 169.221C474.213 166.157 472.107 164.594 469.554 165.455L469.522 160.126C469.522 156.68 468.278 154.063 466.076 152.819C463.874 151.543 460.971 151.798 457.97 153.521L353.786 213.671C347.882 217.085 343.096 225.413 343.096 232.21L343.383 332.885C343.415 336.363 344.628 338.98 346.83 340.224C347.755 340.767 348.808 341.022 349.925 341.022C351.488 341.022 353.18 340.511 354.935 339.49L459.12 279.373C465.023 275.958 469.81 267.63 469.81 260.833L469.778 253.207C472.363 251.516 474.372 247.973 474.341 244.942L474.309 229.944C474.309 226.914 472.267 225.35 469.714 226.18ZM458.322 277.969L354.137 338.119C351.648 339.586 349.319 339.842 347.627 338.852C345.936 337.895 345.011 335.757 344.979 332.885L344.691 232.21C344.691 225.892 349.127 218.202 354.583 215.043L458.768 154.925C461.258 153.457 463.587 153.202 465.278 154.191C466.969 155.149 467.927 157.287 467.927 160.158L467.959 166.317C465.47 168.04 463.555 171.486 463.587 174.454L463.619 189.419C463.619 192.355 465.533 193.951 468.022 193.249L468.118 227.009C465.597 228.732 463.682 232.178 463.682 235.178L463.715 250.143C463.715 253.111 465.693 254.707 468.182 253.973L468.214 260.833C468.214 267.12 463.778 274.81 458.322 277.969Z" fill="black"/>
<path d="M441.218 209.139C441.123 209.075 441.027 209.044 440.963 209.012L427.21 201.034C420.51 197.141 411.639 197.971 402.225 203.364C383.302 214.341 367.954 240.921 367.986 262.684C368.017 273.31 371.688 281.287 378.324 285.148L391.919 293.062C398.364 297.082 407.363 296.763 417.35 291.019C436.305 280.074 451.653 253.462 451.589 231.699C451.589 231.699 451.589 231.699 451.589 231.667C451.589 226.434 450.664 221.903 449.005 218.138C447.249 214.181 444.633 211.086 441.218 209.139ZM444.027 235.561C444.186 235.816 444.442 235.975 444.728 235.975C444.856 235.975 444.984 235.944 445.112 235.848L449.93 233.072C449.356 253.685 435.155 278.192 417.541 288.946V283.457C417.541 283.01 417.159 282.659 416.743 282.659C416.297 282.659 415.946 283.01 415.946 283.457V289.903C407.33 294.689 399.289 295.455 393.258 291.977C392.62 291.626 392.045 291.179 391.503 290.764C391.343 290.637 391.184 290.573 391.057 290.445C386.397 286.584 383.844 279.915 383.717 271.331L389.334 268.076C389.716 267.853 389.844 267.343 389.62 266.992C389.397 266.609 388.918 266.449 388.536 266.704L383.749 269.48C383.749 268.778 383.781 268.045 383.844 267.342V266.864C383.941 265.556 384.132 264.247 384.324 262.939C384.324 262.843 384.324 262.779 384.356 262.716C384.483 261.822 384.675 260.929 384.866 260.035C384.994 259.525 385.058 259.046 385.153 258.535C385.217 258.408 385.249 258.248 385.281 258.121C387.579 248.484 392.269 238.688 398.396 230.359C403.438 223.531 409.469 217.723 415.946 213.702V219.191C415.946 219.638 416.297 219.989 416.744 219.989C417.159 219.989 417.541 219.638 417.541 219.191V212.745C419.265 211.788 420.956 210.99 422.615 210.352C422.839 210.256 423.062 210.16 423.285 210.065C423.445 210.001 423.605 209.937 423.765 209.873C424.115 209.777 424.466 209.682 424.785 209.586C425.327 209.426 425.838 209.267 426.349 209.139C426.604 209.075 426.859 209.012 427.114 208.948C427.242 208.916 427.37 208.916 427.53 208.884C428.2 208.756 428.87 208.628 429.54 208.565C429.795 208.533 430.05 208.501 430.305 208.501C431.103 208.437 431.933 208.373 432.699 208.405C432.826 208.405 432.954 208.437 433.082 208.437C433.88 208.501 434.677 208.564 435.475 208.724C435.634 208.756 435.826 208.82 435.985 208.852C436.687 209.011 437.39 209.203 438.06 209.426C438.379 209.554 438.698 209.745 439.017 209.873C439.496 210.096 440.006 210.288 440.453 210.575C443.739 212.458 446.228 215.553 447.824 219.542C449.164 222.828 449.898 226.753 449.962 231.221L444.314 234.475C443.931 234.699 443.803 235.178 444.027 235.561Z" fill="#1855F1"/>
<path d="M431.285 226.289C427.253 223.971 421.961 224.472 416.376 227.694C405.185 234.157 396.113 249.894 396.149 262.776C396.167 269.155 398.383 273.938 402.387 276.241C404.057 277.204 405.944 277.681 407.981 277.681C410.857 277.681 414.031 276.727 417.303 274.839C428.493 268.376 437.567 252.658 437.531 239.798C437.513 233.397 435.294 228.598 431.285 226.289ZM416.505 273.455C411.432 276.381 406.698 276.877 403.183 274.861C399.692 272.851 397.761 268.557 397.744 262.77C397.71 250.399 406.425 235.285 417.173 229.078C422.243 226.149 426.97 225.65 430.489 227.673C433.985 229.686 435.919 233.992 435.936 239.804C435.97 252.153 427.254 267.248 416.505 273.455Z" fill="black"/>
<path d="M416.818 238.389C413.052 240.563 410.02 245.815 410.032 250.142C410.042 253.418 411.794 255.222 414.307 254.946L414.325 263.268C414.329 264.857 415.461 265.55 416.886 264.727C418.29 263.917 419.435 261.909 419.431 260.32L419.414 251.998C421.92 249.375 423.657 245.557 423.648 242.281C423.636 237.954 420.562 236.227 416.818 238.389Z" fill="#1855F1"/>
<path d="M322.361 67.3446L317.655 70.1092L321.179 72.1211L325.941 69.323C329.519 70.9893 332.972 71.831 336.282 71.8596C339.593 71.8885 342.376 71.2399 344.672 69.8915C346.527 68.8015 347.535 67.6709 347.734 66.4772C347.914 65.2948 347.595 64.1372 346.813 63.0265C346.032 61.9155 344.825 60.6282 343.232 59.1644L351.82 54.1187C354.011 55.7022 355.569 57.4781 356.494 59.4467L362.559 57.9464C362.143 56.8448 361.401 55.7338 360.331 54.5909C359.242 53.4592 357.922 52.3953 356.411 51.4215L361.135 48.6458L357.612 46.6338L352.792 49.4658C349.272 47.8107 345.877 46.9797 342.547 46.9622C339.257 46.9445 336.454 47.6043 334.159 48.9529C332.303 50.0428 331.295 51.1732 331.077 52.3559C330.897 53.5384 331.197 54.6849 331.959 55.8071C332.74 56.918 333.909 58.2053 335.463 59.6472L326.951 64.6477C325.478 63.6293 324.254 62.5094 323.318 61.3098C322.362 60.0995 321.812 58.9429 321.589 57.8405L315.368 59.2523C315.515 60.4665 316.222 61.7783 317.487 63.2325C318.772 64.6754 320.404 66.0498 322.361 67.3446ZM339.963 51.9791C340.958 51.3949 342.147 51.0992 343.533 51.1149C344.938 51.1194 346.481 51.491 348.162 52.1851L340.607 56.6239C339.616 55.5921 339.01 54.692 338.829 53.9464C338.647 53.1782 339.026 52.53 339.963 51.9791ZM338.086 62.1869C339.137 63.2519 339.762 64.163 339.963 64.9421C340.145 65.7329 339.766 66.4034 338.791 66.9764C337.835 67.5383 336.664 67.8004 335.277 67.7626C333.892 67.7243 332.328 67.3416 330.57 66.6034L338.086 62.1869Z" fill="black"/>
<path d="M404.586 412.915C408.511 410.681 414.638 410.617 418.658 412.691L420.158 413.649C423.093 416.042 422.743 419.296 419.105 421.403C419.073 421.403 419.041 421.435 419.009 421.435C414.925 423.764 408.352 423.732 404.363 421.371C400.406 419.041 400.47 415.244 404.522 412.915H404.586Z" fill="#1855F1"/>
<path d="M496.198 396.002C492.528 393.864 492.369 390.45 495.592 388.121L497.187 387.195C501.335 385.281 507.303 385.408 511.036 387.61C514.993 390.003 514.929 393.736 510.94 396.066C510.908 396.066 510.877 396.098 510.845 396.098C506.729 398.428 500.187 398.396 496.198 396.002Z" fill="#1855F1"/>
<path d="M505.676 370.156C504.878 369.677 504.303 369.135 503.825 368.56L502.931 367.092C502.325 365.209 503.282 363.167 505.834 361.731C505.867 361.731 505.898 361.699 505.898 361.699C510.015 359.37 516.557 359.402 520.545 361.731C524.47 364.125 524.438 367.89 520.417 370.219H520.322C516.238 372.549 509.664 372.517 505.676 370.156Z" fill="#1855F1"/>
<path d="M396.705 58.9796C396.449 50.0768 390.419 41.7802 379.633 35.5898C357.169 22.6665 320.601 22.8258 298.104 35.9409C287.032 42.4184 280.968 51.0341 281 60.1602V60.3517L281.16 78.9232C281.192 82.1142 281.99 85.2096 283.457 88.2091M284.223 89.613C285.596 91.9743 287.414 94.2398 289.679 96.3779L289.807 109.205C289.871 118.268 295.934 126.756 306.911 133.042C322.259 141.881 342.49 144.211 360.615 141.626C360.647 141.626 360.647 141.658 360.678 141.658C360.711 141.658 360.742 141.594 360.774 141.594C385.122 138.116 405.671 125.767 405.544 108.344L405.352 89.7086C405.352 89.6766 405.352 89.6766 405.352 89.6766C405.321 83.3906 402.321 77.4235 396.864 72.2541L396.768 60.8304M385.536 132.404C378.676 135.978 370.347 138.562 361.445 139.934L361.381 122.863C362.115 122.767 362.817 122.671 363.551 122.543C363.678 122.543 363.774 122.512 363.902 122.512C365.401 122.224 366.869 121.905 368.305 121.586C368.592 121.523 368.879 121.491 369.167 121.395C370.73 121.044 372.294 120.597 373.794 120.15C373.953 120.086 374.112 120.054 374.304 120.022C375.899 119.512 377.464 118.969 378.995 118.395C379.059 118.363 379.122 118.331 379.186 118.299C382.377 117.087 385.408 115.651 388.217 113.992C389.461 113.29 390.61 112.524 391.726 111.758C392.046 111.535 392.333 111.311 392.621 111.12C393.514 110.45 394.343 109.779 395.173 109.109C395.333 108.95 395.556 108.79 395.715 108.631C396.673 107.801 397.534 106.972 398.332 106.078C398.524 105.887 398.683 105.695 398.875 105.504C399.513 104.77 400.087 104.068 400.629 103.302C400.789 103.079 400.981 102.855 401.14 102.632C401.778 101.706 402.352 100.781 402.831 99.8237C402.895 99.7281 402.927 99.6005 402.991 99.5046C403.31 98.8983 403.597 98.292 403.852 97.6538L403.948 108.376C404.012 117.821 397.343 125.798 387.131 131.51L387.099 122.99C387.099 122.543 386.749 122.192 386.302 122.192C385.855 122.192 385.504 122.575 385.504 122.99L385.536 132.404ZM334.098 140.254C325.578 139.105 317.314 136.68 309.942 132.851L309.878 116.002C310.293 116.225 310.676 116.449 311.091 116.64C317.952 119.863 325.833 121.969 334.034 123.054L334.098 140.254ZM327.078 110.067L326.982 92.9954C330.748 93.442 334.577 93.6654 338.374 93.6654H338.853C340.097 93.6654 341.342 93.6016 342.586 93.5378C343.192 93.5378 343.798 93.5378 344.405 93.4739C345.267 93.4419 346.096 93.3463 346.958 93.2505C347.947 93.1869 348.904 93.1229 349.893 92.9954C350.308 92.9634 350.723 92.8676 351.169 92.8039L351.233 109.907C343.288 110.96 335.056 111.024 327.078 110.067ZM308.475 42.8333C325.227 33.037 352.542 32.9094 369.294 42.5462C377.24 47.1091 381.611 53.172 381.643 59.5858C381.675 66.0315 377.272 72.1582 369.263 76.8491C352.478 86.6452 325.195 86.773 308.475 77.1362C300.497 72.5732 296.125 66.5102 296.094 60.0966C296.061 53.6188 300.465 47.4922 308.475 42.8333ZM325.387 92.772L325.483 109.844C316.739 108.631 308.411 106.206 301.327 102.536L301.231 85.7199C308.411 89.2618 316.708 91.6232 325.387 92.772ZM296.094 105.951C296.157 106.046 296.253 106.142 296.317 106.206C296.892 106.844 297.498 107.45 298.104 108.057C298.264 108.184 298.424 108.344 298.582 108.471C299.157 109.014 299.795 109.557 300.433 110.067C300.657 110.227 300.848 110.418 301.071 110.609C301.709 111.088 302.379 111.567 303.082 112.045C303.305 112.205 303.56 112.396 303.784 112.556C304.742 113.194 305.698 113.8 306.72 114.375C307.23 114.662 307.773 114.917 308.283 115.172L308.347 132.021C308.124 131.893 307.9 131.797 307.709 131.67C297.243 125.671 291.467 117.662 291.403 109.205L291.275 98.5478C292.36 101.132 293.988 103.589 296.094 105.951ZM359.786 123.118L359.881 140.158C352.031 141.243 343.767 141.402 335.694 140.445L335.63 123.278C343.575 124.203 351.839 124.139 359.786 123.118ZM395.333 78.0935C395.397 86.6772 389.589 94.8144 378.995 101.005C378.836 101.1 378.676 101.164 378.516 101.26L378.484 92.7083C378.484 92.2614 378.101 91.9105 377.686 91.9105C377.24 91.9105 376.889 92.2614 376.889 92.7083L376.921 102.09C369.869 105.823 361.572 108.376 352.829 109.684L352.765 92.5807C353.595 92.4529 354.456 92.3574 355.286 92.2296C355.573 92.166 355.797 92.102 356.084 92.0381C357.583 91.7829 359.083 91.4637 360.583 91.1128C360.647 91.1128 360.742 91.0808 360.806 91.0488C362.465 90.6659 364.093 90.2193 365.688 89.7086C365.976 89.6447 366.231 89.5171 366.518 89.4215C367.891 89.0066 369.263 88.528 370.603 88.0176C371.113 87.826 371.592 87.6027 372.07 87.3793C373.155 86.9325 374.209 86.5176 375.229 86.0072C376.761 85.305 378.197 84.5393 379.601 83.7095C380.845 82.9758 381.994 82.2418 383.111 81.444C383.43 81.2525 383.718 81.0292 383.973 80.8378C384.898 80.1676 385.76 79.4975 386.557 78.7955C386.749 78.6677 386.94 78.5082 387.1 78.3486C388.057 77.5189 388.919 76.6892 389.716 75.7959C389.908 75.6043 390.067 75.413 390.227 75.2214C390.865 74.4873 391.471 73.7535 392.014 73.0197C392.173 72.7964 392.365 72.5729 392.524 72.3496C393.163 71.4242 393.737 70.4669 394.216 69.5415C394.279 69.4459 394.311 69.3499 394.375 69.2543C394.663 68.6161 394.981 67.9779 395.237 67.3715L395.333 78.0935ZM282.755 78.9231L282.66 68.2654C282.851 68.7121 283.107 69.1587 283.33 69.6376C283.425 69.8291 283.521 70.0524 283.617 70.2438C284.128 71.1691 284.67 72.0626 285.308 72.9559C285.468 73.1793 285.627 73.4028 285.819 73.6261C286.33 74.3281 286.904 75.0301 287.51 75.7001C287.702 75.9234 287.893 76.1787 288.117 76.4022C288.915 77.232 289.775 78.0615 290.701 78.8593C290.861 79.0188 291.052 79.1464 291.211 79.3059C292.009 79.9761 292.871 80.6463 293.764 81.2843C294.052 81.4758 294.338 81.6992 294.658 81.8905C295.743 82.6563 296.892 83.3904 298.104 84.0922C298.614 84.3795 299.125 84.6349 299.636 84.89L299.731 101.706C299.508 101.611 299.285 101.483 299.093 101.387C288.627 95.3566 282.819 87.3792 282.755 78.9231Z" stroke="#1855F1" stroke-width="2"/>
</g>
<defs>
<clipPath id="clip0_230_1255">
<rect width="1200" height="450" rx="8" fill="white"/>
</clipPath>
</defs>
</svg>
