<svg width="48" height="48" viewBox="0 0 48 48" fill="none" xmlns="http://www.w3.org/2000/svg">
<path fill-rule="evenodd" clip-rule="evenodd" d="M4 9.5C4 6.46244 6.46244 4 9.5 4H39.5001C42.5377 4 45.0001 6.46244 45.0001 9.5V39.5C45.0001 42.5376 42.5377 45 39.5001 45H9.5C6.46244 45 4 42.5376 4 39.5V9.5ZM34.5001 25C35.3285 25 36.0001 25.6716 36.0001 26.5V36.5C36.0001 37.3284 35.3285 38 34.5001 38C33.6717 38 33.0001 37.3284 33.0001 36.5V26.5C33.0001 25.6716 33.6717 25 34.5001 25ZM24.5001 29C25.3285 29 26.0001 29.6716 26.0001 30.5V36.5C26.0001 37.3284 25.3285 38 24.5001 38C23.6717 38 23.0001 37.3284 23.0001 36.5V30.5C23.0001 29.6716 23.6717 29 24.5001 29ZM14.5 31C15.3284 31 16 31.6716 16 32.5V36.5C16 37.3284 15.3284 38 14.5 38C13.6716 38 13 37.3284 13 36.5V32.5C13 31.6716 13.6716 31 14.5 31ZM30.5001 11C29.8933 11 29.3463 11.3655 29.1143 11.926C28.8821 12.4865 29.0103 13.1317 29.4393 13.5607L31.3617 15.4829C30.5317 16.1966 29.5401 16.9803 28.4003 17.7639C24.5565 20.4066 19.0998 23 12.5 23C11.6716 23 11 23.6716 11 24.5C11 25.3284 11.6716 26 12.5 26C19.9002 26 25.9435 23.0934 30.0999 20.236C31.4167 19.3308 32.5513 18.4255 33.4885 17.6098L35.4393 19.5607C35.8683 19.9897 36.5135 20.118 37.0741 19.8858C37.6345 19.6536 38.0001 19.1067 38.0001 18.5V12.5C38.0001 11.6716 37.3285 11 36.5001 11H30.5001Z" fill="#1855F1"/>
</svg>
