<svg width="32" height="32" viewBox="0 0 32 32" fill="none" xmlns="http://www.w3.org/2000/svg">
<path fill-rule="evenodd" clip-rule="evenodd" d="M5.3335 27.0003C5.3335 26.2639 5.93046 25.667 6.66683 25.667H25.3335C26.0699 25.667 26.6668 26.2639 26.6668 27.0003C26.6668 27.7367 26.0699 28.3337 25.3335 28.3337H6.66683C5.93046 28.3337 5.3335 27.7367 5.3335 27.0003Z" fill="#1855F1"/>
<path d="M15.9998 3.66699C16.3786 3.66699 16.7249 3.88099 16.8944 4.21978L20.532 11.495C20.7402 11.9117 20.6332 12.4171 20.2738 12.7136C19.9013 13.0209 19.6665 13.4827 19.6665 14.0003C19.6665 14.9209 20.4128 15.667 21.3332 15.667C22.2537 15.667 22.9998 14.9209 22.9998 14.0003C22.9998 13.8387 22.9772 13.6841 22.9353 13.5386C22.8102 13.1031 22.9934 12.638 23.382 12.4049L28.8188 9.14283C29.1728 8.93038 29.621 8.95742 29.947 9.2109C30.273 9.46438 30.4097 9.89215 30.291 10.2877L26.291 23.621C26.1641 24.0439 25.7748 24.3337 25.3332 24.3337H6.66656C6.22494 24.3337 5.83562 24.0439 5.70873 23.621L1.70873 10.2877C1.59008 9.89215 1.72673 9.46438 2.05272 9.2109C2.3787 8.95742 2.82696 8.93038 3.18105 9.14283L8.61781 12.4049C9.0063 12.638 9.18954 13.1031 9.06441 13.5386C9.02261 13.6841 8.99989 13.8387 8.99989 14.0003C8.99989 14.9209 9.74608 15.667 10.6666 15.667C11.587 15.667 12.3332 14.9209 12.3332 14.0003C12.3332 13.4827 12.0985 13.0209 11.726 12.7136C11.3665 12.4171 11.2595 11.9117 11.4679 11.495L15.1054 4.21978C15.2749 3.88099 15.6212 3.66699 15.9998 3.66699Z" fill="#1855F1"/>
</svg>
