<svg width="32" height="32" viewBox="0 0 32 32" fill="none" xmlns="http://www.w3.org/2000/svg">
<path d="M12.4497 5.11109L12.0482 2.66699H9.2884L8.88691 5.11109C8.44561 5.28885 8.03627 5.5307 7.67004 5.82531L5.37991 4.95485L4 7.37973L5.88892 8.95739C5.8558 9.18907 5.83865 9.42601 5.83865 9.66699C5.83865 9.90886 5.85592 10.1466 5.88928 10.3791L4.00269 11.9548L5.3826 14.3797L7.6714 13.5098C8.03728 13.8039 8.44616 14.0454 8.88691 14.2229L9.2884 16.667H12.0482L12.4497 14.2229C12.89 14.0455 13.2985 13.8043 13.6641 13.5106L15.9508 14.3797L17.3307 11.9548L15.4469 10.3816C15.4805 10.1483 15.498 9.90971 15.498 9.66699C15.498 9.42515 15.4807 9.18741 15.4473 8.95495L17.3333 7.37973L15.9535 4.95485L13.6655 5.82446C13.2996 5.53023 12.8906 5.28867 12.4497 5.11109Z" stroke="#1855F1" stroke-width="2" stroke-linejoin="round"/>
<path d="M23.1162 17.7771L22.7148 15.333H19.9549L19.5534 17.7771C19.1121 17.9549 18.7028 18.1967 18.3365 18.4913L16.0464 17.6209L14.6665 20.0457L16.5554 21.6234C16.5222 21.8551 16.5052 22.0921 16.5052 22.333C16.5052 22.5749 16.5224 22.8126 16.5558 23.0451L14.6692 24.6209L16.049 27.0457L18.3378 26.1758C18.7038 26.4699 19.1126 26.7114 19.5534 26.8889L19.9549 29.333H22.7148L23.1162 26.8889C23.5565 26.7115 23.965 26.4703 24.3306 26.1766L26.6173 27.0457L27.9972 24.6209L26.1134 23.0475C26.147 22.8143 26.1645 22.5757 26.1645 22.333C26.1645 22.0911 26.1472 21.8534 26.1138 21.621L27.9998 20.0457L26.62 17.6209L24.332 18.4905C23.9661 18.1962 23.557 17.9547 23.1162 17.7771Z" stroke="#1855F1" stroke-width="2" stroke-linejoin="round"/>
<path d="M22.3335 22.333C22.3335 22.8853 21.8858 23.333 21.3335 23.333C20.7812 23.333 20.3335 22.8853 20.3335 22.333C20.3335 21.7807 20.7812 21.333 21.3335 21.333C21.8858 21.333 22.3335 21.7807 22.3335 22.333Z" stroke="#1855F1" stroke-width="2"/>
<path d="M11.6665 9.66699C11.6665 10.2193 11.2188 10.667 10.6665 10.667C10.1142 10.667 9.6665 10.2193 9.6665 9.66699C9.6665 9.11471 10.1142 8.66699 10.6665 8.66699C11.2188 8.66699 11.6665 9.11471 11.6665 9.66699Z" stroke="#1855F1" stroke-width="2"/>
</svg>
