<svg width="20" height="20" viewBox="0 0 20 20" fill="none" xmlns="http://www.w3.org/2000/svg">
<path d="M17.9365 13.97C17.9357 16.2484 16.3346 18.1528 14.1961 18.6203L13.6899 17.1013C14.6454 16.9453 15.4576 16.3627 15.9245 15.5556H13.9682C13.0916 15.5556 12.3809 14.8449 12.3809 13.9682V10.7937C12.3809 9.91696 13.0916 9.20633 13.9682 9.20633H16.3C15.9095 6.07434 13.2378 3.65077 9.99995 3.65077C6.76219 3.65077 4.09046 6.07434 3.6999 9.20633H6.03173C6.90838 9.20633 7.61904 9.91696 7.61904 10.7937V13.9682C7.61904 14.8449 6.90838 15.5556 6.03173 15.5556H3.65078C2.77414 15.5556 2.06348 14.8449 2.06348 13.9682V9.99996C2.06348 5.61677 5.61677 2.06348 9.99995 2.06348C14.3832 2.06348 17.9365 5.61677 17.9365 9.99996V10.7926V10.7937V13.9682V13.97ZM16.3492 13.9682V10.7937H13.9682V13.9682H16.3492ZM3.65078 10.7937V13.9682H6.03173V10.7937H3.65078Z" fill="#71717B"/>
</svg>
