<svg width="253" height="280" viewBox="0 0 253 280" fill="none" xmlns="http://www.w3.org/2000/svg">
<path d="M198.187 90.7491L198.165 96.1401C195.236 97.2283 192.339 99.3316 192.339 102.401C192.339 106.182 192.393 88.8057 192.187 140.638C192.165 142.66 193.491 144.551 195.926 145.942C203.56 150.355 216.773 147.272 216.773 140.703C217.01 88.4715 216.947 106.199 216.947 102.422C216.947 99.2997 213.889 97.1175 210.904 96.0967L210.925 94.5968C211.121 94.5968 211.338 94.6184 211.556 94.6184C214.643 94.6184 217.512 93.901 220.034 92.4446C220.055 92.4446 220.055 92.4445 220.055 92.423C220.077 92.423 220.077 92.423 220.099 92.423L230.164 86.5754C236.229 83.0321 239.576 75.7064 239.62 65.9241V65.8371C239.62 45.8164 225.468 21.3391 208.034 11.2744C199.404 6.27459 191.252 5.49199 185.122 9.05701L175.057 14.9045L175.036 14.9263C175.036 14.9263 175.036 14.9263 175.014 14.948C168.992 18.4696 165.645 25.7518 165.623 35.5122C165.556 56.2212 180.593 81.3655 198.187 90.7491ZM209.817 101.422C209.739 103.921 204.03 105.293 200.665 103.335C199.73 102.792 199.23 102.118 199.23 101.401L199.252 91.3361C202.948 93.1837 206.491 94.2706 209.838 94.5532L209.817 101.422ZM215.686 140.682C215.686 146.221 203.52 149.086 196.47 145.008C194.404 143.812 193.252 142.269 193.274 140.638L193.426 105.444C198.284 111.376 211.563 110.981 215.838 105.488L215.686 140.682ZM185.665 10.0135C191.448 6.64405 199.208 7.42665 207.491 12.209C224.664 22.1216 238.576 46.2293 238.533 65.9241C238.489 75.3151 235.337 82.2928 229.62 85.619L224.555 88.5754C224.968 88.0755 225.338 87.532 225.707 86.9667C225.707 86.945 225.707 86.945 225.729 86.945C228.463 82.5697 229.533 76.9932 229.533 71.7934C229.592 51.837 215.483 27.2306 197.969 17.1219C193.68 14.6573 188.566 12.709 183.579 12.709C183.409 12.709 180.632 12.9423 180.601 12.9483L185.665 10.0135ZM175.622 15.8393C182.362 12.0212 190.402 14.0871 197.165 17.9262C197.252 17.9698 197.339 18.0131 197.426 18.0567C214.738 28.0456 228.508 52.3327 228.446 71.7934C228.446 90.6917 215.2 99.3746 197.752 89.2927C180.579 79.3801 166.645 55.2507 166.71 35.5123C166.732 26.1432 169.905 19.1436 175.622 15.8393Z" fill="black"/>
<path d="M211.6 90.2492C213.103 90.2492 214.785 89.9785 216.382 89.3796C216.404 89.3579 216.404 89.3579 216.426 89.3579C217.882 88.7709 219.186 87.9016 220.317 86.7711C220.317 86.7494 220.338 86.7494 220.338 86.7494C232.459 74.4575 220.845 35.3495 195.796 20.8827C183.901 14.0683 173.039 16.1765 170.493 29.6432C170.471 29.7084 170.471 29.7954 170.449 29.8824C170.362 30.3823 170.275 30.904 170.21 31.4475C170.058 32.7301 169.971 34.0996 169.949 35.5125C169.949 39.0342 170.406 42.6862 171.275 46.3599C173.862 57.555 180.166 69.0111 188.253 77.5107C201.311 91.2308 211.382 90.1672 211.6 90.2492ZM183.427 18.1653H183.579C187.057 18.1653 191.1 19.4262 195.252 21.8391C218.783 35.3999 231.491 73.4641 219.664 85.8362C202.434 85.8362 178.953 57.887 179.014 32.1864C179.036 25.9912 180.558 21.1653 183.427 18.1653Z" fill="#1855F1"/>
<path d="M229.316 194.505L229.272 183.593C229.272 183.571 229.272 183.571 229.272 183.571C229.272 181.919 228.207 180.397 226.294 179.267L145.95 132.595C143.081 130.921 138.864 130.53 135.32 131.378C137.777 128.725 139.494 124.921 139.494 121.639L139.233 28.7298C139.211 26.5125 138.429 24.8169 136.994 24.0126C136.994 23.9909 136.972 23.9909 136.972 23.9909L130.951 20.4693C129.516 19.6432 127.625 19.8171 125.647 20.9476L122.451 22.7952C122.451 22.572 122.429 10.2899 122.429 10.5132C122.429 10.1003 122.364 9.73055 122.321 9.33937C122.082 7.10041 121.168 5.38306 119.647 4.51358C119.625 4.49187 119.625 4.49186 119.603 4.49186L112.995 0.644143C111.191 -0.399202 108.756 -0.160176 106.343 1.25287L31.8465 44.2728C31.8033 44.2728 31.7814 44.2945 31.738 44.3164C26.8904 47.0988 22.9775 53.8594 22.9122 59.4679C22.8905 59.5114 22.8687 59.5766 22.8687 59.62C22.8694 59.8468 22.9383 81.6003 22.9339 80.2278L6.89113 89.4883C3.08696 91.6838 0 97.0533 0 101.444L0.282827 194.353C0.282827 196.571 1.06506 198.266 2.47811 199.071L8.5432 202.614C8.5432 202.614 8.5432 202.614 8.56492 202.614V202.635C9.17341 202.983 9.84741 203.135 10.565 203.135C10.7606 203.135 10.9562 203.114 11.1735 203.092C10.6517 203.831 10.3691 204.635 10.3691 205.461C10.3691 205.461 10.3474 205.461 10.3474 205.483L10.4127 216.461C10.4127 218.091 11.4779 219.613 13.4125 220.721L93.7352 267.415C97.5177 269.611 103.713 269.611 107.517 267.415L226.273 198.853C228.229 197.723 229.316 196.179 229.316 194.505ZM122.69 129.052V125.878L128.733 122.4C130.168 121.552 131.777 118.813 131.777 117.161L131.538 34.4471C131.538 34.0678 131.129 33.7597 130.712 33.969L122.495 38.7296L122.473 31.0777L132.277 25.4259C135.457 23.6085 138.098 24.7566 138.146 28.73L138.407 121.661C138.407 125.682 135.56 130.617 132.038 132.66L117.973 140.79C120.777 137.443 122.712 132.964 122.69 129.052ZM122.495 39.9686L130.451 35.3818L130.69 117.161C130.69 118.422 129.277 120.813 128.168 121.443L122.69 124.639L122.495 39.9686ZM113.3 143.442L38.7158 186.506C34.1858 189.14 30.8898 186.889 30.8898 182.049C30.5787 41.0342 30.6674 81.2615 30.651 73.8149L121.364 21.4476L121.603 129.052C121.625 134.334 117.886 140.79 113.3 143.442ZM121.256 9.44821C121.277 9.79607 121.343 10.1438 121.343 10.5134C121.343 10.7367 121.366 20.8158 121.364 20.1869L30.651 72.5542C30.6501 72.1892 30.6293 63.7893 30.6293 63.4241C30.6293 58.0353 34.5443 51.6526 38.9331 49.1203C46.5623 44.7153 11.3018 65.0742 113.517 6.05707C118.029 3.65406 120.791 5.45501 121.256 9.44821ZM23.999 59.6635C23.9554 54.3811 27.6291 47.9901 32.1943 45.3162C32.2379 45.2944 32.2813 45.2727 32.3032 45.251L106.887 2.18774C108.974 0.970407 110.995 0.752976 112.451 1.60073L116.43 3.90498C116.321 3.9267 116.191 3.97025 116.082 3.99185C115.082 4.144 114.038 4.49187 112.973 5.12231C107.224 8.44187 47.3314 43.0228 38.3897 48.1856C33.3874 51.0754 29.5425 58.0858 29.5425 63.5109C29.543 63.7298 29.5657 73.1511 29.5642 72.554L23.9773 69.2933L23.9556 59.8155C23.9773 59.7721 23.999 59.7068 23.999 59.6635ZM23.999 70.5544L29.5641 73.8151C29.8205 190.002 29.3266 182.522 30.4552 185.527C26.9237 183.268 25.3282 183.249 24.6077 180.549C24.5347 180.331 24.238 179.758 24.238 178.202C24.2213 170.652 24.3112 211.118 23.999 70.5544ZM23.4555 180.506C23.5644 180.919 23.6514 181.354 23.8249 181.723L15.1297 186.745L14.8909 104.966C14.8692 103.727 16.2601 101.314 17.3687 100.662L22.9774 97.4225L23.1511 178.202C23.1511 178.223 23.1511 178.223 23.1511 178.245C23.1511 178.958 23.229 179.827 23.4555 180.506ZM7.43445 197.896L7.17359 104.966C7.17359 101.947 8.85648 98.0032 11.6736 95.401C13.4884 93.7199 13.4708 94.1416 22.9555 88.5317L22.9773 96.1836L16.8252 99.7052C15.3906 100.553 13.782 103.357 13.8038 104.966L14.0426 187.679C14.0426 188.127 14.5521 188.355 14.8472 188.158L24.4118 182.636C24.8249 183.267 25.3249 183.81 25.9554 184.158C31.2541 187.261 32.3675 187.831 32.5854 188.049C32.5854 188.049 32.5854 188.049 32.6071 188.049C33.3247 188.462 34.129 188.658 34.9768 188.68L13.3038 201.222C9.82618 203.17 7.43445 201.531 7.43445 197.896ZM96.8871 267.502C93.7214 266.619 98.8102 268.895 13.9559 219.787C12.3908 218.896 11.4995 217.678 11.4995 216.439L11.4559 208.222C12.3124 209.078 12.7624 209.402 13.3689 209.766C20.6531 213.998 -14.8061 193.394 93.6915 256.437C93.6915 256.437 93.6915 256.437 93.6915 256.459H93.7132C94.6479 257.003 95.7348 257.416 96.887 257.676V267.502H96.8871ZM94.5393 255.655C94.3117 255.484 52.0548 230.987 13.9124 208.831C10.9088 207.111 10.4115 204.152 13.956 202.092C19.2592 199.03 -15.1294 218.886 132.581 133.595L132.69 133.53C136.211 131.508 141.907 131.486 145.407 133.53L225.729 180.202C229.132 182.159 228.875 185.168 225.686 186.94L106.93 255.503C103.517 257.481 98.0393 257.524 94.5393 255.655ZM225.729 197.918L106.973 266.48C106.061 267.002 104.995 267.372 103.865 267.633V257.763C105.191 257.481 106.43 257.068 107.495 256.459L226.229 187.897C226.875 187.528 227.649 186.915 228.186 186.288L228.229 194.505C228.229 195.766 227.338 196.983 225.729 197.896C225.729 197.896 225.729 197.896 225.729 197.918Z" fill="black"/>
<path d="M157.08 189.766C155.189 188.679 152.211 188.679 150.32 189.766L116.169 209.483C114.066 210.717 114.098 212.823 116.147 214.026L138.69 227.134C140.633 228.238 143.583 228.232 145.472 227.134L179.623 207.418C181.651 206.271 181.772 204.136 179.623 202.874L157.08 189.766Z" fill="black"/>
<path d="M19.3253 215.439L15.4996 213.221C15.3255 213.135 15.1082 213.135 14.9562 213.221C14.7821 213.308 14.6733 213.504 14.6733 213.7V218.112C14.6733 218.112 14.6733 218.112 14.6733 218.134C14.6733 218.33 14.7822 218.504 14.9562 218.612L22.6731 223.069C22.7381 223.112 22.8468 223.134 22.934 223.134C23.0211 223.134 23.1295 223.112 23.2165 223.069C23.3686 222.982 23.4774 222.786 23.4774 222.591V218.156C23.4774 217.96 23.3686 217.786 23.2165 217.678L19.3253 215.439ZM22.3904 221.656L16.2819 218.134L18.6732 216.765L19.0644 216.547L22.3904 218.46V221.656Z" fill="black"/>
<path d="M34.281 224.091L30.4116 221.83L26.5638 219.613C26.3901 219.526 26.1945 219.526 26.0204 219.613C25.8465 219.722 25.7598 219.896 25.7598 220.091V224.504C25.7598 224.526 25.7598 224.526 25.7598 224.526C25.7598 224.722 25.8465 224.917 26.0204 225.004L33.7376 229.46C33.8246 229.526 33.9117 229.547 34.0201 229.547C34.1071 229.547 34.1939 229.526 34.281 229.46C34.4551 229.374 34.5636 229.2 34.5636 229.004V224.548C34.5636 224.352 34.455 224.178 34.281 224.091ZM33.4767 228.047L27.3684 224.526L27.9989 224.156L30.1291 222.939L33.4766 224.874L33.4767 228.047Z" fill="black"/>
<path d="M59.7029 42.4499C57.6825 43.6162 56.0378 46.4545 56.0445 48.7864C56.0511 51.1183 57.7064 52.0513 59.7268 50.8849C61.756 49.7132 63.3919 46.88 63.385 44.5483C63.3786 42.2164 61.7321 41.2781 59.7029 42.4499Z" fill="black"/>
<path d="M48.8833 48.737C46.8631 49.9033 45.2187 52.7418 45.2251 55.0736C45.232 57.4053 46.887 58.3386 48.9075 57.1721C50.9366 56.0003 52.5723 53.1671 52.5659 50.8354C52.5591 48.5035 50.9127 47.5652 48.8833 48.737Z" fill="black"/>
<path d="M38.064 55.024C36.0435 56.1904 34.3989 59.0288 34.4058 61.3606C34.4121 63.6923 36.0674 64.6256 38.0879 63.4591C40.1173 62.2874 41.753 59.4541 41.7463 57.1225C41.7397 54.7907 40.0934 53.8524 38.064 55.024Z" fill="black"/>
<path d="M40.3024 228.243C40.3024 228.221 40.3024 228.221 40.3024 228.221C39.9112 227.504 39.3243 226.917 38.7156 226.547C37.9981 226.134 37.3026 226.091 36.7374 226.417C36.194 226.721 35.8896 227.352 35.8896 228.156C35.8896 228.852 36.129 229.634 36.5201 230.417C36.5418 230.417 36.5418 230.417 36.5418 230.417V230.439C36.9983 231.156 37.5634 231.743 38.1505 232.069C38.5416 232.308 38.9548 232.438 39.3244 232.438C39.6067 232.438 39.8678 232.373 40.107 232.243C40.6504 231.917 40.9765 231.286 40.9765 230.46C40.9765 229.743 40.7372 228.96 40.3243 228.243L40.3024 228.243ZM39.5635 231.286C39.3679 231.395 39.0415 231.352 38.6939 231.134C38.3895 230.96 38.0635 230.678 37.8026 230.33L38.5634 229.873L39.6285 229.265C39.8026 229.678 39.8896 230.091 39.8896 230.46C39.8895 230.873 39.7808 231.178 39.5635 231.286Z" fill="black"/>
<path d="M41.4285 94.7221H41.4296C41.73 94.721 41.973 94.4769 41.9719 94.1776L41.9337 80.9065L59.7053 70.6456C59.9653 70.4959 60.0545 70.1637 59.9038 69.9036C59.754 69.6436 59.4218 69.5523 59.1618 69.7051L41.1175 80.1231C40.9487 80.2196 40.8447 80.4001 40.8457 80.5943L40.885 94.1796C40.886 94.4801 41.1291 94.7221 41.4285 94.7221Z" fill="#1855F1"/>
<path d="M59.3083 121.645L42.078 131.594L42.042 118.947C42.0409 118.646 41.7979 118.404 41.4985 118.404H41.4974C41.197 118.405 40.954 118.65 40.9551 118.949L40.9933 132.534C40.9956 132.957 41.4527 133.21 41.8085 133.003L59.8519 122.585C60.4797 122.224 59.9213 121.281 59.3083 121.645Z" fill="#1855F1"/>
<path d="M92.9249 51.4663L110.156 41.5185L110.192 54.1655C110.193 54.4659 110.436 54.7078 110.736 54.7078H110.737C111.037 54.7067 111.28 54.4626 111.279 54.1633L111.24 40.5779C111.237 40.1539 110.78 39.902 110.425 40.1087L92.3812 50.5257C92.1212 50.6753 92.032 51.0076 92.1827 51.2676C92.3316 51.5279 92.6638 51.6171 92.9249 51.4663Z" fill="#1855F1"/>
<path d="M110.806 78.3887H110.805C110.504 78.3898 110.261 78.6339 110.262 78.9332L110.3 92.2043L92.5291 102.465C92.2691 102.615 92.1799 102.947 92.3306 103.207C92.4304 103.381 92.6141 103.479 92.8008 103.479C92.8931 103.479 92.9866 103.456 93.0726 103.406L111.116 92.9877C111.285 92.8912 111.389 92.7107 111.388 92.5165L111.35 78.9312C111.348 78.6307 111.105 78.3887 110.806 78.3887Z" fill="#1855F1"/>
<path d="M47.9319 103.087C56.5775 109.231 67.2029 107.246 76.4249 101.922C87.0382 95.7928 96.9966 84.7115 104.466 70.7186C104.594 70.4776 104.523 70.1783 104.3 70.0191C96.6421 64.5857 86.5223 65.0006 75.8029 71.1887C65.1779 77.3228 55.2217 88.403 47.7672 102.389C47.639 102.629 47.7101 102.929 47.9319 103.087ZM76.3464 72.1291C86.4916 66.2763 96.0318 65.7509 103.278 70.6335C95.9299 84.2475 86.2135 95.0136 75.8815 100.981C65.7341 106.838 56.193 107.363 48.9551 102.473C56.2886 88.8669 66.0028 78.1018 76.3464 72.1291Z" fill="#1855F1"/>
<path d="M76.1488 96.944C81.1487 94.0529 85.1701 87.0749 85.1484 81.3361C85.1484 80.0752 84.9528 78.9883 84.5833 78.0754C83.9748 79.1188 83.1049 80.0536 82.1703 80.5753C80.2573 81.7056 78.6704 80.8145 78.6704 78.5971C78.6704 77.4015 79.105 76.0973 79.8224 74.9668C78.6921 75.0104 77.4098 75.4015 76.0835 76.1841C71.1053 79.0535 67.0624 86.0315 67.0841 91.7704C67.1059 97.5092 71.1707 99.8134 76.1488 96.944Z" fill="#1855F1"/>
<path d="M110.561 105.401C76.0184 125.27 60.9495 133.934 44.4113 143.443C42.4113 144.595 40.8462 147.312 40.8462 149.616C40.8462 152.188 42.8806 153.237 44.9765 151.964L111.126 113.944C113.126 112.77 114.691 110.075 114.691 107.77C114.691 105.28 112.805 104.119 110.561 105.401Z" fill="black"/>
<path d="M110.561 125.922L44.4113 163.964C42.4113 165.116 40.8462 167.833 40.8462 170.115C40.8462 172.741 42.8498 173.7 44.9765 172.485L111.126 134.443C113.126 133.291 114.691 130.574 114.691 128.27C114.691 125.735 112.752 124.67 110.561 125.922Z" fill="black"/>
<path d="M178.323 160.58L142.359 139.815C140.237 138.59 137.602 138.595 135.483 139.824L25.8048 203.563C24.0427 204.587 24.0489 207.129 25.8111 208.146C63.5513 229.562 61.908 229.827 65.2042 229.827C66.3962 229.827 67.5881 229.519 68.6506 228.901L178.33 165.163C180.092 164.138 180.086 161.597 178.323 160.58ZM68.105 227.963C66.3218 228.999 64.1066 229.001 62.3191 227.969L26.3546 207.205C25.3155 206.605 25.3112 205.107 26.3503 204.503L136.028 140.765C137.811 139.729 140.027 139.724 141.815 140.755L177.78 161.52C178.819 162.121 178.823 163.618 177.784 164.223L68.105 227.963Z" fill="black"/>
<path d="M243.381 260.611L252.359 259.611L252.315 251.85L243.316 250.829C242.598 249.285 241.511 247.764 240.098 246.351L245.185 241.96L235.664 236.46L228.121 239.438C225.642 238.612 223.078 237.981 220.403 237.568L218.599 232.373H205.208L203.491 237.59C200.796 238.003 198.187 238.612 195.752 239.438L188.166 236.481L178.731 241.959L183.862 246.351C182.427 247.764 181.405 249.285 180.666 250.85L171.71 251.85L171.775 259.589L180.731 260.611C181.47 262.154 182.514 263.676 183.949 265.089L178.884 269.458L188.405 274.958L195.948 272.001C198.383 272.849 201.013 273.436 203.687 273.871L205.491 279.066H218.86L220.599 273.849C223.273 273.436 225.838 272.849 228.316 272.002L235.903 274.98L245.337 269.502L240.207 265.111C241.598 263.676 242.642 262.154 243.381 260.611ZM226.882 264.306C218.73 269.045 205.448 269.045 197.252 264.306C189.035 259.567 189.014 251.894 197.165 247.155C205.339 242.416 218.599 242.394 226.795 247.133C235.012 251.872 235.055 259.567 226.882 264.306Z" fill="black"/>
</svg>
