<svg width="32" height="32" viewBox="0 0 32 32" fill="none" xmlns="http://www.w3.org/2000/svg">
<path d="M15.9998 29.333L13.3332 21.333H2.6665L5.33317 29.333H20.6665" stroke="#1855F1" stroke-width="2" stroke-linecap="round" stroke-linejoin="round"/>
<path d="M5.3335 17.333V12.6663C5.3335 11.93 5.93046 11.333 6.66683 11.333H14.6668C15.4032 11.333 16.0002 11.93 16.0002 12.6663V17.333" stroke="#1855F1" stroke-width="2" stroke-linecap="round" stroke-linejoin="round"/>
<path d="M24.6665 29.333H27.9998C28.7362 29.333 29.3332 28.7361 29.3332 27.9997V24.6663C29.3332 23.9299 28.7362 23.333 27.9998 23.333H18.6665" stroke="#1855F1" stroke-width="2" stroke-linecap="round" stroke-linejoin="round"/>
<path d="M25.3594 17.3337C25.3594 18.8065 24.1645 20.0003 22.6902 20.0003C21.2161 20.0003 20.021 18.8065 20.021 17.3337C20.021 15.8609 21.2161 14.667 22.6902 14.667C24.1645 14.667 25.3594 15.8609 25.3594 17.3337Z" stroke="#1855F1" stroke-width="2"/>
<path d="M13.3384 5.33366C13.3384 6.80642 12.1434 8.00033 10.6692 8.00033C9.19504 8.00033 8 6.80642 8 5.33366C8 3.8609 9.19504 2.66699 10.6692 2.66699C12.1434 2.66699 13.3384 3.8609 13.3384 5.33366Z" stroke="#1855F1" stroke-width="2"/>
</svg>
