<svg width="32" height="32" viewBox="0 0 32 32" fill="none" xmlns="http://www.w3.org/2000/svg">
<path d="M2.6665 17.2613C5.74124 14.3027 11.2878 14.5271 14.0033 16.8448M10.9265 19.6331C13.5553 16.2991 17.552 16.1909 20.5349 18.0821C19.4154 16.6084 19.5634 14.732 19.15 12.052L16.7114 8.62628C13.4201 9.2734 12.1714 9.17417 10.682 8.10215C9.75901 7.37363 10.0734 6.31145 10.8888 5.43172C12.0809 4.121 12.8393 3.06779 13.8506 2.74329C14.2077 2.62876 14.5912 2.67025 14.9593 2.74065C16.3693 3.01023 17.4905 3.38216 18.8622 3.73415C19.5869 3.92013 20.2197 4.37391 20.5985 5.0192C23.3746 9.74861 25.3278 12.8829 27.897 17.4187C28.879 19.1523 29.694 21.1752 29.1685 23.0981C28.9541 23.8827 28.4349 24.484 27.7438 24.9096C22.3161 28.2525 17.4438 28.8547 13.6165 27.2204C10.2447 30.6016 4.61917 29.4464 2.68342 27.1495" stroke="#1855F1" stroke-width="2" stroke-linecap="round" stroke-linejoin="round"/>
</svg>
