<svg width="298" height="306" viewBox="0 0 298 306" fill="none" xmlns="http://www.w3.org/2000/svg">
<path d="M23.1855 144.465C23.0228 144.181 22.6599 144.084 22.3784 144.248L7.28121 152.965C6.99818 153.129 6.90104 153.492 7.06524 153.774C7.225 154.052 7.58395 154.155 7.8724 153.991L22.9695 145.273C23.2526 145.11 23.3492 144.747 23.1855 144.465Z" fill="black"/>
<path d="M36.0639 109.37L51.161 100.653C51.444 100.489 51.5412 100.127 51.377 99.8446C51.2143 99.5606 50.8514 99.4658 50.5693 99.6276L35.4721 108.345C34.797 108.736 35.3819 109.758 36.0639 109.37Z" fill="black"/>
<path d="M191.845 210.01C191.837 207.212 191.804 197.081 191.798 194.017L204.124 186.896C204.314 186.801 204.431 186.611 204.431 186.398L204.361 159.854L204.266 133.309C204.174 98.6826 204.236 122.089 203.912 0.585924C203.912 0.115031 203.368 -0.148796 203.036 0.0888695C141.75 35.4488 0.585746 116.953 0.28398 117.127C0.118304 117.245 0 117.434 0 117.647C0.763291 402.867 0.329838 236.023 0.520168 303.436C0.520168 303.909 0.982247 304.164 1.39594 303.957L13.4148 297.025L27.2073 305.045C27.4819 305.182 27.5662 305.161 27.7985 305.045L54.4378 289.667C54.6271 289.572 54.7218 289.359 54.7218 289.147L54.6745 273.177L59.0984 270.622L72.915 278.665C73.1137 278.765 73.3243 278.757 73.5062 278.665L100.146 263.288C100.311 263.193 100.429 262.98 100.429 262.768L100.406 246.798L104.806 244.243L118.622 252.287C118.82 252.386 119.033 252.377 119.214 252.287L145.83 236.908C146.019 236.79 146.138 236.601 146.138 236.388L146.09 220.419L150.515 217.864L164.307 225.884C164.46 225.998 164.713 226.024 164.899 225.884L191.396 210.601C191.667 210.533 191.845 210.228 191.845 210.01ZM191.798 192.668L191.751 167.472L203.178 160.872L203.248 186.044L191.798 192.668ZM203.178 159.499L191.751 166.1L191.704 151.148L191.68 140.904L203.107 134.327L203.178 159.499ZM203.083 132.978L191.68 139.532L191.632 114.335L203.012 107.781L203.083 132.978ZM175.095 70.7559L202.87 54.7154L202.941 79.8883L175.166 95.9046C175.159 93.3337 175.193 105.22 175.095 70.7559ZM175.095 69.3841L175.048 50.2447L175.024 44.2118L202.799 28.1713L202.87 53.3674L175.095 69.3841ZM202.729 1.60267L202.799 26.7986L175.024 42.8155V42.6261L176.326 31.1516C176.326 30.9514 176.226 30.7053 176.042 30.5835C176.042 30.5835 176.019 30.5835 176.019 30.5598L175.001 29.9681C175 29.725 174.951 16.8201 174.954 17.642L202.729 1.60267ZM173.77 18.3294L173.794 29.2828C169.212 26.7636 169.157 26.2725 168.613 26.6808L146.019 43.4303L145.995 34.3694L173.77 18.3294ZM117.038 51.0963L144.812 35.0558L144.836 44.306L129.08 55.993C128.725 56.2465 128.771 56.7598 129.127 56.9629C129.367 57.1015 140.532 63.549 139.82 63.1378L117.108 76.2681C117.101 73.6947 117.135 85.5928 117.038 51.0963ZM106.723 121.811L96.6205 116.062C96.8641 115.922 117.29 104.15 115.997 104.895V105.771L106.723 121.811ZM117.085 77.6645L139.821 64.5579L117.961 102.364L117.156 102.837C117.149 100.263 117.183 112.161 117.085 77.6645ZM95.4375 115.376L88.1744 111.236L88.1271 94.3908L115.902 78.3504L115.997 103.523C113.882 104.743 123.612 99.1329 95.4375 115.376ZM115.855 51.7821L115.926 76.9549L88.1271 92.9949L88.0561 67.8225L115.855 51.7821ZM30.3537 180.886L39.9116 175.373L30.3773 191.887L30.3537 180.886ZM59.2404 137.639L62.9075 135.533L59.2641 141.85L59.2404 137.639ZM80.2724 106.646C80.1308 106.575 79.9651 106.551 79.8231 106.599C79.6579 106.646 79.5396 106.741 79.4686 106.859L64.0903 133.498L59.2404 136.289L59.1931 117.126L59.1694 111.094L86.9443 95.0768L86.9916 110.573L80.2724 106.646ZM86.8732 68.509C86.8806 71.0829 86.8471 59.1848 86.9443 93.6818L59.1694 109.722C59.162 107.148 59.1955 119.045 59.0984 84.5494L86.8732 68.509ZM41.0945 173.339C40.8543 173.478 29.6412 179.948 30.3537 179.537L30.2827 154.365C33.1351 152.718 19.9946 160.307 58.0575 138.325L58.0811 143.908L41.0945 173.339ZM30.2589 153.016C30.2516 150.44 30.2852 162.349 30.188 127.82L57.9865 111.78L58.0575 136.952L30.2589 153.016ZM57.9155 85.2116L57.9865 110.408L30.2116 126.448L30.1406 101.275L57.9155 85.2116ZM28.9573 101.938C28.9647 104.514 28.9312 92.6054 29.0283 127.134L1.25341 143.151L1.18239 117.978L28.9573 101.938ZM1.22982 144.547L29.0046 128.506C29.012 131.08 28.9785 119.182 29.0756 153.679C26.2354 155.319 39.3637 147.737 1.30072 169.719L1.22982 144.547ZM1.32444 171.091C4.16459 169.451 -8.96367 177.033 29.0993 155.051L29.1702 180.199L1.39546 196.24L1.32444 171.091ZM29.1708 181.572L29.1944 193.946L18.0744 213.203L1.46697 222.785L1.39594 197.613L29.1708 181.572ZM16.8916 215.238L5.70102 234.638C5.53584 234.922 5.63058 235.277 5.9141 235.442L12.6569 239.369C13.0026 239.543 13.1328 239.462 13.3424 239.251C13.6875 238.914 23.7005 224.742 29.265 216.942L29.2886 227.28L29.3118 233.29L1.53751 249.33L1.46649 224.158L16.8916 215.238ZM58.2232 191.39L58.2705 210.577L58.2937 216.563L41.5915 226.215L30.4951 232.627L30.4483 215.262L39.9116 201.941L58.2232 191.39ZM41.5436 199.671L58.1517 176.273L58.199 190.018L41.8513 199.481L41.5436 199.671ZM1.67944 302.419L1.60842 277.246L12.7516 270.835L12.8463 295.984L1.67944 302.419ZM12.941 247.437C12.8463 247.508 12.7757 247.579 12.7284 247.673C12.7047 247.697 12.7048 247.768 12.6811 247.815C12.6811 247.863 12.6575 247.909 12.6575 247.957L12.7284 269.439L1.60842 275.874L1.53799 250.702L29.3123 234.661V237.997L12.941 247.437ZM14.0286 296.031L13.8399 248.998L26.7097 256.474L26.8991 303.506L14.0286 296.031ZM28.0826 303.507L27.8932 256.474L53.3495 241.782L53.5389 288.815L28.0826 303.507ZM54.5088 240.647C54.4851 240.576 54.4851 240.505 54.4614 240.458C54.4141 240.363 54.3194 240.292 54.2484 240.245H54.2253L40.1719 232.059C39.983 231.964 39.77 231.964 39.5807 232.059L30.4957 237.311V233.975L47.1989 224.347L58.2947 217.935L58.3662 243.108L54.5571 245.332L54.5335 240.766C54.5325 240.718 54.5088 240.671 54.5088 240.647ZM54.6507 271.828L54.5561 246.68L58.3652 244.48L58.4357 269.652L54.6507 271.828ZM59.335 174.593L71.9215 156.872L87.0862 148.142C87.0936 150.716 87.0601 138.818 87.1572 173.315L86.6366 173.622L85.8791 173.173C85.6898 173.078 85.4536 173.055 85.2879 173.173L59.3819 188.125L59.335 174.593ZM73.5536 154.578L86.9679 135.722L87.0389 135.746C87.0399 135.989 87.0891 147.48 87.0862 146.77L73.5536 154.578ZM88.2692 146.085L88.2455 136.432L96.6678 141.234L88.2692 146.085ZM97.8507 141.921L113.512 150.84C113.796 151.006 114.151 150.911 114.317 150.627L116.114 147.504L116.138 156.589C113.296 158.229 126.435 150.647 88.3396 172.629L88.2687 147.456L97.8507 141.921ZM59.737 269.628L59.5239 190.089L59.8553 190.278L72.4181 197.589L72.6073 277.128L59.737 269.628ZM73.7908 277.128L73.6014 197.589C76.2044 196.084 64.1722 203.04 99.0578 182.873L99.2466 262.437L73.7908 277.128ZM100.382 245.426L100.335 220.254L104.168 218.006L104.239 243.202L100.382 245.426ZM100.264 193.732L104.097 191.508L104.168 216.657L100.335 218.881L100.264 193.732ZM104.357 177.219C104.262 177.266 104.191 177.337 104.12 177.432C104.097 177.479 104.097 177.526 104.097 177.574C104.073 177.621 104.049 177.668 104.049 177.739L104.097 190.112L100.264 192.336L100.241 181.855C100.241 181.761 100.217 181.69 100.17 181.595C100.17 181.595 100.17 181.572 100.146 181.572C100.099 181.477 100.028 181.406 99.9331 181.359C99.9331 181.359 99.9331 181.359 99.9331 181.335L88.3407 174.616V174.001C89.1853 173.513 115.17 158.497 116.139 157.937L116.186 170.381L104.357 177.219ZM145.025 114.69C145.033 117.264 144.999 105.366 145.096 139.862L117.322 155.903L117.274 145.493L130.073 123.302L145.025 114.69ZM131.28 121.244L144.978 97.514C144.978 97.7571 145.028 114.361 145.025 113.318L131.28 121.244ZM105.421 243.249L105.232 178.757L118.126 186.257C118.375 271.158 118.295 243.89 118.315 250.725L105.421 243.249ZM119.498 250.749C119.479 244.149 119.568 274.638 119.309 186.257L144.765 171.565L144.954 236.057L119.498 250.749ZM145.168 169.743L143.488 168.773L145.168 167.78V169.743ZM142.305 168.087L131.564 161.841C131.399 161.746 131.162 161.746 130.973 161.841L117.369 169.696L117.346 163.284L117.322 157.275L145.097 141.235L145.144 160.398L145.168 166.407L142.305 168.087ZM113.583 149.515L87.0862 134.421C86.8258 134.279 86.495 134.35 86.3052 134.586L19.7543 228.273L86.9438 111.898L113.441 126.992C113.465 127.016 113.488 126.992 113.512 127.016C113.86 127.132 114.132 126.978 114.246 126.779C117.753 120.71 101.539 148.766 148.55 67.4207C148.695 67.1796 148.639 66.8339 148.314 66.616C136.728 59.9845 151.881 68.5567 137.265 60.3233L174.977 32.3591L169.748 78.8479L158.7 72.5547C158.415 72.4127 158.061 72.5073 157.895 72.7677L113.583 149.515ZM173.913 70.0701L171.807 71.3002L173.865 52.9651L173.913 70.0701ZM163.006 76.3632C162.769 76.4998 153.698 81.7354 154.276 81.4021L158.629 73.8786L163.006 76.3632ZM153.093 83.4612L162.485 78.0432L164.212 77.0492C170.11 80.3055 170.067 80.5885 170.505 80.3375C171.041 80.0698 170.723 80.016 171.641 72.7667L173.912 71.4418L173.983 96.5905C171.143 98.2304 184.271 90.6493 146.208 112.631L146.137 95.5022L153.093 83.4612ZM146.28 140.548L149.781 138.514L149.828 163.734L146.351 165.721L146.28 140.548ZM149.852 165.082L149.9 190.278L146.421 192.266L146.351 167.093L149.852 165.082ZM146.493 218.81L146.421 193.637L149.9 191.627L149.947 216.799L146.493 218.81ZM150.041 120.557C149.852 120.652 149.757 120.868 149.757 121.054L149.781 137.142L146.28 139.176L146.209 114.004L173.984 97.9632L174.007 106.717L150.041 120.557ZM151.13 216.87L150.94 122.095L163.834 129.572C163.853 139.146 163.764 94.6611 164.023 224.347L151.13 216.87ZM190.663 209.654L165.206 224.346C164.947 94.66 165.036 139.145 165.017 129.571L179.969 120.935L190.45 114.878L190.521 151.147C190.614 195.359 190.546 162.056 190.663 209.654ZM177.271 105.179C177.083 105.061 176.87 105.061 176.68 105.179L175.19 106.031V103.286L175.166 97.2769L202.941 81.2364L203.012 106.433L191.183 113.246L177.271 105.179Z" fill="black"/>
<path d="M280.374 223.377C257.236 210.01 219.667 209.986 196.647 223.377C185.48 229.859 179.329 238.518 179.306 247.745C179.306 247.745 179.306 247.745 179.306 247.768L179.211 262.413C179.187 271.781 185.456 280.582 196.883 287.183C220.159 300.606 257.682 300.447 280.54 287.183C291.707 280.677 297.881 271.995 297.905 262.744C297.907 262.501 298.005 247.068 297.999 248.005C297.999 238.66 291.73 229.93 280.374 223.377ZM280.02 271.498C257.355 284.676 220.377 284.676 197.546 271.498C174.357 257.902 175.344 237.152 197.263 224.394C219.889 211.215 256.992 211.201 279.783 224.394C290.76 230.734 296.817 239.109 296.817 248.005C296.817 258.072 288.498 266.82 280.02 271.498Z" fill="black"/>
<path d="M275.028 251.436L275.004 244.433L266.889 243.534C266.203 242.114 265.257 240.766 263.956 239.488L268.569 235.513L259.981 230.569L253.144 233.242C250.944 232.509 248.602 231.941 246.189 231.562L244.58 226.878H232.49L230.929 231.586C228.516 231.965 226.15 232.509 223.974 233.242L217.113 230.569L208.596 235.513L213.233 239.488C211.932 240.766 211.032 242.114 210.347 243.534L202.279 244.433L202.327 251.436L210.394 252.358C211.08 253.754 212.027 255.127 213.328 256.404L208.738 260.331L217.326 265.299L224.14 262.626C226.34 263.383 228.706 263.927 231.119 264.306L232.751 268.99L244.816 269.014L246.378 264.306C248.791 263.927 251.109 263.383 253.334 262.626L260.194 265.299L268.712 260.355L264.051 256.404C265.329 255.126 266.251 253.754 266.938 252.358L275.028 251.436ZM251.204 255.197C244.296 259.196 233.082 259.196 226.15 255.197C219.218 251.199 219.194 244.693 226.079 240.695C232.987 236.697 244.201 236.673 251.133 240.671C258.065 244.693 258.089 251.175 251.204 255.197Z" fill="#1855F1"/>
</svg>
