<svg width="280" height="220" viewBox="0 0 280 220" fill="none" xmlns="http://www.w3.org/2000/svg">
<path d="M202.507 153.934L202.457 144.343C202.457 144.334 202.461 144.326 202.461 144.318C202.463 142.848 201.521 141.49 199.807 140.494L129.277 99.5059C126.8 98.066 123.164 97.6997 120.073 98.3943C122.176 96.0689 123.643 92.7893 123.636 89.9612L123.405 8.38564C123.399 6.41846 122.701 4.93492 121.446 4.19527C121.442 4.1926 121.442 4.18678 121.437 4.18423C121.436 4.18423 121.435 4.18313 121.434 4.18313C121.43 4.18034 121.425 4.17768 121.421 4.17501C121.421 4.17489 121.421 4.17476 121.421 4.17464L121.42 4.17452C121.415 4.17149 121.41 4.16845 121.405 4.16506L115.07 0.468515C113.79 -0.275865 112.116 -0.129534 110.356 0.881052C71.9839 23.0354 6.54945 60.7951 6.09105 61.0595C2.73267 62.9979 0 67.7295 0 71.6073L0.238542 153.176C0.238542 155.149 0.935238 156.642 2.20026 157.38L8.56383 161.116C8.5887 161.13 8.61685 161.127 8.64282 161.137C9.16904 161.428 9.75471 161.579 10.3856 161.579C10.5195 161.579 10.6671 161.527 10.8045 161.514C10.3761 162.146 10.1423 162.83 10.1391 163.542C10.1389 163.549 10.1322 163.552 10.1322 163.559L10.181 173.195C10.181 174.664 11.1247 176.018 12.8384 177.005L83.3708 217.992C85.041 218.966 87.2392 219.451 89.4438 219.451C91.6462 219.451 93.8529 218.966 95.538 217.994L199.798 157.798C201.545 156.793 202.507 155.421 202.507 153.934ZM2.74844 156.443C1.83007 155.906 1.32435 154.747 1.32435 153.175L1.08581 71.6064C1.08581 68.0752 3.5746 63.7657 6.6339 61.9991C12.3731 58.6868 26.161 50.7448 110.898 1.82163C112.303 1.01258 113.594 0.866244 114.524 1.40703L118.638 3.80786C118.45 3.84814 118.256 3.92166 118.064 3.98463C118.037 3.99337 118.012 3.99956 117.985 4.00878C117.57 4.15098 117.149 4.32594 116.72 4.57237L12.4767 64.7731C9.82509 66.3026 7.59425 69.5399 6.75608 72.7297C6.52252 73.6106 6.3751 74.4893 6.37728 75.3263L6.50165 119.209L6.60211 156.911C6.60211 157.649 6.79042 158.571 6.88737 158.872L2.74844 156.443ZM8.06915 158.932C8.06915 158.931 8.06915 158.931 8.06891 158.931C7.82527 158.376 7.69641 157.69 7.69435 156.9L7.58746 119.214L7.47049 75.3169C7.46516 74.4389 7.61658 73.5117 7.89419 72.5867C8.73454 69.8058 10.7125 67.0499 13.0165 65.7201L117.271 5.52787C118.662 4.72513 119.942 4.57674 120.879 5.11643C121.802 5.64775 122.314 6.80988 122.319 8.38782L122.55 89.9634C122.559 93.486 120.069 97.7945 116.997 99.5686L12.7428 159.76C10.8711 160.839 8.91011 160.843 8.06915 158.932ZM13.3833 160.643L117.638 100.452C120.71 98.6787 125.688 98.6745 128.732 100.445L199.262 141.434C200.623 142.225 201.371 143.244 201.374 144.308C201.374 144.31 201.371 144.311 201.371 144.314C201.371 145.531 200.245 146.64 199.215 147.235L94.9608 207.426C91.8975 209.199 86.9255 209.199 83.8769 207.429L82.5423 206.653L13.3461 166.439C13.1865 166.347 13.0651 166.242 12.9224 166.143C12.0024 165.498 11.442 164.743 11.292 163.946C11.2692 163.815 11.2231 163.686 11.2231 163.554C11.2254 162.481 11.9921 161.447 13.3833 160.643ZM199.256 156.857L94.9949 217.053C91.924 218.826 86.956 218.824 83.9168 217.055L13.3823 176.067C12.0176 175.279 11.2668 174.26 11.2668 173.192L11.2307 166.138C11.3071 166.221 11.4062 166.297 11.49 166.378C11.5913 166.476 11.6889 166.573 11.8008 166.666C12.1019 166.92 12.4285 167.163 12.8055 167.384L83.3379 208.37C86.6771 210.315 92.1341 210.313 95.5051 208.372L199.767 148.175C200.438 147.785 201.13 147.179 201.385 146.896L201.421 153.937C201.421 155.016 200.653 156.054 199.257 156.856C199.256 156.856 199.256 156.856 199.256 156.857Z" fill="black"/>
<path d="M117.355 112.721L125.006 117.138C125.704 117.541 126.841 117.547 127.535 117.144L135.146 112.721C135.84 112.317 135.826 111.659 135.128 111.256L127.476 106.839C126.778 106.435 125.642 106.43 124.948 106.833L117.336 111.256C116.642 111.659 116.656 112.318 117.355 112.721Z" fill="black"/>
<path d="M130.636 120.439L138.287 124.857C138.986 125.26 140.122 125.266 140.816 124.863L148.427 120.439C149.121 120.036 149.107 119.378 148.409 118.975L140.758 114.557C140.059 114.154 138.923 114.148 138.229 114.551L130.617 118.975C129.924 119.378 129.937 120.036 130.636 120.439Z" fill="black"/>
<path d="M104.158 120.34L111.81 124.757C112.508 125.161 113.644 125.166 114.338 124.763L121.95 120.34C122.644 119.937 122.63 119.278 121.932 118.875L114.28 114.458C113.582 114.055 112.446 114.049 111.752 114.452L104.14 118.875C103.446 119.279 103.46 119.937 104.158 120.34Z" fill="black"/>
<path d="M90.9613 127.959L98.6124 132.377C99.3109 132.78 100.447 132.786 101.141 132.382L108.753 127.959C109.447 127.556 109.433 126.898 108.734 126.494L101.083 122.077C100.385 121.674 99.2485 121.668 98.5544 122.071L90.9428 126.495C90.2487 126.898 90.2626 127.556 90.9613 127.959Z" fill="black"/>
<path d="M77.765 135.578L85.4161 139.996C86.1146 140.399 87.2509 140.405 87.9447 140.002L95.5567 135.578C96.2504 135.175 96.2364 134.517 95.5381 134.113L87.8867 129.696C87.1884 129.293 86.0521 129.287 85.3581 129.69L77.7464 134.114C77.0524 134.517 77.0664 135.175 77.765 135.578Z" fill="black"/>
<path d="M64.5687 143.197L72.2198 147.615C72.9183 148.018 74.0546 148.024 74.7484 147.621L82.3604 143.197C83.0541 142.794 83.0401 142.136 82.3418 141.733L74.6904 137.315C73.9921 136.912 72.8558 136.906 72.1618 137.309L64.5502 141.733C63.8561 142.136 63.8701 142.794 64.5687 143.197Z" fill="black"/>
<path d="M51.3724 150.817L59.0235 155.234C59.722 155.637 60.8583 155.643 61.5521 155.24L69.1641 150.816C69.8576 150.413 69.8438 149.755 69.1455 149.352L61.4941 144.934C60.7958 144.531 59.6595 144.525 58.9655 144.928L51.3539 149.352C50.6598 149.755 50.6738 150.413 51.3724 150.817Z" fill="black"/>
<path d="M38.1759 158.436L45.8273 162.853C46.5255 163.256 47.6621 163.262 48.3558 162.859L55.9678 158.435C56.6614 158.032 56.6475 157.374 55.9493 156.971L48.2979 152.553C47.5996 152.15 46.4633 152.144 45.7693 152.547L38.1577 156.971C37.4635 157.374 37.4776 158.032 38.1759 158.436Z" fill="black"/>
<path d="M24.9796 166.055L32.631 170.472C33.3292 170.875 34.4658 170.881 35.1593 170.478L42.7715 166.055C43.4651 165.651 43.4512 164.993 42.753 164.59L35.1016 160.173C34.4033 159.769 33.267 159.764 32.573 160.167L24.9614 164.59C24.2672 164.993 24.2813 165.652 24.9796 166.055Z" fill="black"/>
<path d="M135.213 126.594L127.561 122.176C126.863 121.773 125.727 121.767 125.033 122.171L117.421 126.594C116.727 126.997 116.741 127.655 117.439 128.059L125.091 132.476C125.789 132.879 126.925 132.885 127.619 132.482L135.231 128.059C135.925 127.655 135.911 126.997 135.213 126.594Z" fill="black"/>
<path d="M111.836 129.79L104.224 134.213C103.53 134.616 103.544 135.275 104.242 135.678L111.894 140.095C112.592 140.499 113.728 140.504 114.422 140.101L122.034 135.678C122.728 135.275 122.714 134.616 122.015 134.213L114.364 129.796C113.666 129.392 112.529 129.386 111.836 129.79Z" fill="black"/>
<path d="M98.6394 137.409L91.0275 141.832C90.3337 142.236 90.3478 142.894 91.046 143.297L98.6974 147.714C99.3957 148.118 100.532 148.124 101.226 147.72L108.838 143.297C109.532 142.894 109.518 142.235 108.819 141.832L101.168 137.415C100.469 137.012 99.3331 137.006 98.6394 137.409Z" fill="black"/>
<path d="M85.4431 145.028L77.8312 149.452C77.1374 149.855 77.1515 150.513 77.8497 150.916L85.5011 155.334C86.1994 155.737 87.3357 155.743 88.0297 155.34L95.6413 150.916C96.3354 150.513 96.3213 149.855 95.6228 149.451L87.9716 145.034C87.2731 144.631 86.1369 144.625 85.4431 145.028Z" fill="black"/>
<path d="M72.2469 152.647L64.6349 157.071C63.9411 157.474 63.9552 158.132 64.6534 158.535L72.3048 162.953C73.0031 163.356 74.1394 163.362 74.8334 162.959L82.445 158.535C83.1391 158.132 83.1248 157.474 82.4265 157.07L74.7753 152.653C74.0768 152.25 72.9406 152.244 72.2469 152.647Z" fill="black"/>
<path d="M59.0506 160.266L51.4386 164.69C50.7448 165.093 50.7589 165.751 51.4572 166.155L59.1086 170.572C59.8068 170.975 60.9431 170.981 61.6371 170.578L69.2487 166.154C69.9425 165.751 69.9285 165.093 69.2302 164.69L61.5788 160.272C60.8805 159.869 59.7443 159.863 59.0506 160.266Z" fill="black"/>
<path d="M56.0339 172.309L48.3825 167.891C47.6842 167.488 46.5479 167.482 45.8539 167.885L38.2423 172.309C37.5485 172.712 37.5626 173.37 38.2609 173.774L45.9123 178.191C46.6105 178.594 47.7468 178.6 48.4409 178.197L56.0525 173.773C56.7462 173.37 56.7322 172.712 56.0339 172.309Z" fill="black"/>
<path d="M143.917 128.157L151.568 132.575C152.267 132.978 153.403 132.984 154.097 132.581L161.709 128.157C162.403 127.754 162.389 127.096 161.691 126.693L154.039 122.275C153.341 121.872 152.204 121.866 151.511 122.269L143.899 126.693C143.205 127.096 143.219 127.754 143.917 128.157Z" fill="black"/>
<path d="M130.721 135.776L138.372 140.194C139.071 140.597 140.207 140.603 140.901 140.2L148.513 135.776C149.206 135.373 149.193 134.715 148.494 134.312L140.843 129.894C140.145 129.491 139.008 129.485 138.314 129.888L130.702 134.312C130.009 134.715 130.022 135.373 130.721 135.776Z" fill="black"/>
<path d="M135.297 141.931L127.646 137.513C126.947 137.11 125.811 137.104 125.117 137.508L77.9163 164.788C77.2225 165.192 77.2363 165.85 77.9346 166.253L85.586 170.67C86.2843 171.074 87.4208 171.08 88.1146 170.676L135.315 143.395C136.009 142.992 135.995 142.334 135.297 141.931Z" fill="black"/>
<path d="M82.5117 172.407L74.8605 167.99C74.162 167.587 73.0255 167.581 72.3319 167.984L64.72 172.408C64.0262 172.811 64.04 173.469 64.7383 173.872L72.3897 178.29C73.088 178.693 74.2245 178.699 74.9183 178.296L82.5299 173.872C83.224 173.469 83.2102 172.811 82.5117 172.407Z" fill="black"/>
<path d="M69.3154 180.027L61.664 175.609C60.9657 175.206 59.8292 175.2 59.1357 175.603L51.5235 180.027C50.8299 180.43 50.8438 181.088 51.542 181.491L59.1934 185.909C59.8917 186.312 61.028 186.318 61.722 185.915L69.3336 181.491C70.0278 181.088 70.0137 180.43 69.3154 180.027Z" fill="black"/>
<path d="M158.567 161.689L138.77 150.184C137.27 149.312 134.819 149.312 133.31 150.184L103.335 167.489C101.826 168.361 101.818 169.781 103.318 170.652L123.115 182.157C124.629 183.037 127.08 183.037 128.589 182.165L158.564 164.86C160.073 163.988 160.081 162.568 158.567 161.689Z" fill="black"/>
<path d="M14.1394 153.574C14.6325 153.574 15.2209 153.384 15.8413 153.026L113.002 96.9297C115.522 95.4759 117.645 91.8078 117.636 88.9203L117.424 14.0923C117.417 11.9471 116.334 11.7158 115.869 11.7158C115.375 11.7158 114.787 11.9046 114.171 12.2619L17.011 68.3579C14.4904 69.8117 12.3685 73.4807 12.378 76.3672L12.589 151.195C12.5954 153.342 13.676 153.574 14.1394 153.574ZM17.5539 69.2975L114.715 13.2015C115.153 12.947 115.574 12.8018 115.869 12.8018C116.311 12.8018 116.337 13.8802 116.338 14.0954L116.55 88.9235C116.557 91.4261 114.646 94.7282 112.459 95.9901L15.2985 152.086C14.8563 152.342 14.4331 152.488 14.1395 152.488C13.692 152.488 13.675 151.325 13.675 151.192L13.464 76.3639C13.4564 73.9059 15.4055 70.5381 17.5539 69.2975Z" fill="black"/>
<path d="M25.121 112.089C26.5717 112.925 28.2121 113.34 29.9798 113.34C32.4782 113.34 35.2321 112.513 38.0718 110.872C47.7607 105.278 55.6174 91.5673 55.5866 80.3078C55.5707 74.7702 53.681 70.639 50.2665 68.674C46.8286 66.6962 42.2656 67.1481 37.4153 69.9475C27.6171 75.6037 19.6714 89.2661 19.7032 100.4C19.7192 105.937 21.6429 110.089 25.121 112.089ZM37.9583 70.8871C42.4566 68.2902 46.6367 67.8363 49.7246 69.6145C52.7902 71.3791 54.4858 75.1774 54.5007 80.3098C54.5155 85.5841 52.734 91.4072 49.8404 96.6345C47.4393 93.1456 42.9259 92.4665 37.6808 95.5078C32.3612 98.5733 27.7585 104.586 25.3617 110.941C22.4313 109.07 20.8023 105.357 20.7889 100.398C20.7585 89.6098 28.4602 76.3716 37.9583 70.8871Z" fill="#1855F1"/>
<path d="M37.6876 92.2453C40.3655 90.6358 42.4632 86.9435 42.4285 83.9715C42.3929 80.9284 40.3044 79.7233 37.6563 81.2521C35.0085 82.7809 32.8526 86.4517 32.8614 89.495C32.8702 92.5383 35.0671 93.8202 37.6876 92.2453Z" fill="#1855F1"/>
<path d="M21.1184 135.959L54.1879 116.866C55.6258 116.036 56.796 114.009 56.7912 112.357C56.7865 110.69 55.6086 110.019 54.1709 110.849L21.1014 129.942C19.6502 130.779 18.4933 132.799 18.4981 134.466C18.5029 136.118 19.6672 136.797 21.1184 135.959Z" fill="black"/>
<path d="M66.6807 91.4256L66.7337 110.076L76.0903 104.674L76.0375 86.0234L66.6807 91.4256Z" fill="black"/>
<path d="M82.0039 73.973C82.02 80.7814 82.0686 100.988 82.0691 101.207L91.4291 95.8205L91.3639 68.5654L82.0039 73.973Z" fill="black"/>
<path d="M97.3145 56.5288C97.3155 56.8795 97.3312 61.9984 97.4232 92.3673L106.783 86.938L106.696 51.1045L97.3145 56.5121C97.3145 56.5188 97.3145 56.5237 97.3145 56.5288Z" fill="#1855F1"/>
<path d="M94.4635 43.4776L97.9262 43.8008L95.895 32.2119L86.0143 42.7387L89.2465 43.0157C89.0156 45.0011 86.2911 62.4538 64.0371 77.8286C65.6067 77.3207 85.7837 70.3492 94.4635 43.4776Z" fill="#1855F1"/>
<path d="M268.186 150.353C253.961 142.144 230.919 142.144 216.781 150.353C209.919 154.349 206.118 159.692 206.096 165.403C206.096 165.425 206.075 165.425 206.075 165.447L206.053 175.285C206.053 177.369 206.574 179.411 207.551 181.365C206.465 180.909 205.445 180.888 204.641 181.344C203.903 181.778 176.843 197.501 176.843 197.501C175.888 198.044 175.366 199.173 175.366 200.65C175.345 203.517 177.299 206.905 179.818 208.338C180.926 208.99 182.229 209.272 183.315 208.642C183.315 208.642 183.315 208.642 183.337 208.642C183.337 208.62 183.337 208.62 183.358 208.62C194.524 202.121 201.393 198.149 211.135 192.506C212.069 191.942 212.59 190.812 212.611 189.401L213.936 188.619C214.848 189.314 215.847 189.965 216.955 190.595C231.136 198.804 254.2 198.804 268.316 190.595C275.201 186.578 279.001 181.235 279.023 175.502L279.066 165.642V165.599C279.045 159.822 275.179 154.393 268.186 150.353ZM210.57 191.551C209.121 192.393 205.575 194.453 184.705 206.579C184.77 206.232 184.813 205.884 184.813 205.493C184.835 202.583 182.837 199.195 180.383 197.762C180.188 197.653 179.428 197.328 179.319 197.306L205.206 182.299C205.792 181.93 206.683 182.039 207.617 182.582C209.767 183.819 211.548 186.925 211.526 189.336C211.526 190.4 211.178 191.203 210.57 191.551ZM277.937 175.502C277.916 180.822 274.31 185.839 267.752 189.64C253.94 197.697 231.397 197.697 217.476 189.64C216.586 189.14 215.717 188.597 214.935 188.033L215.522 187.685C216.216 187.273 216.607 186.447 216.607 185.405C216.607 185.166 216.586 184.905 216.564 184.666C216.282 182.886 215.066 180.975 213.523 180.062C211.33 178.846 210.244 180.605 208.659 181.235C207.66 179.324 207.139 177.326 207.139 175.285V170.659C208.941 174.915 212.894 178.39 216.955 180.757C230.919 188.793 254.027 189.075 268.338 180.757V180.736C270.314 179.606 272.269 178.173 273.941 176.522C275.635 174.872 277.046 172.982 277.959 170.876L277.937 175.502ZM267.795 179.802C254.178 187.729 231.484 187.881 217.52 179.802C212.112 176.675 207.182 171.766 207.161 165.49C207.161 160.148 210.766 155.109 217.346 151.287C231.225 143.256 253.717 143.279 267.643 151.287C274.289 155.131 277.959 160.213 277.981 165.599C277.981 171.788 273.159 176.696 267.795 179.802Z" fill="black"/>
<path d="M266.274 153.665C253.208 146.12 231.717 146.105 218.71 153.66C213.024 156.964 209.896 161.164 209.901 165.487C209.907 169.853 213.095 174.097 218.88 177.437C231.975 184.991 253.438 184.986 266.419 177.439C272.114 174.132 275.246 169.926 275.241 165.599C275.236 161.238 272.051 157 266.274 153.665ZM265.874 176.502C253.227 183.854 232.17 183.855 219.423 176.496C215.409 174.178 212.737 171.439 211.606 168.569C212.951 166.025 215.451 163.625 218.987 161.584C231.766 154.17 253.037 154.109 266.004 161.603C269.603 163.686 272.16 166.112 273.54 168.683C272.426 171.514 269.808 174.215 265.874 176.502Z" fill="#1855F1"/>
<path d="M156.386 79.3808C156.408 83.355 157.776 86.3303 160.251 87.7636C226.598 126.312 197.062 109.155 217.607 121.1C217.672 121.121 217.715 121.165 217.759 121.187C220.669 122.859 224.165 122.012 227.075 120.318C234.047 116.3 239.693 106.506 239.671 98.5138L239.498 56.2302C239.498 56.0348 239.389 55.861 239.237 55.7525L181.752 22.3514C181.578 22.2644 181.361 22.2644 181.187 22.3514L176.561 25.0225C176.409 25.1311 176.3 25.3049 176.3 25.5003V25.5219L176.344 36.1635L164.16 29.1271C163.313 28.6276 162.445 28.5624 161.771 28.9534L157.233 31.6029C156.581 31.9721 156.212 32.7322 156.212 33.7094L156.386 79.1636V79.3808H156.386ZM238.586 98.5138C238.607 106.18 233.2 115.54 226.532 119.384C223.405 121.187 220.473 121.491 218.302 120.253C218.302 120.253 218.302 120.253 218.28 120.231C218.28 120.231 218.28 120.231 218.28 120.209H218.258C215.761 118.754 214.957 115.649 214.936 112.782L214.762 75.7975L217.629 74.147L218.324 73.7561L218.497 110.111C218.497 112.673 219.409 114.606 221.038 115.54C222.689 116.495 224.817 116.3 227.075 114.997C231.484 112.456 235.046 106.267 235.046 101.185L234.872 59.2271L238.412 57.164L238.586 98.5138ZM181.252 41.0281L223.058 65.3297L223.253 110.914L219.561 108.764L219.409 72.8004C219.409 72.6484 219.257 72.4095 219.127 72.3443L181.426 50.4317L181.448 42.3963C181.448 41.9619 181.382 41.4842 181.252 41.0281ZM180.405 39.2907C180.34 39.1821 180.275 39.0953 180.21 39.0084L180.188 35.4468L227.336 62.8539L227.553 108.438L224.317 106.571L224.144 65.0039C224.144 64.8303 224.035 64.6348 223.861 64.548L180.405 39.2907ZM181.469 23.4589L237.869 56.2302L234.329 58.2716L177.929 25.5003L181.469 23.4589ZM162.315 29.887C162.64 29.7133 163.096 29.7784 163.596 30.0825L178.081 38.4219C179.341 39.1603 180.383 40.9411 180.362 42.3744C180.362 42.3961 180.362 42.3961 180.362 42.3961L180.34 50.4316L176.887 52.4296L176.909 45.0458V45.0241C176.909 44.72 176.822 44.3942 176.757 44.0685C176.431 42.5047 175.389 40.8977 174.086 40.1376V40.1159C174.086 40.1159 174.086 40.1159 174.064 40.1159L173.282 39.6598L159.6 31.7764C159.514 31.7331 159.427 31.6678 159.34 31.6244L162.315 29.887ZM157.776 32.5367C158.08 32.363 158.558 32.428 159.079 32.7321L173.521 41.0498C174.585 41.7013 175.454 43.0478 175.714 44.3074C175.758 44.5463 175.823 44.8068 175.823 45.0241L175.801 53.472C175.801 53.6675 175.91 53.8414 176.062 53.9499L213.676 75.7974L213.85 112.782C213.872 115.127 214.371 116.93 215.023 118.233C215.044 118.276 215.066 118.32 215.088 118.363C181.578 98.9046 210.114 115.475 160.795 86.808C158.666 85.5919 157.494 82.9641 157.472 79.3807V79.272C157.472 79.272 157.472 79.272 157.472 79.2504L157.298 33.7093C157.298 33.1447 157.472 32.7103 157.776 32.5367Z" fill="black"/>
<path d="M13.877 174.676L22.7595 179.845V174.85C23.3493 175.19 14.0944 169.85 13.877 169.725V174.676Z" fill="black"/>
<path d="M24.9746 181.039L33.8569 186.208V181.213C34.4467 181.553 25.192 176.213 24.9746 176.088V181.039Z" fill="black"/>
</svg>
