<svg width="141" height="20" viewBox="0 0 141 20" fill="none" xmlns="http://www.w3.org/2000/svg">
<path d="M-0.000128746 18.8721V0.39207H5.85187L13.7759 12.7961H14.1119L13.8319 0.39207H18.2279V18.8721H12.9359L4.45187 5.76807H4.14387L4.39587 18.8721H-0.000128746ZM29.429 19.2641C28.085 19.2641 26.8716 19.0587 25.789 18.6481C24.7063 18.2374 23.773 17.6307 22.989 16.8281C22.2236 16.0254 21.6356 15.0361 21.225 13.8601C20.8143 12.6654 20.609 11.2841 20.609 9.71607C20.609 7.5134 20.9916 5.70274 21.757 4.28407C22.541 2.84674 23.6143 1.7734 24.977 1.06407C26.3396 0.354736 27.8796 6.96182e-05 29.597 6.96182e-05C30.9223 6.96182e-05 32.1263 0.205403 33.209 0.61607C34.2916 1.02674 35.2156 1.6334 35.981 2.43607C36.765 3.23874 37.3623 4.24674 37.773 5.46007C38.2023 6.65474 38.417 8.03607 38.417 9.60407C38.417 11.2281 38.193 12.6467 37.745 13.8601C37.3156 15.0547 36.6996 16.0534 35.897 16.8561C35.113 17.6587 34.1703 18.2654 33.069 18.6761C31.9676 19.0681 30.7543 19.2641 29.429 19.2641ZM29.569 15.7361C30.4836 15.7361 31.249 15.5121 31.865 15.0641C32.4996 14.5974 32.9756 13.9347 33.293 13.0761C33.629 12.1987 33.797 11.1347 33.797 9.88407C33.797 8.55874 33.629 7.43874 33.293 6.52407C32.957 5.59074 32.4623 4.89074 31.809 4.42407C31.1743 3.93874 30.3903 3.69607 29.457 3.69607C28.561 3.69607 27.7956 3.9294 27.161 4.39607C26.545 4.84407 26.069 5.51607 25.733 6.41207C25.397 7.2894 25.229 8.37207 25.229 9.66007C25.229 10.6307 25.3223 11.4987 25.509 12.2641C25.7143 13.0107 25.9943 13.6454 26.349 14.1681C26.7036 14.6721 27.1516 15.0641 27.693 15.3441C28.253 15.6054 28.8783 15.7361 29.569 15.7361ZM40.73 18.8721V0.39207H48.598C49.6247 0.39207 50.558 0.47607 51.398 0.64407C52.238 0.793403 52.9754 1.02674 53.61 1.34407C54.2634 1.64274 54.814 2.01607 55.262 2.46407C55.71 2.8934 56.046 3.3974 56.27 3.97607C56.494 4.53607 56.606 5.1614 56.606 5.85207C56.606 6.5054 56.5034 7.0934 56.298 7.61607C56.0927 8.13874 55.7754 8.59607 55.346 8.98807C54.9354 9.38007 54.4127 9.6974 53.778 9.94007C53.1434 10.1827 52.406 10.3601 51.566 10.4721V10.8921C52.63 11.0041 53.4514 11.2467 54.03 11.6201C54.6274 11.9747 55.0847 12.4507 55.402 13.0481C55.7194 13.6454 55.9994 14.3641 56.242 15.2041L57.306 18.8721H52.294L51.482 15.4841C51.314 14.7374 51.0807 14.1587 50.782 13.7481C50.502 13.3374 50.138 13.0574 49.69 12.9081C49.242 12.7401 48.682 12.6561 48.01 12.6561H45.238V18.8721H40.73ZM45.238 9.32407H48.29C49.4287 9.32407 50.3154 9.10007 50.95 8.65207C51.5847 8.20407 51.902 7.50407 51.902 6.55207C51.902 5.61874 51.6127 4.92807 51.034 4.48007C50.4554 4.03207 49.578 3.80807 48.402 3.80807H45.238V9.32407ZM59.1674 18.8721V0.39207H65.9154L70.7314 13.6921H70.8714L75.5754 0.39207H82.0154V18.8721H77.7594L78.0114 4.98407H77.7034L72.3554 18.8721H68.6594L63.4234 4.98407H63.1154L63.3674 18.8721H59.1674ZM93.2176 19.2641C91.8736 19.2641 90.6602 19.0587 89.5776 18.6481C88.4949 18.2374 87.5616 17.6307 86.7776 16.8281C86.0122 16.0254 85.4242 15.0361 85.0136 13.8601C84.6029 12.6654 84.3976 11.2841 84.3976 9.71607C84.3976 7.5134 84.7802 5.70274 85.5456 4.28407C86.3296 2.84674 87.4029 1.7734 88.7656 1.06407C90.1282 0.354736 91.6682 6.96182e-05 93.3856 6.96182e-05C94.7109 6.96182e-05 95.9149 0.205403 96.9976 0.61607C98.0802 1.02674 99.0042 1.6334 99.7696 2.43607C100.554 3.23874 101.151 4.24674 101.562 5.46007C101.991 6.65474 102.206 8.03607 102.206 9.60407C102.206 11.2281 101.982 12.6467 101.534 13.8601C101.104 15.0547 100.488 16.0534 99.6856 16.8561C98.9016 17.6587 97.9589 18.2654 96.8576 18.6761C95.7562 19.0681 94.5429 19.2641 93.2176 19.2641ZM93.3576 15.7361C94.2722 15.7361 95.0376 15.5121 95.6536 15.0641C96.2882 14.5974 96.7642 13.9347 97.0816 13.0761C97.4176 12.1987 97.5856 11.1347 97.5856 9.88407C97.5856 8.55874 97.4176 7.43874 97.0816 6.52407C96.7456 5.59074 96.2509 4.89074 95.5976 4.42407C94.9629 3.93874 94.1789 3.69607 93.2456 3.69607C92.3496 3.69607 91.5842 3.9294 90.9496 4.39607C90.3336 4.84407 89.8576 5.51607 89.5216 6.41207C89.1856 7.2894 89.0176 8.37207 89.0176 9.66007C89.0176 10.6307 89.1109 11.4987 89.2976 12.2641C89.5029 13.0107 89.7829 13.6454 90.1376 14.1681C90.4922 14.6721 90.9402 15.0641 91.4816 15.3441C92.0416 15.6054 92.6669 15.7361 93.3576 15.7361ZM104.519 18.8721V0.39207H112.387C113.413 0.39207 114.347 0.47607 115.187 0.64407C116.027 0.793403 116.764 1.02674 117.399 1.34407C118.052 1.64274 118.603 2.01607 119.051 2.46407C119.499 2.8934 119.835 3.3974 120.059 3.97607C120.283 4.53607 120.395 5.1614 120.395 5.85207C120.395 6.5054 120.292 7.0934 120.087 7.61607C119.881 8.13874 119.564 8.59607 119.135 8.98807C118.724 9.38007 118.201 9.6974 117.567 9.94007C116.932 10.1827 116.195 10.3601 115.355 10.4721V10.8921C116.419 11.0041 117.24 11.2467 117.819 11.6201C118.416 11.9747 118.873 12.4507 119.191 13.0481C119.508 13.6454 119.788 14.3641 120.031 15.2041L121.095 18.8721H116.083L115.271 15.4841C115.103 14.7374 114.869 14.1587 114.571 13.7481C114.291 13.3374 113.927 13.0574 113.479 12.9081C113.031 12.7401 112.471 12.6561 111.799 12.6561H109.027V18.8721H104.519ZM109.027 9.32407H112.079C113.217 9.32407 114.104 9.10007 114.739 8.65207C115.373 8.20407 115.691 7.50407 115.691 6.55207C115.691 5.61874 115.401 4.92807 114.823 4.48007C114.244 4.03207 113.367 3.80807 112.191 3.80807H109.027V9.32407ZM121.525 18.8721L127.797 0.39207H134.405L140.677 18.8721H135.749L131.325 3.92007H130.877L126.453 18.8721H121.525ZM125.249 15.4001V12.3761H137.625V15.4001H125.249Z" fill="#1774FF"/>
</svg>
