<svg width="48" height="48" viewBox="0 0 48 48" fill="none" xmlns="http://www.w3.org/2000/svg">
<path d="M19 24C20.6569 24 22 22.6569 22 21C22 19.3431 20.6569 18 19 18C17.3431 18 16 19.3431 16 21C16 22.6569 17.3431 24 19 24Z" stroke="#1855F1" stroke-width="3" stroke-linejoin="round"/>
<path d="M31 34C32.6569 34 34 32.6569 34 31C34 29.3431 32.6569 28 31 28C29.3431 28 28 29.3431 28 31C28 32.6569 29.3431 34 31 34Z" stroke="#1855F1" stroke-width="3" stroke-linejoin="round"/>
<path d="M39 18C40.6569 18 42 16.6569 42 15C42 13.3431 40.6569 12 39 12C37.3431 12 36 13.3431 36 15C36 16.6569 37.3431 18 39 18Z" stroke="#1855F1" stroke-width="3" stroke-linejoin="round"/>
<path d="M32.8682 28.5926L38 18M21.165 23.1368L28.4076 28.5926M7 41L17.1791 23.7584" stroke="#1855F1" stroke-width="3" stroke-linecap="round" stroke-linejoin="round"/>
<path d="M42 42H6V6" stroke="#1855F1" stroke-width="3" stroke-linecap="round" stroke-linejoin="round"/>
</svg>
