<svg width="48" height="48" viewBox="0 0 48 48" fill="none" xmlns="http://www.w3.org/2000/svg">
<path d="M18.6746 7.66614L18.0723 4H13.9326L13.3304 7.66614C12.6684 7.93278 12.0544 8.29556 11.5051 8.73748L8.06986 7.43178L6 11.0691L8.83338 13.4356C8.7837 13.7831 8.75798 14.1385 8.75798 14.5C8.75798 14.8628 8.78388 15.2195 8.83392 15.5682L6.00404 17.9318L8.0739 21.569L11.5071 20.2642C12.0559 20.7054 12.6692 21.0676 13.3304 21.3338L13.9326 25H18.0723L18.6746 21.3338C19.335 21.0678 19.9478 20.706 20.4962 20.2654L23.9262 21.569L25.996 17.9318L23.1704 15.5719C23.2208 15.222 23.247 14.8641 23.247 14.5C23.247 14.1372 23.221 13.7806 23.171 13.4319L26 11.0691L23.9302 7.43178L20.4982 8.7362C19.9493 8.29486 19.3359 7.93252 18.6746 7.66614Z" stroke="#1855F1" stroke-width="3" stroke-linejoin="round"/>
<path d="M34.6746 26.6662L34.0724 23H29.9326L29.3304 26.6662C28.6684 26.9328 28.0544 27.2956 27.505 27.7374L24.0698 26.4318L22 30.069L24.8334 32.4356C24.7836 32.7832 24.758 33.1386 24.758 33.5C24.758 33.8628 24.7838 34.2194 24.834 34.5682L22.004 36.9318L24.0738 40.569L27.507 39.2642C28.056 39.7054 28.6692 40.0676 29.3304 40.3338L29.9326 44H34.0724L34.6746 40.3338C35.335 40.0678 35.9478 39.706 36.4962 39.2654L39.9262 40.569L41.996 36.9318L39.1704 34.5718C39.2208 34.222 39.247 33.864 39.247 33.5C39.247 33.1372 39.221 32.7806 39.171 32.432L42 30.069L39.9302 26.4318L36.4982 27.7362C35.9494 27.2948 35.3358 26.9326 34.6746 26.6662Z" stroke="#1855F1" stroke-width="3" stroke-linejoin="round"/>
<path d="M33.5 33.5C33.5 34.3284 32.8284 35 32 35C31.1716 35 30.5 34.3284 30.5 33.5C30.5 32.6716 31.1716 32 32 32C32.8284 32 33.5 32.6716 33.5 33.5Z" stroke="#1855F1" stroke-width="3" stroke-linejoin="round"/>
<path d="M17.5 14.5C17.5 15.3284 16.8284 16 16 16C15.1716 16 14.5 15.3284 14.5 14.5C14.5 13.6716 15.1716 13 16 13C16.8284 13 17.5 13.6716 17.5 14.5Z" stroke="#1855F1" stroke-width="3" stroke-linejoin="round"/>
</svg>
