<svg width="48" height="48" viewBox="0 0 48 48" fill="none" xmlns="http://www.w3.org/2000/svg">
<path d="M44 13.5H36L31.5116 10.5137C30.526 9.85272 29.3678 9.5 28.1834 9.5H23.4852C21.894 9.5 20.3678 10.1359 19.2426 11.2678L14 16.5417L16.2044 18.3156C17.7959 19.5965 20.0904 19.4686 21.5316 18.0188L24 15.5357H26L38 27.6072C39.1046 28.7182 39.1046 30.5198 38 31.631C36.8954 32.742 35.1046 32.742 34 31.631L33 30.625M33 30.625L27 24.5892M33 30.625C34.1046 31.7362 34.1046 33.5376 33 34.6488C31.8954 35.76 30.1046 35.76 29 34.6488L27 32.6368M27 32.6368C28.1046 33.748 28.1046 35.5496 27 36.6606C25.8954 37.7718 24.1046 37.7718 23 36.6606L20 33.6428M27 32.6368L23 28.6368M20 33.6428L19 32.6368M20 33.6428C21.1046 34.754 21.1046 36.5554 20 37.6666C18.8954 38.7778 17.1046 38.7778 16 37.6666L8 29.5H4" stroke="#1855F1" stroke-width="3" stroke-linecap="round" stroke-linejoin="round"/>
<path d="M44 29.5H39" stroke="#1855F1" stroke-width="3" stroke-linecap="round"/>
<path d="M17 13.5H4" stroke="#1855F1" stroke-width="3" stroke-linecap="round"/>
</svg>
