<svg version="1.2" xmlns="http://www.w3.org/2000/svg" viewBox="0 0 374 301" width="374" height="301">
	<defs>
		<filter x="-50%" y="-50%" width="200%" height="200%" id="f1"> <feGaussianBlur stdDeviation="168.2"/> </filter>
		<linearGradient id="g1" x2="1" gradientUnits="userSpaceOnUse" gradientTransform="matrix(0,107.602,-196.232,0,174.652,133.485)">
			<stop offset="0" stop-color="#333333" stop-opacity=".07"/>
			<stop offset="1" stop-color="#000000" stop-opacity="0"/>
		</linearGradient>
		<radialGradient id="g2" cx="0" cy="0" r="1" gradientUnits="userSpaceOnUse" gradientTransform="matrix(7.295,7.389,-7.389,7.295,192.168,130.356)">
			<stop offset="0" stop-color="#929292"/>
			<stop offset=".075" stop-color="#727272"/>
			<stop offset=".32" stop-color="#514f4f"/>
			<stop offset=".527" stop-color="#313030"/>
			<stop offset="1" stop-color="#121212"/>
		</radialGradient>
	</defs>
	<style>
		.s0 { filter: url(#f1);fill: #1855f1 } 
		.s1 { fill: #00081c } 
		.s2 { opacity: .8;fill: #d9d9d9 } 
		.s3 { fill: #2d64f2 } 
		.s4 { fill: #96a0b5 } 
		.s5 { fill: #b2b2b2 } 
		.s6 { fill: #eeeef7 } 
		.s7 { fill: #ffe50d } 
		.s8 { opacity: .25;fill: none;stroke: #1774ff;stroke-linecap: round;stroke-width: 1.3 } 
		.s9 { fill: url(#g1) } 
		.s10 { fill: none;stroke: #1774ff;stroke-linecap: round;stroke-width: 2.5 } 
		.s11 { fill: url(#g2) } 
		.s12 { fill: none;stroke: #ffffff;stroke-width: 2.5 } 
	</style>
	<g style="opacity: .08">
		<path fill-rule="evenodd" class="s0" d="m504.4 422.68c-125.75 0-227.4-72.93-227.4-163.15 0-90.22 101.65-163.15 227.4-163.15 125.75 0 227.39 72.93 227.39 163.15 0 90.22-101.64 163.15-227.39 163.15z"/>
	</g>
	<path fill-rule="evenodd" class="s1" d="m65.18 5.81h294.64c2.76 0 5 2.24 5 5v152.87c0 2.77-2.24 5.01-5 5.01h-294.64c-2.77 0-5.01-2.24-5.01-5.01v-152.87c0-2.76 2.24-5 5.01-5z"/>
	<path class="s2" d="m78.23 29.96q-0.74 0-1.29-0.28-0.54-0.29-0.84-0.81-0.29-0.53-0.29-1.25v-4.03h0.94v4.03q0 0.71 0.39 1.1 0.38 0.37 1.09 0.37 0.7 0 1.08-0.37 0.39-0.39 0.39-1.1v-4.03h0.94v4.03q0 0.72-0.3 1.25-0.28 0.52-0.83 0.81-0.54 0.28-1.28 0.28zm3.69 1.17v-5.97h0.88l0.03 1-0.11-0.05q0.18-0.52 0.58-0.78 0.4-0.27 0.93-0.27 0.68 0 1.12 0.34 0.45 0.33 0.66 0.88 0.21 0.55 0.21 1.21 0 0.66-0.21 1.21-0.21 0.55-0.66 0.89-0.44 0.33-1.12 0.34-0.35 0-0.66-0.13-0.31-0.12-0.52-0.34-0.21-0.23-0.3-0.53l0.1-0.11v2.31zm2.14-2.01q0.56 0 0.88-0.43 0.32-0.43 0.32-1.2 0-0.77-0.32-1.2-0.32-0.43-0.88-0.43-0.37 0-0.64 0.19-0.27 0.17-0.42 0.54-0.15 0.37-0.15 0.9 0 0.54 0.14 0.9 0.15 0.37 0.42 0.55 0.28 0.18 0.65 0.18zm5.02 0.81q-0.66 0-1.16-0.3-0.5-0.3-0.77-0.85-0.27-0.55-0.27-1.29 0-0.74 0.27-1.28 0.27-0.55 0.77-0.85 0.5-0.3 1.16-0.3 0.57 0 1.01 0.2 0.45 0.19 0.72 0.57 0.28 0.37 0.36 0.92l-0.97 0.05q-0.07-0.46-0.37-0.69-0.3-0.25-0.75-0.25-0.58 0-0.92 0.44-0.32 0.43-0.32 1.19 0 0.76 0.32 1.2 0.34 0.43 0.92 0.43 0.45 0 0.75-0.25 0.3-0.25 0.37-0.76l0.97 0.06q-0.08 0.53-0.36 0.92-0.27 0.4-0.72 0.62-0.44 0.21-1.01 0.22zm4.85 0q-0.66 0-1.16-0.3-0.5-0.3-0.77-0.85-0.27-0.55-0.27-1.29 0-0.74 0.27-1.29 0.27-0.54 0.77-0.84 0.5-0.3 1.16-0.3 0.67 0 1.17 0.3 0.5 0.3 0.77 0.84 0.27 0.55 0.27 1.29 0 0.74-0.27 1.29-0.27 0.55-0.77 0.85-0.5 0.3-1.17 0.3zm0-0.81q0.6 0 0.92-0.43 0.33-0.44 0.33-1.2 0-0.76-0.33-1.19-0.32-0.44-0.92-0.44-0.58 0-0.92 0.44-0.32 0.43-0.32 1.19 0 0.76 0.32 1.2 0.34 0.43 0.92 0.43zm3.15 0.7v-4.66h0.85l0.02 1.16-0.1-0.04q0.08-0.38 0.27-0.66 0.2-0.27 0.49-0.42 0.29-0.14 0.63-0.14 0.6 0 0.97 0.34 0.38 0.33 0.48 0.92h-0.15q0.08-0.41 0.26-0.69 0.19-0.28 0.49-0.43 0.3-0.14 0.68-0.14 0.49 0 0.83 0.21 0.35 0.2 0.52 0.59 0.19 0.4 0.19 0.96v3h-0.93v-2.77q0-0.6-0.22-0.91-0.22-0.3-0.67-0.31-0.29 0.01-0.5 0.15-0.22 0.15-0.35 0.43-0.11 0.28-0.11 0.68v2.73h-0.88v-2.73q0-0.6-0.21-0.92-0.19-0.33-0.66-0.34-0.3 0.01-0.52 0.15-0.21 0.15-0.33 0.44-0.12 0.28-0.12 0.67v2.73zm7.66 0v-4.66h0.93v4.66zm-0.02-5.33v-0.93h0.96v0.93zm2.34 5.33v-4.66h0.85l0.03 1.24-0.11-0.06q0.08-0.45 0.3-0.73 0.22-0.28 0.53-0.41 0.32-0.14 0.68-0.14 0.53 0 0.87 0.23 0.35 0.23 0.53 0.63 0.18 0.4 0.18 0.9v3h-0.93v-2.71q0-0.42-0.08-0.7-0.09-0.28-0.29-0.43-0.21-0.14-0.53-0.15-0.49 0-0.8 0.33-0.3 0.32-0.3 0.95v2.71zm6.94 1.42q-0.55 0-0.97-0.17-0.42-0.16-0.69-0.47-0.27-0.3-0.37-0.7l0.96-0.06q0.1 0.29 0.34 0.45 0.24 0.18 0.73 0.18 0.58 0 0.89-0.25 0.31-0.24 0.31-0.74v-0.68q-0.16 0.36-0.53 0.57-0.37 0.21-0.82 0.21-0.59 0-1.05-0.28-0.45-0.29-0.71-0.8-0.25-0.51-0.25-1.18 0-0.67 0.25-1.18 0.25-0.51 0.7-0.79 0.45-0.29 1.02-0.29 0.5 0 0.88 0.22 0.38 0.23 0.55 0.62v-0.74h0.89v4.29q0 0.58-0.26 0.98-0.26 0.4-0.74 0.6-0.47 0.21-1.13 0.21zm-0.01-2.44q0.55 0 0.87-0.4 0.33-0.39 0.34-1.08 0.01-0.46-0.14-0.78-0.15-0.34-0.43-0.51-0.27-0.19-0.64-0.19-0.57 0-0.88 0.41-0.31 0.39-0.31 1.07 0 0.68 0.32 1.08 0.32 0.4 0.87 0.4zm7.81 1.02v-6.22h1.3l1.85 5.11 1.85-5.11h1.29v6.22h-0.94v-4.55l-1.68 4.54h-1.05l-1.67-4.54v4.55zm9.53 0.11q-0.69 0-1.19-0.3-0.49-0.3-0.76-0.85-0.26-0.55-0.26-1.29 0-0.74 0.26-1.28 0.27-0.55 0.76-0.85 0.49-0.3 1.16-0.3 0.63 0 1.11 0.29 0.48 0.29 0.75 0.84 0.27 0.56 0.27 1.34v0.23h-3.35q0.04 0.69 0.36 1.03 0.33 0.34 0.9 0.34 0.41 0 0.68-0.19 0.27-0.2 0.38-0.52l0.96 0.06q-0.19 0.65-0.73 1.05-0.53 0.4-1.3 0.4zm-1.25-2.87h2.37q-0.05-0.62-0.36-0.92-0.31-0.3-0.79-0.3-0.5 0-0.82 0.32-0.32 0.31-0.4 0.9zm6.21 2.87q-0.69 0-1.19-0.3-0.49-0.3-0.76-0.85-0.26-0.55-0.26-1.29 0-0.74 0.26-1.28 0.27-0.55 0.76-0.85 0.5-0.3 1.16-0.3 0.63 0 1.11 0.29 0.48 0.29 0.75 0.84 0.27 0.56 0.27 1.34v0.23h-3.35q0.04 0.69 0.36 1.03 0.34 0.34 0.9 0.34 0.41 0 0.68-0.19 0.27-0.2 0.38-0.52l0.96 0.06q-0.18 0.65-0.73 1.05-0.53 0.4-1.3 0.4zm-1.25-2.87h2.37q-0.05-0.62-0.36-0.92-0.31-0.3-0.79-0.3-0.5 0-0.82 0.32-0.32 0.31-0.4 0.9zm5.91 2.76q-0.67 0-0.99-0.31-0.31-0.3-0.31-0.95v-4.49h0.93v4.42q0 0.32 0.14 0.45 0.14 0.12 0.43 0.12h0.66v0.76zm-2-3.9v-0.76h2.87v0.76zm3.76 3.9v-4.66h0.93v4.66zm-0.02-5.33v-0.93h0.96v0.93zm2.34 5.33v-4.66h0.85l0.03 1.24-0.11-0.06q0.08-0.45 0.3-0.73 0.22-0.28 0.53-0.41 0.32-0.14 0.68-0.14 0.53 0 0.87 0.23 0.35 0.23 0.53 0.63 0.18 0.4 0.18 0.9v3h-0.93v-2.71q0-0.42-0.09-0.7-0.08-0.28-0.28-0.43-0.21-0.14-0.53-0.15-0.49 0-0.8 0.33-0.3 0.32-0.3 0.95v2.71zm6.94 1.42q-0.55 0-0.97-0.17-0.42-0.16-0.69-0.47-0.27-0.3-0.37-0.7l0.96-0.06q0.1 0.29 0.34 0.45 0.24 0.18 0.73 0.18 0.58 0 0.89-0.25 0.31-0.24 0.31-0.74v-0.68q-0.16 0.36-0.53 0.57-0.37 0.21-0.83 0.21-0.58 0-1.04-0.28-0.45-0.29-0.71-0.8-0.25-0.51-0.25-1.18 0-0.67 0.24-1.18 0.26-0.51 0.7-0.79 0.46-0.29 1.03-0.29 0.5 0 0.88 0.22 0.38 0.23 0.55 0.62v-0.74h0.89v4.29q0 0.58-0.26 0.98-0.26 0.4-0.74 0.6-0.47 0.21-1.13 0.21zm-0.01-2.44q0.55 0 0.87-0.4 0.33-0.39 0.34-1.08 0.01-0.46-0.14-0.78-0.15-0.34-0.43-0.51-0.27-0.19-0.64-0.19-0.57 0-0.88 0.41-0.31 0.39-0.31 1.07 0 0.68 0.32 1.08 0.32 0.4 0.87 0.4zm5.17 1.13q-0.66 0-1.11-0.21-0.45-0.2-0.7-0.55-0.24-0.36-0.28-0.82l0.96-0.04q0.07 0.38 0.33 0.61 0.26 0.23 0.8 0.23 0.44 0 0.69-0.14 0.25-0.14 0.25-0.45 0-0.17-0.08-0.28-0.08-0.12-0.32-0.2-0.24-0.09-0.7-0.17-0.69-0.13-1.09-0.3-0.39-0.18-0.56-0.45-0.16-0.27-0.16-0.66 0-0.64 0.47-1.04 0.48-0.4 1.38-0.4 0.61 0 1.02 0.21 0.41 0.2 0.64 0.55 0.23 0.34 0.3 0.77l-0.96 0.05q-0.04-0.24-0.17-0.42-0.13-0.18-0.34-0.28-0.21-0.11-0.49-0.11-0.45 0.01-0.67 0.18-0.22 0.18-0.22 0.46 0 0.21 0.1 0.34 0.1 0.13 0.33 0.22 0.23 0.08 0.6 0.14 0.73 0.12 1.14 0.3 0.41 0.18 0.58 0.44 0.17 0.26 0.17 0.64 0 0.44-0.25 0.75-0.24 0.3-0.67 0.47-0.43 0.16-0.99 0.16z"/>
	<path class="s3" d="m329.97 28.82v-5.33h1.31l1.47 4.13 1.47-4.13h1.32v5.33h-0.98v-3.68l-1.34 3.67h-0.93l-1.35-3.67v3.68zm8.37 0.09q-0.59 0-1.04-0.26-0.45-0.26-0.69-0.73-0.24-0.47-0.24-1.1 0-0.64 0.24-1.11 0.24-0.47 0.69-0.73 0.45-0.26 1.04-0.26 0.59 0 1.04 0.26 0.44 0.26 0.68 0.73 0.25 0.47 0.25 1.11 0 0.63-0.25 1.1-0.24 0.47-0.68 0.73-0.45 0.26-1.04 0.26zm0-0.78q0.47 0 0.71-0.35 0.26-0.34 0.26-0.96 0-0.62-0.26-0.96-0.24-0.36-0.71-0.36-0.47 0-0.72 0.36-0.25 0.34-0.26 0.96 0.01 0.62 0.26 0.96 0.25 0.35 0.72 0.35zm2.71 0.69v-4.01h0.9l0.04 1.11-0.09-0.01q0.09-0.58 0.34-0.84 0.26-0.26 0.69-0.26h0.37v0.83h-0.37q-0.31 0-0.52 0.09-0.2 0.09-0.3 0.28-0.1 0.19-0.1 0.5v2.31zm4.5 0.09q-0.6 0-1.04-0.26-0.44-0.26-0.68-0.73-0.24-0.47-0.24-1.1 0-0.63 0.24-1.1 0.24-0.47 0.67-0.74 0.45-0.26 1.03-0.26 0.57 0 1 0.26 0.44 0.25 0.67 0.73 0.23 0.48 0.23 1.16v0.22h-2.84q0.03 0.52 0.28 0.79 0.26 0.26 0.69 0.26 0.33 0 0.54-0.14 0.21-0.15 0.3-0.41l0.98 0.06q-0.17 0.58-0.65 0.92-0.48 0.34-1.18 0.34zm-0.96-2.47h1.85q-0.03-0.49-0.28-0.72-0.24-0.24-0.63-0.24-0.38 0-0.64 0.25-0.24 0.24-0.3 0.71z"/>
	<path class="s4" d="m88.17 53.46v-4.44h0.75l1.42 3.85 1.42-3.85h0.75v4.44h-0.54v-3.44l-1.27 3.44h-0.72l-1.27-3.44v3.44zm7.13 0.1q-0.63 0-1.08-0.28-0.45-0.28-0.7-0.8-0.24-0.52-0.24-1.24 0-0.71 0.24-1.23 0.25-0.53 0.7-0.81 0.45-0.28 1.08-0.28 0.64 0 1.09 0.28 0.46 0.28 0.7 0.81 0.25 0.52 0.25 1.23 0 0.72-0.25 1.24-0.24 0.52-0.7 0.8-0.45 0.28-1.09 0.28zm0-0.53q0.47 0 0.79-0.21 0.33-0.21 0.51-0.61 0.17-0.4 0.17-0.97 0-0.56-0.17-0.96-0.18-0.41-0.51-0.62-0.32-0.22-0.79-0.22-0.45 0-0.78 0.22-0.33 0.21-0.5 0.62-0.18 0.4-0.18 0.96 0 0.57 0.18 0.97 0.17 0.4 0.5 0.61 0.33 0.21 0.78 0.21zm2.81 0.43v-4.44h0.76l2.2 3.9v-3.9h0.54v4.44h-0.8l-2.16-3.83v3.83z"/>
	<path class="s4" d="m129.74 53.46v-3.92h-1.38v-0.52h3.3v0.52h-1.38v3.92zm4.15 0.1q-0.51 0-0.9-0.2-0.37-0.2-0.58-0.57-0.2-0.38-0.2-0.88v-2.9h0.54v2.9q0 0.54 0.29 0.83 0.3 0.29 0.85 0.29 0.54 0 0.83-0.29 0.3-0.29 0.3-0.83v-2.9h0.54v2.9q0 0.5-0.21 0.88-0.2 0.37-0.57 0.57-0.38 0.2-0.89 0.2zm2.82-0.1v-4.44h2.79v0.52h-2.25v1.44h2.18v0.51h-2.18v1.44h2.3v0.53z"/>
	<path class="s4" d="m167.78 53.46l-1.17-4.44h0.59l0.91 3.7 0.91-3.7h0.61l0.91 3.7 0.91-3.7h0.59l-1.16 4.44h-0.68l-0.88-3.44-0.87 3.44zm4.94 0v-4.44h2.79v0.52h-2.25v1.44h2.17v0.51h-2.17v1.44h2.3v0.53zm3.71 0v-4.44h1.37q1.03 0 1.58 0.58 0.56 0.57 0.56 1.64 0 1.07-0.55 1.64-0.54 0.58-1.55 0.58zm0.54-0.53h0.84q0.78 0 1.17-0.42 0.4-0.42 0.4-1.27 0-0.85-0.4-1.27-0.39-0.43-1.17-0.43h-0.84z"/>
	<path class="s4" d="m207.89 53.46v-3.92h-1.38v-0.52h3.3v0.52h-1.38v3.92zm2.38 0v-4.44h0.54v2.16l-0.28-0.22h2.79l-0.28 0.22v-2.16h0.54v4.44h-0.54v-2.18l0.28 0.21h-2.79l0.28-0.21v2.18zm6.13 0.1q-0.51 0-0.89-0.2-0.38-0.2-0.58-0.57-0.2-0.38-0.2-0.88v-2.9h0.53v2.9q0 0.54 0.3 0.83 0.3 0.29 0.84 0.29 0.54 0 0.84-0.29 0.3-0.29 0.3-0.83v-2.9h0.53v2.9q0 0.5-0.2 0.88-0.2 0.37-0.58 0.57-0.37 0.2-0.89 0.2z"/>
	<path class="s4" d="m247.55 53.46v-4.44h2.79v0.52h-2.52l0.27-0.27v2.04l-0.27-0.28h2.41v0.52h-2.41l0.27-0.28v2.19zm3.56 0v-4.44h1.69q0.47 0 0.8 0.16 0.34 0.16 0.52 0.47 0.19 0.3 0.19 0.71 0 0.3-0.14 0.54-0.14 0.23-0.36 0.37-0.22 0.14-0.46 0.15l-0.03-0.06q0.4 0 0.63 0.19 0.24 0.19 0.28 0.6l0.12 1.31h-0.54l-0.11-1.25q-0.03-0.28-0.2-0.41-0.17-0.13-0.56-0.13h-1.29v1.79zm0.54-2.32h1.21q0.41 0 0.65-0.2 0.24-0.21 0.24-0.59 0-0.39-0.25-0.59-0.24-0.22-0.71-0.22h-1.14zm3.66 2.32v-4.44h0.54v4.44z"/>
	<path class="s4" d="m287.56 53.56q-0.51 0-0.89-0.19-0.38-0.2-0.61-0.54-0.22-0.34-0.25-0.79l0.56-0.04q0.04 0.33 0.19 0.56 0.15 0.24 0.4 0.36 0.26 0.11 0.62 0.11 0.31 0 0.53-0.08 0.22-0.08 0.33-0.24 0.12-0.15 0.12-0.38 0-0.2-0.1-0.36-0.1-0.16-0.37-0.29-0.27-0.14-0.8-0.27-0.51-0.13-0.82-0.29-0.3-0.16-0.44-0.38-0.13-0.23-0.13-0.56 0-0.37 0.18-0.66 0.18-0.28 0.51-0.44 0.33-0.16 0.79-0.16 0.48 0 0.83 0.19 0.36 0.18 0.56 0.5 0.21 0.31 0.26 0.72l-0.57 0.04q-0.03-0.27-0.17-0.48-0.13-0.21-0.36-0.33-0.23-0.12-0.57-0.12-0.41 0-0.65 0.2-0.25 0.2-0.25 0.52 0 0.2 0.1 0.34 0.1 0.13 0.35 0.24 0.25 0.1 0.72 0.22 0.55 0.13 0.88 0.33 0.33 0.19 0.47 0.44 0.14 0.25 0.14 0.57 0 0.38-0.2 0.67-0.2 0.28-0.55 0.44-0.35 0.15-0.81 0.15zm1.84-0.1l1.6-4.44h0.73l1.6 4.44h-0.59l-0.44-1.27h-1.87l-0.44 1.27zm1.21-1.79h1.5l-0.75-2.18zm3.74 1.79v-3.92h-1.38v-0.53h3.3v0.53h-1.38v3.92z"/>
	<path class="s4" d="m325.68 53.56q-0.51 0-0.89-0.19-0.39-0.2-0.61-0.54-0.22-0.34-0.26-0.79l0.56-0.04q0.05 0.33 0.2 0.56 0.15 0.24 0.4 0.36 0.26 0.11 0.61 0.11 0.31 0 0.53-0.08 0.22-0.08 0.33-0.24 0.12-0.15 0.12-0.38 0-0.2-0.1-0.36-0.09-0.16-0.37-0.29-0.27-0.14-0.8-0.27-0.51-0.13-0.82-0.29-0.3-0.16-0.43-0.38-0.13-0.23-0.14-0.56 0.01-0.37 0.18-0.66 0.18-0.28 0.51-0.44 0.33-0.16 0.79-0.16 0.49 0 0.84 0.19 0.35 0.18 0.56 0.5 0.2 0.31 0.25 0.72l-0.56 0.04q-0.04-0.27-0.18-0.48-0.13-0.21-0.36-0.33-0.23-0.12-0.56-0.12-0.41 0-0.66 0.2-0.24 0.2-0.24 0.52 0 0.2 0.09 0.34 0.1 0.13 0.35 0.24 0.25 0.1 0.72 0.22 0.56 0.13 0.88 0.33 0.34 0.19 0.47 0.44 0.15 0.25 0.15 0.57 0 0.38-0.2 0.67-0.2 0.28-0.55 0.44-0.35 0.15-0.81 0.15zm4.06 0q-0.52 0-0.9-0.2-0.37-0.2-0.58-0.57-0.2-0.38-0.2-0.88v-2.9h0.54v2.9q0 0.54 0.29 0.83 0.3 0.29 0.85 0.29 0.54 0 0.83-0.29 0.3-0.29 0.3-0.83v-2.9h0.54v2.9q0 0.5-0.21 0.88-0.2 0.37-0.58 0.57-0.37 0.2-0.88 0.2zm2.82-0.1v-4.44h0.76l2.2 3.9v-3.9h0.54v4.44h-0.81l-2.15-3.83v3.83z"/>
	<path class="s5" d="m133.47 66.59v-0.52h1.18v4.52h-0.57v-4z"/>
	<path class="s5" d="m171.24 70.13q0.79-0.63 1.24-1.04 0.45-0.41 0.76-0.86 0.31-0.45 0.31-0.88 0-0.41-0.2-0.64-0.19-0.24-0.63-0.23-0.42-0.01-0.66 0.26-0.23 0.27-0.25 0.71h-0.55q0.02-0.7 0.42-1.08 0.4-0.38 1.03-0.38 0.65 0 1.03 0.35 0.38 0.36 0.38 0.98 0 0.52-0.32 1.02-0.3 0.49-0.7 0.86-0.39 0.37-1 0.87h2.15v0.47h-3.01z"/>
	<path class="s5" d="m210.66 67.21q0.05-0.58 0.45-0.9 0.4-0.33 1.04-0.33 0.42 0 0.73 0.16 0.31 0.15 0.47 0.41 0.16 0.26 0.16 0.59 0 0.39-0.23 0.67-0.21 0.29-0.57 0.37v0.03q0.41 0.1 0.64 0.39 0.24 0.3 0.24 0.77 0 0.36-0.16 0.64-0.16 0.29-0.49 0.45-0.32 0.16-0.78 0.16-0.66 0-1.09-0.34-0.42-0.35-0.47-0.99h0.55q0.04 0.37 0.3 0.61 0.27 0.24 0.7 0.24 0.44 0 0.67-0.22 0.23-0.24 0.23-0.6 0-0.47-0.31-0.68-0.32-0.2-0.95-0.2h-0.14v-0.48h0.15q0.57 0 0.87-0.18 0.29-0.19 0.29-0.58 0-0.33-0.22-0.53-0.21-0.2-0.61-0.2-0.39 0-0.63 0.2-0.24 0.2-0.28 0.54z"/>
	<path class="s5" d="m249.2 69.58v-0.43l2.19-3.04h0.69v2.98h0.62v0.49h-0.62v1.01h-0.57v-1.01zm2.34-2.87l-1.68 2.38h1.68z"/>
	<path class="s5" d="m291.63 66.56h-2.19v1.43q0.14-0.2 0.42-0.33 0.28-0.13 0.61-0.13 0.52 0 0.84 0.22 0.33 0.21 0.47 0.56 0.14 0.34 0.14 0.72 0 0.45-0.17 0.8-0.17 0.36-0.52 0.57-0.34 0.2-0.85 0.2-0.66 0-1.07-0.33-0.4-0.34-0.49-0.9h0.56q0.08 0.35 0.34 0.55 0.26 0.2 0.66 0.2 0.5 0 0.75-0.29 0.25-0.3 0.25-0.79 0-0.49-0.25-0.75-0.25-0.27-0.74-0.27-0.33 0-0.58 0.16-0.25 0.16-0.36 0.43h-0.54v-2.55h2.72z"/>
	<path class="s5" d="m330.52 66.14h0.05v0.48h-0.05q-0.45 0-0.75 0.14-0.31 0.15-0.48 0.39-0.18 0.24-0.26 0.54-0.08 0.31-0.08 0.62v0.65q0 0.3 0.07 0.53 0.07 0.22 0.19 0.38 0.13 0.16 0.28 0.24 0.16 0.07 0.32 0.08 0.2-0.01 0.35-0.08 0.15-0.08 0.26-0.21 0.11-0.14 0.16-0.32 0.06-0.19 0.06-0.41 0-0.2-0.05-0.38-0.05-0.19-0.15-0.33-0.1-0.15-0.26-0.23-0.15-0.09-0.35-0.09-0.24 0-0.44 0.12-0.2 0.11-0.34 0.3-0.12 0.18-0.14 0.4l-0.3-0.01q0.04-0.34 0.16-0.58 0.11-0.24 0.29-0.4 0.18-0.15 0.39-0.22 0.22-0.08 0.47-0.08 0.33 0 0.57 0.13 0.24 0.12 0.4 0.33 0.15 0.21 0.23 0.48 0.07 0.26 0.07 0.53 0 0.31-0.08 0.59-0.09 0.28-0.27 0.48-0.17 0.21-0.43 0.33-0.26 0.11-0.6 0.11-0.36 0-0.63-0.15-0.26-0.14-0.44-0.39-0.18-0.25-0.27-0.55-0.09-0.3-0.09-0.62v-0.26q0-0.47 0.1-0.92 0.09-0.46 0.33-0.82 0.23-0.37 0.65-0.59 0.41-0.21 1.06-0.21z"/>
	<path class="s5" d="m95.99 85.9l-1.74 4.08h-0.58l1.77-4.02h-2.42v-0.49h2.97z"/>
	<path fill-rule="evenodd" class="s3" d="m133.99 94.87c-4.15 0-7.51-3.36-7.51-7.51 0-4.15 3.36-7.5 7.51-7.5 4.15 0 7.51 3.35 7.51 7.5 0 4.15-3.36 7.51-7.51 7.51z"/>
	<path class="s6" d="m132.55 87.63q-0.35-0.14-0.54-0.4-0.19-0.26-0.19-0.64 0-0.34 0.17-0.6 0.17-0.28 0.5-0.44 0.34-0.16 0.82-0.16 0.47 0 0.8 0.16 0.34 0.16 0.51 0.44 0.17 0.26 0.17 0.6 0 0.36-0.19 0.64-0.19 0.27-0.53 0.4 0.39 0.12 0.61 0.42 0.23 0.29 0.23 0.71 0 0.41-0.2 0.72-0.2 0.3-0.57 0.46-0.36 0.17-0.83 0.17-0.48 0-0.84-0.17-0.36-0.16-0.56-0.46-0.2-0.31-0.2-0.72 0-0.42 0.23-0.72 0.22-0.3 0.61-0.41zm1.69-0.97q0-0.38-0.25-0.59-0.25-0.2-0.68-0.2-0.44 0-0.69 0.2-0.25 0.21-0.25 0.6 0 0.35 0.26 0.56 0.26 0.21 0.68 0.21 0.41 0 0.67-0.21 0.26-0.22 0.26-0.57zm-0.93 1.22q-0.47 0-0.76 0.22-0.3 0.21-0.3 0.64 0.01 0.4 0.29 0.65 0.28 0.24 0.77 0.24 0.48 0 0.76-0.24 0.28-0.25 0.28-0.65 0-0.42-0.29-0.63-0.28-0.23-0.75-0.23z"/>
	<path fill-rule="evenodd" class="s3" d="m172.77 94.87c-4.15 0-7.5-3.36-7.5-7.51 0-4.15 3.35-7.5 7.5-7.5 4.16 0 7.51 3.35 7.51 7.5 0 4.15-3.35 7.51-7.51 7.51z"/>
	<path class="s6" d="m171.87 88.77q0.06 0.36 0.29 0.55 0.23 0.19 0.62 0.19 0.52 0 0.76-0.4 0.25-0.41 0.24-1.37-0.13 0.28-0.44 0.44-0.31 0.16-0.68 0.16-0.42 0-0.75-0.17-0.33-0.18-0.52-0.51-0.18-0.33-0.18-0.8 0-0.67 0.38-1.07 0.39-0.42 1.1-0.42 0.88 0 1.23 0.57 0.36 0.57 0.36 1.7 0 0.78-0.15 1.3-0.13 0.51-0.47 0.78-0.33 0.27-0.92 0.27-0.63 0-0.99-0.35-0.36-0.34-0.41-0.87zm0.88-0.91q0.42 0 0.69-0.26 0.27-0.26 0.27-0.71 0-0.47-0.26-0.76-0.26-0.28-0.74-0.28-0.44 0-0.7 0.27-0.26 0.28-0.26 0.73 0 0.46 0.26 0.73 0.26 0.28 0.74 0.28z"/>
	<path fill-rule="evenodd" class="s3" d="m212.19 94.87c-4.16 0-7.51-3.36-7.51-7.51 0-4.15 3.35-7.5 7.51-7.5 4.15 0 7.5 3.35 7.5 7.5 0 4.15-3.35 7.51-7.5 7.51z"/>
	<path class="s6" d="m209.15 85.98v-0.52h1.18v4.52h-0.58v-4zm2.15 1.69q0-1.07 0.35-1.67 0.35-0.61 1.23-0.61 0.87 0 1.22 0.61 0.35 0.6 0.35 1.67 0 1.1-0.35 1.71-0.35 0.6-1.22 0.6-0.88 0-1.23-0.6-0.35-0.61-0.35-1.71zm2.59 0q0-0.54-0.08-0.92-0.07-0.38-0.29-0.61-0.22-0.23-0.64-0.23-0.42 0-0.65 0.23-0.22 0.23-0.29 0.61-0.07 0.38-0.07 0.92 0 0.57 0.07 0.95 0.07 0.38 0.29 0.61 0.23 0.23 0.65 0.23 0.42 0 0.64-0.23 0.22-0.23 0.29-0.61 0.08-0.38 0.08-0.95z"/>
	<path class="s5" d="m249.65 85.98v-0.52h1.18v4.52h-0.58v-4zm2 0v-0.52h1.18v4.52h-0.57v-4z"/>
	<path class="s5" d="m288.14 85.98v-0.52h1.17v4.52h-0.57v-4zm2.08 3.55q0.8-0.64 1.25-1.05 0.45-0.41 0.75-0.86 0.32-0.45 0.32-0.88 0-0.4-0.21-0.64-0.19-0.23-0.63-0.23-0.42 0-0.66 0.26-0.23 0.27-0.25 0.71h-0.55q0.02-0.7 0.43-1.08 0.4-0.38 1.03-0.38 0.64 0 1.02 0.36 0.38 0.35 0.38 0.98 0 0.52-0.31 1.01-0.31 0.49-0.71 0.86-0.39 0.37-1 0.87h2.15v0.47h-3.01z"/>
	<path class="s5" d="m328.57 85.51v4.47h-0.57v-3.76l-1.14 0.41v-0.51l1.62-0.61zm2.49 1.97h0.4q0.3 0 0.49-0.1 0.19-0.1 0.29-0.27 0.1-0.17 0.1-0.39 0-0.26-0.09-0.43-0.08-0.17-0.26-0.26-0.17-0.09-0.43-0.09-0.24 0-0.42 0.09-0.18 0.09-0.28 0.27-0.11 0.17-0.11 0.4h-0.56q0-0.34 0.17-0.62 0.17-0.28 0.48-0.44 0.31-0.17 0.72-0.17 0.4 0 0.71 0.15 0.3 0.14 0.47 0.42 0.17 0.28 0.17 0.69-0.01 0.17-0.08 0.36-0.08 0.19-0.25 0.36-0.16 0.16-0.42 0.27-0.26 0.1-0.62 0.1h-0.48zm0 0.47v-0.34h0.48q0.42 0 0.7 0.1 0.28 0.1 0.44 0.27 0.16 0.17 0.23 0.37 0.06 0.2 0.06 0.39 0 0.32-0.1 0.56-0.11 0.24-0.3 0.41-0.19 0.16-0.45 0.25-0.25 0.09-0.56 0.09-0.29 0-0.54-0.09-0.26-0.08-0.45-0.24-0.2-0.15-0.31-0.38-0.11-0.24-0.11-0.53h0.57q0 0.23 0.1 0.41 0.1 0.17 0.29 0.27 0.19 0.09 0.45 0.09 0.26 0 0.45-0.09 0.19-0.09 0.29-0.27 0.1-0.19 0.1-0.46 0-0.28-0.11-0.46-0.12-0.18-0.33-0.26-0.21-0.09-0.5-0.09z"/>
	<path class="s5" d="m93.36 104.28v4.47h-0.57v-3.77l-1.14 0.42v-0.51l1.62-0.61zm4.66 2.97v0.47h-3.21v-0.34l1.99-3.08h0.46l-0.49 0.89-1.32 2.06zm-0.62-2.95v4.45h-0.56v-4.45z"/>
	<path class="s5" d="m130.33 104.75v-0.52h1.18v4.52h-0.58v-4zm5.04-0.03h-2.2v1.43q0.15-0.2 0.43-0.33 0.28-0.13 0.61-0.13 0.51 0 0.84 0.22 0.33 0.21 0.46 0.56 0.15 0.33 0.15 0.72 0 0.45-0.17 0.8-0.17 0.36-0.52 0.57-0.35 0.2-0.86 0.2-0.66 0-1.06-0.33-0.41-0.34-0.5-0.91h0.56q0.08 0.36 0.34 0.56 0.27 0.2 0.67 0.2 0.49 0 0.74-0.29 0.25-0.3 0.25-0.79 0-0.49-0.25-0.75-0.25-0.27-0.74-0.27-0.33 0-0.58 0.16-0.24 0.16-0.35 0.43h-0.54v-2.55h2.72z"/>
	<path class="s5" d="m169.72 104.75v-0.52h1.17v4.52h-0.57v-4zm4.67 0.55q-0.13-0.69-0.85-0.69-0.56 0-0.83 0.43-0.28 0.43-0.27 1.41 0.14-0.33 0.47-0.51 0.34-0.19 0.75-0.19 0.65 0 1.03 0.4 0.39 0.4 0.39 1.11 0 0.43-0.17 0.76-0.17 0.34-0.5 0.54-0.33 0.2-0.81 0.2-0.64 0-1.01-0.28-0.36-0.29-0.5-0.8-0.15-0.51-0.15-1.25 0-2.3 1.6-2.3 0.62 0 0.97 0.33 0.35 0.34 0.41 0.84zm-0.85 0.94q-0.27 0-0.51 0.11-0.24 0.1-0.38 0.33-0.15 0.22-0.15 0.54 0 0.47 0.28 0.77 0.27 0.3 0.78 0.3 0.44 0 0.7-0.27 0.26-0.28 0.26-0.74 0-0.49-0.25-0.76-0.25-0.28-0.73-0.28z"/>
	<path class="s5" d="m210.03 104.75v-0.52h1.18v4.52h-0.58v-4zm4.94-0.08l-1.74 4.08h-0.57l1.76-4.02h-2.41v-0.49h2.96z"/>
	<path fill-rule="evenodd" class="s7" d="m250.97 113.64c-4.15 0-7.51-3.36-7.51-7.51 0-4.15 3.36-7.51 7.51-7.51 4.15 0 7.51 3.36 7.51 7.51 0 4.15-3.36 7.51-7.51 7.51z"/>
	<path class="s6" d="m247.93 104.75v-0.52h1.17v4.52h-0.57v-4zm2.98 1.65q-0.35-0.14-0.54-0.4-0.19-0.27-0.19-0.64 0-0.34 0.17-0.61 0.17-0.27 0.5-0.43 0.34-0.16 0.81-0.16 0.48 0 0.81 0.16 0.34 0.16 0.51 0.43 0.17 0.27 0.17 0.61 0 0.36-0.19 0.64-0.19 0.27-0.53 0.4 0.39 0.12 0.61 0.42 0.23 0.29 0.23 0.71 0 0.41-0.2 0.71-0.2 0.3-0.57 0.47-0.36 0.17-0.84 0.17-0.47 0-0.83-0.17-0.36-0.17-0.56-0.47-0.2-0.3-0.2-0.71 0-0.42 0.22-0.72 0.23-0.3 0.62-0.41zm1.69-0.97q0-0.38-0.25-0.59-0.25-0.21-0.69-0.21-0.43 0-0.68 0.21-0.25 0.21-0.25 0.59 0 0.35 0.26 0.57 0.26 0.21 0.67 0.21 0.42 0 0.68-0.21 0.26-0.22 0.26-0.57zm-0.94 1.22q-0.46 0-0.75 0.22-0.3 0.21-0.3 0.64 0 0.4 0.28 0.65 0.29 0.24 0.77 0.24 0.49 0 0.77-0.24 0.28-0.25 0.28-0.65 0-0.42-0.29-0.64-0.29-0.22-0.76-0.22z"/>
	<path class="s5" d="m287.96 104.75v-0.52h1.18v4.52h-0.57v-4zm2.88 2.79q0.06 0.35 0.29 0.55 0.23 0.19 0.62 0.19 0.52 0 0.76-0.41 0.25-0.4 0.24-1.37-0.13 0.29-0.44 0.45-0.31 0.16-0.68 0.16-0.42-0.01-0.75-0.17-0.33-0.18-0.51-0.51-0.19-0.33-0.19-0.8 0-0.67 0.39-1.08 0.38-0.41 1.1-0.41 0.87 0 1.22 0.57 0.36 0.57 0.36 1.69 0 0.79-0.14 1.3-0.14 0.52-0.48 0.79-0.33 0.27-0.91 0.27-0.64 0-1-0.35-0.35-0.34-0.4-0.87zm0.88-0.92q0.42 0 0.69-0.25 0.26-0.27 0.26-0.71 0-0.47-0.26-0.76-0.26-0.28-0.74-0.28-0.44 0-0.7 0.27-0.25 0.28-0.25 0.73 0 0.45 0.25 0.73 0.26 0.27 0.75 0.27z"/>
	<path class="s5" d="m326.42 108.29q0.79-0.63 1.24-1.04 0.45-0.41 0.76-0.86 0.31-0.45 0.31-0.88 0-0.41-0.2-0.64-0.19-0.24-0.63-0.24-0.43 0-0.66 0.27-0.24 0.27-0.26 0.71h-0.55q0.03-0.7 0.43-1.08 0.4-0.38 1.03-0.38 0.65 0 1.02 0.35 0.38 0.36 0.38 0.99 0 0.51-0.31 1.01-0.31 0.49-0.7 0.86-0.39 0.37-1.01 0.87h2.15v0.47h-3zm3.66-1.85q0-1.08 0.35-1.68 0.35-0.6 1.23-0.61 0.87 0.01 1.22 0.61 0.35 0.6 0.35 1.68 0 1.09-0.35 1.7-0.35 0.61-1.22 0.61-0.88 0-1.23-0.61-0.35-0.61-0.35-1.7zm2.59 0q0-0.55-0.08-0.92-0.07-0.38-0.29-0.61-0.22-0.24-0.64-0.24-0.43 0-0.65 0.24-0.22 0.23-0.3 0.61-0.06 0.37-0.06 0.92 0 0.56 0.06 0.94 0.08 0.39 0.3 0.62 0.22 0.23 0.65 0.23 0.42 0 0.64-0.23 0.22-0.23 0.29-0.62 0.08-0.38 0.08-0.94z"/>
	<path class="s5" d="m92.42 127.06q0.79-0.64 1.24-1.05 0.45-0.41 0.76-0.85 0.31-0.45 0.31-0.88 0-0.41-0.2-0.64-0.19-0.24-0.63-0.24-0.43 0-0.66 0.27-0.24 0.26-0.25 0.71h-0.55q0.02-0.7 0.42-1.09 0.4-0.38 1.03-0.38 0.65 0 1.02 0.36 0.38 0.36 0.38 0.98 0 0.52-0.31 1.01-0.31 0.49-0.7 0.87-0.39 0.37-1.01 0.86h2.15v0.48h-3zm3.51-3.55v-0.52h1.18v4.52h-0.58v-4z"/>
	<path class="s5" d="m130.15 127.06q0.8-0.64 1.25-1.05 0.45-0.41 0.75-0.85 0.32-0.45 0.32-0.88 0-0.41-0.2-0.64-0.2-0.24-0.63-0.24-0.43 0-0.67 0.27-0.23 0.26-0.25 0.71h-0.55q0.03-0.7 0.43-1.09 0.4-0.38 1.03-0.38 0.64 0 1.02 0.36 0.38 0.36 0.38 0.98 0 0.52-0.31 1.01-0.31 0.49-0.7 0.87-0.4 0.37-1.01 0.86h2.15v0.48h-3.01zm3.6 0q0.8-0.64 1.25-1.05 0.45-0.41 0.75-0.86 0.32-0.45 0.32-0.88 0-0.4-0.2-0.64-0.2-0.23-0.64-0.23-0.42 0-0.66 0.27-0.23 0.26-0.25 0.7h-0.55q0.03-0.7 0.43-1.08 0.4-0.38 1.03-0.38 0.64 0 1.02 0.36 0.38 0.35 0.38 0.98 0 0.52-0.31 1.01-0.31 0.49-0.7 0.86-0.4 0.37-1.01 0.87h2.15v0.47h-3.01z"/>
	<path class="s5" d="m169.52 127.06q0.79-0.64 1.24-1.05 0.45-0.41 0.76-0.85 0.31-0.45 0.31-0.88 0-0.41-0.2-0.64-0.19-0.24-0.63-0.24-0.42 0-0.66 0.27-0.23 0.26-0.25 0.71h-0.55q0.02-0.7 0.42-1.09 0.4-0.38 1.04-0.38 0.64 0 1.02 0.36 0.38 0.36 0.38 0.98 0 0.52-0.32 1.01-0.3 0.49-0.7 0.87-0.39 0.37-1 0.86h2.15v0.48h-3.01zm3.65-2.93q0.05-0.58 0.45-0.9 0.4-0.33 1.04-0.33 0.42 0 0.73 0.16 0.31 0.15 0.47 0.41 0.16 0.27 0.16 0.6 0 0.38-0.23 0.67-0.21 0.28-0.57 0.36v0.03q0.41 0.1 0.64 0.39 0.24 0.3 0.24 0.77 0 0.36-0.16 0.65-0.16 0.28-0.49 0.44-0.32 0.17-0.78 0.16-0.66 0-1.09-0.34-0.42-0.35-0.47-0.99h0.55q0.04 0.38 0.3 0.61 0.27 0.24 0.7 0.24 0.44 0 0.67-0.22 0.23-0.23 0.23-0.6 0-0.47-0.32-0.67-0.31-0.21-0.94-0.21h-0.14v-0.47h0.15q0.57-0.01 0.87-0.19 0.29-0.19 0.29-0.58 0-0.33-0.22-0.53-0.21-0.2-0.61-0.2-0.39 0-0.63 0.2-0.24 0.2-0.28 0.54z"/>
	<path class="s5" d="m208.81 127.06q0.79-0.64 1.24-1.05 0.45-0.41 0.76-0.85 0.31-0.45 0.31-0.88 0-0.41-0.2-0.64-0.19-0.24-0.63-0.24-0.43 0-0.66 0.27-0.24 0.26-0.25 0.71h-0.56q0.03-0.7 0.43-1.09 0.4-0.38 1.03-0.38 0.65 0 1.02 0.36 0.38 0.36 0.38 0.98 0 0.52-0.31 1.01-0.31 0.49-0.7 0.87-0.39 0.37-1.01 0.86h2.16v0.48h-3.01zm3.53-0.55v-0.44l2.19-3.04h0.68v2.98h0.63v0.5h-0.63v1h-0.56v-1zm2.34-2.88l-1.68 2.38h1.68z"/>
	<path class="s5" d="m247.6 127.06q0.79-0.64 1.24-1.05 0.45-0.41 0.76-0.85 0.31-0.45 0.31-0.88 0-0.41-0.2-0.64-0.19-0.24-0.63-0.24-0.43 0-0.67 0.27-0.23 0.26-0.25 0.71h-0.55q0.03-0.7 0.43-1.09 0.4-0.38 1.03-0.38 0.65 0 1.02 0.36 0.38 0.36 0.38 0.98 0 0.52-0.31 1.01-0.31 0.49-0.7 0.87-0.39 0.37-1.01 0.86h2.15v0.48h-3zm6.55-3.58h-2.2v1.43q0.14-0.2 0.43-0.32 0.28-0.14 0.6-0.13 0.52-0.01 0.85 0.21 0.32 0.22 0.46 0.56 0.14 0.34 0.14 0.72 0 0.45-0.17 0.81-0.16 0.35-0.51 0.56-0.35 0.21-0.86 0.21-0.66 0-1.07-0.34-0.4-0.34-0.49-0.9h0.56q0.08 0.35 0.34 0.55 0.26 0.2 0.66 0.2 0.5 0 0.75-0.29 0.25-0.3 0.25-0.79 0-0.49-0.25-0.75-0.25-0.27-0.74-0.27-0.33 0-0.58 0.16-0.24 0.16-0.36 0.44h-0.53v-2.56h2.72z"/>
	<path class="s5" d="m286.98 127.06q0.8-0.64 1.25-1.05 0.45-0.41 0.75-0.85 0.32-0.45 0.32-0.88 0-0.41-0.2-0.64-0.2-0.24-0.64-0.24-0.42 0-0.66 0.27-0.23 0.26-0.25 0.71h-0.55q0.03-0.7 0.43-1.09 0.4-0.38 1.03-0.38 0.64 0 1.02 0.36 0.38 0.36 0.38 0.98 0 0.52-0.31 1.01-0.31 0.49-0.7 0.87-0.4 0.37-1.01 0.86h2.15v0.48h-3.01zm6.19-2.99q-0.14-0.7-0.86-0.7-0.55 0-0.83 0.43-0.27 0.43-0.27 1.41 0.15-0.32 0.48-0.5 0.34-0.19 0.75-0.19 0.64 0 1.02 0.4 0.39 0.4 0.39 1.11 0 0.42-0.17 0.76-0.16 0.34-0.5 0.54-0.33 0.2-0.8 0.2-0.65 0-1.01-0.29-0.36-0.29-0.51-0.8-0.14-0.5-0.14-1.25 0-2.29 1.6-2.29 0.61 0 0.96 0.33 0.35 0.33 0.42 0.84zm-0.85 0.93q-0.27 0-0.51 0.11-0.24 0.11-0.39 0.33-0.14 0.22-0.14 0.54 0 0.48 0.27 0.78 0.28 0.29 0.79 0.29 0.44 0 0.69-0.27 0.27-0.27 0.27-0.74 0-0.48-0.25-0.76-0.25-0.28-0.73-0.28z"/>
	<path class="s5" d="m326.54 127.34q0.95-0.76 1.49-1.25 0.54-0.5 0.91-1.03 0.37-0.54 0.37-1.06 0-0.49-0.24-0.76-0.23-0.29-0.76-0.29-0.51 0-0.79 0.32-0.28 0.32-0.3 0.85h-0.66q0.03-0.84 0.51-1.3 0.48-0.45 1.24-0.45 0.77 0 1.22 0.42 0.46 0.43 0.46 1.18 0 0.63-0.38 1.22-0.36 0.58-0.84 1.03-0.47 0.45-1.21 1.04h2.59v0.57h-3.61zm7.74-4.35l-2.09 4.9h-0.69l2.12-4.83h-2.9v-0.58h3.56z"/>
	<path class="s5" d="m95.22 146.44v0.47h-2.91v-0.41l1.45-1.62q0.27-0.3 0.42-0.51 0.15-0.21 0.21-0.37 0.06-0.17 0.06-0.34 0-0.22-0.09-0.4-0.09-0.18-0.27-0.29-0.17-0.1-0.42-0.1-0.29 0-0.49 0.11-0.2 0.11-0.3 0.32-0.09 0.2-0.09 0.47h-0.57q0-0.38 0.17-0.69 0.16-0.31 0.48-0.49 0.33-0.19 0.8-0.19 0.42 0 0.72 0.15 0.3 0.15 0.46 0.42 0.16 0.26 0.16 0.62 0 0.19-0.07 0.4-0.06 0.19-0.17 0.39-0.12 0.2-0.27 0.39-0.15 0.2-0.32 0.38l-1.19 1.29zm3.41-0.73q0 0.4-0.19 0.69-0.19 0.28-0.51 0.42-0.32 0.15-0.72 0.15-0.4 0-0.72-0.15-0.32-0.14-0.51-0.42-0.18-0.29-0.18-0.69 0-0.27 0.1-0.49 0.1-0.22 0.29-0.39 0.19-0.16 0.44-0.25 0.26-0.09 0.57-0.09 0.41 0 0.73 0.16 0.33 0.15 0.51 0.43 0.19 0.27 0.19 0.63zm-0.57-0.02q0-0.24-0.11-0.43-0.11-0.2-0.3-0.3-0.19-0.11-0.45-0.11-0.25 0-0.44 0.11-0.19 0.1-0.29 0.3-0.11 0.19-0.11 0.43 0 0.26 0.1 0.44 0.11 0.18 0.3 0.28 0.19 0.1 0.45 0.1 0.26 0 0.45-0.1 0.19-0.1 0.29-0.28 0.11-0.18 0.11-0.44zm0.46-2.07q0 0.32-0.17 0.58-0.17 0.26-0.47 0.41-0.29 0.15-0.67 0.15-0.38 0-0.68-0.15-0.3-0.15-0.46-0.41-0.17-0.26-0.17-0.58 0-0.39 0.17-0.66 0.17-0.27 0.46-0.42 0.3-0.14 0.68-0.14 0.38 0 0.68 0.14 0.29 0.15 0.46 0.42 0.17 0.27 0.17 0.66zm-0.56 0.01q0-0.22-0.1-0.39-0.09-0.18-0.26-0.27-0.17-0.1-0.39-0.1-0.22 0-0.39 0.09-0.17 0.09-0.26 0.26-0.09 0.17-0.09 0.41 0 0.23 0.09 0.4 0.09 0.17 0.26 0.27 0.17 0.09 0.39 0.09 0.22 0 0.39-0.09 0.17-0.1 0.26-0.27 0.1-0.17 0.1-0.4z"/>
	<path class="s5" d="m134 146.44v0.47h-2.91v-0.41l1.46-1.62q0.27-0.3 0.41-0.51 0.15-0.21 0.21-0.37 0.06-0.17 0.06-0.34 0-0.22-0.09-0.4-0.09-0.18-0.26-0.29-0.18-0.1-0.42-0.1-0.3 0-0.5 0.11-0.19 0.11-0.29 0.32-0.1 0.2-0.1 0.47h-0.56q0-0.38 0.16-0.69 0.17-0.31 0.49-0.49 0.32-0.19 0.8-0.19 0.42 0 0.72 0.15 0.3 0.15 0.46 0.42 0.16 0.26 0.16 0.62 0 0.19-0.07 0.4-0.06 0.19-0.18 0.39-0.11 0.2-0.27 0.39-0.14 0.2-0.32 0.38l-1.19 1.29zm1.17 0h0.06q0.49 0 0.79-0.14 0.31-0.14 0.47-0.37 0.17-0.23 0.23-0.52 0.06-0.3 0.06-0.6v-0.69q0-0.3-0.07-0.53-0.07-0.24-0.19-0.4-0.12-0.16-0.27-0.24-0.16-0.08-0.33-0.08-0.19 0-0.35 0.08-0.15 0.07-0.26 0.21-0.1 0.14-0.16 0.33-0.05 0.19-0.05 0.42 0 0.19 0.05 0.38 0.05 0.19 0.15 0.34 0.1 0.15 0.25 0.24 0.15 0.08 0.35 0.08 0.19 0 0.36-0.07 0.17-0.08 0.3-0.21 0.13-0.13 0.2-0.29 0.08-0.17 0.09-0.35h0.27q0 0.26-0.1 0.5-0.09 0.25-0.27 0.45-0.18 0.2-0.42 0.32-0.24 0.12-0.52 0.12-0.33 0-0.57-0.13-0.24-0.12-0.4-0.34-0.15-0.21-0.22-0.47-0.08-0.27-0.08-0.54 0-0.32 0.09-0.6 0.09-0.28 0.26-0.49 0.18-0.21 0.43-0.33 0.26-0.12 0.6-0.12 0.39 0 0.65 0.15 0.27 0.16 0.44 0.41 0.17 0.26 0.25 0.58 0.08 0.32 0.08 0.66v0.2q0 0.35-0.05 0.71-0.04 0.35-0.16 0.68-0.13 0.32-0.36 0.58-0.24 0.25-0.61 0.4-0.38 0.14-0.93 0.15h-0.06z"/>
	<path class="s5" d="m171.32 144.41h0.41q0.29 0 0.48-0.1 0.2-0.1 0.29-0.27 0.1-0.18 0.1-0.39 0-0.26-0.08-0.43-0.09-0.18-0.26-0.27-0.17-0.08-0.43-0.08-0.24 0-0.43 0.09-0.18 0.09-0.28 0.26-0.1 0.17-0.1 0.41h-0.56q-0.01-0.34 0.17-0.62 0.17-0.28 0.47-0.44 0.32-0.17 0.73-0.17 0.4 0 0.7 0.14 0.3 0.14 0.47 0.43 0.17 0.27 0.17 0.69 0 0.17-0.08 0.36-0.08 0.19-0.24 0.35-0.16 0.17-0.42 0.28-0.26 0.1-0.62 0.1h-0.49zm0 0.46v-0.33h0.49q0.42-0.01 0.7 0.1 0.27 0.1 0.43 0.26 0.17 0.17 0.23 0.37 0.07 0.2 0.07 0.4 0 0.31-0.11 0.55-0.1 0.25-0.3 0.41-0.19 0.17-0.44 0.26-0.26 0.08-0.56 0.08-0.29 0-0.55-0.08-0.25-0.08-0.45-0.24-0.19-0.16-0.3-0.39-0.11-0.23-0.11-0.53h0.56q0 0.24 0.1 0.41 0.11 0.18 0.3 0.27 0.19 0.1 0.45 0.1 0.26 0 0.45-0.09 0.18-0.09 0.29-0.28 0.1-0.18 0.1-0.46 0-0.27-0.12-0.45-0.11-0.18-0.33-0.27-0.21-0.09-0.49-0.09zm5.48-0.54v0.68q0 0.55-0.1 0.92-0.09 0.38-0.28 0.61-0.18 0.23-0.44 0.33-0.26 0.1-0.58 0.1-0.26 0-0.48-0.06-0.21-0.07-0.39-0.21-0.17-0.14-0.29-0.37-0.12-0.23-0.18-0.55-0.07-0.33-0.07-0.77v-0.68q0-0.54 0.1-0.91 0.1-0.37 0.28-0.6 0.19-0.22 0.44-0.32 0.26-0.1 0.58-0.1 0.26 0 0.48 0.07 0.22 0.06 0.39 0.19 0.17 0.14 0.29 0.37 0.12 0.22 0.19 0.54 0.06 0.33 0.06 0.76zm-0.57 0.77v-0.86q0-0.3-0.03-0.53-0.04-0.23-0.1-0.39-0.07-0.16-0.18-0.26-0.1-0.1-0.23-0.15-0.13-0.05-0.3-0.05-0.2 0-0.36 0.08-0.15 0.07-0.26 0.23-0.1 0.17-0.16 0.43-0.05 0.26-0.05 0.64v0.86q0 0.3 0.03 0.53 0.04 0.23 0.11 0.4 0.07 0.16 0.17 0.27 0.1 0.11 0.23 0.16 0.14 0.05 0.3 0.05 0.21 0 0.36-0.08 0.16-0.08 0.26-0.25 0.11-0.17 0.16-0.44 0.05-0.26 0.05-0.64z"/>
	<path class="s5" d="m210.22 143.52q0.04-0.57 0.44-0.9 0.4-0.32 1.04-0.32 0.42 0 0.73 0.15 0.31 0.16 0.47 0.42 0.16 0.26 0.16 0.59 0 0.39-0.22 0.67-0.22 0.28-0.58 0.36v0.04q0.41 0.1 0.65 0.39 0.23 0.29 0.23 0.77 0 0.36-0.16 0.64-0.16 0.28-0.49 0.45-0.32 0.16-0.78 0.16-0.66 0-1.09-0.34-0.42-0.35-0.47-0.99h0.55q0.04 0.37 0.3 0.61 0.27 0.24 0.7 0.24 0.44 0 0.67-0.23 0.23-0.23 0.23-0.59 0-0.47-0.31-0.68-0.32-0.2-0.95-0.2h-0.14v-0.48h0.15q0.57 0 0.87-0.19 0.29-0.18 0.29-0.57 0-0.33-0.22-0.53-0.21-0.2-0.61-0.2-0.39 0-0.63 0.2-0.23 0.2-0.28 0.53zm3.55-0.61v-0.52h1.17v4.52h-0.57v-4z"/>
	<path fill-rule="evenodd" class="s1" d="m12 89.08h293.4c2.76 0 5 2.24 5 5v195.04c0 2.76-2.24 5-5 5h-293.4c-2.76 0-5-2.24-5-5v-195.04c0-2.76 2.24-5 5-5z"/>
	<path class="s2" d="m31.73 113.09v-5.35h-1.91v-0.87h4.77v0.87h-1.91v5.35zm4.83 0.11q-0.66 0-1.16-0.3-0.5-0.3-0.77-0.85-0.27-0.55-0.27-1.29 0-0.74 0.27-1.28 0.27-0.55 0.77-0.85 0.5-0.3 1.16-0.3 0.67 0 1.17 0.3 0.5 0.3 0.77 0.85 0.27 0.54 0.27 1.28 0 0.74-0.27 1.29-0.27 0.55-0.77 0.85-0.5 0.3-1.17 0.3zm0-0.81q0.6 0 0.92-0.43 0.33-0.44 0.33-1.2 0-0.76-0.33-1.19-0.32-0.44-0.92-0.44-0.58 0-0.92 0.44-0.32 0.43-0.32 1.19 0 0.76 0.32 1.2 0.34 0.43 0.92 0.43zm4.76 0.7q-0.66 0-0.98-0.3-0.31-0.31-0.31-0.96v-4.49h0.93v4.42q0 0.33 0.14 0.45 0.14 0.12 0.43 0.12h0.66v0.76zm-2-3.9v-0.76h2.87v0.76zm5.04 4.01q-0.73 0-1.17-0.34-0.43-0.33-0.43-0.93 0-0.61 0.36-0.94 0.37-0.34 1.13-0.49l1.61-0.31q0-0.54-0.26-0.8-0.25-0.27-0.75-0.27-0.45 0-0.7 0.2-0.26 0.19-0.35 0.57l-0.96-0.06q0.13-0.7 0.65-1.1 0.53-0.4 1.36-0.4 0.94 0 1.43 0.5 0.5 0.5 0.5 1.42v1.81q0 0.16 0.06 0.24 0.06 0.06 0.19 0.06h0.17v0.73q-0.05 0.01-0.14 0.02-0.1 0.01-0.21 0.01-0.29 0-0.51-0.1-0.21-0.09-0.32-0.31-0.1-0.23-0.1-0.61l0.09 0.05q-0.07 0.3-0.3 0.54-0.23 0.24-0.59 0.38-0.35 0.13-0.76 0.13zm0.15-0.74q0.42 0 0.71-0.16 0.3-0.16 0.47-0.45 0.17-0.29 0.17-0.66v-0.3l-1.37 0.27q-0.42 0.08-0.6 0.25-0.16 0.17-0.16 0.43 0 0.3 0.2 0.46 0.21 0.16 0.58 0.16zm4.43 0.63q-0.46 0-0.74-0.23-0.28-0.24-0.28-0.76v-5.23h0.93v5.14q0 0.16 0.08 0.24 0.08 0.08 0.24 0.08h0.37v0.76zm3.68 0v-6.22h2.48q0.67 0 1.15 0.23 0.48 0.23 0.74 0.65 0.26 0.42 0.26 1 0 0.42-0.19 0.75-0.18 0.33-0.5 0.54-0.3 0.19-0.65 0.21l-0.05-0.07q0.59 0 0.91 0.27 0.33 0.26 0.38 0.83l0.17 1.81h-0.96l-0.15-1.69q-0.02-0.38-0.25-0.55-0.23-0.18-0.75-0.18h-1.64v2.42zm0.94-3.29h1.55q0.54 0 0.84-0.26 0.32-0.28 0.32-0.77 0-0.5-0.32-0.76-0.31-0.27-0.92-0.27h-1.47zm6.71 3.4q-0.68 0-1.18-0.3-0.49-0.3-0.76-0.85-0.27-0.55-0.27-1.29 0-0.73 0.27-1.27 0.27-0.56 0.76-0.85 0.49-0.31 1.16-0.31 0.63 0 1.11 0.3 0.48 0.29 0.74 0.84 0.27 0.55 0.27 1.33v0.24h-3.34q0.03 0.68 0.36 1.02 0.33 0.34 0.89 0.34 0.41 0 0.68-0.19 0.27-0.19 0.38-0.52l0.96 0.06q-0.18 0.65-0.72 1.06-0.54 0.39-1.31 0.39zm-1.24-2.86h2.36q-0.04-0.63-0.36-0.92-0.3-0.3-0.78-0.3-0.5 0-0.83 0.31-0.31 0.31-0.39 0.91zm5.37 2.75l-1.7-4.66h0.99l1.27 3.72 1.27-3.72h1l-1.71 4.66zm5.35 0.11q-0.68 0-1.18-0.3-0.49-0.3-0.77-0.85-0.26-0.55-0.26-1.29 0-0.73 0.26-1.27 0.28-0.56 0.77-0.85 0.49-0.31 1.15-0.31 0.63 0 1.11 0.3 0.49 0.29 0.75 0.84 0.27 0.55 0.27 1.33v0.24h-3.34q0.03 0.68 0.35 1.02 0.34 0.34 0.9 0.34 0.41 0 0.68-0.19 0.27-0.19 0.38-0.52l0.96 0.06q-0.18 0.65-0.73 1.06-0.53 0.39-1.3 0.39zm-1.24-2.86h2.36q-0.04-0.63-0.36-0.92-0.31-0.3-0.79-0.3-0.5 0-0.82 0.31-0.32 0.31-0.39 0.91zm4.28 2.75v-4.66h0.85l0.04 1.25-0.12-0.06q0.08-0.46 0.3-0.74 0.22-0.28 0.53-0.41 0.32-0.14 0.69-0.14 0.52 0 0.86 0.24 0.35 0.22 0.53 0.63 0.18 0.39 0.18 0.9v2.99h-0.92v-2.71q0-0.41-0.09-0.69-0.09-0.28-0.29-0.43-0.2-0.15-0.53-0.15-0.49 0-0.79 0.32-0.31 0.33-0.31 0.95v2.71zm6.59 0.11q-0.7 0-1.12-0.46-0.42-0.48-0.42-1.31v-3h0.93v2.76q0 0.63 0.22 0.93 0.22 0.3 0.67 0.3 0.51 0 0.79-0.32 0.28-0.34 0.28-0.93v-2.74h0.93v4.66h-0.86l-0.02-1.21 0.13 0.05q-0.12 0.61-0.52 0.94-0.39 0.33-1.01 0.33zm5.43 0q-0.68 0-1.18-0.3-0.49-0.3-0.77-0.85-0.26-0.55-0.26-1.29 0-0.73 0.26-1.27 0.28-0.56 0.77-0.85 0.49-0.31 1.15-0.31 0.63 0 1.11 0.3 0.49 0.29 0.75 0.84 0.27 0.55 0.27 1.33v0.24h-3.35q0.04 0.68 0.36 1.02 0.34 0.34 0.9 0.34 0.41 0 0.68-0.19 0.27-0.19 0.38-0.52l0.96 0.06q-0.18 0.65-0.73 1.06-0.53 0.39-1.3 0.39zm-1.25-2.86h2.37q-0.04-0.63-0.36-0.92-0.31-0.3-0.79-0.3-0.5 0-0.82 0.31-0.32 0.31-0.4 0.91z"/>
	<path class="s3" d="m269.28 113.34v-5.33h1.32l1.47 4.13 1.47-4.13h1.31v5.33h-0.97v-3.68l-1.34 3.67h-0.94l-1.34-3.67v3.68zm8.37 0.09q-0.6 0-1.05-0.25-0.44-0.27-0.69-0.74-0.24-0.47-0.24-1.1 0-0.64 0.24-1.1 0.25-0.48 0.69-0.73 0.45-0.27 1.05-0.27 0.59 0 1.03 0.27 0.45 0.25 0.69 0.73 0.24 0.46 0.24 1.1 0 0.63-0.24 1.1-0.24 0.47-0.69 0.74-0.44 0.25-1.03 0.25zm0-0.78q0.46 0 0.71-0.34 0.26-0.35 0.26-0.97 0-0.62-0.26-0.96-0.25-0.36-0.71-0.36-0.47 0-0.72 0.36-0.26 0.34-0.26 0.96 0 0.62 0.26 0.97 0.25 0.34 0.72 0.34zm2.71 0.69v-4.01h0.9l0.03 1.11-0.08-0.01q0.09-0.58 0.34-0.83 0.25-0.27 0.69-0.27h0.37v0.83h-0.38q-0.31 0-0.51 0.09-0.2 0.09-0.31 0.29-0.09 0.18-0.09 0.49v2.31zm4.5 0.09q-0.6 0-1.04-0.25-0.44-0.27-0.68-0.74-0.24-0.47-0.24-1.1 0-0.63 0.24-1.1 0.24-0.47 0.67-0.73 0.44-0.27 1.03-0.27 0.57 0 1 0.26 0.43 0.25 0.67 0.74 0.23 0.48 0.23 1.15v0.22h-2.85q0.03 0.52 0.29 0.79 0.26 0.27 0.69 0.27 0.32 0 0.53-0.15 0.22-0.15 0.3-0.41l0.99 0.06q-0.17 0.59-0.66 0.93-0.48 0.33-1.17 0.33zm-0.97-2.47h1.86q-0.03-0.48-0.28-0.72-0.25-0.24-0.63-0.24-0.38 0-0.64 0.25-0.25 0.25-0.31 0.71z"/>
	<path fill-rule="evenodd" class="s8" d="m196.55 134.11v125.11"/>
	<path class="s4" d="m30.7 138.23v-3.29h-0.93v-0.46h0.38q0.24 0 0.38-0.06 0.15-0.06 0.22-0.22 0.06-0.15 0.06-0.41h0.42v4.44zm3.24 0.1q-0.54 0-0.93-0.28-0.4-0.28-0.62-0.8-0.21-0.52-0.21-1.23 0-0.71 0.21-1.23 0.22-0.53 0.62-0.81 0.39-0.29 0.93-0.29 0.54 0 0.94 0.29 0.39 0.28 0.6 0.8 0.22 0.52 0.22 1.24 0 0.71-0.22 1.23-0.21 0.52-0.6 0.8-0.4 0.28-0.94 0.28zm0-0.52q0.57 0 0.89-0.46 0.31-0.47 0.31-1.33 0-0.58-0.14-0.98-0.14-0.4-0.41-0.61-0.26-0.21-0.65-0.21-0.38 0-0.65 0.21-0.26 0.21-0.41 0.61-0.14 0.4-0.14 0.98 0 0.86 0.32 1.33 0.31 0.46 0.88 0.46zm4.15 0.52q-0.54 0-0.94-0.28-0.39-0.28-0.61-0.8-0.21-0.52-0.21-1.23 0-0.71 0.21-1.23 0.22-0.53 0.61-0.81 0.4-0.29 0.94-0.29 0.54 0 0.94 0.29 0.39 0.28 0.6 0.8 0.22 0.52 0.22 1.24 0 0.71-0.22 1.23-0.21 0.52-0.6 0.8-0.4 0.28-0.94 0.28zm0-0.52q0.57 0 0.89-0.46 0.31-0.47 0.31-1.33 0-0.58-0.15-0.98-0.13-0.4-0.4-0.61-0.27-0.21-0.65-0.21-0.38 0-0.65 0.21-0.27 0.21-0.41 0.61-0.14 0.4-0.14 0.98 0 0.86 0.31 1.33 0.32 0.46 0.89 0.46zm4.15 0.52q-0.54 0-0.94-0.28-0.39-0.28-0.61-0.8-0.21-0.52-0.21-1.23 0-0.71 0.21-1.23 0.22-0.53 0.61-0.81 0.4-0.29 0.94-0.29 0.54 0 0.93 0.29 0.4 0.28 0.61 0.8 0.22 0.52 0.22 1.24 0 0.71-0.22 1.23-0.21 0.52-0.61 0.8-0.39 0.28-0.93 0.28zm0-0.52q0.57 0 0.88-0.46 0.32-0.47 0.32-1.33 0-0.58-0.15-0.98-0.14-0.4-0.4-0.61-0.27-0.21-0.65-0.21-0.39 0-0.66 0.21-0.26 0.21-0.4 0.61-0.14 0.4-0.14 0.98 0 0.86 0.31 1.33 0.32 0.46 0.89 0.46z"/>
	<path class="s4" d="m33.41 162.6q-0.48 0-0.85-0.15-0.37-0.15-0.58-0.45-0.21-0.29-0.21-0.72 0-0.48 0.29-0.8 0.29-0.32 0.76-0.43l0.01 0.13q-0.38-0.11-0.62-0.35-0.23-0.24-0.23-0.65 0-0.35 0.18-0.63 0.18-0.27 0.5-0.43 0.32-0.16 0.75-0.16 0.43 0 0.75 0.16 0.33 0.16 0.5 0.43 0.18 0.28 0.18 0.63 0 0.41-0.24 0.65-0.23 0.24-0.61 0.35l0.01-0.13q0.48 0.11 0.76 0.43 0.29 0.32 0.29 0.8 0 0.43-0.21 0.72-0.21 0.3-0.58 0.45-0.37 0.15-0.85 0.15zm0-0.53q0.49 0 0.78-0.2 0.3-0.2 0.3-0.62 0-0.39-0.27-0.62-0.25-0.24-0.81-0.24-0.55 0-0.81 0.24-0.27 0.23-0.27 0.62 0 0.42 0.29 0.62 0.3 0.2 0.79 0.2zm0-2.18q0.41 0 0.64-0.18 0.22-0.18 0.22-0.53 0-0.32-0.22-0.51-0.21-0.19-0.64-0.19-0.42 0-0.64 0.19-0.22 0.19-0.22 0.51 0 0.35 0.22 0.53 0.23 0.18 0.64 0.18zm3.96 2.71q-0.54 0-0.94-0.28-0.39-0.28-0.61-0.8-0.21-0.52-0.21-1.24 0-0.71 0.21-1.23 0.22-0.52 0.61-0.81 0.4-0.28 0.94-0.28 0.54 0 0.93 0.28 0.4 0.29 0.61 0.81 0.22 0.51 0.22 1.23 0 0.72-0.22 1.24-0.21 0.52-0.61 0.8-0.39 0.28-0.93 0.28zm0-0.53q0.57 0 0.88-0.46 0.32-0.47 0.32-1.33 0-0.57-0.15-0.97-0.13-0.41-0.4-0.62-0.27-0.21-0.65-0.21-0.39 0-0.65 0.21-0.27 0.21-0.41 0.62-0.14 0.4-0.14 0.97 0 0.86 0.31 1.33 0.32 0.46 0.89 0.46zm4.14 0.53q-0.53 0-0.93-0.28-0.39-0.28-0.61-0.8-0.21-0.52-0.21-1.24 0-0.71 0.21-1.23 0.22-0.52 0.61-0.81 0.4-0.28 0.93-0.28 0.55 0 0.94 0.28 0.4 0.29 0.61 0.81 0.22 0.51 0.22 1.23 0 0.72-0.22 1.24-0.21 0.52-0.61 0.8-0.39 0.28-0.94 0.28zm0-0.53q0.58 0 0.89-0.46 0.32-0.47 0.32-1.33 0-0.57-0.15-0.97-0.14-0.41-0.4-0.62-0.27-0.21-0.66-0.21-0.38 0-0.65 0.21-0.26 0.21-0.4 0.62-0.14 0.4-0.14 0.97 0 0.86 0.31 1.33 0.32 0.46 0.88 0.46z"/>
	<path class="s4" d="m33.47 186.86q-0.5 0-0.85-0.22-0.36-0.23-0.54-0.68-0.18-0.44-0.18-1.07 0-0.55 0.08-1.04 0.1-0.48 0.3-0.84 0.2-0.37 0.54-0.58 0.33-0.21 0.83-0.21 0.59 0 0.92 0.29 0.32 0.29 0.45 0.76l-0.56 0.05q-0.07-0.26-0.26-0.42-0.18-0.15-0.55-0.15-0.55 0-0.87 0.47-0.31 0.47-0.33 1.42l-0.12-0.03q0.07-0.22 0.24-0.41 0.18-0.2 0.43-0.31 0.25-0.12 0.57-0.12 0.44 0 0.77 0.19 0.33 0.19 0.51 0.53 0.19 0.34 0.19 0.8 0 0.48-0.2 0.84-0.2 0.35-0.55 0.54-0.35 0.19-0.82 0.19zm0.01-0.52q0.44 0 0.72-0.28 0.28-0.28 0.28-0.77 0-0.31-0.12-0.54-0.12-0.22-0.33-0.34-0.21-0.13-0.5-0.12-0.3-0.01-0.53 0.12-0.24 0.12-0.38 0.34-0.14 0.23-0.14 0.54 0 0.3 0.12 0.54 0.13 0.24 0.35 0.38 0.23 0.13 0.53 0.13zm4.01 0.52q-0.53 0-0.93-0.28-0.39-0.28-0.61-0.8-0.21-0.52-0.21-1.23 0-0.71 0.21-1.23 0.22-0.53 0.61-0.81 0.4-0.29 0.93-0.29 0.55 0 0.94 0.29 0.4 0.28 0.61 0.8 0.22 0.52 0.22 1.24 0 0.71-0.22 1.23-0.21 0.52-0.61 0.8-0.39 0.28-0.94 0.28zm0-0.52q0.58 0 0.89-0.47 0.32-0.46 0.32-1.32 0-0.58-0.15-0.98-0.14-0.4-0.4-0.61-0.27-0.21-0.66-0.21-0.38 0-0.65 0.21-0.26 0.21-0.4 0.61-0.14 0.4-0.14 0.98 0 0.86 0.31 1.32 0.32 0.47 0.88 0.47zm4.15 0.52q-0.54 0-0.93-0.28-0.39-0.28-0.61-0.8-0.21-0.52-0.22-1.23 0.01-0.71 0.22-1.23 0.22-0.53 0.61-0.81 0.39-0.29 0.93-0.29 0.55 0 0.94 0.29 0.4 0.28 0.61 0.8 0.22 0.52 0.22 1.24 0 0.71-0.22 1.23-0.21 0.52-0.61 0.8-0.39 0.28-0.94 0.28zm0-0.52q0.58 0 0.89-0.47 0.31-0.46 0.31-1.32 0-0.58-0.14-0.98-0.14-0.4-0.41-0.61-0.26-0.21-0.65-0.21-0.38 0-0.65 0.21-0.26 0.21-0.4 0.61-0.14 0.4-0.14 0.98 0 0.86 0.31 1.32 0.31 0.47 0.88 0.47z"/>
	<path class="s4" d="m33.97 211.03v-0.97h-2.26v-0.48l2.22-2.99h0.57v2.95h0.56v0.52h-0.56v0.97zm-1.6-1.49h1.6v-2.13zm5.09 1.59q-0.54 0-0.94-0.28-0.39-0.28-0.61-0.8-0.21-0.52-0.21-1.23 0-0.72 0.21-1.24 0.22-0.52 0.61-0.8 0.4-0.29 0.94-0.29 0.54 0 0.93 0.29 0.4 0.28 0.61 0.8 0.22 0.52 0.22 1.24 0 0.71-0.22 1.23-0.21 0.52-0.61 0.8-0.39 0.28-0.93 0.28zm0-0.52q0.57 0 0.88-0.47 0.32-0.47 0.32-1.32 0-0.58-0.15-0.98-0.13-0.41-0.4-0.61-0.27-0.22-0.65-0.22-0.39 0-0.66 0.22-0.26 0.2-0.4 0.61-0.14 0.4-0.14 0.98 0 0.85 0.31 1.32 0.32 0.47 0.89 0.47zm4.14 0.52q-0.53 0-0.93-0.28-0.39-0.28-0.61-0.8-0.21-0.52-0.21-1.23 0-0.72 0.21-1.24 0.22-0.52 0.61-0.8 0.4-0.29 0.93-0.29 0.55 0 0.94 0.29 0.4 0.28 0.61 0.8 0.22 0.52 0.22 1.24 0 0.71-0.22 1.23-0.21 0.52-0.61 0.8-0.39 0.28-0.94 0.28zm0-0.52q0.58 0 0.89-0.47 0.31-0.47 0.31-1.32 0-0.58-0.14-0.98-0.14-0.41-0.41-0.61-0.26-0.22-0.65-0.22-0.38 0-0.65 0.22-0.26 0.2-0.4 0.61-0.14 0.4-0.14 0.98 0 0.85 0.31 1.32 0.31 0.47 0.88 0.47z"/>
	<path class="s4" d="m31.9 235.29q0-0.47 0.14-0.84 0.15-0.38 0.52-0.73 0.37-0.34 1.04-0.69 0.3-0.16 0.49-0.3 0.19-0.14 0.28-0.3 0.08-0.15 0.08-0.38 0-0.23-0.1-0.4-0.1-0.17-0.3-0.27-0.19-0.1-0.48-0.1-0.47 0-0.75 0.24-0.27 0.24-0.34 0.69l-0.56-0.03q0.08-0.65 0.5-1.04 0.43-0.39 1.15-0.39 0.45 0 0.78 0.16 0.32 0.17 0.49 0.46 0.18 0.29 0.18 0.67 0 0.34-0.12 0.59-0.11 0.24-0.38 0.45-0.26 0.22-0.72 0.46-0.6 0.32-0.92 0.65-0.3 0.32-0.32 0.58h2.46v0.52zm5.5 0.1q-0.53 0-0.93-0.28-0.39-0.28-0.61-0.8-0.21-0.52-0.21-1.23 0-0.72 0.21-1.23 0.22-0.53 0.61-0.81 0.4-0.29 0.93-0.29 0.55 0 0.94 0.29 0.4 0.28 0.61 0.8 0.22 0.52 0.22 1.24 0 0.71-0.22 1.23-0.21 0.52-0.61 0.8-0.39 0.28-0.94 0.28zm0-0.52q0.58 0 0.89-0.47 0.32-0.47 0.32-1.32 0-0.58-0.15-0.98-0.14-0.4-0.4-0.61-0.27-0.21-0.66-0.21-0.38 0-0.65 0.21-0.26 0.21-0.4 0.61-0.14 0.4-0.14 0.98 0 0.85 0.31 1.32 0.32 0.47 0.88 0.47zm4.15 0.52q-0.54 0-0.93-0.28-0.39-0.28-0.61-0.8-0.21-0.52-0.21-1.23 0-0.72 0.21-1.23 0.22-0.53 0.61-0.81 0.39-0.29 0.93-0.29 0.55 0 0.94 0.29 0.4 0.28 0.61 0.8 0.22 0.52 0.22 1.24 0 0.71-0.22 1.23-0.21 0.52-0.61 0.8-0.39 0.28-0.94 0.28zm0-0.52q0.58 0 0.89-0.47 0.31-0.47 0.31-1.32 0-0.58-0.14-0.98-0.14-0.4-0.41-0.61-0.26-0.21-0.65-0.21-0.38 0-0.65 0.21-0.26 0.21-0.4 0.61-0.14 0.4-0.14 0.98 0 0.85 0.31 1.32 0.31 0.47 0.88 0.47z"/>
	<path class="s9" d="m82.41 170.27c-6.24-10.15-16.59-6.5-20.99-3.41v90.8h226.46v-94.22c-5.37 10.25-14.13 31.22-24.38 27.81-10.25-3.42-20.5-27.81-34.17-41.96-13.66-14.14-20.01-19.51-30.75-13.17-10.74 6.34-6.34 15.61-23.43 27.32-17.08 11.71-19.03 14.64-26.35 37.56-7.33 22.93-14.16 41.47-20.99 40.01-6.84-1.47-12.69-31.71-19.04-49.76-6.34-18.05-18.55-8.3-26.36-20.98z"/>
	<path class="s4" d="m62.63 277.21q-0.41 0-0.73-0.19-0.32-0.2-0.5-0.55-0.18-0.36-0.18-0.81l0.55-0.04q0 0.51 0.23 0.79 0.23 0.27 0.63 0.27 0.43 0 0.65-0.29 0.23-0.29 0.23-0.83v-2.89h0.54v2.89q0 0.51-0.17 0.88-0.18 0.37-0.5 0.57-0.31 0.2-0.75 0.2zm3.3-0.03q-0.52 0-0.82-0.23-0.3-0.24-0.3-0.67 0-0.42 0.25-0.67 0.25-0.24 0.79-0.34l1.18-0.22q0-0.42-0.2-0.62-0.2-0.21-0.59-0.21-0.34 0-0.55 0.16-0.2 0.15-0.27 0.43l-0.56-0.04q0.1-0.47 0.45-0.76 0.37-0.29 0.93-0.29 0.64 0 0.98 0.36 0.33 0.36 0.33 0.99v1.37q0 0.11 0.04 0.16 0.04 0.05 0.14 0.05h0.13v0.46q-0.03 0.01-0.08 0.01-0.06 0-0.12 0-0.23 0-0.37-0.07-0.14-0.07-0.2-0.22-0.06-0.16-0.06-0.41l0.06 0.01q-0.04 0.22-0.21 0.39-0.17 0.17-0.42 0.27-0.25 0.09-0.53 0.09zm0.05-0.46q0.33 0 0.56-0.12 0.24-0.13 0.36-0.35 0.13-0.23 0.13-0.5v-0.24l-1.08 0.2q-0.34 0.06-0.47 0.19-0.12 0.13-0.12 0.33 0 0.24 0.16 0.37 0.17 0.12 0.46 0.12zm2.47 0.39v-3.32h0.48l0.02 0.85-0.06-0.06q0.06-0.29 0.22-0.48 0.16-0.19 0.38-0.29 0.22-0.09 0.48-0.09 0.38 0 0.62 0.17 0.25 0.17 0.37 0.45 0.13 0.29 0.13 0.64v2.13h-0.53v-1.98q0-0.31-0.07-0.52-0.07-0.21-0.23-0.32-0.16-0.11-0.41-0.11-0.38 0-0.63 0.25-0.24 0.23-0.24 0.7v1.98z"/>
	<path class="s4" d="m103.65 277.11v-4.44h0.75l1.42 3.85 1.42-3.85h0.75v4.44h-0.54v-3.44l-1.27 3.44h-0.72l-1.27-3.44v3.44zm6.24 0.07q-0.51 0-0.81-0.23-0.31-0.24-0.31-0.67 0.01-0.42 0.25-0.67 0.26-0.24 0.8-0.34l1.18-0.22q0-0.42-0.2-0.62-0.2-0.21-0.59-0.21-0.35 0-0.55 0.16-0.2 0.15-0.27 0.43l-0.56-0.04q0.09-0.47 0.45-0.76 0.36-0.29 0.93-0.29 0.64 0 0.97 0.36 0.34 0.36 0.34 0.99v1.37q0 0.11 0.04 0.16 0.04 0.05 0.14 0.05h0.13v0.46q-0.03 0.01-0.08 0.01-0.06 0-0.12 0-0.23 0-0.37-0.07-0.14-0.07-0.2-0.22-0.06-0.16-0.06-0.41l0.06 0.01q-0.05 0.22-0.21 0.39-0.17 0.17-0.42 0.27-0.25 0.09-0.54 0.09zm0.05-0.46q0.34 0 0.57-0.12 0.24-0.13 0.36-0.35 0.13-0.23 0.13-0.5v-0.24l-1.08 0.2q-0.34 0.06-0.47 0.19-0.12 0.13-0.12 0.33 0 0.24 0.16 0.37 0.17 0.12 0.45 0.12zm2.48 0.39v-3.32h0.46l0.03 0.84-0.05-0.02q0.06-0.42 0.27-0.62 0.21-0.2 0.56-0.2h0.33v0.5h-0.32q-0.25 0-0.42 0.1-0.16 0.09-0.25 0.27-0.08 0.17-0.08 0.45v2z"/>
	<path class="s4" d="m146.93 277.11v-4.44h0.75l1.42 3.85 1.41-3.85h0.76v4.44h-0.54v-3.44l-1.27 3.44h-0.72l-1.27-3.44v3.44zm6.24 0.07q-0.51 0-0.82-0.23-0.3-0.24-0.3-0.67 0-0.42 0.25-0.67 0.25-0.24 0.8-0.34l1.17-0.22q0-0.42-0.2-0.62-0.19-0.21-0.58-0.21-0.35 0-0.55 0.16-0.2 0.15-0.27 0.43l-0.56-0.04q0.09-0.47 0.45-0.76 0.36-0.29 0.93-0.29 0.63 0 0.97 0.36 0.34 0.36 0.34 0.99v1.37q0 0.11 0.04 0.16 0.04 0.05 0.13 0.05h0.14v0.46q-0.03 0.01-0.09 0.01-0.05 0-0.11 0-0.23 0-0.37-0.07-0.14-0.07-0.2-0.22-0.07-0.16-0.07-0.41l0.07 0.01q-0.05 0.22-0.22 0.39-0.16 0.17-0.42 0.27-0.25 0.09-0.53 0.09zm0.05-0.46q0.33 0 0.57-0.12 0.23-0.13 0.36-0.35 0.12-0.23 0.12-0.5v-0.24l-1.07 0.2q-0.34 0.06-0.47 0.19-0.13 0.13-0.13 0.33 0 0.24 0.17 0.37 0.17 0.12 0.45 0.12zm2.49 1.33v-0.46h0.39q0.17-0.01 0.25-0.06 0.09-0.05 0.13-0.17l0.12-0.31h-0.18l-1.21-3.26h0.57l0.99 2.77 0.95-2.77h0.57l-1.34 3.74q-0.1 0.27-0.28 0.39-0.19 0.13-0.52 0.13z"/>
	<path class="s4" d="m192.47 277.21q-0.42 0-0.73-0.19-0.32-0.2-0.51-0.55-0.17-0.36-0.18-0.81l0.55-0.04q0.01 0.51 0.24 0.79 0.22 0.27 0.63 0.27 0.42 0 0.65-0.29 0.23-0.29 0.23-0.83v-2.89h0.54v2.89q0 0.51-0.18 0.88-0.17 0.37-0.49 0.57-0.32 0.2-0.75 0.2zm3.49-0.03q-0.5 0-0.8-0.33-0.29-0.33-0.29-0.92v-2.14h0.52v1.99q0 0.48 0.17 0.72 0.18 0.22 0.53 0.22 0.4 0 0.62-0.25 0.23-0.26 0.23-0.7v-1.98h0.52v3.32h-0.5v-0.82l0.08 0.04q-0.1 0.41-0.38 0.64-0.28 0.21-0.7 0.21zm3.16-0.07q-0.29 0-0.47-0.15-0.18-0.15-0.18-0.48v-3.81h0.52v3.77q0 0.1 0.05 0.16 0.06 0.05 0.16 0.05h0.29v0.46z"/>
	<path class="s4" d="m233.01 277.21q-0.51 0-0.89-0.19-0.38-0.2-0.61-0.54-0.22-0.34-0.25-0.79l0.56-0.04q0.04 0.33 0.19 0.57 0.15 0.23 0.4 0.35 0.26 0.11 0.62 0.11 0.31 0 0.53-0.08 0.22-0.08 0.33-0.23 0.12-0.16 0.12-0.39 0-0.2-0.1-0.36-0.1-0.16-0.37-0.29-0.27-0.14-0.8-0.27-0.51-0.13-0.82-0.29-0.3-0.16-0.44-0.38-0.13-0.23-0.13-0.56 0-0.37 0.18-0.66 0.18-0.28 0.51-0.44 0.33-0.16 0.79-0.16 0.48 0 0.84 0.19 0.34 0.18 0.55 0.5 0.21 0.31 0.26 0.72l-0.56 0.04q-0.04-0.27-0.18-0.48-0.13-0.21-0.36-0.33-0.23-0.12-0.57-0.12-0.41 0-0.65 0.2-0.25 0.2-0.25 0.52 0 0.2 0.1 0.34 0.1 0.13 0.35 0.24 0.25 0.1 0.72 0.22 0.55 0.13 0.88 0.33 0.33 0.19 0.47 0.44 0.14 0.25 0.14 0.57 0 0.38-0.2 0.67-0.2 0.28-0.55 0.44-0.35 0.15-0.81 0.15zm3.78-0.03q-0.46 0-0.81-0.21-0.34-0.21-0.52-0.6-0.19-0.39-0.19-0.92 0-0.52 0.19-0.91 0.18-0.39 0.52-0.6 0.33-0.22 0.79-0.22 0.43 0 0.76 0.2 0.33 0.21 0.52 0.59 0.18 0.39 0.18 0.95v0.15h-2.41q0.04 0.54 0.29 0.8 0.25 0.27 0.68 0.27 0.33 0 0.54-0.15 0.21-0.15 0.29-0.4l0.56 0.04q-0.13 0.45-0.5 0.73-0.36 0.28-0.89 0.28zm-0.97-2.03h1.84q-0.04-0.48-0.28-0.71-0.24-0.22-0.61-0.22-0.38 0-0.63 0.24-0.25 0.23-0.32 0.69zm3.13 2.9v-4.26h0.48l0.02 0.72-0.08-0.04q0.13-0.37 0.41-0.56 0.3-0.19 0.68-0.19 0.49 0 0.81 0.24 0.32 0.25 0.47 0.64 0.15 0.4 0.15 0.85 0 0.46-0.15 0.85-0.15 0.4-0.47 0.64-0.32 0.24-0.81 0.24-0.26 0-0.48-0.08-0.22-0.09-0.38-0.25-0.15-0.15-0.2-0.37l0.07-0.08v1.65zm1.46-1.37q0.44 0 0.69-0.32 0.25-0.33 0.25-0.91 0-0.58-0.25-0.91-0.25-0.32-0.69-0.32-0.28 0-0.5 0.14-0.2 0.13-0.32 0.41-0.11 0.28-0.11 0.68 0 0.41 0.11 0.68 0.11 0.28 0.32 0.42 0.22 0.13 0.5 0.13z"/>
	<path class="s4" d="m274.77 277.11v-4.44h0.76l2.2 3.9v-3.9h0.53v4.44h-0.8l-2.16-3.83v3.83zm5.81 0.07q-0.46 0-0.8-0.21-0.34-0.21-0.53-0.6-0.19-0.39-0.19-0.92 0-0.53 0.19-0.92 0.19-0.39 0.53-0.6 0.34-0.21 0.8-0.21 0.46 0 0.8 0.21 0.34 0.21 0.53 0.6 0.19 0.39 0.19 0.92 0 0.53-0.19 0.92-0.19 0.39-0.53 0.6-0.34 0.21-0.8 0.21zm0-0.5q0.46 0 0.71-0.32 0.26-0.33 0.25-0.91 0.01-0.57-0.25-0.9-0.25-0.33-0.71-0.33-0.46 0-0.71 0.33-0.26 0.33-0.26 0.9 0 0.58 0.26 0.91 0.25 0.32 0.71 0.32zm2.98 0.43l-1.21-3.32h0.58l0.96 2.78 0.96-2.78h0.58l-1.21 3.32z"/>
	<path class="s10" d="m61.42 168.11c4.4-3.09 14.75-6.74 20.99 3.41 7.81 12.68 20.02 2.93 26.36 20.98 6.35 18.05 12.2 48.29 19.04 49.76 6.83 1.46 13.66-17.08 20.99-40.01 7.32-22.92 9.27-25.85 26.35-37.56 17.09-11.71 12.69-20.98 23.43-27.32 10.74-6.34 17.09-0.97 30.75 13.17 13.67 14.15 23.92 38.54 34.17 41.96 10.25 3.41 19.01-17.56 24.38-27.81"/>
	<g>
		<path fill-rule="evenodd" class="s11" d="m196.55 139.11c-2.42 0-4.38-1.95-4.38-4.38 0-2.42 1.96-4.37 4.38-4.37 2.42 0 4.38 1.95 4.38 4.38 0 2.42-1.96 4.37-4.38 4.37z"/>
		<path fill-rule="evenodd" class="s12" d="m196.55 140.37c-3.12 0-5.63-2.52-5.63-5.63 0-3.12 2.51-5.64 5.63-5.64 3.11 0 5.63 2.52 5.63 5.64 0 3.11-2.52 5.63-5.63 5.63z"/>
	</g>
</svg>