<svg width="1149" height="145" viewBox="0 0 1149 145" fill="none" xmlns="http://www.w3.org/2000/svg">
<g opacity="0.7">
<g opacity="0.11" filter="url(#filter0_f_246_8905)">
<path d="M673.489 69.0026C673.314 68.9915 673.144 68.9459 672.987 68.8686C672.831 68.7912 672.691 68.6836 672.576 68.5519C672.462 68.4202 672.374 68.2671 672.319 68.1014C672.264 67.9357 672.242 67.7607 672.255 67.5865C672.268 67.4123 672.315 67.2424 672.394 67.0866C672.473 66.9308 672.582 66.7922 672.715 66.6788C672.848 66.5654 673.002 66.4795 673.168 66.426C673.334 66.3725 673.509 66.3524 673.683 66.3671C674.03 66.3962 674.352 66.5612 674.578 66.826C674.804 67.0907 674.916 67.434 674.891 67.7812C674.865 68.1284 674.703 68.4514 674.441 68.6801C674.178 68.9088 673.836 69.0247 673.489 69.0026Z" fill="white"/>
</g>
<g filter="url(#filter1_f_246_8905)">
<path d="M668.673 75.9323C668.541 75.9262 668.411 75.8936 668.292 75.8365C668.172 75.7794 668.065 75.6989 667.978 75.5998C667.89 75.5007 667.823 75.3849 667.78 75.2594C667.738 75.1339 667.721 75.0012 667.731 74.8691C667.74 74.737 667.777 74.6082 667.837 74.4903C667.897 74.3724 667.981 74.2679 668.082 74.1827C668.184 74.0976 668.301 74.0337 668.428 73.9948C668.554 73.9558 668.688 73.9426 668.819 73.956C669.076 73.9821 669.313 74.1074 669.479 74.3052C669.645 74.503 669.727 74.7577 669.708 75.0152C669.689 75.2726 669.57 75.5125 669.377 75.6838C669.184 75.8551 668.931 75.9442 668.673 75.9323ZM647.955 60.4925C647.823 60.4864 647.693 60.4538 647.574 60.3967C647.454 60.3396 647.347 60.2591 647.259 60.16C647.172 60.0609 647.104 59.9452 647.062 59.8197C647.02 59.6942 647.003 59.5615 647.013 59.4294C647.022 59.2973 647.058 59.1685 647.119 59.0506C647.179 58.9327 647.263 58.8281 647.364 58.7429C647.466 58.6578 647.583 58.5939 647.71 58.555C647.836 58.516 647.969 58.5028 648.101 58.5162C648.358 58.5423 648.595 58.6676 648.76 58.8654C648.926 59.0632 649.009 59.3179 648.99 59.5754C648.971 59.8329 648.852 60.0728 648.659 60.244C648.466 60.4153 648.213 60.5045 647.955 60.4925ZM704.046 63.3142C703.913 63.3081 703.784 63.2755 703.664 63.2184C703.545 63.1613 703.438 63.0808 703.35 62.9817C703.262 62.8826 703.195 62.7668 703.152 62.6414C703.11 62.5159 703.093 62.3832 703.103 62.2511C703.113 62.119 703.149 61.9901 703.209 61.8722C703.27 61.7543 703.353 61.6497 703.454 61.5646C703.556 61.4795 703.673 61.4156 703.8 61.3766C703.927 61.3377 704.06 61.3245 704.192 61.3379C704.448 61.364 704.685 61.4893 704.851 61.6871C705.017 61.8849 705.099 62.1396 705.08 62.3971C705.061 62.6545 704.942 62.8944 704.749 63.0657C704.556 63.237 704.304 63.3261 704.046 63.3142Z" fill="white"/>
</g>
<g opacity="0.11" filter="url(#filter2_f_246_8905)">
<path d="M735.491 81.536C735.318 81.5233 735.149 81.4766 734.994 81.3986C734.839 81.3206 734.7 81.2129 734.587 81.0815C734.473 80.95 734.387 80.7975 734.333 80.6327C734.278 80.4679 734.256 80.294 734.269 80.1208C734.282 79.9477 734.329 79.7787 734.407 79.6236C734.485 79.4685 734.592 79.3303 734.724 79.2169C734.855 79.1034 735.008 79.017 735.172 78.9625C735.337 78.9079 735.511 78.8864 735.684 78.8991C736.034 78.9248 736.359 79.0883 736.588 79.3537C736.817 79.6191 736.932 79.9647 736.906 80.3143C736.88 80.664 736.717 80.9892 736.451 81.2183C736.186 81.4474 735.841 81.5617 735.491 81.536Z" fill="white"/>
</g>
<g filter="url(#filter3_f_246_8905)">
<path d="M749.074 67.9677C748.905 67.9475 748.75 67.863 748.642 67.7316C748.534 67.6003 748.48 67.4323 748.493 67.2627C748.505 67.093 748.583 66.9347 748.709 66.8207C748.835 66.7067 749.001 66.6458 749.171 66.6506C749.258 66.6561 749.343 66.6789 749.421 66.7176C749.5 66.7562 749.569 66.81 749.627 66.8758C749.684 66.9416 749.728 67.0182 749.755 67.101C749.783 67.1838 749.794 67.2712 749.787 67.3583C749.781 67.4453 749.757 67.5303 749.718 67.6081C749.678 67.686 749.624 67.7552 749.558 67.8119C749.491 67.8686 749.414 67.9115 749.331 67.9383C749.248 67.965 749.16 67.975 749.074 67.9677ZM673.571 94.8395C673.402 94.8193 673.247 94.7347 673.139 94.6034C673.031 94.4721 672.977 94.3042 672.99 94.1345C673.002 93.9648 673.08 93.8065 673.206 93.6925C673.332 93.5785 673.498 93.5176 673.668 93.5224C673.755 93.528 673.84 93.5507 673.918 93.5894C673.997 93.628 674.066 93.6818 674.124 93.7476C674.181 93.8134 674.225 93.8899 674.252 93.9728C674.28 94.0556 674.291 94.1431 674.284 94.2301C674.278 94.3171 674.254 94.402 674.215 94.4799C674.175 94.5578 674.121 94.627 674.055 94.6837C673.988 94.7404 673.911 94.7833 673.828 94.8101C673.745 94.8368 673.658 94.8468 673.571 94.8395ZM529.96 84.2209C529.599 84.1941 529.324 83.8776 529.354 83.5141C529.36 83.4273 529.383 83.3425 529.422 83.2647C529.461 83.1869 529.515 83.1176 529.581 83.0609C529.647 83.0041 529.723 82.9611 529.806 82.9342C529.889 82.9074 529.976 82.8972 530.063 82.9044C530.149 82.9108 530.233 82.9342 530.311 82.9732C530.388 83.0122 530.457 83.0661 530.513 83.1317C530.569 83.1974 530.612 83.2736 530.639 83.3559C530.666 83.4382 530.676 83.525 530.669 83.6113C530.64 83.9747 530.328 84.2478 529.96 84.2209ZM460.791 43.3354C460.43 43.3086 460.154 42.9914 460.184 42.6286C460.19 42.5422 460.213 42.4579 460.251 42.3804C460.29 42.3029 460.343 42.2338 460.408 42.1771C460.474 42.1203 460.55 42.0771 460.632 42.0498C460.714 42.0225 460.8 42.0118 460.887 42.0181C461.062 42.0309 461.225 42.1125 461.34 42.2452C461.455 42.3778 461.512 42.5506 461.5 42.7257C461.47 43.0891 461.158 43.3622 460.791 43.3354ZM431.547 89.5274C431.179 89.4999 430.911 89.1841 430.934 88.8199C430.948 88.6454 431.031 88.4836 431.163 88.3695C431.296 88.2554 431.468 88.1981 431.643 88.2102C431.729 88.2166 431.814 88.2401 431.891 88.2791C431.968 88.3181 432.037 88.372 432.093 88.4377C432.149 88.5034 432.192 88.5795 432.219 88.6617C432.246 88.744 432.256 88.8307 432.25 88.917C432.227 89.2812 431.908 89.5542 431.547 89.5274ZM894.148 94.5929C894.06 94.5893 893.973 94.5679 893.893 94.53C893.812 94.4921 893.741 94.4386 893.682 94.3724C893.623 94.3063 893.578 94.229 893.549 94.1451C893.521 94.0612 893.51 93.9724 893.516 93.8841C893.523 93.7958 893.547 93.7097 893.588 93.6309C893.628 93.5521 893.684 93.4823 893.752 93.4256C893.82 93.3689 893.899 93.3265 893.984 93.3009C894.069 93.2753 894.158 93.267 894.246 93.2765C894.416 93.2949 894.573 93.3788 894.682 93.5104C894.792 93.6421 894.846 93.8111 894.833 93.982C894.821 94.1528 894.742 94.312 894.614 94.426C894.486 94.54 894.319 94.5998 894.148 94.5929Z" fill="white"/>
</g>
<g opacity="0.11" filter="url(#filter4_f_246_8905)">
<path d="M906.654 59.7513C906.567 59.7449 906.483 59.7215 906.405 59.6824C906.328 59.6434 906.259 59.5894 906.202 59.5237C906.146 59.458 906.102 59.3818 906.075 59.2994C906.048 59.217 906.037 59.13 906.044 59.0435C906.05 58.957 906.074 58.8726 906.113 58.7951C906.152 58.7177 906.206 58.6486 906.271 58.592C906.337 58.5353 906.413 58.4922 906.496 58.4651C906.578 58.4379 906.665 58.4272 906.752 58.4337C906.926 58.4467 907.089 58.5285 907.203 58.6612C907.318 58.794 907.375 58.9667 907.362 59.1415C907.349 59.3162 907.267 59.4786 907.134 59.593C907.001 59.7074 906.828 59.7643 906.654 59.7513ZM933.856 76.9986C933.769 76.9931 933.684 76.9703 933.606 76.9317C933.528 76.893 933.458 76.8392 933.4 76.7734C933.343 76.7076 933.299 76.6311 933.272 76.5483C933.244 76.4655 933.233 76.378 933.24 76.291C933.246 76.2039 933.27 76.119 933.309 76.0411C933.349 75.9633 933.403 75.894 933.47 75.8373C933.536 75.7807 933.613 75.7377 933.696 75.711C933.779 75.6842 933.867 75.6742 933.954 75.6815C934.127 75.6961 934.288 75.7785 934.401 75.9108C934.514 76.0431 934.57 76.2147 934.557 76.3882C934.544 76.5617 934.463 76.7232 934.332 76.8375C934.201 76.9518 934.03 77.0097 933.856 76.9986ZM909.199 114.916C909.03 114.896 908.875 114.811 908.767 114.68C908.659 114.548 908.606 114.38 908.618 114.211C908.631 114.041 908.708 113.883 908.834 113.769C908.961 113.655 909.126 113.594 909.296 113.599C909.383 113.604 909.468 113.627 909.547 113.666C909.625 113.704 909.695 113.758 909.752 113.824C909.809 113.89 909.853 113.966 909.881 114.049C909.908 114.132 909.919 114.219 909.913 114.306C909.906 114.393 909.883 114.478 909.843 114.556C909.804 114.634 909.749 114.703 909.683 114.76C909.616 114.817 909.539 114.86 909.456 114.886C909.373 114.913 909.286 114.923 909.199 114.916ZM754.372 76.9674C754.286 76.9614 754.201 76.9384 754.123 76.8996C754.046 76.8609 753.976 76.8072 753.919 76.7415C753.862 76.6759 753.819 76.5998 753.792 76.5173C753.764 76.4349 753.753 76.3479 753.76 76.2613C753.766 76.1746 753.789 76.0901 753.828 76.0125C753.867 75.935 753.921 75.8659 753.987 75.8092C754.053 75.7525 754.129 75.7094 754.212 75.6824C754.295 75.6553 754.382 75.6447 754.468 75.6514C754.642 75.6647 754.804 75.7465 754.918 75.8788C755.032 76.0111 755.088 76.1831 755.076 76.3571C755.063 76.5312 754.982 76.6931 754.85 76.8075C754.718 76.9219 754.546 76.9794 754.372 76.9674ZM673.128 118.656C673.04 118.652 672.953 118.631 672.873 118.593C672.793 118.555 672.721 118.501 672.662 118.435C672.603 118.369 672.558 118.292 672.53 118.208C672.501 118.124 672.49 118.035 672.496 117.947C672.503 117.859 672.527 117.772 672.568 117.694C672.608 117.615 672.664 117.545 672.732 117.488C672.8 117.432 672.879 117.389 672.964 117.364C673.049 117.338 673.138 117.33 673.226 117.339C673.396 117.358 673.553 117.442 673.662 117.573C673.772 117.705 673.826 117.874 673.814 118.045C673.801 118.216 673.722 118.375 673.594 118.489C673.466 118.603 673.299 118.663 673.128 118.656ZM547.147 102.71C546.78 102.682 546.511 102.367 546.534 102.002C546.564 101.639 546.876 101.366 547.243 101.393C547.33 101.399 547.414 101.423 547.491 101.462C547.568 101.501 547.637 101.555 547.693 101.62C547.75 101.686 547.793 101.762 547.819 101.844C547.846 101.926 547.857 102.013 547.85 102.099C547.827 102.464 547.509 102.737 547.147 102.71Z" fill="white"/>
</g>
<g opacity="0.3" filter="url(#filter5_f_246_8905)">
<path d="M865.061 75.8845C864.974 75.8789 864.889 75.8561 864.811 75.8175C864.732 75.7788 864.663 75.725 864.605 75.6592C864.548 75.5934 864.504 75.5169 864.477 75.4341C864.449 75.3513 864.438 75.2638 864.445 75.1768C864.451 75.0897 864.475 75.0048 864.514 74.9269C864.553 74.8491 864.608 74.7798 864.674 74.7231C864.741 74.6665 864.818 74.6235 864.901 74.5968C864.984 74.57 865.071 74.5601 865.158 74.5674C865.332 74.5819 865.492 74.6643 865.605 74.7966C865.718 74.9289 865.775 75.1005 865.762 75.274C865.749 75.4476 865.668 75.609 865.537 75.7233C865.406 75.8376 865.235 75.8955 865.061 75.8845Z" fill="white"/>
</g>
<g filter="url(#filter6_f_246_8905)">
<path d="M716.182 29.1034C716.095 29.0979 716.01 29.0751 715.931 29.0365C715.853 28.9978 715.783 28.944 715.726 28.8782C715.669 28.8124 715.625 28.7359 715.597 28.6531C715.57 28.5703 715.559 28.4828 715.565 28.3958C715.572 28.3087 715.595 28.2238 715.635 28.1459C715.674 28.0681 715.729 27.9988 715.795 27.9421C715.862 27.8855 715.939 27.8425 716.022 27.8158C716.105 27.789 716.192 27.779 716.279 27.7863C716.453 27.8009 716.613 27.8833 716.726 28.0156C716.839 28.1479 716.895 28.3195 716.883 28.493C716.87 28.6665 716.789 28.828 716.658 28.9423C716.527 29.0566 716.356 29.1145 716.182 29.1034ZM614.835 20.2842C614.748 20.2778 614.664 20.2543 614.586 20.2153C614.509 20.1762 614.44 20.1223 614.383 20.0566C614.326 19.9909 614.283 19.9146 614.256 19.8322C614.229 19.7498 614.218 19.6629 614.225 19.5764C614.231 19.4899 614.255 19.4055 614.294 19.328C614.333 19.2505 614.387 19.1815 614.452 19.1249C614.518 19.0682 614.594 19.0251 614.677 18.998C614.759 18.9708 614.846 18.9601 614.933 18.9665C615.107 18.9795 615.27 19.0614 615.384 19.1941C615.499 19.3269 615.555 19.4996 615.542 19.6744C615.529 19.8491 615.448 20.0115 615.315 20.1259C615.182 20.2403 615.009 20.2972 614.835 20.2842ZM756.497 93.0239C756.41 93.0183 756.324 92.9956 756.246 92.9569C756.168 92.9182 756.098 92.8645 756.041 92.7987C755.983 92.7329 755.94 92.6563 755.912 92.5735C755.885 92.4907 755.874 92.4033 755.88 92.3162C755.886 92.2292 755.91 92.1442 755.95 92.0664C755.989 91.9885 756.044 91.9192 756.11 91.8626C756.176 91.8059 756.253 91.763 756.336 91.7362C756.419 91.7095 756.507 91.6995 756.594 91.7068C756.767 91.7214 756.928 91.8038 757.041 91.9361C757.154 92.0684 757.21 92.24 757.197 92.4135C757.184 92.587 757.104 92.7484 756.972 92.8627C756.841 92.977 756.67 93.0349 756.497 93.0239Z" fill="white"/>
</g>
<g opacity="0.3" filter="url(#filter7_f_246_8905)">
<path d="M802.608 96.4333C802.522 96.4269 802.438 96.4035 802.36 96.3644C802.283 96.3254 802.214 96.2714 802.157 96.2057C802.1 96.14 802.057 96.0637 802.03 95.9813C802.003 95.8989 801.992 95.812 801.999 95.7255C802.005 95.639 802.028 95.5546 802.068 95.4771C802.107 95.3996 802.161 95.3306 802.226 95.274C802.292 95.2174 802.368 95.1742 802.451 95.1471C802.533 95.1199 802.62 95.1092 802.706 95.1157C802.881 95.1286 803.044 95.2105 803.158 95.3433C803.272 95.476 803.329 95.6487 803.316 95.8235C803.303 95.9982 803.221 96.1606 803.089 96.275C802.956 96.3893 802.783 96.4463 802.608 96.4333Z" fill="white"/>
</g>
<g opacity="0.11" filter="url(#filter8_f_246_8905)">
<path d="M859.639 59.5876C859.552 59.582 859.467 59.5593 859.389 59.5206C859.311 59.482 859.241 59.4282 859.183 59.3624C859.126 59.2966 859.082 59.22 859.055 59.1372C859.027 59.0544 859.016 58.967 859.023 58.8799C859.029 58.7929 859.053 58.7079 859.092 58.6301C859.132 58.5522 859.186 58.4829 859.252 58.4263C859.319 58.3696 859.396 58.3267 859.479 58.2999C859.562 58.2732 859.65 58.2632 859.737 58.2705C859.91 58.2851 860.071 58.3675 860.184 58.4998C860.296 58.6321 860.353 58.8036 860.34 58.9772C860.327 59.1507 860.246 59.3121 860.115 59.4264C859.984 59.5407 859.813 59.5986 859.639 59.5876Z" fill="white"/>
</g>
<g opacity="0.3" filter="url(#filter9_f_246_8905)">
<path d="M703.15 44.04C703.063 44.034 702.979 44.011 702.901 43.9722C702.823 43.9335 702.754 43.8798 702.697 43.8142C702.64 43.7486 702.596 43.6724 702.569 43.59C702.542 43.5075 702.531 43.4205 702.537 43.3339C702.543 43.2473 702.567 43.1627 702.606 43.0852C702.645 43.0076 702.699 42.9385 702.765 42.8818C702.83 42.8252 702.907 42.7821 702.989 42.755C703.072 42.7279 703.159 42.7174 703.246 42.724C703.42 42.7374 703.581 42.8191 703.695 42.9514C703.809 43.0837 703.866 43.2557 703.853 43.4297C703.84 43.6038 703.759 43.7657 703.627 43.8801C703.496 43.9945 703.324 44.052 703.15 44.04ZM744.369 104.713C744.282 104.707 744.197 104.684 744.119 104.646C744.04 104.607 743.971 104.553 743.913 104.488C743.856 104.422 743.812 104.345 743.785 104.262C743.757 104.18 743.746 104.092 743.753 104.005C743.759 103.918 743.783 103.833 743.822 103.755C743.862 103.677 743.916 103.608 743.982 103.551C744.049 103.495 744.126 103.452 744.209 103.425C744.292 103.398 744.38 103.388 744.466 103.396C744.64 103.41 744.8 103.493 744.913 103.625C745.026 103.757 745.083 103.929 745.07 104.102C745.057 104.276 744.976 104.437 744.845 104.552C744.714 104.666 744.543 104.724 744.369 104.713ZM823.591 117.196C823.502 117.192 823.415 117.171 823.335 117.133C823.255 117.095 823.184 117.041 823.125 116.975C823.066 116.909 823.021 116.832 822.992 116.748C822.964 116.664 822.952 116.575 822.959 116.487C822.966 116.399 822.99 116.312 823.03 116.234C823.071 116.155 823.127 116.085 823.195 116.028C823.263 115.972 823.342 115.929 823.427 115.904C823.511 115.878 823.6 115.87 823.689 115.879C823.859 115.898 824.015 115.982 824.125 116.113C824.235 116.245 824.289 116.414 824.276 116.585C824.263 116.756 824.185 116.915 824.057 117.029C823.929 117.143 823.762 117.203 823.591 117.196ZM845.953 74.4733C845.866 74.4669 845.782 74.4436 845.705 74.4047C845.627 74.3657 845.558 74.3119 845.502 74.2463C845.445 74.1807 845.402 74.1046 845.375 74.0223C845.348 73.9401 845.337 73.8533 845.343 73.7669C845.35 73.6805 845.373 73.5961 845.412 73.5188C845.451 73.4414 845.505 73.3725 845.57 73.3159C845.636 73.2593 845.712 73.2162 845.794 73.189C845.877 73.1618 845.963 73.1511 846.05 73.1575C846.224 73.1704 846.386 73.252 846.501 73.3845C846.615 73.517 846.672 73.6895 846.659 73.864C846.646 74.0385 846.565 74.2007 846.432 74.315C846.3 74.4292 846.127 74.4862 845.953 74.4733ZM436.371 42.1931C436.01 42.1664 435.735 41.8498 435.765 41.4863C435.788 41.1221 436.106 40.8498 436.467 40.8759C436.642 40.8888 436.805 40.9705 436.92 41.1031C437.035 41.2357 437.093 41.4084 437.08 41.5834C437.066 41.7579 436.984 41.9197 436.851 42.0338C436.718 42.1479 436.546 42.2052 436.371 42.1931Z" fill="white"/>
</g>
<g opacity="0.11" filter="url(#filter10_f_246_8905)">
<path d="M544.43 23.027C544.341 23.0245 544.253 23.0039 544.172 22.9665C544.091 22.9291 544.018 22.8757 543.958 22.8095C543.898 22.7432 543.852 22.6656 543.823 22.5811C543.794 22.4967 543.783 22.4073 543.789 22.3182C543.796 22.2292 543.82 22.1424 543.861 22.063C543.902 21.9837 543.959 21.9135 544.028 21.8566C544.096 21.7998 544.176 21.7574 544.262 21.7322C544.347 21.7069 544.437 21.6993 544.526 21.7098C544.612 21.7161 544.696 21.7395 544.774 21.7785C544.851 21.8175 544.92 21.8714 544.976 21.9371C545.032 22.0028 545.075 22.0789 545.102 22.1612C545.129 22.2435 545.139 22.3303 545.132 22.4166C545.109 22.7808 544.791 23.0538 544.43 23.027ZM452.071 71.8333C451.985 71.827 451.9 71.8037 451.823 71.7648C451.745 71.7259 451.676 71.6721 451.619 71.6065C451.563 71.5409 451.52 71.4647 451.492 71.3824C451.465 71.3001 451.454 71.2132 451.46 71.1267C451.467 71.0402 451.49 70.9558 451.529 70.8783C451.568 70.8008 451.622 70.7317 451.687 70.675C451.753 70.6183 451.829 70.5751 451.911 70.5478C451.994 70.5205 452.081 70.5098 452.167 70.5161C452.253 70.5224 452.338 70.5458 452.415 70.5848C452.492 70.6238 452.561 70.6777 452.617 70.7434C452.674 70.8091 452.717 70.8852 452.743 70.9675C452.77 71.0498 452.781 71.1366 452.774 71.2229C452.751 71.5871 452.432 71.8594 452.071 71.8333Z" fill="white"/>
</g>
<g opacity="0.3" filter="url(#filter11_f_246_8905)">
<path d="M618.286 90.0872C618.113 90.0743 617.944 90.0275 617.789 89.9493C617.634 89.8711 617.496 89.7632 617.382 89.6316C617.269 89.5001 617.183 89.3475 617.128 89.1826C617.074 89.0177 617.053 88.8436 617.066 88.6705C617.078 88.4973 617.125 88.3284 617.204 88.1733C617.282 88.0183 617.39 87.8801 617.521 87.7668C617.653 87.6535 617.805 87.5671 617.97 87.5128C618.135 87.4584 618.309 87.4371 618.482 87.4499C618.832 87.476 619.157 87.6398 619.386 87.9055C619.615 88.1712 619.729 88.517 619.703 88.8667C619.677 89.2164 619.513 89.5415 619.247 89.7703C618.982 89.9992 618.636 90.1132 618.286 90.0872Z" fill="white"/>
</g>
<g opacity="0.11" filter="url(#filter12_f_246_8905)">
<path d="M580.878 67.4528C580.705 67.4397 580.537 67.3928 580.382 67.3145C580.227 67.2362 580.089 67.1282 579.976 66.9966C579.863 66.865 579.776 66.7124 579.722 66.5475C579.668 66.3827 579.647 66.2087 579.66 66.0356C579.673 65.8626 579.72 65.6938 579.798 65.5389C579.877 65.384 579.985 65.246 580.116 65.1329C580.248 65.0197 580.4 64.9336 580.565 64.8794C580.73 64.8252 580.904 64.8041 581.077 64.8171C581.426 64.844 581.75 65.0079 581.979 65.2732C582.208 65.5385 582.322 65.8835 582.297 66.2328C582.284 66.406 582.237 66.575 582.158 66.7301C582.08 66.8851 581.972 67.0233 581.84 67.1366C581.709 67.2499 581.556 67.3361 581.391 67.3903C581.226 67.4446 581.052 67.4658 580.878 67.4528Z" fill="white"/>
</g>
<g filter="url(#filter13_f_246_8905)">
<path d="M582.91 44.4229C582.362 44.382 581.956 43.9076 581.994 43.361C582 43.2288 582.033 43.0992 582.09 42.9798C582.147 42.8604 582.227 42.7536 582.326 42.6659C582.425 42.5781 582.541 42.511 582.666 42.4687C582.792 42.4263 582.924 42.4096 583.056 42.4193C583.188 42.4291 583.317 42.4653 583.435 42.5256C583.552 42.586 583.657 42.6694 583.742 42.7708C583.827 42.8722 583.891 42.9896 583.929 43.1162C583.968 43.2427 583.981 43.3757 583.968 43.5073C583.959 43.6369 583.924 43.7633 583.866 43.8795C583.808 43.9956 583.727 44.0991 583.629 44.1842C583.531 44.2692 583.417 44.3341 583.293 44.375C583.17 44.416 583.04 44.4323 582.91 44.4229ZM623.251 116.954C622.996 116.926 622.762 116.8 622.598 116.602C622.434 116.405 622.353 116.151 622.372 115.896C622.391 115.64 622.508 115.401 622.699 115.23C622.89 115.059 623.14 114.968 623.397 114.977C623.659 114.997 623.903 115.12 624.074 115.319C624.246 115.518 624.332 115.777 624.312 116.039C624.293 116.301 624.17 116.545 623.971 116.716C623.772 116.888 623.513 116.974 623.251 116.954ZM403.576 113.954C403.034 113.914 402.621 113.438 402.659 112.892C402.679 112.63 402.802 112.386 403.001 112.214C403.201 112.042 403.461 111.956 403.723 111.976C403.986 111.995 404.23 112.118 404.402 112.318C404.573 112.517 404.659 112.777 404.64 113.04C404.602 113.585 404.124 113.995 403.576 113.954ZM831.929 134.37C831.799 134.361 831.671 134.327 831.554 134.269C831.437 134.211 831.332 134.13 831.246 134.032C831.16 133.933 831.095 133.818 831.053 133.694C831.012 133.57 830.996 133.439 831.005 133.309C831.015 133.178 831.05 133.051 831.109 132.934C831.168 132.817 831.25 132.713 831.349 132.628C831.449 132.543 831.564 132.479 831.688 132.439C831.813 132.398 831.944 132.383 832.074 132.394C832.335 132.415 832.576 132.539 832.746 132.737C832.916 132.936 833 133.193 832.981 133.454C832.962 133.714 832.841 133.957 832.644 134.128C832.447 134.3 832.19 134.387 831.929 134.37ZM920.654 125.7C920.524 125.691 920.397 125.655 920.281 125.597C920.165 125.538 920.061 125.457 919.976 125.359C919.891 125.26 919.827 125.145 919.786 125.022C919.745 124.898 919.729 124.768 919.739 124.638C919.749 124.508 919.784 124.381 919.842 124.265C919.901 124.149 919.982 124.045 920.081 123.96C920.179 123.875 920.294 123.811 920.417 123.77C920.541 123.729 920.671 123.713 920.801 123.723C921.064 123.742 921.307 123.865 921.479 124.064C921.65 124.264 921.736 124.523 921.716 124.785C921.697 125.047 921.574 125.291 921.375 125.463C921.175 125.634 920.916 125.72 920.654 125.7ZM933.801 100.179C933.671 100.171 933.543 100.136 933.426 100.078C933.308 100.02 933.204 99.9397 933.118 99.8411C933.032 99.7424 932.967 99.6278 932.925 99.5037C932.884 99.3796 932.868 99.2485 932.877 99.118C932.887 98.9876 932.922 98.8604 932.981 98.7436C933.04 98.6269 933.122 98.523 933.221 98.438C933.321 98.353 933.436 98.2885 933.56 98.2482C933.685 98.208 933.816 98.1927 933.946 98.2034C934.207 98.2248 934.448 98.3482 934.618 98.5467C934.788 98.7452 934.872 99.0028 934.853 99.2633C934.834 99.5238 934.713 99.7663 934.516 99.9378C934.319 100.109 934.062 100.196 933.801 100.179ZM613.553 59.9392C613.421 59.933 613.291 59.9004 613.171 59.8433C613.052 59.7862 612.945 59.7057 612.857 59.6066C612.769 59.5075 612.702 59.3918 612.66 59.2663C612.617 59.1408 612.6 59.0081 612.61 58.876C612.62 58.7439 612.656 58.6151 612.716 58.4972C612.777 58.3793 612.86 58.2747 612.962 58.1896C613.063 58.1044 613.181 58.0405 613.307 58.0016C613.434 57.9626 613.567 57.9495 613.699 57.9628C613.956 57.9889 614.192 58.1142 614.358 58.312C614.524 58.5098 614.606 58.7645 614.587 59.022C614.568 59.2795 614.45 59.5194 614.256 59.6907C614.063 59.8619 613.811 59.9511 613.553 59.9392ZM724.575 117.16C724.313 117.141 724.069 117.018 723.897 116.819C723.726 116.62 723.64 116.361 723.66 116.099C723.679 115.837 723.802 115.593 724.001 115.422C724.2 115.25 724.459 115.165 724.721 115.184C724.978 115.21 725.214 115.335 725.38 115.533C725.546 115.731 725.628 115.986 725.609 116.243C725.59 116.501 725.471 116.74 725.278 116.912C725.085 117.083 724.833 117.172 724.575 117.16ZM556.477 133.21C555.935 133.17 555.522 132.695 555.56 132.149C555.591 131.895 555.718 131.663 555.916 131.5C556.113 131.338 556.365 131.257 556.621 131.276C556.876 131.295 557.114 131.412 557.285 131.601C557.456 131.791 557.548 132.04 557.541 132.296C557.496 132.841 557.025 133.251 556.477 133.21ZM385.225 75.503C384.683 75.4629 384.27 74.9877 384.309 74.4411C384.328 74.1785 384.451 73.9344 384.651 73.7625C384.85 73.5907 385.11 73.5051 385.372 73.5246C385.635 73.5441 385.879 73.6671 386.051 73.8665C386.222 74.066 386.308 74.3255 386.289 74.5881C386.244 75.1333 385.773 75.5432 385.225 75.503ZM372.092 38.1055C371.83 38.0853 371.586 37.9625 371.415 37.7637C371.243 37.5649 371.157 37.3062 371.175 37.0442C371.195 36.7816 371.318 36.5375 371.517 36.3655C371.716 36.1936 371.976 36.1079 372.238 36.1274C372.501 36.1468 372.745 36.2697 372.917 36.4691C373.089 36.6685 373.175 36.928 373.155 37.1906C373.146 37.3207 373.111 37.4476 373.052 37.5641C372.994 37.6806 372.913 37.7844 372.814 37.8694C372.715 37.9545 372.6 38.0191 372.476 38.0596C372.352 38.1001 372.222 38.1157 372.092 38.1055Z" fill="white"/>
</g>
<g opacity="0.3" filter="url(#filter14_f_246_8905)">
<path d="M528.511 41.0602C528.338 41.0472 528.169 41.0002 528.015 40.9219C527.86 40.8436 527.722 40.7356 527.608 40.604C527.495 40.4724 527.409 40.3198 527.355 40.155C527.301 39.9901 527.28 39.8161 527.293 39.6431C527.306 39.47 527.353 39.3012 527.431 39.1463C527.509 38.9914 527.617 38.8535 527.749 38.7403C527.881 38.6272 528.033 38.541 528.198 38.4868C528.363 38.4327 528.537 38.4115 528.71 38.4245C529.059 38.4514 529.383 38.6153 529.612 38.8806C529.84 39.1459 529.955 39.4909 529.93 39.8402C529.917 40.0134 529.87 40.1824 529.791 40.3375C529.713 40.4926 529.605 40.6307 529.473 40.744C529.341 40.8573 529.189 40.9435 529.024 40.9978C528.859 41.052 528.684 41.0732 528.511 41.0602Z" fill="white"/>
</g>
<g filter="url(#filter15_f_246_8905)">
<path d="M500.482 55.395C500.309 55.3822 500.14 55.3355 499.985 55.2575C499.831 55.1794 499.693 55.0716 499.579 54.9402C499.466 54.8088 499.38 54.6564 499.325 54.4916C499.271 54.3269 499.25 54.153 499.262 53.98C499.275 53.807 499.321 53.6382 499.399 53.4831C499.476 53.328 499.584 53.1897 499.715 53.0763C499.846 52.9628 499.998 52.8764 500.163 52.8218C500.328 52.7673 500.501 52.7459 500.674 52.7586C501.024 52.7846 501.349 52.9484 501.577 53.2138C501.806 53.4793 501.92 53.8248 501.894 54.1743C501.882 54.3473 501.836 54.5161 501.758 54.6712C501.68 54.8263 501.573 54.9645 501.442 55.078C501.311 55.1914 501.158 55.2778 500.994 55.3322C500.829 55.3866 500.655 55.408 500.482 55.395ZM462.022 114.153C461.481 114.113 461.068 113.637 461.112 113.092C461.122 112.962 461.157 112.836 461.216 112.72C461.274 112.603 461.355 112.5 461.453 112.415C461.552 112.33 461.666 112.266 461.789 112.225C461.913 112.184 462.043 112.168 462.172 112.178C462.302 112.188 462.428 112.223 462.545 112.281C462.661 112.339 462.764 112.42 462.849 112.519C462.934 112.617 462.998 112.731 463.039 112.855C463.08 112.978 463.096 113.108 463.086 113.238C463.048 113.784 462.571 114.193 462.022 114.153Z" fill="white"/>
</g>
<g opacity="0.3" filter="url(#filter16_f_246_8905)">
<path d="M463.464 24.9905C463.291 24.9777 463.122 24.9309 462.967 24.8529C462.812 24.7748 462.674 24.667 462.561 24.5356C462.448 24.4042 462.361 24.2518 462.307 24.087C462.253 23.9223 462.231 23.7484 462.244 23.5754C462.281 23.2339 462.449 22.9201 462.712 22.7001C462.976 22.4801 463.315 22.3713 463.658 22.3966C464 22.4219 464.319 22.5794 464.548 22.8357C464.776 23.0921 464.896 23.4273 464.882 23.7704C464.869 23.9437 464.822 24.1126 464.744 24.2677C464.666 24.4228 464.558 24.5609 464.426 24.6742C464.294 24.7875 464.141 24.8738 463.976 24.928C463.811 24.9823 463.637 25.0035 463.464 24.9905ZM394.798 66.937C394.448 66.911 394.124 66.7473 393.895 66.4818C393.666 66.2163 393.552 65.8709 393.578 65.5214C393.59 65.3484 393.637 65.1795 393.714 65.0244C393.792 64.8693 393.899 64.7311 394.031 64.6177C394.162 64.5042 394.314 64.4178 394.479 64.3634C394.643 64.309 394.817 64.2876 394.99 64.3006C395.163 64.3134 395.332 64.3601 395.487 64.4382C395.642 64.5162 395.78 64.624 395.893 64.7554C396.006 64.8868 396.093 65.0393 396.147 65.204C396.201 65.3688 396.223 65.5426 396.21 65.7156C396.198 65.8886 396.151 66.0575 396.074 66.2125C395.996 66.3676 395.889 66.5059 395.757 66.6193C395.626 66.7328 395.474 66.8193 395.309 66.8738C395.145 66.9283 394.971 66.9498 394.798 66.937ZM471.773 73.9543C471.423 73.9288 471.098 73.7654 470.869 73.5002C470.64 73.235 470.525 72.8895 470.551 72.5399C470.576 72.1903 470.739 71.8651 471.005 71.636C471.27 71.4068 471.615 71.2923 471.965 71.3178C472.315 71.3435 472.641 71.5071 472.871 71.7726C473.1 72.0381 473.216 72.3839 473.191 72.7342C473.164 73.0836 472.999 73.4081 472.733 73.6366C472.468 73.8652 472.122 73.9794 471.773 73.9543ZM849.059 113.117C848.716 113.083 848.399 112.916 848.177 112.652C847.955 112.388 847.845 112.048 847.87 111.704C847.896 111.36 848.055 111.039 848.313 110.811C848.572 110.582 848.909 110.464 849.254 110.481C849.597 110.515 849.914 110.681 850.136 110.945C850.358 111.209 850.468 111.55 850.443 111.894C850.417 112.238 850.258 112.558 850 112.787C849.741 113.016 849.404 113.134 849.059 113.117ZM905.1 80.8306C904.927 80.8178 904.758 80.7711 904.603 80.693C904.448 80.615 904.31 80.5072 904.197 80.3758C904.083 80.2444 903.997 80.092 903.942 79.9272C903.888 79.7624 903.867 79.5886 903.879 79.4155C903.892 79.2425 903.939 79.0736 904.017 78.9186C904.095 78.7637 904.203 78.6255 904.334 78.5122C904.466 78.3989 904.618 78.3126 904.783 78.2582C904.948 78.2038 905.121 78.1823 905.294 78.1951C905.468 78.2079 905.636 78.2546 905.791 78.3327C905.946 78.4107 906.084 78.5185 906.198 78.6499C906.311 78.7813 906.397 78.9337 906.452 79.0985C906.506 79.2633 906.528 79.4371 906.515 79.6102C906.502 79.7832 906.455 79.9521 906.377 80.1071C906.299 80.262 906.192 80.4002 906.06 80.5135C905.929 80.6268 905.776 80.7131 905.611 80.7675C905.447 80.8219 905.273 80.8434 905.1 80.8306Z" fill="white"/>
</g>
<g opacity="0.11" filter="url(#filter17_f_246_8905)">
<path d="M423.263 49.1737C423.09 49.1609 422.921 49.1141 422.766 49.036C422.611 48.9579 422.473 48.8501 422.36 48.7186C422.246 48.5871 422.16 48.4346 422.106 48.2698C422.052 48.105 422.03 47.931 422.043 47.758C422.073 47.411 422.238 47.0898 422.503 46.8639C422.768 46.638 423.112 46.5258 423.459 46.5515C423.806 46.5773 424.129 46.739 424.358 47.0015C424.587 47.2639 424.703 47.6061 424.681 47.9536C424.668 48.1269 424.621 48.2959 424.543 48.4509C424.465 48.606 424.356 48.7441 424.225 48.8574C424.093 48.9707 423.94 49.057 423.775 49.1112C423.61 49.1655 423.436 49.1867 423.263 49.1737Z" fill="white"/>
</g>
<g opacity="0.3" filter="url(#filter18_f_246_8905)">
<path d="M812.557 51.4689C812.384 51.4561 812.215 51.4094 812.06 51.3313C811.905 51.2532 811.767 51.1454 811.654 51.014C811.54 50.8826 811.454 50.7301 811.399 50.5653C811.345 50.4005 811.324 50.2266 811.336 50.0535C811.349 49.8804 811.396 49.7115 811.474 49.5565C811.552 49.4015 811.66 49.2633 811.791 49.15C811.923 49.0366 812.075 48.9503 812.24 48.8958C812.405 48.8414 812.579 48.82 812.752 48.8328C813.101 48.8586 813.426 49.0222 813.655 49.2877C813.884 49.5531 813.998 49.8987 813.973 50.2482C813.947 50.5978 813.783 50.9228 813.518 51.1517C813.252 51.3806 812.907 51.4947 812.557 51.4689Z" fill="white"/>
</g>
<g opacity="0.11" filter="url(#filter19_f_246_8905)">
<path d="M831.318 39.6076C831.145 39.5947 830.977 39.5479 830.822 39.4698C830.667 39.3918 830.528 39.2839 830.415 39.1524C830.302 39.021 830.215 38.8685 830.161 38.7037C830.107 38.5388 830.085 38.3649 830.098 38.1918C830.111 38.0188 830.158 37.8499 830.236 37.6949C830.314 37.5399 830.422 37.4018 830.553 37.2884C830.685 37.1751 830.837 37.0888 831.002 37.0344C831.167 36.98 831.341 36.9587 831.514 36.9715C831.863 36.9974 832.188 37.1611 832.417 37.4266C832.646 37.6921 832.76 38.0376 832.734 38.3872C832.708 38.7368 832.545 39.0617 832.279 39.2906C832.014 39.5195 831.668 39.6335 831.318 39.6076Z" fill="white"/>
</g>
<g opacity="0.3" filter="url(#filter20_f_246_8905)">
<path d="M833.463 82.1591C833.287 82.1504 833.115 82.1065 832.956 82.0301C832.797 81.9537 832.655 81.8463 832.538 81.7142C832.422 81.5822 832.333 81.4281 832.276 81.2611C832.22 81.094 832.198 80.9174 832.211 80.7416C832.223 80.5658 832.271 80.3944 832.352 80.2374C832.432 80.0804 832.543 79.941 832.677 79.8275C832.812 79.7139 832.968 79.6285 833.137 79.5762C833.305 79.5239 833.482 79.5058 833.658 79.5229C834.001 79.5565 834.318 79.7231 834.54 79.9871C834.763 80.2511 834.873 80.5916 834.847 80.9358C834.822 81.28 834.663 81.6007 834.405 81.8293C834.146 82.0578 833.808 82.1762 833.463 82.1591Z" fill="white"/>
</g>
<g filter="url(#filter21_f_246_8905)">
<path d="M792.346 78.4516C792.216 78.442 792.089 78.4068 791.973 78.3482C791.857 78.2896 791.753 78.2086 791.668 78.11C791.583 78.0113 791.518 77.8969 791.478 77.7732C791.437 77.6495 791.421 77.5191 791.431 77.3892C791.44 77.2594 791.475 77.1327 791.534 77.0165C791.593 76.9002 791.674 76.7966 791.772 76.7117C791.871 76.6267 791.985 76.562 792.109 76.5213C792.233 76.4805 792.363 76.4645 792.493 76.4742C792.755 76.4938 792.999 76.6167 793.171 76.8159C793.342 77.0151 793.428 77.2744 793.408 77.5366C793.388 77.7988 793.266 78.0426 793.066 78.2142C792.867 78.3858 792.608 78.4712 792.346 78.4516Z" fill="white"/>
</g>
<g opacity="0.11" filter="url(#filter22_f_246_8905)">
<path d="M319.475 146.6C319.301 146.588 319.132 146.541 318.977 146.463C318.822 146.385 318.684 146.278 318.57 146.146C318.457 146.014 318.371 145.862 318.317 145.697C318.262 145.532 318.241 145.358 318.255 145.184C318.267 145.012 318.314 144.843 318.391 144.688C318.469 144.533 318.576 144.395 318.707 144.281C318.839 144.168 318.991 144.081 319.155 144.027C319.32 143.972 319.494 143.951 319.667 143.964C320.016 143.99 320.341 144.153 320.57 144.419C320.798 144.684 320.912 145.03 320.886 145.379C320.874 145.552 320.828 145.721 320.75 145.876C320.672 146.031 320.565 146.169 320.434 146.283C320.303 146.396 320.15 146.482 319.986 146.537C319.821 146.591 319.647 146.613 319.475 146.6Z" fill="white"/>
</g>
<g filter="url(#filter23_f_246_8905)">
<path d="M314.662 153.528C314.12 153.488 313.708 153.013 313.746 152.467C313.776 152.213 313.903 151.981 314.101 151.818C314.298 151.656 314.551 151.575 314.806 151.594C315.061 151.613 315.299 151.73 315.47 151.919C315.641 152.109 315.733 152.358 315.726 152.614C315.681 153.159 315.21 153.569 314.662 153.528ZM293.943 138.091C293.395 138.05 292.989 137.576 293.027 137.029C293.036 136.899 293.071 136.772 293.13 136.656C293.189 136.54 293.27 136.436 293.368 136.351C293.467 136.266 293.582 136.201 293.706 136.161C293.83 136.12 293.96 136.104 294.09 136.114C294.352 136.135 294.595 136.258 294.767 136.457C294.939 136.656 295.025 136.914 295.007 137.176C294.962 137.721 294.491 138.131 293.943 138.091ZM350.038 140.91C349.49 140.87 349.077 140.394 349.122 139.849C349.131 139.719 349.166 139.593 349.224 139.477C349.282 139.361 349.363 139.257 349.461 139.172C349.559 139.087 349.673 139.022 349.796 138.981C349.919 138.94 350.05 138.924 350.179 138.933C350.309 138.942 350.436 138.977 350.553 139.035C350.669 139.094 350.773 139.175 350.858 139.273C350.943 139.372 351.008 139.486 351.049 139.61C351.09 139.734 351.105 139.865 351.096 139.995C351.086 140.124 351.052 140.251 350.993 140.367C350.935 140.483 350.855 140.586 350.757 140.671C350.658 140.756 350.544 140.821 350.421 140.862C350.298 140.903 350.168 140.919 350.038 140.91Z" fill="white"/>
</g>
<g filter="url(#filter24_f_246_8905)">
<path d="M395.061 145.566C394.7 145.539 394.425 145.223 394.455 144.859C394.46 144.773 394.483 144.689 394.522 144.611C394.56 144.534 394.613 144.465 394.679 144.408C394.744 144.351 394.82 144.308 394.902 144.281C394.984 144.253 395.071 144.243 395.157 144.249C395.332 144.262 395.495 144.343 395.61 144.476C395.725 144.609 395.783 144.781 395.77 144.956C395.756 145.131 395.674 145.293 395.541 145.407C395.408 145.521 395.236 145.578 395.061 145.566ZM319.563 172.436C319.195 172.408 318.927 172.093 318.95 171.728C318.964 171.554 319.047 171.392 319.179 171.278C319.312 171.164 319.484 171.107 319.659 171.119C319.745 171.125 319.83 171.148 319.907 171.187C319.984 171.226 320.053 171.28 320.109 171.346C320.166 171.412 320.208 171.488 320.235 171.57C320.262 171.652 320.273 171.739 320.266 171.825C320.243 172.19 319.924 172.463 319.563 172.436ZM175.954 161.82C175.867 161.814 175.782 161.791 175.704 161.752C175.626 161.714 175.557 161.66 175.5 161.594C175.443 161.528 175.399 161.452 175.372 161.369C175.345 161.287 175.334 161.199 175.341 161.112C175.37 160.749 175.682 160.476 176.05 160.503C176.136 160.509 176.22 160.533 176.298 160.572C176.375 160.611 176.443 160.665 176.5 160.73C176.556 160.796 176.599 160.872 176.626 160.954C176.653 161.037 176.663 161.123 176.657 161.21C176.633 161.574 176.315 161.847 175.954 161.82ZM106.778 120.934C106.417 120.907 106.142 120.59 106.171 120.227C106.194 119.863 106.513 119.59 106.88 119.617C106.967 119.624 107.051 119.647 107.128 119.686C107.205 119.725 107.274 119.779 107.331 119.845C107.387 119.91 107.43 119.986 107.457 120.069C107.483 120.151 107.494 120.238 107.487 120.324C107.464 120.688 107.145 120.961 106.778 120.934ZM77.5344 167.124C77.1732 167.097 76.8982 166.78 76.9213 166.416C76.9356 166.242 77.018 166.08 77.1507 165.966C77.2834 165.852 77.4558 165.795 77.6304 165.807C77.8051 165.82 77.9672 165.902 78.082 166.035C78.1967 166.167 78.2547 166.339 78.2435 166.514C78.2139 166.878 77.8957 167.15 77.5344 167.124ZM540.137 172.189C539.775 172.163 539.5 171.846 539.53 171.483C539.536 171.396 539.559 171.311 539.598 171.233C539.637 171.155 539.691 171.086 539.757 171.029C539.823 170.973 539.9 170.93 539.982 170.903C540.065 170.876 540.152 170.866 540.239 170.873C540.325 170.879 540.41 170.903 540.487 170.942C540.564 170.981 540.633 171.035 540.689 171.1C540.746 171.166 540.788 171.242 540.815 171.324C540.842 171.407 540.853 171.494 540.846 171.58C540.816 171.943 540.504 172.216 540.137 172.189Z" fill="white"/>
</g>
<g opacity="0.11" filter="url(#filter25_f_246_8905)">
<path d="M552.639 137.35C552.278 137.324 552.003 137.007 552.032 136.644C552.038 136.557 552.061 136.473 552.099 136.395C552.138 136.318 552.191 136.249 552.257 136.192C552.322 136.135 552.398 136.092 552.48 136.065C552.562 136.037 552.649 136.027 552.735 136.033C552.91 136.046 553.073 136.128 553.188 136.26C553.303 136.393 553.361 136.566 553.348 136.741C553.319 137.104 553.007 137.378 552.639 137.35ZM579.84 154.597C579.479 154.571 579.204 154.254 579.234 153.891C579.257 153.527 579.575 153.254 579.943 153.282C580.113 153.301 580.268 153.386 580.377 153.518C580.485 153.65 580.539 153.818 580.525 153.989C580.512 154.159 580.433 154.318 580.306 154.431C580.178 154.545 580.011 154.604 579.84 154.597ZM555.185 192.515C554.824 192.488 554.548 192.171 554.578 191.808C554.601 191.444 554.92 191.171 555.281 191.198C555.456 191.21 555.619 191.292 555.734 191.425C555.849 191.557 555.906 191.73 555.894 191.905C555.88 192.08 555.797 192.241 555.665 192.356C555.532 192.47 555.359 192.527 555.185 192.515ZM400.359 154.565C399.997 154.538 399.722 154.221 399.752 153.858C399.758 153.771 399.78 153.687 399.819 153.61C399.857 153.532 399.911 153.463 399.976 153.406C400.042 153.35 400.117 153.306 400.2 153.279C400.282 153.252 400.368 153.241 400.455 153.247C400.63 153.26 400.792 153.342 400.907 153.474C401.022 153.607 401.08 153.78 401.068 153.955C401.053 154.129 400.971 154.291 400.838 154.405C400.706 154.519 400.533 154.577 400.359 154.565ZM319.121 196.248C318.76 196.222 318.485 195.904 318.515 195.542C318.52 195.455 318.543 195.371 318.582 195.293C318.62 195.216 318.674 195.147 318.739 195.09C318.804 195.033 318.88 194.99 318.962 194.963C319.044 194.936 319.131 194.925 319.217 194.931C319.304 194.937 319.389 194.96 319.467 194.999C319.545 195.038 319.614 195.091 319.671 195.157C319.728 195.223 319.772 195.299 319.799 195.382C319.826 195.465 319.837 195.552 319.831 195.639C319.801 196.002 319.489 196.275 319.121 196.248ZM193.13 180.309C192.763 180.282 192.494 179.965 192.517 179.601C192.532 179.427 192.614 179.265 192.747 179.151C192.879 179.037 193.052 178.98 193.226 178.992C193.312 178.998 193.397 179.022 193.474 179.061C193.551 179.1 193.62 179.154 193.676 179.219C193.733 179.285 193.776 179.361 193.802 179.443C193.829 179.526 193.84 179.613 193.833 179.699C193.81 180.062 193.491 180.335 193.13 180.309Z" fill="white"/>
</g>
<g filter="url(#filter26_f_246_8905)">
<path d="M362.167 106.702C361.8 106.674 361.531 106.358 361.554 105.994C361.584 105.631 361.902 105.358 362.263 105.385C362.438 105.399 362.6 105.481 362.715 105.613C362.829 105.745 362.887 105.917 362.876 106.092C362.862 106.266 362.78 106.428 362.647 106.542C362.514 106.656 362.342 106.714 362.167 106.702ZM260.818 97.8822C260.457 97.8554 260.182 97.5389 260.211 97.1754C260.234 96.8112 260.553 96.5388 260.914 96.565C261.089 96.5777 261.252 96.6594 261.367 96.792C261.482 96.9246 261.539 97.0974 261.527 97.2725C261.513 97.447 261.43 97.6088 261.298 97.7229C261.165 97.837 260.993 97.8942 260.818 97.8822ZM402.481 170.62C402.12 170.593 401.845 170.277 401.874 169.913C401.88 169.827 401.903 169.743 401.941 169.665C401.98 169.588 402.033 169.518 402.098 169.462C402.164 169.405 402.24 169.362 402.322 169.334C402.404 169.307 402.491 169.296 402.577 169.303C402.752 169.316 402.915 169.397 403.03 169.53C403.145 169.662 403.202 169.835 403.19 170.01C403.176 170.185 403.093 170.347 402.961 170.461C402.828 170.575 402.655 170.632 402.481 170.62Z" fill="white"/>
</g>
<g opacity="0.11" filter="url(#filter27_f_246_8905)">
<path d="M505.623 137.184C505.454 137.163 505.301 137.078 505.193 136.946C505.086 136.814 505.034 136.647 505.047 136.477C505.06 136.308 505.138 136.151 505.264 136.037C505.39 135.924 505.555 135.863 505.725 135.868C505.811 135.874 505.896 135.898 505.973 135.937C506.05 135.976 506.119 136.03 506.175 136.095C506.232 136.161 506.274 136.237 506.301 136.319C506.328 136.402 506.338 136.489 506.332 136.575C506.308 136.939 505.99 137.211 505.623 137.184Z" fill="white"/>
</g>
<g opacity="0.3" filter="url(#filter28_f_246_8905)">
<path d="M349.134 121.637C348.766 121.609 348.497 121.294 348.521 120.929C348.535 120.755 348.617 120.593 348.75 120.479C348.883 120.365 349.055 120.308 349.23 120.32C349.404 120.333 349.567 120.415 349.681 120.548C349.796 120.68 349.854 120.852 349.843 121.027C349.829 121.202 349.746 121.363 349.613 121.478C349.481 121.592 349.308 121.649 349.134 121.637ZM390.355 182.312C390.268 182.306 390.183 182.283 390.105 182.244C390.027 182.205 389.958 182.152 389.901 182.086C389.844 182.02 389.8 181.944 389.773 181.861C389.746 181.778 389.735 181.691 389.742 181.604C389.771 181.241 390.083 180.968 390.451 180.995C390.537 181.001 390.621 181.024 390.699 181.063C390.776 181.103 390.844 181.156 390.901 181.222C390.957 181.288 391 181.364 391.027 181.446C391.054 181.528 391.064 181.615 391.058 181.701C391.034 182.066 390.716 182.339 390.355 182.312ZM469.577 194.793C469.21 194.765 468.941 194.449 468.964 194.085C468.978 193.911 469.061 193.749 469.193 193.635C469.326 193.521 469.499 193.464 469.673 193.476C469.848 193.489 470.01 193.571 470.125 193.704C470.24 193.836 470.298 194.008 470.286 194.183C470.257 194.547 469.938 194.819 469.577 194.793ZM491.94 152.073C491.573 152.045 491.304 151.729 491.327 151.365C491.341 151.191 491.424 151.029 491.556 150.915C491.689 150.801 491.862 150.743 492.036 150.755C492.122 150.762 492.207 150.785 492.284 150.824C492.361 150.863 492.43 150.917 492.486 150.983C492.543 151.049 492.585 151.125 492.612 151.207C492.639 151.289 492.65 151.376 492.643 151.462C492.62 151.826 492.301 152.099 491.94 152.073ZM82.3598 119.791C81.9921 119.763 81.7235 119.447 81.7467 119.083C81.7532 118.996 81.7766 118.912 81.8158 118.834C81.8549 118.757 81.909 118.688 81.9749 118.631C82.0407 118.575 82.117 118.531 82.1995 118.504C82.2821 118.477 82.3691 118.467 82.4558 118.473C82.5421 118.48 82.6262 118.503 82.7035 118.542C82.7807 118.581 82.8495 118.635 82.9059 118.701C82.9623 118.766 83.0052 118.842 83.032 118.925C83.0589 119.007 83.0692 119.094 83.0624 119.18C83.0392 119.544 82.721 119.817 82.3598 119.791Z" fill="white"/>
</g>
<g opacity="0.11" filter="url(#filter29_f_246_8905)">
<path d="M190.412 100.621C190.051 100.595 189.776 100.278 189.805 99.9146C189.829 99.5504 190.147 99.278 190.508 99.3048C190.683 99.3176 190.846 99.3992 190.961 99.5318C191.076 99.6645 191.134 99.8373 191.121 100.012C191.092 100.375 190.773 100.648 190.412 100.621ZM98.0533 149.43C97.6857 149.403 97.417 149.087 97.4402 148.723C97.4698 148.359 97.7816 148.086 98.1493 148.113C98.2356 148.119 98.3198 148.143 98.3971 148.182C98.4744 148.221 98.5431 148.275 98.5995 148.34C98.6559 148.406 98.6987 148.482 98.7255 148.564C98.7524 148.647 98.7628 148.734 98.756 148.82C98.7328 149.184 98.4145 149.457 98.0533 149.43Z" fill="white"/>
</g>
<g opacity="0.11" filter="url(#filter30_f_246_8905)">
<path d="M226.869 145.049C226.696 145.037 226.527 144.991 226.372 144.913C226.216 144.835 226.078 144.727 225.965 144.596C225.851 144.464 225.765 144.311 225.711 144.146C225.657 143.982 225.636 143.807 225.649 143.634C225.662 143.461 225.708 143.292 225.785 143.137C225.863 142.982 225.971 142.844 226.102 142.731C226.233 142.617 226.385 142.531 226.55 142.476C226.714 142.422 226.888 142.4 227.061 142.413C227.411 142.439 227.735 142.603 227.964 142.868C228.193 143.134 228.307 143.479 228.281 143.829C228.269 144.002 228.222 144.17 228.145 144.326C228.067 144.481 227.96 144.619 227.829 144.732C227.697 144.846 227.545 144.932 227.38 144.987C227.216 145.041 227.042 145.062 226.869 145.049Z" fill="white"/>
</g>
<g filter="url(#filter31_f_246_8905)">
<path d="M228.897 122.02C228.355 121.979 227.942 121.504 227.987 120.959C227.996 120.83 228.031 120.703 228.089 120.587C228.147 120.471 228.227 120.367 228.326 120.282C228.424 120.197 228.538 120.132 228.661 120.091C228.784 120.05 228.914 120.034 229.044 120.043C229.592 120.084 229.998 120.559 229.96 121.105C229.922 121.651 229.445 122.06 228.897 122.02ZM269.241 194.551C269.111 194.542 268.984 194.508 268.867 194.449C268.751 194.391 268.647 194.31 268.562 194.211C268.477 194.113 268.412 193.998 268.371 193.875C268.33 193.751 268.314 193.62 268.324 193.49C268.334 193.361 268.368 193.234 268.426 193.118C268.485 193.002 268.565 192.898 268.663 192.813C268.761 192.728 268.875 192.663 268.999 192.622C269.122 192.581 269.252 192.565 269.382 192.575C269.93 192.615 270.343 193.091 270.298 193.636C270.289 193.765 270.254 193.892 270.196 194.008C270.138 194.124 270.057 194.228 269.959 194.313C269.861 194.398 269.747 194.463 269.624 194.504C269.5 194.545 269.37 194.561 269.241 194.551ZM49.5689 191.549C49.0203 191.51 48.6144 191.033 48.6528 190.485C48.6903 189.943 49.1681 189.53 49.7158 189.575C50.2579 189.613 50.6703 190.09 50.6263 190.632C50.588 191.18 50.111 191.586 49.5689 191.549ZM477.918 211.967C477.37 211.926 476.964 211.451 477.002 210.905C477.022 210.643 477.146 210.4 477.345 210.228C477.544 210.057 477.804 209.971 478.066 209.991C478.608 210.031 479.02 210.506 478.982 211.052C478.938 211.598 478.467 212.008 477.918 211.967ZM566.642 203.297C566.38 203.277 566.137 203.154 565.965 202.955C565.793 202.756 565.707 202.498 565.726 202.236C565.745 201.973 565.868 201.729 566.067 201.557C566.267 201.385 566.526 201.3 566.789 201.319C567.051 201.338 567.296 201.461 567.468 201.661C567.639 201.86 567.725 202.12 567.706 202.382C567.696 202.512 567.661 202.639 567.603 202.756C567.544 202.872 567.463 202.976 567.364 203.061C567.265 203.146 567.151 203.211 567.027 203.251C566.903 203.292 566.772 203.307 566.642 203.297ZM579.791 177.774C579.529 177.754 579.285 177.632 579.114 177.433C578.942 177.233 578.857 176.975 578.876 176.713C578.89 176.517 578.962 176.33 579.083 176.176C579.204 176.021 579.367 175.906 579.554 175.844C579.74 175.783 579.94 175.778 580.129 175.831C580.318 175.883 580.487 175.99 580.615 176.139C580.743 176.287 580.824 176.47 580.848 176.665C580.872 176.859 580.837 177.057 580.749 177.232C580.661 177.407 580.523 177.552 580.352 177.648C580.182 177.745 579.986 177.789 579.791 177.774ZM259.541 137.533C259.279 137.513 259.036 137.39 258.864 137.192C258.693 136.993 258.607 136.734 258.625 136.472C258.644 136.21 258.767 135.965 258.967 135.794C259.166 135.622 259.426 135.536 259.688 135.555C259.951 135.575 260.195 135.698 260.367 135.897C260.539 136.096 260.624 136.356 260.605 136.619C260.56 137.164 260.09 137.574 259.541 137.533ZM370.56 194.757C370.018 194.717 369.605 194.242 369.65 193.697C369.659 193.567 369.694 193.441 369.752 193.325C369.81 193.209 369.89 193.105 369.988 193.02C370.087 192.935 370.201 192.87 370.324 192.829C370.447 192.788 370.577 192.772 370.707 192.781C371.255 192.821 371.661 193.297 371.623 193.843C371.585 194.388 371.108 194.798 370.56 194.757ZM202.47 210.807C201.921 210.768 201.515 210.291 201.553 209.749C201.591 209.201 202.069 208.788 202.61 208.832C203.159 208.871 203.571 209.348 203.527 209.89C203.489 210.438 203.011 210.851 202.47 210.807ZM31.2175 153.1C30.6693 153.06 30.263 152.585 30.3011 152.039C30.3105 151.909 30.3456 151.782 30.4043 151.666C30.4629 151.549 30.544 151.446 30.6428 151.361C30.7416 151.276 30.8563 151.211 30.9802 151.17C31.1041 151.13 31.2348 151.114 31.3647 151.124C31.9066 151.164 32.3192 151.64 32.2748 152.185C32.2655 152.314 32.2308 152.441 32.1726 152.557C32.1145 152.673 32.0341 152.777 31.9359 152.862C31.8377 152.947 31.7237 153.012 31.6004 153.053C31.4772 153.093 31.347 153.11 31.2175 153.1ZM18.078 115.7C17.5362 115.66 17.1236 115.185 17.168 114.64C17.1772 114.51 17.2119 114.384 17.2701 114.268C17.3283 114.151 17.4088 114.048 17.5069 113.963C17.6051 113.878 17.7191 113.813 17.8423 113.772C17.9656 113.731 18.0957 113.715 18.2252 113.724C18.7735 113.764 19.1797 114.239 19.1418 114.785C19.1037 115.331 18.6263 115.74 18.078 115.7Z" fill="white"/>
</g>
<g opacity="0.3" filter="url(#filter32_f_246_8905)">
<path d="M174.51 118.654C174.337 118.642 174.168 118.595 174.013 118.517C173.858 118.439 173.72 118.331 173.607 118.2C173.493 118.068 173.407 117.916 173.353 117.751C173.298 117.586 173.277 117.412 173.29 117.239C173.302 117.066 173.348 116.897 173.426 116.742C173.504 116.587 173.611 116.449 173.742 116.336C173.873 116.222 174.026 116.136 174.19 116.081C174.355 116.027 174.529 116.006 174.702 116.019C174.875 116.031 175.044 116.077 175.199 116.155C175.354 116.233 175.493 116.341 175.606 116.472C175.719 116.604 175.806 116.756 175.86 116.921C175.914 117.086 175.935 117.26 175.922 117.434C175.909 117.607 175.863 117.775 175.785 117.931C175.708 118.086 175.6 118.224 175.469 118.337C175.338 118.451 175.186 118.537 175.021 118.592C174.856 118.646 174.683 118.667 174.51 118.654Z" fill="white"/>
</g>
<g filter="url(#filter33_f_246_8905)">
<path d="M177.957 71.8865C177.607 71.8602 177.282 71.6961 177.054 71.4303C176.825 71.1646 176.712 70.8189 176.738 70.4694C176.764 70.1199 176.929 69.7952 177.194 69.5666C177.46 69.3381 177.806 69.2245 178.155 69.2509C178.328 69.2637 178.497 69.3104 178.652 69.3884C178.807 69.4665 178.945 69.5743 179.058 69.7057C179.171 69.8371 179.258 69.9895 179.312 70.1543C179.366 70.319 179.388 70.4929 179.375 70.6659C179.349 71.0158 179.184 71.341 178.919 71.5699C178.653 71.7988 178.307 71.9127 177.957 71.8865ZM139.504 130.642C138.955 130.602 138.543 130.126 138.587 129.581C138.596 129.451 138.631 129.324 138.689 129.208C138.747 129.092 138.828 128.989 138.926 128.904C139.024 128.819 139.138 128.754 139.261 128.713C139.385 128.672 139.515 128.656 139.644 128.665C140.193 128.705 140.605 129.181 140.561 129.726C140.552 129.856 140.517 129.982 140.459 130.098C140.401 130.214 140.32 130.318 140.222 130.403C140.124 130.488 140.01 130.553 139.886 130.594C139.763 130.635 139.633 130.651 139.504 130.642Z" fill="white"/>
</g>
<g opacity="0.3" filter="url(#filter34_f_246_8905)">
<path d="M109.454 102.587C109.281 102.575 109.112 102.528 108.956 102.45C108.801 102.373 108.663 102.265 108.55 102.133C108.436 102.002 108.35 101.849 108.296 101.684C108.242 101.519 108.221 101.345 108.234 101.172C108.246 100.999 108.292 100.83 108.37 100.675C108.448 100.52 108.555 100.381 108.686 100.268C108.818 100.154 108.97 100.068 109.135 100.014C109.299 99.9592 109.473 99.9379 109.646 99.9508C109.819 99.9636 109.988 100.01 110.143 100.088C110.298 100.166 110.436 100.274 110.549 100.406C110.662 100.537 110.749 100.689 110.803 100.854C110.857 101.019 110.879 101.193 110.866 101.366C110.853 101.539 110.807 101.708 110.73 101.863C110.652 102.018 110.544 102.156 110.413 102.27C110.282 102.383 110.13 102.47 109.965 102.524C109.8 102.579 109.627 102.6 109.454 102.587ZM40.7811 144.535C40.4317 144.509 40.1069 144.345 39.8781 144.08C39.6494 143.814 39.5355 143.469 39.5615 143.119C39.5738 142.946 39.6201 142.778 39.6978 142.623C39.7755 142.468 39.8829 142.329 40.0141 142.216C40.1452 142.103 40.2975 142.016 40.4621 141.962C40.6266 141.907 40.8004 141.886 40.9733 141.899C41.1465 141.911 41.3156 141.957 41.4708 142.035C41.6259 142.113 41.7642 142.221 41.8776 142.353C41.9909 142.484 42.0771 142.637 42.1312 142.802C42.1854 142.967 42.2064 143.141 42.193 143.314C42.1807 143.487 42.1343 143.656 42.0567 143.811C41.979 143.966 41.8715 144.104 41.7403 144.218C41.6092 144.331 41.4569 144.417 41.2923 144.472C41.1277 144.526 40.9541 144.548 40.7811 144.535ZM117.756 151.552C117.583 151.539 117.414 151.493 117.259 151.415C117.104 151.337 116.966 151.229 116.853 151.097C116.74 150.966 116.653 150.814 116.599 150.649C116.545 150.484 116.523 150.31 116.536 150.137C116.573 149.796 116.741 149.482 117.004 149.262C117.268 149.042 117.607 148.933 117.949 148.958C118.292 148.984 118.611 149.141 118.84 149.398C119.068 149.654 119.188 149.989 119.174 150.332C119.161 150.505 119.114 150.675 119.036 150.83C118.958 150.985 118.85 151.123 118.718 151.236C118.586 151.35 118.433 151.436 118.268 151.49C118.103 151.544 117.929 151.565 117.756 151.552ZM495.047 190.715C494.874 190.703 494.705 190.656 494.55 190.578C494.395 190.5 494.257 190.392 494.144 190.261C494.031 190.129 493.944 189.977 493.89 189.812C493.836 189.647 493.814 189.473 493.827 189.3C493.839 189.127 493.886 188.958 493.963 188.803C494.041 188.648 494.148 188.51 494.28 188.397C494.411 188.283 494.563 188.197 494.728 188.142C494.892 188.088 495.066 188.066 495.239 188.079C495.589 188.105 495.913 188.269 496.142 188.534C496.371 188.8 496.485 189.145 496.459 189.495C496.447 189.668 496.4 189.836 496.323 189.992C496.245 190.147 496.138 190.285 496.006 190.398C495.875 190.512 495.723 190.598 495.558 190.653C495.394 190.707 495.22 190.728 495.047 190.715ZM551.084 158.427C550.735 158.4 550.41 158.236 550.182 157.971C549.953 157.705 549.839 157.36 549.864 157.011C549.894 156.664 550.059 156.343 550.324 156.117C550.589 155.891 550.933 155.779 551.28 155.805C551.627 155.83 551.95 155.992 552.179 156.255C552.408 156.517 552.524 156.859 552.502 157.207C552.489 157.38 552.442 157.549 552.364 157.704C552.286 157.859 552.178 157.997 552.046 158.111C551.914 158.224 551.761 158.31 551.596 158.364C551.431 158.419 551.257 158.44 551.084 158.427Z" fill="white"/>
</g>
<g opacity="0.11" filter="url(#filter35_f_246_8905)">
<path d="M69.2558 126.773C69.0828 126.761 68.914 126.714 68.7591 126.636C68.6041 126.558 68.4661 126.45 68.3528 126.319C68.2395 126.187 68.1532 126.035 68.0989 125.87C68.0445 125.705 68.0232 125.531 68.036 125.358C68.0482 125.185 68.0945 125.016 68.1721 124.861C68.2497 124.706 68.3572 124.568 68.4884 124.455C68.6196 124.341 68.7719 124.255 68.9365 124.2C69.1012 124.146 69.275 124.125 69.448 124.138C69.621 124.15 69.7898 124.197 69.9447 124.275C70.0997 124.353 70.2377 124.461 70.351 124.592C70.4642 124.724 70.5505 124.876 70.6048 125.041C70.6592 125.206 70.6805 125.38 70.6677 125.553C70.6555 125.726 70.6093 125.894 70.5317 126.05C70.4541 126.205 70.3466 126.343 70.2154 126.456C70.0842 126.57 69.9319 126.656 69.7673 126.711C69.6026 126.765 69.4288 126.786 69.2558 126.773Z" fill="white"/>
</g>
<g opacity="0.3" filter="url(#filter36_f_246_8905)">
<path d="M458.543 129.066C458.37 129.053 458.201 129.006 458.046 128.928C457.891 128.85 457.753 128.741 457.64 128.61C457.527 128.478 457.441 128.326 457.386 128.161C457.332 127.996 457.311 127.822 457.324 127.649C457.337 127.476 457.384 127.307 457.462 127.152C457.541 126.997 457.649 126.859 457.78 126.746C457.912 126.633 458.064 126.547 458.229 126.493C458.394 126.439 458.568 126.417 458.741 126.43C459.09 126.457 459.414 126.621 459.643 126.886C459.872 127.151 459.986 127.496 459.961 127.845C459.935 128.195 459.771 128.521 459.505 128.749C459.239 128.978 458.893 129.092 458.543 129.066Z" fill="white"/>
</g>
<g opacity="0.11" filter="url(#filter37_f_246_8905)">
<path d="M477.303 117.204C477.129 117.191 476.96 117.145 476.805 117.067C476.65 116.989 476.512 116.881 476.398 116.75C476.285 116.618 476.199 116.466 476.145 116.301C476.09 116.136 476.069 115.962 476.083 115.789C476.095 115.616 476.141 115.447 476.219 115.292C476.297 115.137 476.404 114.998 476.535 114.885C476.666 114.771 476.819 114.685 476.983 114.63C477.148 114.576 477.322 114.554 477.495 114.567C477.844 114.593 478.169 114.757 478.398 115.022C478.626 115.288 478.74 115.633 478.714 115.983C478.702 116.156 478.656 116.325 478.578 116.48C478.501 116.635 478.393 116.773 478.262 116.887C478.131 117 477.979 117.086 477.814 117.141C477.649 117.195 477.475 117.217 477.303 117.204Z" fill="white"/>
</g>
</g>
<defs>
<filter id="filter0_f_246_8905" x="671.251" y="65.3623" width="4.64258" height="4.64258" filterUnits="userSpaceOnUse" color-interpolation-filters="sRGB">
<feFlood flood-opacity="0" result="BackgroundImageFix"/>
<feBlend mode="normal" in="SourceGraphic" in2="BackgroundImageFix" result="shape"/>
<feGaussianBlur stdDeviation="0.5" result="effect1_foregroundBlur_246_8905"/>
</filter>
<filter id="filter1_f_246_8905" x="646.01" y="57.5107" width="60.0728" height="19.4229" filterUnits="userSpaceOnUse" color-interpolation-filters="sRGB">
<feFlood flood-opacity="0" result="BackgroundImageFix"/>
<feBlend mode="normal" in="SourceGraphic" in2="BackgroundImageFix" result="shape"/>
<feGaussianBlur stdDeviation="0.5" result="effect1_foregroundBlur_246_8905"/>
</filter>
<filter id="filter2_f_246_8905" x="733.266" y="77.8955" width="4.64404" height="4.64453" filterUnits="userSpaceOnUse" color-interpolation-filters="sRGB">
<feFlood flood-opacity="0" result="BackgroundImageFix"/>
<feBlend mode="normal" in="SourceGraphic" in2="BackgroundImageFix" result="shape"/>
<feGaussianBlur stdDeviation="0.5" result="effect1_foregroundBlur_246_8905"/>
</filter>
<filter id="filter3_f_246_8905" x="429.933" y="41.0166" width="465.902" height="54.8252" filterUnits="userSpaceOnUse" color-interpolation-filters="sRGB">
<feFlood flood-opacity="0" result="BackgroundImageFix"/>
<feBlend mode="normal" in="SourceGraphic" in2="BackgroundImageFix" result="shape"/>
<feGaussianBlur stdDeviation="0.5" result="effect1_foregroundBlur_246_8905"/>
</filter>
<filter id="filter4_f_246_8905" x="545.533" y="57.4316" width="390.026" height="62.2246" filterUnits="userSpaceOnUse" color-interpolation-filters="sRGB">
<feFlood flood-opacity="0" result="BackgroundImageFix"/>
<feBlend mode="normal" in="SourceGraphic" in2="BackgroundImageFix" result="shape"/>
<feGaussianBlur stdDeviation="0.5" result="effect1_foregroundBlur_246_8905"/>
</filter>
<filter id="filter5_f_246_8905" x="863.442" y="73.5654" width="3.32129" height="3.32031" filterUnits="userSpaceOnUse" color-interpolation-filters="sRGB">
<feFlood flood-opacity="0" result="BackgroundImageFix"/>
<feBlend mode="normal" in="SourceGraphic" in2="BackgroundImageFix" result="shape"/>
<feGaussianBlur stdDeviation="0.5" result="effect1_foregroundBlur_246_8905"/>
</filter>
<filter id="filter6_f_246_8905" x="613.223" y="17.9648" width="144.976" height="76.0605" filterUnits="userSpaceOnUse" color-interpolation-filters="sRGB">
<feFlood flood-opacity="0" result="BackgroundImageFix"/>
<feBlend mode="normal" in="SourceGraphic" in2="BackgroundImageFix" result="shape"/>
<feGaussianBlur stdDeviation="0.5" result="effect1_foregroundBlur_246_8905"/>
</filter>
<filter id="filter7_f_246_8905" x="800.997" y="94.1143" width="3.32178" height="3.32129" filterUnits="userSpaceOnUse" color-interpolation-filters="sRGB">
<feFlood flood-opacity="0" result="BackgroundImageFix"/>
<feBlend mode="normal" in="SourceGraphic" in2="BackgroundImageFix" result="shape"/>
<feGaussianBlur stdDeviation="0.5" result="effect1_foregroundBlur_246_8905"/>
</filter>
<filter id="filter8_f_246_8905" x="858.021" y="57.2686" width="3.32129" height="3.32031" filterUnits="userSpaceOnUse" color-interpolation-filters="sRGB">
<feFlood flood-opacity="0" result="BackgroundImageFix"/>
<feBlend mode="normal" in="SourceGraphic" in2="BackgroundImageFix" result="shape"/>
<feGaussianBlur stdDeviation="0.5" result="effect1_foregroundBlur_246_8905"/>
</filter>
<filter id="filter9_f_246_8905" x="434.762" y="39.874" width="412.899" height="78.3223" filterUnits="userSpaceOnUse" color-interpolation-filters="sRGB">
<feFlood flood-opacity="0" result="BackgroundImageFix"/>
<feBlend mode="normal" in="SourceGraphic" in2="BackgroundImageFix" result="shape"/>
<feGaussianBlur stdDeviation="0.5" result="effect1_foregroundBlur_246_8905"/>
</filter>
<filter id="filter10_f_246_8905" x="450.458" y="20.7051" width="95.6758" height="52.1299" filterUnits="userSpaceOnUse" color-interpolation-filters="sRGB">
<feFlood flood-opacity="0" result="BackgroundImageFix"/>
<feBlend mode="normal" in="SourceGraphic" in2="BackgroundImageFix" result="shape"/>
<feGaussianBlur stdDeviation="0.5" result="effect1_foregroundBlur_246_8905"/>
</filter>
<filter id="filter11_f_246_8905" x="616.062" y="86.4463" width="4.64453" height="4.64453" filterUnits="userSpaceOnUse" color-interpolation-filters="sRGB">
<feFlood flood-opacity="0" result="BackgroundImageFix"/>
<feBlend mode="normal" in="SourceGraphic" in2="BackgroundImageFix" result="shape"/>
<feGaussianBlur stdDeviation="0.5" result="effect1_foregroundBlur_246_8905"/>
</filter>
<filter id="filter12_f_246_8905" x="578.656" y="63.8135" width="4.64404" height="4.64258" filterUnits="userSpaceOnUse" color-interpolation-filters="sRGB">
<feFlood flood-opacity="0" result="BackgroundImageFix"/>
<feBlend mode="normal" in="SourceGraphic" in2="BackgroundImageFix" result="shape"/>
<feGaussianBlur stdDeviation="0.5" result="effect1_foregroundBlur_246_8905"/>
</filter>
<filter id="filter13_f_246_8905" x="370.173" y="35.125" width="565.683" height="100.247" filterUnits="userSpaceOnUse" color-interpolation-filters="sRGB">
<feFlood flood-opacity="0" result="BackgroundImageFix"/>
<feBlend mode="normal" in="SourceGraphic" in2="BackgroundImageFix" result="shape"/>
<feGaussianBlur stdDeviation="0.5" result="effect1_foregroundBlur_246_8905"/>
</filter>
<filter id="filter14_f_246_8905" x="526.289" y="37.4209" width="4.64404" height="4.64258" filterUnits="userSpaceOnUse" color-interpolation-filters="sRGB">
<feFlood flood-opacity="0" result="BackgroundImageFix"/>
<feBlend mode="normal" in="SourceGraphic" in2="BackgroundImageFix" result="shape"/>
<feGaussianBlur stdDeviation="0.5" result="effect1_foregroundBlur_246_8905"/>
</filter>
<filter id="filter15_f_246_8905" x="460.109" y="51.7549" width="42.7886" height="63.4004" filterUnits="userSpaceOnUse" color-interpolation-filters="sRGB">
<feFlood flood-opacity="0" result="BackgroundImageFix"/>
<feBlend mode="normal" in="SourceGraphic" in2="BackgroundImageFix" result="shape"/>
<feGaussianBlur stdDeviation="0.5" result="effect1_foregroundBlur_246_8905"/>
</filter>
<filter id="filter16_f_246_8905" x="392.575" y="21.3926" width="514.944" height="92.7256" filterUnits="userSpaceOnUse" color-interpolation-filters="sRGB">
<feFlood flood-opacity="0" result="BackgroundImageFix"/>
<feBlend mode="normal" in="SourceGraphic" in2="BackgroundImageFix" result="shape"/>
<feGaussianBlur stdDeviation="0.5" result="effect1_foregroundBlur_246_8905"/>
</filter>
<filter id="filter17_f_246_8905" x="421.04" y="45.5479" width="4.64404" height="4.62988" filterUnits="userSpaceOnUse" color-interpolation-filters="sRGB">
<feFlood flood-opacity="0" result="BackgroundImageFix"/>
<feBlend mode="normal" in="SourceGraphic" in2="BackgroundImageFix" result="shape"/>
<feGaussianBlur stdDeviation="0.5" result="effect1_foregroundBlur_246_8905"/>
</filter>
<filter id="filter18_f_246_8905" x="810.333" y="47.8291" width="4.64307" height="4.64355" filterUnits="userSpaceOnUse" color-interpolation-filters="sRGB">
<feFlood flood-opacity="0" result="BackgroundImageFix"/>
<feBlend mode="normal" in="SourceGraphic" in2="BackgroundImageFix" result="shape"/>
<feGaussianBlur stdDeviation="0.5" result="effect1_foregroundBlur_246_8905"/>
</filter>
<filter id="filter19_f_246_8905" x="829.095" y="35.9678" width="4.64355" height="4.64355" filterUnits="userSpaceOnUse" color-interpolation-filters="sRGB">
<feFlood flood-opacity="0" result="BackgroundImageFix"/>
<feBlend mode="normal" in="SourceGraphic" in2="BackgroundImageFix" result="shape"/>
<feGaussianBlur stdDeviation="0.5" result="effect1_foregroundBlur_246_8905"/>
</filter>
<filter id="filter20_f_246_8905" x="831.207" y="78.5166" width="4.64355" height="4.64453" filterUnits="userSpaceOnUse" color-interpolation-filters="sRGB">
<feFlood flood-opacity="0" result="BackgroundImageFix"/>
<feBlend mode="normal" in="SourceGraphic" in2="BackgroundImageFix" result="shape"/>
<feGaussianBlur stdDeviation="0.5" result="effect1_foregroundBlur_246_8905"/>
</filter>
<filter id="filter21_f_246_8905" x="790.428" y="75.4717" width="3.98291" height="3.98242" filterUnits="userSpaceOnUse" color-interpolation-filters="sRGB">
<feFlood flood-opacity="0" result="BackgroundImageFix"/>
<feBlend mode="normal" in="SourceGraphic" in2="BackgroundImageFix" result="shape"/>
<feGaussianBlur stdDeviation="0.5" result="effect1_foregroundBlur_246_8905"/>
</filter>
<filter id="filter22_f_246_8905" x="317.251" y="142.96" width="4.63916" height="4.64355" filterUnits="userSpaceOnUse" color-interpolation-filters="sRGB">
<feFlood flood-opacity="0" result="BackgroundImageFix"/>
<feBlend mode="normal" in="SourceGraphic" in2="BackgroundImageFix" result="shape"/>
<feGaussianBlur stdDeviation="0.5" result="effect1_foregroundBlur_246_8905"/>
</filter>
<filter id="filter23_f_246_8905" x="292.024" y="135.111" width="60.0737" height="19.4199" filterUnits="userSpaceOnUse" color-interpolation-filters="sRGB">
<feFlood flood-opacity="0" result="BackgroundImageFix"/>
<feBlend mode="normal" in="SourceGraphic" in2="BackgroundImageFix" result="shape"/>
<feGaussianBlur stdDeviation="0.5" result="effect1_foregroundBlur_246_8905"/>
</filter>
<filter id="filter24_f_246_8905" x="75.9199" y="118.615" width="465.928" height="54.8223" filterUnits="userSpaceOnUse" color-interpolation-filters="sRGB">
<feFlood flood-opacity="0" result="BackgroundImageFix"/>
<feBlend mode="normal" in="SourceGraphic" in2="BackgroundImageFix" result="shape"/>
<feGaussianBlur stdDeviation="0.5" result="effect1_foregroundBlur_246_8905"/>
</filter>
<filter id="filter25_f_246_8905" x="191.516" y="135.031" width="390.012" height="62.2188" filterUnits="userSpaceOnUse" color-interpolation-filters="sRGB">
<feFlood flood-opacity="0" result="BackgroundImageFix"/>
<feBlend mode="normal" in="SourceGraphic" in2="BackgroundImageFix" result="shape"/>
<feGaussianBlur stdDeviation="0.5" result="effect1_foregroundBlur_246_8905"/>
</filter>
<filter id="filter26_f_246_8905" x="259.209" y="95.5635" width="144.982" height="76.0586" filterUnits="userSpaceOnUse" color-interpolation-filters="sRGB">
<feFlood flood-opacity="0" result="BackgroundImageFix"/>
<feBlend mode="normal" in="SourceGraphic" in2="BackgroundImageFix" result="shape"/>
<feGaussianBlur stdDeviation="0.5" result="effect1_foregroundBlur_246_8905"/>
</filter>
<filter id="filter27_f_246_8905" x="504.045" y="134.868" width="3.28857" height="3.31836" filterUnits="userSpaceOnUse" color-interpolation-filters="sRGB">
<feFlood flood-opacity="0" result="BackgroundImageFix"/>
<feBlend mode="normal" in="SourceGraphic" in2="BackgroundImageFix" result="shape"/>
<feGaussianBlur stdDeviation="0.5" result="effect1_foregroundBlur_246_8905"/>
</filter>
<filter id="filter28_f_246_8905" x="80.7451" y="117.472" width="412.9" height="78.3232" filterUnits="userSpaceOnUse" color-interpolation-filters="sRGB">
<feFlood flood-opacity="0" result="BackgroundImageFix"/>
<feBlend mode="normal" in="SourceGraphic" in2="BackgroundImageFix" result="shape"/>
<feGaussianBlur stdDeviation="0.5" result="effect1_foregroundBlur_246_8905"/>
</filter>
<filter id="filter29_f_246_8905" x="96.439" y="98.3027" width="95.6841" height="52.1289" filterUnits="userSpaceOnUse" color-interpolation-filters="sRGB">
<feFlood flood-opacity="0" result="BackgroundImageFix"/>
<feBlend mode="normal" in="SourceGraphic" in2="BackgroundImageFix" result="shape"/>
<feGaussianBlur stdDeviation="0.5" result="effect1_foregroundBlur_246_8905"/>
</filter>
<filter id="filter30_f_246_8905" x="224.646" y="141.409" width="4.63916" height="4.64355" filterUnits="userSpaceOnUse" color-interpolation-filters="sRGB">
<feFlood flood-opacity="0" result="BackgroundImageFix"/>
<feBlend mode="normal" in="SourceGraphic" in2="BackgroundImageFix" result="shape"/>
<feGaussianBlur stdDeviation="0.5" result="effect1_foregroundBlur_246_8905"/>
</filter>
<filter id="filter31_f_246_8905" x="16.1646" y="112.722" width="565.691" height="100.248" filterUnits="userSpaceOnUse" color-interpolation-filters="sRGB">
<feFlood flood-opacity="0" result="BackgroundImageFix"/>
<feBlend mode="normal" in="SourceGraphic" in2="BackgroundImageFix" result="shape"/>
<feGaussianBlur stdDeviation="0.5" result="effect1_foregroundBlur_246_8905"/>
</filter>
<filter id="filter32_f_246_8905" x="172.286" y="115.015" width="4.63916" height="4.64355" filterUnits="userSpaceOnUse" color-interpolation-filters="sRGB">
<feFlood flood-opacity="0" result="BackgroundImageFix"/>
<feBlend mode="normal" in="SourceGraphic" in2="BackgroundImageFix" result="shape"/>
<feGaussianBlur stdDeviation="0.5" result="effect1_foregroundBlur_246_8905"/>
</filter>
<filter id="filter33_f_246_8905" x="137.584" y="68.2471" width="42.7944" height="63.3975" filterUnits="userSpaceOnUse" color-interpolation-filters="sRGB">
<feFlood flood-opacity="0" result="BackgroundImageFix"/>
<feBlend mode="normal" in="SourceGraphic" in2="BackgroundImageFix" result="shape"/>
<feGaussianBlur stdDeviation="0.5" result="effect1_foregroundBlur_246_8905"/>
</filter>
<filter id="filter34_f_246_8905" x="38.5576" y="98.9473" width="514.947" height="92.7715" filterUnits="userSpaceOnUse" color-interpolation-filters="sRGB">
<feFlood flood-opacity="0" result="BackgroundImageFix"/>
<feBlend mode="normal" in="SourceGraphic" in2="BackgroundImageFix" result="shape"/>
<feGaussianBlur stdDeviation="0.5" result="effect1_foregroundBlur_246_8905"/>
</filter>
<filter id="filter35_f_246_8905" x="67.0322" y="123.134" width="4.63916" height="4.64355" filterUnits="userSpaceOnUse" color-interpolation-filters="sRGB">
<feFlood flood-opacity="0" result="BackgroundImageFix"/>
<feBlend mode="normal" in="SourceGraphic" in2="BackgroundImageFix" result="shape"/>
<feGaussianBlur stdDeviation="0.5" result="effect1_foregroundBlur_246_8905"/>
</filter>
<filter id="filter36_f_246_8905" x="456.32" y="125.427" width="4.64404" height="4.64258" filterUnits="userSpaceOnUse" color-interpolation-filters="sRGB">
<feFlood flood-opacity="0" result="BackgroundImageFix"/>
<feBlend mode="normal" in="SourceGraphic" in2="BackgroundImageFix" result="shape"/>
<feGaussianBlur stdDeviation="0.5" result="effect1_foregroundBlur_246_8905"/>
</filter>
<filter id="filter37_f_246_8905" x="475.079" y="113.563" width="4.63916" height="4.64355" filterUnits="userSpaceOnUse" color-interpolation-filters="sRGB">
<feFlood flood-opacity="0" result="BackgroundImageFix"/>
<feBlend mode="normal" in="SourceGraphic" in2="BackgroundImageFix" result="shape"/>
<feGaussianBlur stdDeviation="0.5" result="effect1_foregroundBlur_246_8905"/>
</filter>
</defs>
</svg>
