<svg width="253" height="338" viewBox="0 0 253 338" fill="none" xmlns="http://www.w3.org/2000/svg">
<path d="M64.5247 72.5598L93.1039 56.0595C94.6561 55.1635 95.9197 52.9963 95.9146 51.1916C95.9095 49.4086 94.6376 48.6836 93.0854 49.5796L64.5062 66.0799C62.9544 66.9759 61.6907 69.1647 61.6958 70.9479C61.7011 72.7528 62.973 73.4557 64.5247 72.5598Z" fill="#0A2222"/>
<path d="M103.379 50.1278C104.95 49.2209 106.195 47.0648 106.19 45.2599C106.185 43.4769 104.932 42.7409 103.361 43.6479C101.809 44.5439 100.546 46.7327 100.55 48.5159C100.556 50.3206 101.828 51.0238 103.379 50.1278Z" fill="#0A2222"/>
<path d="M9.10622 199.07C7.6595 198.235 6.48675 198.858 6.48161 200.543L6.35988 243.493C6.35518 245.155 7.5206 247.174 8.96761 248.009C10.3942 248.833 11.5674 248.165 11.5718 246.502L11.6939 203.552C11.6987 201.867 10.5331 199.893 9.10622 199.07ZM8.97304 246.005C8.20011 245.559 7.60743 244.509 7.60992 243.644C7.61241 242.779 8.20906 242.416 8.98199 242.862C9.73454 243.297 10.3274 244.346 10.3247 245.212C10.3221 246.077 9.72559 246.44 8.97304 246.005Z" fill="#0A2222"/>
<path d="M9.04145 122.535C6.6106 121.131 4.67123 122.27 4.6636 125.029C4.65568 127.822 6.58229 131.159 9.01315 132.563C11.4147 133.949 13.3831 132.861 13.391 130.068C13.3989 127.309 11.443 123.921 9.04145 122.535Z" fill="#0A2222"/>
<path d="M9.04145 143.106C6.6106 141.703 4.67123 142.841 4.6636 145.601C4.65568 148.394 6.58229 151.73 9.01315 153.134C11.4147 154.52 13.3831 153.432 13.391 150.639C13.3989 147.88 11.443 144.493 9.04145 143.106Z" fill="#0A2222"/>
<path d="M98.2232 280.505L69.6438 297.005C68.0919 297.902 66.8279 300.091 66.833 301.874C66.8385 303.679 68.1103 304.382 69.6622 303.485L98.2417 286.985C99.7931 286.089 101.057 283.922 101.052 282.118C101.047 280.334 99.7748 279.609 98.2232 280.505Z" fill="#0A2222"/>
<path d="M68.1484 112.826C66.0347 114.046 64.3275 117.003 64.3345 119.432C64.3415 121.86 66.0597 122.839 68.1732 121.62C70.2867 120.399 71.9942 117.442 71.9871 115.013C71.9802 112.585 70.2616 111.605 68.1484 112.826Z" fill="#0A2222"/>
<path d="M79.6606 106.178C77.5474 107.398 75.8397 110.356 75.8467 112.785C75.8537 115.213 77.5722 116.192 79.6854 114.972C81.7992 113.752 83.5064 110.795 83.4993 108.366C83.4927 105.938 81.7741 104.958 79.6606 106.178Z" fill="#0A2222"/>
<path d="M91.1846 99.5257C89.0711 100.746 87.3636 103.703 87.3706 106.132C87.3777 108.56 89.0962 109.54 91.2093 108.32C93.3228 107.099 95.0303 104.142 95.0233 101.714C95.0165 99.285 93.2976 98.3059 91.1846 99.5257Z" fill="#0A2222"/>
<path d="M180.656 214.945C186.797 211.406 191.768 202.818 191.742 195.766L191.351 47.0678C191.351 45.4803 191.065 44.075 190.57 42.9039C189.912 41.2598 189.013 40.2654 187.916 39.6249C187.89 39.6249 187.89 39.5988 187.89 39.5988L174.956 32.1041C172.718 30.7508 169.725 31.011 166.602 32.8066L150.676 41.993L150.624 19.977C150.598 15.4489 148.985 12.2739 146.382 10.7387C146.356 10.7126 146.356 10.7126 146.33 10.6867L129.649 1.00593C126.865 -0.607547 123.195 -0.269188 119.344 1.94269L13.8443 62.8636C6.29112 67.2462 0 77.8811 0 86.8313C0.46024 275.292 0.664543 307.511 0.520369 311.258C0.338356 315.5 0.0260996 323.385 4.84029 326.612C21.8368 336.113 21.8482 337.333 25.4247 337.333C27.4025 337.333 29.6148 336.683 31.8528 335.382L137.326 274.461C145.003 270.037 151.223 259.289 151.196 250.467L151.144 231.99L180.656 214.945ZM180.499 213.202L168.138 220.332V172.319C168.138 171.955 167.852 171.668 167.487 171.668C167.149 171.668 166.837 171.955 166.837 172.319V221.087L136.416 238.653V227.384C136.416 227.046 136.129 226.734 135.765 226.734C135.4 226.734 135.114 227.046 135.114 227.384V239.407L104.667 256.973V216.481C104.667 215.619 103.365 215.617 103.365 216.481V257.702C103.365 257.702 103.391 257.702 103.391 257.728L71.825 275.944V264.13C71.825 263.765 71.5128 263.479 71.1744 263.479C70.8101 263.479 70.5238 263.765 70.5238 264.13V276.699L66.5421 278.989C61.1581 282.13 57.4339 279.042 57.4339 273.316L57.4078 258.534C61.0512 262.204 66.2819 262.698 71.4867 259.679C77.9148 255.958 83.1194 247.683 85.7217 236.987C89.2084 222.804 96.8595 209.87 104.354 205.525C110.871 201.687 115.342 205.715 117.73 212.967C124.697 234.362 151.446 226.496 156.011 192.018C160.197 159.651 173.619 157.219 177.48 167.869C179.094 172.241 182.425 174.687 187.109 174.947C188.124 175.025 189.139 174.999 190.206 174.843L190.258 196.651C190.102 202.844 185.808 210.105 180.499 213.202ZM190.076 58.2058L190.388 173.49C189.269 173.672 188.228 173.75 187.214 173.646C182.997 173.412 180.135 171.33 178.704 167.427C175.503 158.518 165.919 157.688 159.837 171.512C153.29 186.091 156.591 196.979 148.672 210.99C140.091 226.113 124.196 228.628 118.98 212.577C115.622 202.392 109.445 201.017 103.704 204.406C95.7925 208.96 88.0637 221.946 84.4724 236.675C81.9221 247.032 76.9776 254.996 70.836 258.56C65.7356 261.501 60.6348 260.695 57.3817 256.557L57.0698 135.001L190.076 58.2058ZM189.321 43.1642C189.347 43.2423 189.347 43.3462 189.399 43.4244C189.79 44.4655 190.024 45.6624 190.024 47.0678L190.05 56.7224L57.0702 133.518C57.0684 132.927 57.0425 124.033 57.0441 124.592C57.0441 117.876 61.7852 109.881 67.4535 106.584L180.213 41.4988C180.213 41.4988 180.213 41.4727 180.239 41.4727C185.074 38.8352 187.575 40.2544 189.321 43.1642ZM167.227 33.9518C169.96 32.3904 172.458 32.1301 174.28 33.2232C174.306 33.2232 174.306 33.2232 174.306 33.2232L183.961 38.8181C182.975 38.9413 180.654 39.7391 179.536 40.3535C32.7585 125.093 74.5147 100.986 66.8028 105.438C60.6871 108.977 55.7168 117.539 55.7429 124.591L55.7168 124.617L55.7429 133.466L44.1101 126.7L44.0845 117.097C44.0584 110.487 48.7425 102.393 54.5197 99.0365L167.227 33.9518ZM56.6532 277.558L47.3372 272.145C45.4894 271.078 44.4745 268.814 44.4745 265.769L44.1101 128.235L55.769 135.001L56.0809 256.167C55.9771 256.271 55.8989 256.427 55.8989 256.583C56.1824 273.254 55.5086 274.552 56.6532 277.558ZM119.968 3.06191C123.43 1.11021 126.631 0.771854 128.999 2.12515L142.036 9.69784C140.22 9.69784 137.647 10.7383 136.025 11.6495C-2.93392 91.8753 38.9844 67.6744 30.8641 72.3625C30.6029 72.2107 14.4285 62.812 15.4584 63.4104L119.968 3.06191ZM5.54341 325.519C1.35329 322.709 1.66599 315.292 1.82189 311.31C1.90447 309.165 1.76689 277.589 1.30151 87.9766C1.68065 88.1974 17.7043 97.5242 16.6814 96.9289L17.2539 327.054C17.2539 330.394 18.3785 332.615 18.529 333.066L5.54341 325.519ZM136.675 273.316L31.2024 334.263C23.7722 338.485 18.581 334.698 18.581 327.055L17.9825 96.5644C17.9825 96.5644 17.9825 96.5644 17.9825 96.5383C17.9825 88.6096 23.5761 78.1137 31.1502 73.7159C31.1763 73.7159 31.1763 73.7159 31.2023 73.6898C39.2935 69.0183 -2.56021 93.1827 136.675 12.7949C143.754 8.6832 149.297 11.8841 149.323 19.9774L149.375 42.748L53.8686 97.9177C47.7271 101.483 42.7569 110.071 42.783 117.097C42.8978 160.891 43.0613 223.179 43.1731 265.769C43.1731 269.283 44.4221 271.963 46.6605 273.29L58.1888 279.952C60.7483 282.512 64.8506 281.805 67.9216 280.056L149.843 232.746L149.896 250.468C149.922 258.873 143.988 269.126 136.675 273.316Z" fill="#0A2222"/>
<path d="M118.98 143.693C118.668 143.51 118.277 143.641 118.095 143.927L68.8585 229.232C68.4481 229.877 69.4019 230.594 69.9516 229.934L118.902 161.024L136.416 171.017C136.728 171.199 137.118 171.096 137.3 170.783L166.733 119.777L174.072 123.941C174.28 124.045 174.514 124.045 174.696 123.967C174.904 123.863 175.034 123.655 175.06 123.446L178.704 90.9429C178.73 90.6826 178.6 90.4224 178.391 90.2923C178.157 90.1622 177.871 90.1882 177.689 90.3442L151.275 109.888C151.093 110.018 151.014 110.252 151.014 110.46C151.041 110.669 151.145 110.877 151.353 110.981L158.692 115.171L136.442 153.659L118.98 143.693Z" fill="#1855F1"/>
<path d="M73.9331 153.816L130.742 121.105C133.266 119.648 135.244 116.213 135.244 113.298C135.244 111.789 134.672 110.644 133.683 110.071C132.668 109.472 131.393 109.576 130.066 110.357L73.2565 143.069C70.7322 144.552 68.7544 147.961 68.7805 150.876C68.7804 154.057 71.1941 155.422 73.9331 153.816Z" fill="#0A2222"/>
<path d="M252.666 275.361C252.666 275.285 252.666 275.209 252.641 275.159C252.514 267.519 247.353 260.385 238.095 255.022C228.836 249.684 216.567 246.75 203.539 246.75C203.387 246.75 203.209 246.8 203.108 246.927C202.982 247.053 202.906 247.205 202.906 247.382L202.931 253.15C185.805 253.251 169.893 258.665 161.317 267.291C156.966 271.668 154.689 276.651 154.715 281.761L154.689 297.041C154.689 297.041 154.689 297.041 154.715 297.041L154.664 308.703C154.715 316.267 159.749 323.426 168.831 328.789C169.097 328.891 181.964 337.314 203.817 337.314C221.146 337.314 237.31 331.901 245.987 323.173C250.339 318.796 252.615 313.788 252.615 308.703L252.666 287.175V286.947C252.666 286.922 252.641 286.922 252.641 286.897L252.666 275.361ZM162.203 268.177C170.551 259.778 186.109 254.516 202.906 254.39L202.957 265.217C202.299 265.217 201.616 265.293 200.958 265.318C191.95 265.882 180.674 269.138 176.597 277.284C176.259 278.184 175.996 278.847 175.888 279.358C175.812 279.611 175.812 279.864 175.762 280.092C175.711 280.446 175.61 280.775 175.585 281.129H156.005C156.157 276.601 158.281 272.123 162.203 268.177ZM155.98 282.394H175.585L175.56 292.968H155.954L155.98 282.394ZM203.108 320.922C192.064 320.922 180.309 318.047 174.27 315.028C166.413 311.492 158.28 305.449 156.41 297.016C156.359 296.864 156.333 296.737 156.308 296.586C156.182 296.004 156.131 295.397 156.081 294.815C156.055 294.612 156.055 294.435 156.03 294.233H175.61C175.779 296.785 177.193 299.682 179 301.493C179 301.518 179.025 301.493 179.051 301.518C184.675 307.604 194.887 310.029 203.134 310.12L203.108 320.922ZM203.791 302.227C203.614 302.227 203.437 302.303 203.336 302.429C203.235 302.505 203.184 302.581 203.159 302.834V303.011C203.134 303.264 203.134 303.669 203.159 304.301L203.134 308.855C195.321 308.738 185.885 306.582 180.366 301.063C185.173 296.333 193.951 293.398 203.539 293.398C210.647 293.398 217.351 294.992 222.435 297.876C217.503 300.608 210.824 302.227 203.791 302.227ZM204.171 292.133C204.174 290.653 204.243 261.59 204.247 260.107C211.254 260.208 217.781 261.827 222.739 264.686C226.784 267.024 230.531 270.7 230.531 275.386L230.506 287.15C230.465 289.101 229.754 291.079 228.583 292.69C228.583 292.69 228.583 292.715 228.558 292.715C227.607 294.046 226.091 295.562 223.675 297.117C223.625 297.091 223.574 297.041 223.524 297.016C223.252 296.909 216.389 292.305 204.171 292.133ZM251.35 308.703C251.35 313.459 249.2 318.164 245.102 322.262C236.728 330.661 221.196 335.923 204.424 336.049C204.425 335.785 204.5 315.328 204.5 315.584C221.699 315.584 245.268 308.846 251.376 293.575L251.35 308.703ZM251.325 288.288C250.511 297.231 243.259 303.238 235.337 307.463C232.247 309.009 229.447 309.99 229.114 310.12C219.133 313.865 211.088 313.931 204.5 314.319C204.498 314.065 204.419 302.772 204.424 303.492C211.886 303.391 218.894 301.519 223.979 298.433C224.004 298.433 224.004 298.433 224.029 298.407C227.902 296.083 231.77 291.843 231.77 287.58H251.376C251.376 287.833 251.35 288.06 251.325 288.288ZM251.122 274.729C249.63 274.678 246.62 274.729 240.625 274.754H231.77C231.77 274.598 231.599 273.434 231.366 272.578C228.112 262.832 214.616 258.952 204.247 258.842L204.171 248.015C216.743 248.116 228.532 250.975 237.462 256.135C246.139 261.144 251.072 267.722 251.376 274.729H251.122Z" fill="#1855F1"/>
</svg>
