<svg width="324" height="338" viewBox="0 0 324 338" fill="none" xmlns="http://www.w3.org/2000/svg">
<path d="M323.43 206.602C323.43 206.576 323.43 206.576 323.43 206.549C323.404 204.346 321.961 202.3 319.364 200.805L268.345 171.164V166.284C268.423 157.025 262.416 147.713 250.35 140.735C250.088 140.551 249.721 140.551 249.485 140.709L236.133 148.421C213.076 141.233 183.592 143.227 164.024 154.506C163.919 154.585 163.788 154.69 163.709 154.847C163.63 154.978 163.604 155.11 163.604 155.267L163.63 166.861C156.338 171.137 151.144 176.305 148.285 181.944L44.9866 241.594C40.2372 244.335 57.0904 234.609 21.8505 254.946C18.9609 256.597 17.7324 259.043 17.7324 260.795C17.7324 260.795 17.7324 260.795 17.7324 260.821L17.7587 275.773C17.7849 278.003 19.2274 280.075 21.8243 281.57C29.8446 286.228 -9.61269 263.311 114.001 335.108C119.827 338.507 128.533 337.608 132.782 335.108L319.338 227.403C321.988 225.855 323.456 223.783 323.456 221.554L323.43 206.602ZM266.614 184.567L266.64 211.979C266.64 220.714 260.974 228.977 250.586 235.351C250.478 175.211 250.516 195.954 250.508 191.466C254.862 188.843 258.902 185.748 262.076 181.944C264.089 179.595 265.898 176.502 266.587 174.731C266.588 175 266.615 185.131 266.614 184.567ZM234.638 151.778C234.533 151.7 234.428 151.595 234.297 151.516L249.904 142.493C272.843 156.072 271.49 177.021 249.616 189.919L234.14 180.948C246.966 172.79 247.202 160.146 234.638 151.778ZM233.484 182.574L248.75 191.466L248.776 215.258C246.809 214.104 242.534 211.769 233.326 206.339V197.945C233.431 197.788 233.51 197.63 233.51 197.447L233.484 182.574ZM234.034 149.628L232.093 150.756C231.989 150.808 231.857 150.913 231.778 151.07C231.726 151.201 231.673 151.333 231.673 151.49L231.726 163.871C222.965 159.176 214.335 158.913 213.863 158.677C209.429 158.231 204.892 158.231 200.432 158.677C199.908 158.939 190.989 159.176 181.992 164.133C181.939 164.186 181.834 164.212 181.73 164.291L166.253 155.293C184.956 145.116 212.21 143.28 234.034 149.628ZM182.648 195.952C182.648 195.585 182.595 167.543 182.595 165.839C182.7 165.76 182.805 165.734 182.91 165.655C188.051 162.796 194.793 161.012 200.511 160.435C200.59 160.435 200.616 160.435 200.642 160.409C204.944 159.937 209.351 159.937 213.653 160.409C213.994 160.566 223.044 161.012 231.385 165.655C231.49 165.734 231.569 165.76 231.674 165.839C231.674 166.179 231.569 194.116 231.569 195.873C217.719 188.686 196.524 188.686 182.648 195.952ZM231.569 197.893V206.261C217.719 214.025 195.579 213.947 181.965 206.051C179.972 204.897 178.293 203.585 176.85 202.247C178.345 200.805 180.103 199.441 182.228 198.208C195.816 190.338 217.798 190.233 231.569 197.893ZM180.838 165.812V175.806L165.387 166.861L165.361 156.815L180.838 165.812ZM147.498 192.174C147.524 183.256 153.531 174.783 164.496 168.383L179.998 177.354C167.302 184.987 166.174 198.89 181.1 207.572C195.16 215.757 218.06 215.861 232.408 207.835L247.832 216.779C244.868 218.248 245.497 217.986 243.976 218.72C220.315 229.58 183.251 229.029 160.718 213.579C152.167 207.546 147.524 200.096 147.524 192.227H147.498C147.498 192.201 147.498 192.201 147.498 192.174ZM45.5897 242.774L147.419 183.964C146.369 186.613 145.74 189.368 145.74 192.174C145.74 192.201 145.766 192.279 145.766 192.306L145.793 212.373C145.845 221.999 152.219 230.997 163.787 237.685C187.343 251.431 226.113 251.483 250.088 237.685H250.114C261.918 230.839 268.449 221.711 268.423 211.979C268.423 211.743 268.397 197.998 268.371 185.591L269.394 186.194C270.548 186.876 272.463 186.876 273.669 186.194C274.85 185.512 274.876 184.384 273.696 183.702L268.371 180.606C268.371 177.669 268.344 174.941 268.344 172.658L318.708 201.932C323.399 204.669 323.125 208.803 318.656 211.297L155.262 305.624L155.21 305.65C150.383 308.431 142.592 308.431 137.792 305.624L45.6158 252.06C41.069 249.431 41.1466 245.344 45.5897 242.774ZM116.807 334.977C114.853 334.235 122.393 338.476 22.4799 280.416C20.3028 279.183 19.0963 277.504 19.07 275.773L19.0438 264.31C20.0071 265.411 20.9592 266.134 21.7716 266.592C22.0349 266.746 114.002 320.38 116.807 321.389V334.977ZM114.63 319.028C42.6729 277.196 63.4845 289.307 22.4538 265.464C17.8788 262.847 17.985 258.673 22.5063 256.1C22.7712 255.947 42.6897 244.427 41.4188 245.162C40.2582 247.664 40.9652 250.897 44.9602 253.214L137.137 306.779C140.546 308.772 145.399 309.428 149.806 308.798C145.947 311.02 132.544 318.778 131.89 319.107C127.025 321.81 119.271 321.697 114.63 319.028ZM318.682 226.275L132.126 333.98C131.523 334.347 130.867 334.636 130.159 334.898V321.311C134.704 319.493 116.967 328.953 319.312 212.451C319.929 212.098 321.434 210.998 322.119 210.116L322.145 221.553C322.145 223.311 320.912 224.964 318.682 226.275Z" fill="#0A2222"/>
<path d="M186.371 293.341L159.703 308.738C158.389 309.497 157.333 311.304 157.338 312.835C157.342 314.324 158.404 314.93 159.719 314.171L186.387 298.774C187.701 298.015 188.738 296.198 188.733 294.709C188.729 293.178 187.686 292.583 186.371 293.341ZM160.098 312.523C159.477 312.882 158.965 312.59 158.963 311.897C158.96 311.163 159.47 310.281 160.09 309.922C160.711 309.564 161.224 309.856 161.226 310.591C161.228 311.282 160.719 312.165 160.098 312.523Z" fill="#0A2222"/>
<path d="M283.889 235.77C282.085 236.811 280.628 239.308 280.628 241.458C280.628 243.401 282.085 244.234 283.889 243.192C285.623 242.221 287.08 239.655 287.08 237.712C287.08 235.632 285.623 234.799 283.889 235.77Z" fill="#0A2222"/>
<path d="M296.231 228.642C294.428 229.683 292.971 232.18 292.971 234.33C292.971 236.273 294.428 237.106 296.231 236.064C297.966 235.094 299.423 232.527 299.423 230.585C299.423 228.504 297.966 227.671 296.231 228.642Z" fill="#0A2222"/>
<path d="M85.4091 307.749L61.216 293.747C60.0017 293.046 59.0155 293.608 59.0117 295.003C59.0079 296.397 59.9876 298.095 61.2016 298.796L85.3947 312.798C86.609 313.499 87.5952 312.937 87.599 311.542C87.6032 310.147 86.6231 308.45 85.4091 307.749Z" fill="#0A2222"/>
<path d="M54.5277 289.886C53.3142 289.185 52.3276 289.747 52.3237 291.142C52.3196 292.537 53.2997 294.234 54.5136 294.935C55.7271 295.636 56.7138 295.073 56.7179 293.679C56.7217 292.284 55.7418 290.587 54.5277 289.886Z" fill="#0A2222"/>
<path d="M47.7792 285.99C46.5657 285.289 45.5915 285.858 45.5874 287.253C45.5833 288.648 46.5512 290.338 47.7651 291.038C48.9786 291.739 49.965 291.177 49.9688 289.782C49.9729 288.388 48.9929 286.69 47.7792 285.99Z" fill="#0A2222"/>
<path d="M98.8466 315.507C97.6327 314.806 96.6462 315.368 96.6421 316.763C96.6383 318.157 97.618 319.855 98.8323 320.556C100.034 321.249 101.02 320.687 101.024 319.293C101.028 317.898 100.048 316.2 98.8466 315.507Z" fill="#0A2222"/>
<path d="M85.9855 282.544C82.5266 280.534 76.8968 280.531 73.4104 282.544C69.9291 284.554 69.9161 287.815 73.3745 289.824C76.8333 291.835 82.4577 291.835 85.9393 289.825C89.4257 287.812 89.444 284.554 85.9855 282.544Z" fill="#0A2222"/>
<path d="M85.1146 229.962L167.753 277.987C170.542 279.607 174.89 279.584 177.658 277.99C180.657 276.255 180.672 273.234 177.688 271.499L95.0499 223.476C92.3294 221.893 87.8849 221.89 85.1467 223.473C82.1427 225.206 82.1375 228.236 85.1146 229.962ZM85.8024 224.611C88.1385 223.258 92.0679 223.259 94.3917 224.608L177.03 272.631C179.144 273.864 179.115 275.633 177.002 276.853C174.666 278.2 170.732 278.197 168.412 276.855L85.7731 228.829C83.664 227.603 83.687 225.83 85.8024 224.611Z" fill="#0A2222"/>
<path d="M82.1148 254.118L145.396 290.895C148.179 292.512 152.527 292.495 155.301 290.898C158.298 289.165 158.318 286.138 155.331 284.406L92.0488 247.629C89.3271 246.049 84.8851 246.046 82.1456 247.627C79.1481 249.359 79.1285 252.386 82.1148 254.118ZM82.8013 248.764C85.1349 247.414 89.0697 247.416 91.3905 248.761L154.673 285.539C156.779 286.762 156.765 288.539 154.645 289.76C152.31 291.105 148.377 291.108 146.055 289.763L82.7733 252.985C80.667 251.762 80.6818 249.985 82.8013 248.764Z" fill="#0A2222"/>
<path d="M6.71293 103.245C6.8244 103.245 6.93704 103.217 7.04088 103.158L19.2227 96.1241C19.5366 95.9422 19.6441 95.54 19.4622 95.2275C19.2828 94.9124 18.8795 94.8074 18.567 94.9867L6.38513 102.021C6.07126 102.203 5.96376 102.605 6.14562 102.918C6.26589 103.128 6.4875 103.245 6.71293 103.245Z" fill="#0A2222"/>
<path d="M65.337 89.8502L53.1551 96.8818C52.8413 97.0637 52.7338 97.4658 52.9156 97.7784C53.0361 97.9884 53.2577 98.1063 53.4831 98.1063C53.5946 98.1063 53.7072 98.0782 53.811 98.0192L65.9929 90.9876C66.3068 90.8057 66.4143 90.4035 66.2324 90.091C66.0517 89.7758 65.647 89.6683 65.337 89.8502Z" fill="#0A2222"/>
<path d="M123.594 35.7799C123.706 35.7799 123.818 35.7518 123.922 35.6928L136.104 28.6612C136.418 28.4793 136.525 28.0771 136.344 27.7646C136.164 27.4496 135.761 27.3445 135.448 27.5238L123.266 34.5554C122.953 34.7373 122.845 35.1394 123.027 35.452C123.147 35.662 123.369 35.7799 123.594 35.7799Z" fill="#0A2222"/>
<path d="M175.801 134.755L175.513 26.9447C175.513 26.7639 175.325 26.495 175.198 26.3677L165.413 20.7017L165.361 0.661316C165.361 0.14461 164.812 -0.156351 164.391 0.0840355C159.209 3.07648 16.1591 85.6659 0.786722 94.5425C0.603242 94.6472 0.472267 94.8835 0.472267 95.1195C0.473147 95.4274 0.708842 182.963 0.708255 182.679C0.196975 183.626 0 183.786 0 184.096L0.0787626 223.521C0.0787626 223.757 0.209733 223.967 0.41976 224.098L10.7021 230.079C10.8071 230.132 10.9122 230.158 11.0434 230.158C11.1481 230.158 11.2529 230.132 11.3579 230.079L175.487 135.332C175.67 135.201 175.801 134.991 175.801 134.755ZM142.12 55.8251L142.068 35.942C142.33 35.7908 162.998 23.8819 161.689 24.6362L144.455 54.461L142.12 55.8251ZM143.143 56.7695L142.12 58.5009V57.3467L143.143 56.7695ZM164.049 1.78904L164.102 20.544C164.076 20.5703 164.023 20.5965 163.997 20.6228L163 22.3279C162.73 22.484 140.708 35.206 142.068 34.4205L141.989 14.5373L164.049 1.78904ZM125.883 86.6469L123.889 87.8274L118.774 84.8892L118.748 70.8556L140.809 58.1073L140.835 60.7567L125.883 86.6469ZM118.748 69.3343C118.748 69.0703 118.692 48.1438 118.696 49.4509C118.958 49.2992 142.241 35.8452 140.756 36.7029L140.809 56.5861L118.748 69.3343ZM140.678 15.2979L140.756 35.1814C140.494 35.3329 117.185 48.7866 118.67 47.9296L118.617 28.0202L140.678 15.2979ZM76.6473 129.613L72.083 127.017L72.0567 119.252L87.9267 110.098L76.6473 129.613ZM107.128 78.148C106.761 77.9642 106.388 78.0796 106.236 78.3839L95.4026 97.1392L95.3763 84.3385C95.6387 84.1868 118.921 70.7325 117.437 71.5902L117.463 84.1547L117.41 84.1287L107.128 78.148ZM117.437 70.0951L95.3765 82.8171C95.3757 82.5531 95.3204 61.6268 95.324 62.9339L117.385 50.2116C117.385 50.4758 117.44 71.4022 117.437 70.0951ZM117.306 28.781L117.358 48.6904C117.096 48.8419 93.8538 62.2613 95.3238 61.4124L95.2713 41.503L117.306 28.781ZM89.2383 107.789L72.0567 117.731C72.056 117.467 72.0012 96.5142 72.0045 97.8213C72.2671 97.6699 95.5498 84.2427 94.0647 85.0992L94.1172 99.3689L89.2383 107.789ZM94.0648 83.5777C93.8024 83.7294 70.5204 97.1841 72.0047 96.3263L71.9522 76.4428L94.0123 63.6945C94.0129 63.9585 94.0682 84.8848 94.0648 83.5777ZM93.9598 42.2636L94.0123 62.1733L71.9522 74.9216C71.9512 74.6576 71.8683 53.7051 71.8734 55.0122L93.9598 42.2636ZM48.7109 132.735L53.6165 129.902L48.7372 138.349L48.7109 132.735ZM65.3418 123.134L70.7453 120.013L70.7715 126.282L70.3518 126.046L65.3418 123.134ZM70.7453 118.492L64.0303 122.374C60.1524 120.175 59.9705 119.854 59.5712 119.987C59.0578 120.133 59.3897 120.035 54.9544 127.594L48.6848 131.213C48.6841 130.949 48.6288 110.023 48.6323 111.33L70.6932 98.5817C70.6938 98.8459 70.7486 119.799 70.7453 118.492ZM48.6322 109.809L48.58 89.9257C48.8424 89.7741 72.1248 76.3196 70.6404 77.1775L70.6929 97.0609C70.4307 97.2124 47.1479 110.667 48.6322 109.809ZM48.5275 68.4948L70.5616 55.7728C70.5627 56.0368 70.6455 76.9893 70.6404 75.6822L48.58 88.4045C48.5794 88.1404 48.5241 67.1877 48.5275 68.4948ZM36.3562 159.806L34.2838 160.986L33.5493 161.406L28.985 158.809L25.3654 156.71L25.3129 146.244C25.5753 146.092 48.884 132.638 47.3993 133.495L47.4255 140.63L36.3562 159.806ZM35.0447 162.088L34.9659 162.219L34.8872 162.166L35.0447 162.088ZM47.3994 131.974C47.1371 132.126 23.8282 145.58 25.3131 144.723L25.2605 124.813L47.3207 112.065C47.3217 112.329 47.4046 133.281 47.3994 131.974ZM25.2604 123.292C25.2597 123.028 25.2044 102.101 25.2079 103.409C25.4703 103.257 48.7527 89.8024 47.2685 90.6602L47.3207 110.57L25.2604 123.292ZM47.216 69.2556C47.2167 69.5196 47.272 90.4724 47.2685 89.1653C47.0059 89.3166 23.7229 102.743 25.2079 101.887L25.1554 82.0038L47.216 69.2556ZM18.2044 152.776C17.7231 152.856 18.7664 151.562 2.70175 179.243L2.01975 179.636L1.96724 159.727C2.23212 159.573 25.4854 146.12 24.0014 146.978L24.0277 155.923C18.5109 152.793 18.6836 152.639 18.2044 152.776ZM1.96724 158.206L1.88848 138.296C2.15101 138.145 25.4341 124.717 23.9491 125.574L24.0016 145.483L1.96724 158.206ZM23.9489 124.052C23.6865 124.204 0.404067 137.659 1.88833 136.801L1.83612 116.891L23.8963 104.169C23.8971 104.433 23.9524 125.36 23.9489 124.052ZM23.8439 82.7647L23.8964 102.648C23.634 102.8 0.352003 116.254 1.83627 115.396L1.78376 95.4868L23.8439 82.7647ZM44.8813 209.199L11.6992 228.374L11.6467 215.049L11.5941 190.26L27.3853 162.901L28.9065 160.278L44.8812 169.38L44.8813 209.199ZM86.5627 185.145L46.1928 208.438V169.17L70.2729 127.489L86.5627 136.801V185.145ZM87.8743 184.384V136.591L117.332 85.5976L134.802 95.5393V148.212C134.802 148.579 135.117 148.867 135.458 148.867C135.825 148.867 136.113 148.579 136.113 148.212V95.3292L174.201 29.3844L174.49 134.388L87.8743 184.384Z" fill="#1855F1"/>
</svg>
