<svg width="292" height="338" viewBox="0 0 292 338" fill="none" xmlns="http://www.w3.org/2000/svg">
<path d="M172.773 221.238L172.564 99.9203L218.329 73.5005C220.261 72.4041 221.749 69.8196 221.749 67.6265L221.671 41.1808C221.671 40.006 221.253 39.1182 220.47 38.6483C213.718 34.8363 214.064 34.6541 212.977 34.6541C211.333 34.6541 212.608 34.5668 172.512 57.5234L172.46 34.1842C172.486 34.1582 172.486 34.1321 172.486 34.106L172.46 14.735C172.434 12.542 171.807 10.819 170.685 9.67032C170.685 9.67032 170.685 9.64421 170.659 9.6181C169.849 8.80909 170.092 9.17766 155.543 0.637409C153.82 -0.380751 151.47 -0.171894 149.042 1.21191C127.365 13.7265 47.4292 59.872 8.51048 82.3249C3.81143 85.0662 0 91.6972 0 97.1012C0.0684933 138.793 0.279399 267.095 0.339386 303.63C0.339386 306.372 1.30533 308.46 3.08073 309.478L17.2041 317.702C17.2041 317.702 17.2302 317.728 17.2564 317.728C19.29 318.92 21.7065 318.331 23.7569 317.153L164.263 236.014C168.988 233.299 172.799 226.668 172.773 221.238ZM107.115 136.209C105.826 136.96 105 136.427 105 135.008L104.922 108.562C104.922 106.865 106.175 104.698 107.663 103.836C113.502 100.465 173.854 65.6203 182.406 60.6824L182.485 92.6889L107.115 136.209ZM218.355 39.9275C218.985 39.6475 219.088 39.7049 219.164 39.6664C221.091 39.6664 220.157 39.9862 220.444 67.6006C220.444 68.0444 220.366 68.5143 220.209 68.9841C219.857 70.2159 218.934 71.623 217.676 72.3779L183.79 91.9318L183.712 59.9252L218.251 39.9797C218.303 39.9797 218.329 39.9536 218.355 39.9275ZM14.1759 105.351V105.377L14.2017 123.599L1.331 116.132L1.30518 97.1008C1.30518 92.1144 4.82944 85.9794 9.163 83.4731C107.136 26.89 -0.364473 88.9633 149.695 2.33405C151.679 1.18536 153.585 1.00261 154.89 1.75956V1.78566L166.168 8.33844C165.332 8.42204 163.504 9.2639 163.218 9.43492C-12.4231 110.846 29.1852 86.822 22.6864 90.5741C18.1589 93.215 14.1759 99.6974 14.1759 105.351ZM23.3389 91.723L163.87 10.5838L164.001 10.5315C167.763 8.35311 171.097 9.8249 171.154 14.7349L171.181 28.4668C171.181 28.4929 171.154 28.4929 171.154 28.519V33.7665L15.5071 123.599V105.351C15.5071 105.299 15.4813 105.272 15.4813 105.246C15.4813 100.881 18.6264 94.4819 23.3389 91.723ZM158.31 237.842L28.6648 312.689V277.733C31.4842 276.505 49.1584 268.334 53.2834 251.991C54.6929 246.431 56.2593 244.133 58.0869 243.35V271.885C58.0869 272.25 58.4002 272.537 58.7396 272.537C59.1051 272.537 59.3922 272.25 59.3922 271.885V243.011C60.5408 242.906 61.7681 243.141 63.1256 243.402C66.0754 244.003 69.4431 244.681 73.2285 242.123C80.92 236.872 85.2937 218.043 91.8167 215.886V252.409C91.8167 252.774 92.1036 253.062 92.4694 253.062C92.8346 253.062 93.122 252.774 93.122 252.409V215.703C96.9965 215.842 101.044 222.014 103.042 225.049C105.392 228.626 107.428 231.732 110.352 231.837C112.467 231.889 114.79 230.297 117.479 226.772C120.22 223.195 122.309 221.368 124.267 220.481V233.664C124.267 234.03 124.554 234.317 124.92 234.317C125.285 234.317 125.572 234.03 125.572 233.664V220.011C127.426 219.541 129.227 219.802 131.394 220.115C134.788 220.585 138.991 221.211 145.361 219.515C150.583 218.157 154.916 216.121 158.31 213.562V237.842ZM28.6648 276.297V262.643C31.6149 261.364 49.1845 253.192 53.2834 236.902C54.6929 231.341 56.2593 229.043 58.0869 228.26V241.94C55.7634 242.671 53.6747 245.099 52.0303 251.652C48.2447 266.611 32.6069 274.521 28.6648 276.297ZM59.3924 241.679V227.921C63.4128 227.555 69.3619 231.782 75.6045 224.893C78.2934 221.943 80.5647 217.505 82.7577 213.171C85.7077 207.375 88.5013 201.919 91.8169 200.822V214.528C91.7384 214.555 91.6601 214.555 91.5816 214.581C84.1727 216.705 79.9942 235.944 72.4975 241.053C69.1561 243.298 66.2322 242.698 63.3863 242.123C62.0289 241.862 60.6715 241.601 59.3924 241.679ZM93.1222 214.398V200.614C93.3832 200.657 93.8972 200.502 95.3408 201.318C98.6041 203.276 100.954 206.827 103.016 209.96C105.027 213.014 106.802 215.677 109.073 216.486C112.344 217.711 115.371 214.479 117.48 211.683C120.221 208.132 122.309 206.279 124.267 205.417V219.045C121.996 219.906 119.568 221.89 116.461 225.989C114.059 229.096 112.101 230.532 110.404 230.532C108.16 230.453 106.28 227.608 104.139 224.318C101.716 220.698 97.5917 214.519 93.1222 214.398ZM158.31 211.996C154.942 214.711 150.478 216.826 145.022 218.262C138.913 219.88 134.84 219.279 131.577 218.81C129.384 218.496 127.504 218.235 125.572 218.653V204.947C127.426 204.451 129.227 204.712 131.394 205.025C134.788 205.521 138.991 206.122 145.361 204.451C150.557 203.067 154.916 201.109 158.31 198.577V211.996ZM159.615 237.189V197.22C159.615 197.115 159.589 196.985 159.537 196.88C159.458 196.776 159.38 196.698 159.25 196.619C159.015 196.515 158.754 196.567 158.545 196.724C155.151 199.543 150.583 201.71 145.021 203.172C139.628 204.605 136.326 204.337 131.603 203.746C129.384 203.433 127.504 203.172 125.572 203.563V175.682C125.572 175.316 125.285 175.029 124.92 175.029C124.554 175.029 124.267 175.316 124.267 175.682V203.955C121.996 204.817 119.568 206.801 116.461 210.899C114.741 213.143 112.19 216.098 109.569 215.311C107.689 214.659 106.018 212.126 104.113 209.255C101.724 205.613 97.4798 199.334 93.1219 199.334V185.576C93.1219 185.211 92.8344 184.923 92.4692 184.923C92.1034 184.923 91.8166 185.211 91.8166 185.576V199.439C91.7381 199.465 91.6598 199.465 91.5813 199.491C87.6653 200.64 84.7153 206.435 81.6084 212.57C79.5461 216.617 77.4318 220.794 75.0037 223.64C69.1973 230.384 63.8101 226.255 59.3921 226.616V208.263C59.3921 207.897 59.1049 207.61 58.7394 207.61C58.4 207.61 58.0867 207.897 58.0867 208.263V226.851C54.5117 228.04 52.944 232.896 52.004 236.589C47.7223 253.61 27.9858 261.52 27.777 261.598C27.5157 261.676 27.3592 261.938 27.3592 262.199V313.577L23.1038 316.031C18.9209 318.421 15.8199 316.53 15.8199 311.88L15.7414 268.386L15.5066 125.113L171.154 35.2544L171.206 58.2805L100.64 99.0067C98.7605 100.103 97.2721 102.688 97.2721 104.881L97.3243 131.327C97.3243 132.475 97.7683 133.389 98.5516 133.859L104.922 137.566C105.836 138.058 106.86 137.87 107.767 137.358L171.258 100.678L171.467 221.238C171.493 226.25 167.969 232.385 163.609 234.891L159.615 237.189Z" fill="#0A2222"/>
<path d="M27.8673 108.011C30.0952 106.725 31.8952 103.607 31.8882 101.047C31.8808 98.4871 30.0691 97.4545 27.8412 98.7409C25.6133 100.027 23.8133 103.144 23.8203 105.705C23.8281 108.265 25.6394 109.297 27.8673 108.011Z" fill="#0A2222"/>
<path d="M40.004 101.005C42.2319 99.718 44.0319 96.6003 44.0246 94.0404C44.0173 91.4802 42.2059 90.4477 39.9776 91.7341C37.75 93.0204 35.9497 96.1384 35.9571 98.698C35.9641 101.258 37.7762 102.291 40.004 101.005Z" fill="#0A2222"/>
<path d="M52.1525 93.9904C54.3803 92.7042 56.1804 89.5865 56.1733 87.0266C56.166 84.4664 54.3542 83.4341 52.1261 84.7204C49.8985 86.0067 48.0986 89.1242 48.1055 91.6843C48.1128 94.2445 49.9246 95.277 52.1525 93.9904Z" fill="#0A2222"/>
<path d="M111.495 58.1822L159.803 30.291C161.489 29.318 162.845 26.9683 162.84 25.0318C162.834 23.0955 161.469 22.3173 159.784 23.2902L111.475 51.1812C109.801 52.1479 108.433 54.504 108.438 56.4403C108.444 58.3768 109.82 59.1487 111.495 58.1822Z" fill="#0A2222"/>
<path d="M175.486 79.956L110.496 117.474C109.751 117.906 110.396 119.034 111.149 118.606L176.138 81.088C176.451 80.907 176.558 80.5068 176.377 80.1957C176.197 79.8821 175.796 79.7775 175.486 79.956Z" fill="#0A2222"/>
<path d="M200.364 72.1199C201.857 71.2578 203.207 69.7911 204.206 68.1105L209.145 70.4346C209.429 70.5683 209.761 70.4436 209.892 70.1657C210.025 69.885 209.904 69.5503 209.623 69.4187L204.731 67.1165C205.474 65.5948 205.933 63.9704 205.929 62.4786C205.92 58.6785 203.078 57.0561 199.767 58.9626C196.688 60.7399 194.192 65.0655 194.202 68.6047C194.213 72.3836 197.039 74.0412 200.364 72.1199ZM200.329 59.9347C202.915 58.446 204.799 59.5808 204.806 62.4821C204.816 65.6614 202.57 69.5494 199.802 71.1478C197.248 72.6218 195.334 71.537 195.325 68.6005C195.315 65.4212 197.561 61.5332 200.329 59.9347Z" fill="#0A2222"/>
<path d="M30.5968 158.269L83.541 128.299C86.1255 126.811 88.1615 123.312 88.1354 120.336C88.1354 117.032 85.6616 115.709 82.8361 117.308L70.0177 125.087C24.1415 150.408 31.2791 146.514 29.9441 147.252C27.3596 148.766 25.3232 152.212 25.3232 155.215C25.3232 155.241 25.3232 155.241 25.3232 155.266C25.3232 158.233 27.5806 159.978 30.5968 158.269Z" fill="#1855F1"/>
<path d="M158.023 126.549C157.005 125.975 155.673 126.079 154.289 126.863C145.988 131.614 52.6307 185.054 29.97 198.029C27.3593 199.543 25.2967 203.094 25.323 206.096C25.323 207.662 25.8976 208.837 26.9155 209.437C27.3595 209.699 27.8556 209.803 28.3776 209.803C29.0825 209.803 29.8656 209.594 30.6489 209.124L154.968 137.958C157.579 136.444 159.642 132.919 159.615 129.917C159.615 128.35 159.041 127.15 158.023 126.549Z" fill="#1855F1"/>
<path d="M287.564 260.398L232.192 228.443C227.179 225.546 219.008 225.546 213.996 228.469L126.617 279.247C124.058 280.709 122.675 282.719 122.675 284.886C122.675 284.886 122.675 284.886 122.675 284.912L122.649 297.521C122.649 299.662 124.111 301.724 126.643 303.16L181.989 335.167C182.015 335.167 182.041 335.167 182.068 335.193C187.157 338.055 195.133 338.046 200.16 335.167H200.186L287.591 284.363C290.123 282.902 291.507 280.891 291.507 278.75L291.559 266.167V266.089C291.558 263.922 290.149 261.912 287.564 260.398ZM181.65 333.47L127.295 302.038C127.27 302.038 127.27 302.038 127.27 302.038C125.155 300.837 123.954 299.192 123.954 297.521L123.98 288.306C124.355 288.806 125.384 289.769 126.669 290.551L181.676 322.323L181.65 333.47ZM290.201 278.751C290.201 280.421 289.052 282.014 286.938 283.241L200.525 333.444C200.526 333.181 200.58 321.587 200.577 322.323C209.476 317.149 168.337 341.063 287.616 271.728C288.19 271.296 289.18 270.817 290.227 269.561L290.201 278.751ZM286.964 270.58C167.219 340.201 208.552 316.169 199.585 321.383C194.938 324.072 187.341 324.072 182.668 321.357L127.295 289.402C123.012 286.826 122.766 282.982 127.27 280.37L214.648 229.592C216.972 228.235 220.026 227.556 223.107 227.556C226.161 227.556 229.216 228.234 231.539 229.566L286.911 261.546C291.346 264.088 291.371 268.022 286.964 270.58Z" fill="#0A2222"/>
<path d="M204.989 276.323C193.215 269.535 174.079 269.535 162.357 276.349C150.347 283.305 150.441 294.839 162.487 301.777C174.258 308.599 193.448 308.602 205.119 301.777C216.816 295.033 217.375 283.512 204.989 276.323ZM197.549 296.66C189.977 301.046 177.655 301.046 170.032 296.634C162.691 292.401 162.629 285.753 169.954 281.466C177.499 277.08 189.847 277.08 197.444 281.466C204.807 285.712 204.874 292.373 197.549 296.66ZM163.14 300.654C152.07 294.268 151.774 283.994 163.009 277.472C174.134 270.991 191.967 270.916 203.344 276.924L197.757 280.135C189.769 275.723 177.107 275.801 169.275 280.344C161.273 285.038 161.005 292.911 169.38 297.783C177.238 302.299 189.925 302.378 197.862 297.966C198.123 298.117 203.839 301.413 203.475 301.203C192.066 307.259 174.262 307.051 163.14 300.654Z" fill="#1855F1"/>
<path d="M179.339 287.902C178.208 287.249 177 286.894 175.724 286.854C174.44 286.808 173.314 287.067 172.348 287.628C171.381 288.19 170.939 288.843 171.039 289.587C171.131 290.325 171.738 291.019 172.859 291.666C173.973 292.31 175.172 292.658 176.456 292.714C177.732 292.765 178.858 292.506 179.825 291.945C180.791 291.383 181.233 290.73 181.159 289.991C181.076 289.248 180.469 288.554 179.339 287.902ZM178.465 291.16C177.961 291.454 177.35 291.565 176.624 291.5C175.89 291.429 175.163 291.181 174.427 290.756C173.682 290.325 173.251 289.905 173.135 289.485C173.02 289.065 173.21 288.711 173.715 288.418C174.246 288.109 174.857 287.988 175.565 288.063C176.273 288.129 177 288.387 177.753 288.823C178.507 289.258 178.947 289.673 179.071 290.088C179.196 290.493 178.997 290.852 178.465 291.16Z" fill="#0A2222"/>
<path d="M194.655 286.444C193.542 285.802 192.334 285.458 191.041 285.406C189.756 285.361 188.622 285.614 187.655 286.176C186.689 286.738 186.256 287.396 186.347 288.134C186.447 288.878 187.054 289.572 188.167 290.214C189.28 290.857 190.479 291.206 191.764 291.262C193.04 291.312 194.174 291.059 195.141 290.498C196.107 289.936 196.541 289.278 196.458 288.534C196.366 287.785 195.768 287.087 194.655 286.444ZM193.773 289.708C193.259 290.007 192.64 290.123 191.932 290.057C191.224 289.992 190.488 289.739 189.735 289.303C188.981 288.868 188.542 288.443 188.426 288.033C188.31 287.623 188.509 287.264 189.023 286.966C189.536 286.667 190.156 286.551 190.873 286.621C191.589 286.692 192.325 286.945 193.061 287.37C193.797 287.795 194.237 288.22 194.361 288.635C194.486 289.05 194.287 289.41 193.773 289.708Z" fill="#0A2222"/>
<path d="M180.613 282.988L184.994 296.232L186.893 295.129L182.511 281.885L180.613 282.988Z" fill="#0A2222"/>
<path d="M253.348 259.543C253.649 258.427 253.227 257.214 252.179 256.609L236.932 247.805C235.88 247.198 234.62 247.439 233.806 248.26L215.894 237.919C215.584 237.745 215.184 237.845 215.003 238.158C214.822 238.469 214.929 238.87 215.241 239.051L233.153 249.392C232.851 250.508 233.272 251.722 234.321 252.328L249.568 261.132C249.98 261.369 250.429 261.481 250.871 261.481C251.563 261.481 252.236 261.202 252.733 260.696L270.607 271.016C270.71 271.074 270.822 271.103 270.933 271.103C271.157 271.103 271.378 270.985 271.498 270.776C271.679 270.465 271.572 270.065 271.259 269.884L253.348 259.543Z" fill="#0A2222"/>
<path d="M239.761 267.438C240.062 266.323 239.64 265.11 238.592 264.505L223.345 255.701C222.293 255.094 221.033 255.337 220.219 256.156L202.307 245.815C201.997 245.641 201.594 245.743 201.416 246.054C201.235 246.365 201.342 246.766 201.654 246.947L219.566 257.288C219.264 258.404 219.686 259.618 220.734 260.224L235.981 269.028C236.393 269.265 236.842 269.377 237.284 269.377C237.976 269.377 238.649 269.098 239.146 268.592L257.02 278.912C257.123 278.97 257.235 278.998 257.346 278.998C257.571 278.998 257.791 278.881 257.911 278.672C258.092 278.361 257.985 277.961 257.672 277.78L239.761 267.438Z" fill="#0A2222"/>
<path d="M226.172 275.337C226.475 274.221 226.053 273.006 225.004 272.401L209.757 263.597C208.704 262.991 207.443 263.232 206.629 264.054L188.719 253.713C188.408 253.537 188.009 253.642 187.828 253.953C187.647 254.264 187.754 254.664 188.066 254.845L205.978 265.186C205.676 266.302 206.098 267.515 207.146 268.12L222.394 276.924C222.805 277.161 223.254 277.273 223.696 277.273C224.388 277.273 225.06 276.995 225.556 276.49L243.432 286.81C243.535 286.869 243.647 286.897 243.758 286.897C243.983 286.897 244.203 286.78 244.323 286.571C244.504 286.26 244.397 285.859 244.085 285.678L226.172 275.337Z" fill="#0A2222"/>
</svg>
