<svg width="32" height="32" viewBox="0 0 32 32" fill="none" xmlns="http://www.w3.org/2000/svg">
<path d="M14.5866 9.5145L18.3818 6.00634C20.612 3.77604 25.3646 2.63572 29.3326 2.66764C29.3326 7.33431 28.2243 11.3883 25.994 13.6186L22.4859 17.4138C22.1518 17.7753 22.0439 18.2914 22.2055 18.7563L22.7842 20.4222C23.1196 21.3877 22.8735 22.4601 22.1508 23.1829L20.6659 24.6677L7.3335 11.3343L8.81818 9.84963C9.54103 9.12678 10.6135 8.88078 11.5791 9.21634L13.2439 9.79484C13.7088 9.95644 14.2251 9.84866 14.5866 9.5145Z" stroke="#1855F1" stroke-width="2" stroke-linejoin="round"/>
<path d="M23.3228 8.65918L23.3312 8.66765" stroke="#1855F1" stroke-width="2.66667" stroke-linecap="round" stroke-linejoin="round"/>
<path d="M2.6665 29.3337L10.6665 21.333M10.6665 29.3337L14.6665 25.333M2.6665 21.3337L6.6665 17.333" stroke="#1855F1" stroke-width="2" stroke-linecap="round"/>
</svg>
