<svg width="91" height="123" viewBox="0 0 91 123" fill="none" xmlns="http://www.w3.org/2000/svg">
<path d="M35.6265 16.016C35.6296 17.146 36.4293 17.6017 37.4128 17.0339C38.3962 16.4662 39.1907 15.09 39.1876 13.96C39.1843 12.8299 38.3846 12.3743 37.4012 12.942C36.4177 13.5098 35.6234 14.8859 35.6265 16.016Z" fill="black"/>
<path d="M32.6129 50.1068L49.0095 40.6994C50.1759 40.0261 51.1242 38.3761 51.1242 37.0294C51.1041 35.5435 50.0108 34.9574 48.7534 35.6733L32.3663 45.0806C31.1714 45.7729 30.242 47.3851 30.2515 48.7507C30.2515 50.211 31.3344 50.8323 32.6129 50.1068ZM32.6034 45.4885L48.9905 36.0811C49.956 35.5341 50.65 35.9668 50.65 37.0294C50.65 38.2243 49.806 39.6847 48.7724 40.2916C47.0968 41.2535 54.8423 36.807 32.3853 49.699C31.4425 50.2378 30.7257 49.8686 30.7257 48.7507C30.7162 47.5559 31.5602 46.0955 32.6034 45.4885Z" fill="black"/>
<path d="M20.1331 61.4774C21.5272 60.6712 22.836 59.4195 23.9264 57.8642C25.5575 55.5314 26.4869 52.8475 26.4774 50.4862C26.4774 46.3993 23.5336 44.5747 19.858 46.7118C16.3398 48.7319 13.4948 53.6632 13.5138 57.703C13.5138 61.7093 16.3953 63.6232 20.1331 61.4774ZM23.642 50.0974C23.8128 50.2018 23.8696 50.4198 23.7748 50.5906L19.5263 57.9401C19.4598 58.0539 19.3365 58.1202 19.2133 58.1202C19.1563 58.1202 19.0995 58.1012 19.0427 58.0728L16.9184 56.859C16.7476 56.7642 16.6813 56.5461 16.7855 56.3753C16.8804 56.2045 17.0985 56.1477 17.2692 56.2425L19.09 57.2763L23.1584 50.2301C23.2532 50.0595 23.4713 50.0025 23.642 50.0974Z" fill="#1855F1"/>
<path d="M56.0271 65.593C57.1935 64.9197 58.1418 63.2696 58.1418 61.923C58.1418 60.4763 57.0455 59.8352 55.7805 60.5669L15.5051 83.7249C14.3102 84.4077 13.3808 86.0199 13.3902 87.395C13.3902 88.8638 14.4799 89.4725 15.7516 88.7511L56.0271 65.593ZM15.5146 88.334C14.6343 88.8655 13.8644 88.5429 13.8644 87.395C13.855 86.2003 14.6989 84.7398 15.7422 84.1328L56.0175 60.9841C56.9775 60.4217 57.6676 60.8581 57.6676 61.9325C57.6676 63.1273 56.833 64.5878 55.7899 65.1852L15.5239 88.334H15.5146Z" fill="black"/>
<path d="M15.7517 75.645L56.0176 52.487C57.2124 51.7947 58.1418 50.1825 58.1418 48.8169C58.1418 47.4326 57.11 46.6985 55.771 47.4608L15.4956 70.619C14.3292 71.2923 13.3809 72.9329 13.3902 74.289C13.3903 75.7229 14.459 76.3784 15.7517 75.645Z" fill="#1855F1"/>
<path d="M58.1422 75.0382C58.1422 73.6537 57.1104 72.9197 55.7714 73.682L36.6909 84.6541C35.5245 85.3274 34.5762 86.9776 34.5762 88.3242C34.5762 89.026 34.8322 89.557 35.2874 89.813C35.4772 89.9268 35.6953 89.9838 35.9228 89.9838C36.2452 89.9838 36.5867 89.8794 36.9375 89.6803L56.0179 78.7081C57.2129 78.0159 58.1422 76.4038 58.1422 75.0382Z" fill="#1855F1"/>
<path d="M83.5665 71.3683C81.5846 70.2208 79.6404 70.0312 78.2179 70.8656L75.0885 72.6866C75.079 72.6866 75.079 72.6866 75.079 72.6866C73.8083 73.4262 73.0496 74.896 72.9168 76.8401C70.8494 78.9264 68.4408 80.1878 65.5673 80.6429C65.5483 80.6429 65.5294 80.6524 65.5199 80.6524L65.3302 7.10975C65.3207 5.59247 64.7992 4.46393 63.8509 3.90441C63.8414 3.90441 63.8414 3.90441 63.8414 3.90441L57.7247 0.357692C56.7763 -0.211268 55.5151 -0.097507 54.178 0.670653L39.5264 9.1202L38.1892 8.34255C37.0798 7.69769 35.6193 7.83049 34.0735 8.7314C31.9018 9.98318 30.0241 12.5152 29.1232 15.1326L4.77016 29.1963C4.76067 29.2057 4.76067 29.2057 4.75118 29.2152C2.1243 30.742 -0.00946178 34.4405 3.15553e-05 37.4656C3.15553e-05 37.4751 0.00952374 37.4751 0.00952374 37.4846C0.0261104 44.2516 0.184352 106.087 0.208619 115.57C0.218112 117.087 0.749205 118.225 1.68808 118.766C3.97491 120.092 7.71827 122.226 7.81422 122.322C8.91432 122.957 10.2515 122.635 11.3514 121.999L37.8572 106.693C39.1754 108.96 40.9961 110.942 42.9972 112.099C45.0645 113.294 46.9611 113.398 48.3361 112.601C48.3361 112.601 48.3361 112.601 48.3456 112.601L51.4752 110.781C52.5468 110.145 53.2581 109.017 53.5425 107.509C54.1115 108.078 54.7184 108.381 55.3728 108.419C55.3823 108.429 55.3918 108.448 55.4013 108.467C56.9152 109.46 58.2224 109.556 59.5549 109.112C60.8438 109.927 62.0061 109.919 63.3102 109.244C63.3197 109.254 63.3197 109.282 63.3387 109.292C64.9011 110.557 67.0057 109.093 68.4502 107.708C70.3147 109.471 73.0387 107.899 71.9494 105.47C72.3108 105.596 72.5968 105.641 72.8504 105.641C73.4572 105.641 74.0073 105.423 74.4055 105.015C75.0981 104.322 75.3016 103.133 74.5763 101.961C76.9412 102.619 78.4792 100.119 76.9281 98.0448C78.4959 98.3247 81.4329 98.7656 82.1914 97.3715C82.9595 95.9489 80.8732 93.5687 80.1904 92.8385C81.0438 92.1083 81.9068 91.5108 82.6465 91.0461C83.6081 91.2324 84.5895 91.122 85.463 90.6288C85.5583 90.6288 85.5379 90.5965 88.6399 88.7986C90.0529 87.964 90.8495 86.2476 90.859 83.9811C90.8687 79.3532 87.5969 73.6917 83.5665 71.3683ZM64.8561 7.10975L65.0458 80.7473C64.0595 80.9464 63.1302 81.2593 62.2766 81.6482L62.0869 8.93049C62.0869 8.05817 61.1487 7.49945 60.361 7.93476L54.4055 11.3772V9.84095C54.3961 9.253 54.2347 8.77881 53.9313 8.46585L60.5317 4.64415C62.9578 3.23535 64.8364 4.33679 64.8561 7.10975ZM41.0531 92.8479L37.9235 94.6687C37.9141 94.6687 37.9141 94.6782 37.9141 94.6782C36.501 95.5032 35.714 97.2102 35.714 99.4768C35.7045 100.7 35.9321 101.99 36.3399 103.27L11.048 117.874C10.611 118.133 10.0429 117.821 10.0429 117.296L9.84366 41.0124C9.83416 39.2864 11.2473 36.8493 12.7455 35.9863L17.2406 33.3879V35.8061C17.2406 36.5553 17.5061 37.1244 17.9992 37.4088L21.1573 39.2486C21.1762 39.2581 21.1857 39.2581 21.1952 39.2581C21.746 39.5725 22.3969 39.4146 22.9495 39.0967L52.1295 22.2545C53.4193 21.5053 54.4339 19.7604 54.4245 18.281L54.4055 11.9272L60.598 8.35198C61.0217 8.08233 61.6127 8.41534 61.6127 8.93044L61.8025 81.8662C60.2377 82.6439 58.929 83.6111 57.9807 84.4361C57.0229 85.2612 56.4255 85.9441 56.2548 86.1432C55.4108 86.6269 54.6521 87.1768 54.0357 87.7648C52.1485 89.5667 48.6587 91.8711 46.3448 93.322C44.3817 92.203 42.4566 92.0323 41.0531 92.8479ZM54.415 1.07844C55.5909 0.405106 56.6815 0.291292 57.4876 0.765479L62.3145 3.56303C62.2955 3.56303 62.2767 3.57252 62.2577 3.57252C61.7035 3.63417 61.1225 3.76084 60.2947 4.22687L53.4952 8.15289L50.4794 6.39849C50.0053 6.10452 49.3605 6.16143 48.6872 6.54079L41.8119 10.5237C41.6695 10.4005 41.5273 10.2867 41.3567 10.1918V10.1823L40.0005 9.39518L54.415 1.07844ZM40.6643 10.4005C40.6928 10.4005 40.7118 10.4099 40.7401 10.4194C41.673 10.7693 41.9446 11.4436 42.0394 11.5384C42.347 12.0773 42.5799 12.8791 42.5799 13.8713C42.5799 14.0252 42.746 14.1771 42.9403 14.0799L52.0917 8.7978C52.3381 8.6555 52.5752 8.57017 52.8029 8.54174C52.8693 8.53225 52.9262 8.53225 52.9925 8.54174H53.0968C53.1918 8.56073 53.2771 8.58916 53.3529 8.62708C53.3719 8.63657 53.3909 8.64607 53.4098 8.64607C53.7417 8.84521 53.9219 9.26249 53.9313 9.84095L53.9503 18.2811C53.9598 19.5897 53.0305 21.1829 51.8924 21.8373L22.7124 38.689C21.6556 39.3073 20.8917 38.8061 20.8917 37.6459L20.8632 29.2057C20.8632 27.9445 21.7262 26.4271 22.7978 25.7254C22.8358 25.6969 22.8737 25.6685 22.9117 25.64L25.5006 24.1512L32.0725 20.358C32.1105 20.3295 32.1389 20.301 32.1578 20.2631C32.1673 20.2631 32.1673 20.2536 32.1673 20.2441C32.1768 20.2157 32.1957 20.1872 32.1957 20.1493V20.1208C32.1957 17.731 33.4001 14.962 35.1451 12.9609C36.4769 11.4337 38.7624 9.75305 40.6643 10.4005ZM28.9145 15.7964C28.6964 16.6025 28.5636 17.3991 28.5542 18.1672L19.5072 23.383C18.2363 24.1228 17.2122 25.9151 17.2217 27.366L17.2312 29.092L11.0007 32.6862L5.35811 29.4049L28.9145 15.7964ZM1.9252 118.358C1.138 117.903 0.69235 116.907 0.682857 115.57L0.483765 37.8829L1.15704 38.2718L6.11678 41.1641L6.32552 119.117C6.32552 120.079 6.5427 120.635 6.72387 121.118C6.73337 121.127 6.73336 121.136 6.74286 121.146L1.9252 118.358ZM11.1144 121.582C9.94798 122.265 8.85747 122.379 8.05128 121.914V121.905H8.04179C7.10094 121.344 6.79955 120.186 6.79955 119.117L6.5908 41.0313C6.5908 41.0219 6.5908 41.0219 6.5908 41.0219C6.58131 38.139 8.61086 34.6207 11.1143 33.1697H11.1238L17.2311 29.6515L17.2406 32.8379L12.5084 35.569C10.8868 36.5078 9.35998 39.1537 9.36947 41.0124L9.56872 117.296C9.56872 118.119 10.4289 118.742 11.2852 118.291L36.5011 103.735C36.7951 104.598 37.1839 105.451 37.6297 106.276L11.1144 121.582ZM48.5165 111.909C48.507 111.909 48.4975 111.919 48.488 111.919C47.2362 112.924 45.3491 112.905 43.2343 111.691C39.3366 109.434 36.1692 103.962 36.1882 99.4862C36.1882 97.3714 36.8994 95.8067 38.1702 95.0765C38.1892 95.067 38.1986 95.0575 38.2081 95.0575C39.6671 94.2243 41.5759 94.731 43.0446 95.5886C46.863 97.7792 50.0812 103.21 50.0812 107.775C50.0812 109.992 49.3393 111.161 48.5165 111.909ZM46.7905 93.5971C49.1234 92.1273 52.5088 89.8891 54.3677 88.1063C57.3643 85.2424 63.9078 83.1087 67.9003 86.7407C71.3901 89.9271 73.2962 90.3823 73.979 90.4297C73.9505 90.9892 73.7989 92.4117 72.7936 93.0566C71.8358 93.6635 70.3469 93.4454 68.365 92.4117C66.876 91.6341 65.226 91.4634 63.8415 91.9375C62.2767 92.478 60.2853 93.9575 59.7351 97.9309C59.2135 101.762 56.3117 104.522 53.6754 106.276C53.6849 106.172 53.6943 106.068 53.6943 105.963C53.7038 101.487 50.6407 96.0532 46.7905 93.5971ZM68.7252 107.319C68.3364 106.93 68.0994 106.447 68.0614 105.954C67.9303 104.317 69.8293 103.767 71.0487 104.986C71.428 105.375 71.6651 105.859 71.7124 106.352C71.8402 107.98 69.9579 108.552 68.7252 107.319ZM74.0739 104.683C73.3776 105.379 72.0522 105.345 71.096 104.389C70.2557 103.549 70.0252 102.207 70.8116 101.421C72.0094 100.223 74.3921 101.401 74.5481 103.27C74.5954 103.829 74.4247 104.332 74.0739 104.683ZM76.5774 101.089C75.3707 102.327 72.875 101.126 72.7177 99.1733C72.6703 98.6042 72.841 98.0826 73.2107 97.7128C73.5712 97.3524 74.0832 97.1723 74.6617 97.2291C76.5657 97.3828 77.8377 99.8286 76.5774 101.089ZM81.7742 97.1533C81.4707 97.7223 80.3137 98.2344 76.6058 97.5042C77.3796 95.7971 78.4887 94.3604 79.8302 93.1513C80.6837 94.0522 82.3243 96.1292 81.7742 97.1533ZM76.7102 96.2429C76.7197 96.2429 76.7197 96.2429 76.7197 96.2429C76.5299 96.5844 76.3593 96.9446 76.1887 97.3146C75.1522 96.5648 73.7234 96.527 72.8695 97.3809C72.0302 98.2203 72.0621 99.5277 72.7177 100.558C70.6583 100.007 69.1455 101.953 70.1952 103.943C69.523 103.733 68.7023 103.847 68.1374 104.399C67.7295 104.806 67.5303 105.375 67.5873 105.992C67.6348 106.475 67.8243 106.949 68.1279 107.348C66.9638 108.487 65.0747 109.928 63.737 108.988C66.2122 107.329 67.8813 103.45 67.9571 103.261C68.0139 103.137 67.9571 103.005 67.8338 102.948C67.7105 102.9 67.5777 102.957 67.5208 103.071C67.5019 103.128 65.2923 108.287 62.343 109.15C61.5842 109.368 60.8352 109.264 60.1049 108.875C63.7845 107.045 66.0036 100.748 66.0983 100.463C66.1458 100.34 66.0794 100.207 65.9562 100.169C65.8329 100.122 65.7001 100.188 65.6527 100.311C65.6337 100.387 63.1682 107.405 59.3274 108.695C58.2746 109.045 57.1936 108.932 56.1221 108.344C59.7731 107.481 63.206 99.1164 63.3578 98.7561C63.4053 98.6327 63.3483 98.5001 63.225 98.4431C63.1017 98.3957 62.9689 98.4526 62.9121 98.5759C62.8836 98.6613 59.2989 107.414 55.828 107.936C55.0314 108.059 54.3107 107.718 53.6374 106.921V106.874C56.4255 105.081 59.6308 102.151 60.2093 97.9975C60.6171 95.0007 61.8973 93.1136 64.0026 92.3928C65.2639 91.9566 66.7718 92.1179 68.1469 92.8387C70.2899 93.9576 71.9402 94.1662 73.0496 93.455C74.5386 92.4972 74.4531 90.2781 74.4531 90.1833C74.4437 90.1168 74.4152 90.0505 74.3583 90.003C74.311 89.9652 74.235 89.9462 74.1686 89.9557C74.1591 89.9557 72.3858 90.1832 68.2225 86.39C65.2354 83.6776 60.911 84.0096 57.535 85.4985C58.9858 84.1045 61.9733 81.6863 65.6336 81.1077C69.152 80.5482 72.0065 78.8602 74.3866 75.9109C74.4816 75.7593 74.5953 75.6074 74.7281 75.4652C74.823 75.3703 74.9177 75.2851 75.0032 75.2092C76.1221 74.2988 77.7912 74.3652 79.5741 75.3988C84.9538 78.4817 87.8762 87.9588 83.7182 89.8892C78.4788 92.6181 76.8143 96.1386 76.7102 96.2429ZM88.3935 88.3908L86.8573 89.2823C87.019 89.0553 87.3111 88.4065 87.4357 87.9071C88.78 83.8782 85.5774 76.1494 80.4466 73.1891C78.4365 72.0499 77.1066 72.1991 76.9189 72.1649L78.4646 71.2735C79.7259 70.5339 81.4992 70.7235 83.3295 71.7856C87.2271 74.0332 90.3946 79.5051 90.3851 83.9811C90.3755 86.0768 89.6643 87.6416 88.3935 88.3908Z" fill="black"/>
<path d="M43.1464 99.674C41.2422 98.5744 39.6928 99.4534 39.6865 101.642C39.6803 103.83 41.2197 106.496 43.124 107.596C45.0285 108.695 46.5744 107.81 46.5805 105.622C46.5867 103.434 45.051 100.773 43.1464 99.674Z" fill="#1855F1"/>
<path d="M31.3324 88.8028C30.4248 89.3372 29.2015 90.4291 28.0614 91.7219C25.1458 94.9712 26.0403 95.4655 24.8099 97.9675C24.3491 98.901 23.8607 99.5076 23.3165 99.8216C22.6224 100.223 21.8172 100.144 20.9189 99.59C20.3572 99.2575 19.858 99.2261 19.3936 99.4956C17.5595 100.552 17.5912 105.408 16.958 106.815C16.87 106.74 16.7251 106.577 16.5477 106.268C15.8814 105.163 15.5402 103.579 15.5346 101.556C15.528 99.1922 16.0581 96.086 16.5477 94.4289C16.5477 94.4289 16.5477 94.428 16.5482 94.428C16.5848 94.302 16.5125 94.1715 16.3866 94.1344C16.2602 94.0955 16.1287 94.1715 16.0926 94.2955C15.146 97.645 14.3226 103.499 16.1394 106.508C16.3177 106.819 16.6691 107.341 17.0738 107.341C17.8543 107.341 17.8989 102.434 19.0196 100.567C19.5447 99.6889 20.092 99.6514 20.6736 99.9957C22.6808 101.237 24.1784 100.319 25.2351 98.1768C26.5144 95.5763 25.556 95.2246 28.4158 92.0367C29.118 91.2403 31.2845 88.9758 32.3318 88.9519C32.4846 88.9621 32.5341 89.1584 32.5305 89.3307C32.5347 90.5801 30.5348 93.8666 29.8795 94.9419C22.673 106.748 20.0595 103.184 17.5147 108.832C17.461 108.952 17.5143 109.092 17.6337 109.145C17.6652 109.16 17.6981 109.167 17.7309 109.167C17.8212 109.167 17.9074 109.115 17.9472 109.027C20.3779 103.637 23.0685 107.014 30.2842 95.1882C31.0112 93.9955 33.0087 90.7293 33.0047 89.3353C33.0212 88.5822 32.4752 88.145 31.3324 88.8028Z" fill="black"/>
</svg>
