<svg width="1440" height="790" viewBox="0 0 1440 790" fill="none" xmlns="http://www.w3.org/2000/svg">
<path d="M133.463 234.029C93.7347 169.475 27.9342 192.648 0 212.304V790H1440V190.579C1405.86 255.755 1350.15 389.207 1284.97 367.482C1219.79 345.756 1154.61 190.579 1067.71 100.576C980.801 10.5736 940.451 -23.5654 872.168 16.7807C803.884 57.1268 831.818 116.094 723.185 190.579C614.552 265.065 602.137 283.686 555.58 429.553C509.023 575.419 465.57 693.354 422.117 684.044C378.664 674.733 341.418 482.313 301.069 367.482C260.719 252.65 183.124 314.721 133.463 234.029Z" fill="url(#paint0_linear_243_7838)"/>
<defs>
<linearGradient id="paint0_linear_243_7838" x1="720" y1="0" x2="720" y2="684.559" gradientUnits="userSpaceOnUse">
<stop stop-color="white"/>
<stop offset="0.0001" stop-color="white" stop-opacity="0.07"/>
<stop offset="1" stop-color="white" stop-opacity="0"/>
</linearGradient>
</defs>
</svg>
