<svg width="1440" height="671" viewBox="0 0 1440 671" fill="none" xmlns="http://www.w3.org/2000/svg">
<path d="M133.463 198.777C93.7347 143.947 27.9342 163.629 0 180.324V671H1440V161.872C1405.86 217.23 1350.15 330.58 1284.97 312.127C1219.79 293.674 1154.61 161.872 1067.71 85.4264C980.801 8.98087 940.451 -20.0157 872.168 14.253C803.884 48.5217 831.818 98.6067 723.185 161.872C614.552 225.137 602.137 240.953 555.58 364.848C509.023 488.742 465.57 588.912 422.117 581.004C378.664 573.096 341.418 409.661 301.069 312.127C260.719 214.593 183.124 267.314 133.463 198.777Z" fill="url(#paint0_linear_246_8501)"/>
<defs>
<linearGradient id="paint0_linear_246_8501" x1="720" y1="-10.1924" x2="720" y2="581.442" gradientUnits="userSpaceOnUse">
<stop stop-color="white"/>
<stop offset="0.0001" stop-color="white" stop-opacity="0.07"/>
<stop offset="1" stop-color="white" stop-opacity="0"/>
</linearGradient>
</defs>
</svg>
