<svg width="272" height="225" viewBox="0 0 272 225" fill="none" xmlns="http://www.w3.org/2000/svg">
<path d="M226.455 141.322C225.231 138.703 221.766 137.331 218.894 136.887L143.916 125.271C143.641 125.228 143.346 125.228 143.071 125.207L143.092 108.036C143.092 107.846 143.008 107.677 142.839 107.572L142.205 107.213L145.078 105.544C146.535 104.72 147.337 103.559 147.337 102.313L147.316 56.9666V56.9456C147.208 55.4362 146.382 54.5236 145.078 53.7565C85.6187 19.3637 88.9345 20.7087 86.4679 20.1535C86.4679 20.1324 86.4468 20.1324 86.4468 20.1324C86.2356 20.1324 82.1331 19.0471 78.7166 21.0195L2.23893 65.1615C0.802872 66.0275 0 67.168 0 68.4142L0.0211239 113.612C0.0211239 114.837 0.802872 115.978 2.23893 116.823L58.3354 149.391C58.3777 149.517 58.4409 149.623 58.5463 149.686C61.3569 151.304 65.8544 151.279 68.6209 149.686H68.642L114.706 123.095L115.593 123.602L115.572 137.458L79.16 158.62C76.3722 160.247 75.295 162.654 76.351 164.956L96.6901 208.338C97.8649 210.943 101.414 212.334 104.251 212.773L179.208 224.411C182.588 224.918 186.453 224.495 189.325 222.827L243.985 191.062C246.794 189.414 247.85 187.006 246.773 184.725L226.455 141.322L226.455 141.322ZM143.029 147.426C144.36 147.215 145.796 147.173 147.169 147.405C230.093 160.256 201.492 155.824 207.679 156.783C209.6 157.088 212.28 158.046 213.065 159.824L226.202 187.893L183.475 212.731C181.532 213.85 178.638 214.294 175.956 213.893L115.467 204.494C113.51 204.21 110.876 203.255 110.081 201.453L96.9437 173.404L115.53 162.591L115.509 172.771C114.347 172.919 113.27 173.256 112.467 173.806C111.559 174.439 111.095 175.221 111.137 176.023C111.2 176.826 111.792 177.523 112.784 178.009C113.861 178.537 115.15 178.685 116.354 178.6C117.684 178.516 118.888 178.114 119.796 177.502C121.655 176.235 121.571 174.334 119.458 173.32C118.656 172.919 117.642 172.75 116.565 172.75L116.586 161.978L129.237 154.628L129.216 165.146C128.055 165.273 126.978 165.632 126.175 166.181C124.295 167.469 124.422 169.37 126.513 170.384C128.519 171.356 131.666 171.144 133.504 169.877C135.384 168.589 135.278 166.688 133.187 165.674C132.363 165.294 131.349 165.125 130.272 165.125L130.293 154.016L139.671 148.566C140.326 148.186 141.128 147.912 141.973 147.679L141.952 157.501C140.769 157.648 139.713 158.007 138.911 158.557C137.01 159.845 137.158 161.746 139.227 162.738C141.255 163.731 144.36 163.52 146.239 162.253C148.141 160.943 147.993 159.042 145.902 158.05C145.099 157.648 144.064 157.479 143.008 157.479L143.029 147.426L143.029 147.426ZM107.631 98.8911C105.603 100.074 103.935 102.925 103.956 105.291C103.956 108.83 107.609 108.586 109.954 104.805L112.974 106.537L100.556 113.697L97.1338 111.732C97.6619 110.676 97.9789 109.557 97.9789 108.543C97.9789 106.199 96.3293 105.42 94.4306 106.516C92.3816 107.698 90.7133 110.571 90.7345 112.915C90.7345 115.166 92.25 116.072 94.2828 114.943C95.1697 114.436 95.9724 113.591 96.6058 112.641L99.4995 114.309L83.8279 123.37C80.7441 125.144 78.3789 123.814 78.3578 120.265C78.3578 116.485 81.019 111.859 84.3137 109.958L131.307 82.8186C134.412 81.0444 136.756 82.3961 136.777 85.9233C136.798 89.7039 134.116 94.3292 130.821 96.2301L126.999 98.4478L123.577 96.4624C124.084 95.4276 124.422 94.3082 124.422 93.2732C124.422 91.0866 122.93 90.0911 120.852 91.2458C118.825 92.4285 117.156 95.3008 117.177 97.6453C117.177 101.272 120.794 100.829 123.049 97.3707L125.942 99.0604L114.03 105.925L110.461 103.876C110.925 102.904 111.2 101.869 111.2 100.919C111.2 98.5337 109.524 97.7689 107.631 98.8915L107.631 98.8911ZM107.8 103.559L109.025 104.277C107.656 106.489 105.012 108.027 105.012 105.269C104.991 103.347 106.469 100.771 108.18 99.7992C110.348 98.4748 110.599 101.034 109.532 103.347L108.328 102.629C108.074 102.503 107.758 102.587 107.61 102.841C107.462 103.094 107.546 103.411 107.8 103.559ZM94.0925 111.183L95.6765 112.113C95.1273 112.915 94.4725 113.612 93.7548 114.035C92.4816 114.704 91.7904 114.383 91.7904 112.915C91.7693 110.972 93.2476 108.416 94.9585 107.424C96.2535 106.705 96.9228 107.156 96.9228 108.543C96.9228 109.367 96.648 110.317 96.2046 111.183L94.6205 110.275C94.3671 110.127 94.0502 110.212 93.9025 110.465C93.7548 110.719 93.8391 111.035 94.0925 111.183ZM120.536 95.913L122.12 96.8424C120.628 99.0217 118.233 100.276 118.233 97.645C118.212 95.7019 119.691 93.1463 121.38 92.1749C122.64 91.4452 123.366 91.8329 123.366 93.2731C123.366 94.118 123.091 95.0472 122.648 95.9344L121.064 95.005C120.81 94.8571 120.472 94.9417 120.345 95.1951C120.198 95.4486 120.282 95.7652 120.536 95.913ZM126.999 99.6514L140.093 107.213L128.16 114.098L115.086 106.537L126.999 99.6514ZM133.82 126.855L130.336 128.882L130.378 115.682C130.378 115.492 130.272 115.302 130.103 115.217L129.216 114.71L141.149 107.825L142.036 108.353L142.015 125.123C139.016 124.996 135.996 125.588 133.82 126.855ZM142.015 126.179L141.994 134.986C141.804 135.028 141.635 135.049 141.445 135.113C140.621 135.345 139.819 135.641 139.143 136.021L130.314 141.153L130.336 130.086L134.37 127.763C136.186 126.686 138.678 126.115 141.213 126.115C141.487 126.115 141.741 126.158 142.015 126.179L142.015 126.179ZM129.723 168.547H129.744C130.019 168.547 130.251 168.315 130.272 168.04V166.118C131.18 166.139 132.046 166.308 132.722 166.625C134.053 167.28 134.137 168.167 132.912 169.012C131.37 170.068 128.646 170.237 126.956 169.434C125.625 168.779 125.541 167.892 126.766 167.047C127.4 166.625 128.266 166.35 129.216 166.224V168.019C129.195 168.315 129.448 168.547 129.723 168.547V168.547ZM129.258 141.766L116.607 149.116L116.628 138.07L129.279 130.699L129.258 141.766ZM129.322 115.978L129.28 129.495L116.628 136.845L116.649 123.307C116.649 123.116 116.565 122.948 116.396 122.842L115.762 122.483L128.16 115.323L129.322 115.978L129.322 115.978ZM142.459 160.922C142.755 160.922 142.987 160.69 142.987 160.394V158.493C143.916 158.493 144.761 158.662 145.458 159C146.788 159.655 146.852 160.542 145.648 161.366C144.085 162.422 141.382 162.612 139.692 161.809C138.361 161.155 138.277 160.247 139.502 159.423C140.136 159 141.001 158.726 141.931 158.599V160.394C141.931 160.69 142.163 160.922 142.459 160.922V160.922ZM2.78822 115.893C1.68988 115.26 1.07734 114.457 1.07734 113.612L1.05622 70.695C1.39417 71.033 1.75336 71.3498 2.21793 71.6244L58.2509 104.171C58.2553 108.677 58.2352 87.8664 58.2932 148.144L2.78811 115.893L2.78822 115.893ZM68.0718 103.432C65.5947 104.86 61.5384 104.885 59.0536 103.411H59.0324L2.7671 70.7161C1.66876 70.0826 1.05622 69.2588 1.05622 68.4141C1.05622 67.5481 1.66876 66.7243 2.78822 66.0908L79.2448 21.9487C81.8258 20.4615 85.9648 20.5561 88.2422 21.9699L144.55 54.6857C146.937 56.0626 146.705 58.0544 144.508 59.2688C137.26 63.4562 171.872 43.4582 68.0718 103.432ZM68.8958 148.313C68.8937 143.802 68.9036 164.656 68.8747 104.192C172.278 44.4781 137.865 64.3513 145.057 60.1981C145.099 60.1769 145.12 60.1558 145.162 60.1347C145.54 59.9038 146.052 59.4983 146.261 59.29L146.282 102.313C146.282 103.157 145.648 104.002 144.55 104.636L141.149 106.6L128.055 99.0601L131.349 97.1592C134.94 95.0895 137.855 90.0416 137.833 85.923C137.812 81.5934 134.602 79.7135 130.779 81.9101L83.7858 109.05C80.1952 111.12 77.3019 116.147 77.3019 120.265C77.323 124.574 80.5335 126.496 84.3561 124.278L100.556 114.922L113.65 122.483L68.8958 148.313ZM114.706 121.87L101.612 114.309L114.03 107.149L127.104 114.71L114.706 121.87ZM116.016 176.192C116.311 176.192 116.544 175.96 116.544 175.664L116.565 173.764C117.473 173.764 118.339 173.933 119.015 174.271C120.324 174.904 120.43 175.791 119.205 176.636C118.466 177.143 117.431 177.46 116.29 177.544C115.15 177.629 114.072 177.46 113.249 177.059C111.918 176.425 111.834 175.517 113.059 174.693C113.693 174.249 114.558 173.996 115.509 173.869L115.488 175.665C115.488 175.96 115.741 176.193 116.016 176.193L116.016 176.192ZM243.457 190.132L188.798 221.897C186.347 223.334 182.757 223.883 179.378 223.355L104.421 211.738C101.942 211.362 98.7236 210.168 97.6408 207.894L77.323 164.513C76.499 162.739 77.3864 160.88 79.6882 159.528L115.572 138.682L115.551 149.728C113.452 150.949 123.155 145.308 95.0219 161.662C93.1212 162.76 92.2129 164.323 92.4452 165.907C92.4874 166.245 92.5721 166.583 92.7198 166.9L109.131 201.896C110.093 204.073 112.972 205.176 115.319 205.55L175.787 214.928C178.293 215.357 181.63 215.027 184.003 213.64L227.11 188.59H227.152C227.664 188.247 229.116 187.638 230.046 186.31C230.827 185.211 230.975 183.965 230.405 182.761C228.722 179.166 236.476 195.732 214.016 147.743C213.024 145.611 210.134 144.497 207.848 144.11C124.924 131.288 153.525 135.711 147.338 134.754C146.26 134.585 145.162 134.585 144.085 134.648C143.747 134.691 143.388 134.691 143.05 134.733L143.071 126.263C143.304 126.285 143.536 126.285 143.747 126.306L218.725 137.943C221.196 138.323 224.449 139.527 225.505 141.787L245.823 185.169C246.647 186.943 245.781 188.802 243.458 190.132L243.457 190.132Z" fill="#061237"/>
<path d="M50.5554 105.707L10.382 82.3587C8.60879 81.3247 6.3918 82.6119 6.39404 84.6543L6.40643 109.098C6.40643 110.793 7.3181 112.377 8.78555 113.229L48.9631 136.573C50.7258 137.603 52.9544 136.329 52.9521 134.277L52.9345 109.838C52.9335 108.143 52.0218 106.559 50.5554 105.707ZM49.4932 135.661L9.31561 112.317C8.1729 111.653 7.46241 110.42 7.46241 109.098L7.45002 84.6544C7.45002 83.4181 8.78956 82.6522 9.85192 83.2704L50.0254 106.619C51.167 107.283 51.8775 108.518 51.8786 109.838L51.8961 134.277C51.8961 135.519 50.5499 136.277 49.4932 135.661Z" fill="#061237"/>
<path d="M113.228 59.6279C113.228 58.8887 112.763 58.1917 111.918 57.706L81.8637 40.2392C80.2797 39.3311 77.8088 39.3311 76.2247 40.2392L35.4196 63.8098C33.6585 64.798 33.6367 66.6615 35.3985 67.6748L65.4531 85.1416C66.9709 86.0437 69.5518 86.0449 71.0712 85.1416L111.897 61.5711C112.763 61.0853 113.228 60.3883 113.228 59.6279Z" fill="#061237"/>
<path d="M14.3584 107.524C14.1057 107.374 13.784 107.462 13.6365 107.714C13.49 107.968 13.5756 108.29 13.8283 108.436L44.9863 126.541C45.0699 126.591 45.1606 126.613 45.2514 126.613C45.4328 126.613 45.6102 126.518 45.7083 126.351C45.8547 126.098 45.7691 125.776 45.5164 125.629L14.3584 107.524Z" fill="#061237"/>
<path d="M14.3584 99.9589C14.1057 99.8083 13.784 99.8971 13.6365 100.149C13.49 100.402 13.5756 100.724 13.8283 100.871L44.9863 118.976C45.0699 119.025 45.1606 119.048 45.2514 119.048C45.4328 119.048 45.6102 118.953 45.7083 118.786C45.8547 118.532 45.7691 118.21 45.5164 118.064L14.3584 99.9589Z" fill="#061237"/>
<path d="M14.3584 92.3931C14.1057 92.2445 13.784 92.3312 13.6365 92.5828C13.49 92.8365 13.5756 93.1583 13.8283 93.3047L44.9863 111.408C45.0699 111.457 45.1606 111.48 45.2514 111.48C45.4328 111.48 45.6102 111.385 45.7083 111.218C45.8547 110.964 45.7691 110.643 45.5164 110.496L14.3584 92.3931Z" fill="#061237"/>
<path d="M131.814 179.635C124.866 183.662 125.081 190.294 131.877 194.208C138.405 198.005 149.226 198.128 155.997 194.208C162.846 190.213 162.818 183.613 155.912 179.635C149.259 175.791 138.424 175.77 131.814 179.635H131.814ZM148.731 189.414C146.085 190.914 141.782 190.953 139.1 189.414C136.59 187.935 136.665 185.852 139.079 184.43C141.719 182.909 146.028 182.909 148.689 184.451C151.056 185.78 151.264 187.921 148.731 189.414ZM154.582 180.1L148.942 183.374C145.943 181.79 141.444 181.853 138.551 183.521C135.416 185.35 135.364 188.476 138.572 190.322C139.882 191.082 141.571 191.526 143.388 191.59C143.39 191.803 143.433 196.333 143.43 196.046C139.248 195.983 135.362 195.011 132.405 193.3C126.455 189.864 125.974 184.273 132.342 180.543C138.429 177.013 148.096 176.857 154.582 180.1Z" fill="#1855F1"/>
<path d="M162.228 176.573C168.879 180.398 179.65 180.473 186.347 176.551C193.212 172.591 193.145 165.951 186.284 161.999C179.61 158.134 168.796 158.134 162.164 161.999C155.441 165.878 155.229 172.542 162.228 176.573ZM186.009 163.055C191.948 166.645 191.849 172.155 185.819 175.643C182.905 177.354 179.018 178.326 174.837 178.41C174.835 178.196 174.792 173.666 174.794 173.954C176.632 173.869 178.322 173.425 179.61 172.665C182.562 170.984 182.65 168.163 180.307 166.371L186.01 163.055H186.009ZM169.429 166.794C172.07 165.273 176.378 165.273 179.04 166.794C181.585 168.267 181.433 170.414 179.082 171.757C176.565 173.25 172.244 173.36 169.451 171.757C167.115 170.422 166.888 168.291 169.429 166.794Z" fill="#1855F1"/>
<path d="M172.83 199.7C170.106 198.137 165.882 198.137 163.178 199.7C160.309 201.378 160.345 204.266 163.199 205.91C165.997 207.502 170.269 207.415 172.873 205.91C175.713 204.248 175.739 201.35 172.83 199.7Z" fill="#1855F1"/>
<path d="M179.42 196.484C182.131 198.048 186.377 198.05 189.076 196.482L208.948 184.934C210.331 184.132 211.09 183.032 211.088 181.84C211.086 180.644 210.314 179.54 208.917 178.734C206.244 177.189 201.911 177.191 199.261 178.736L179.389 190.284C176.525 191.947 176.54 194.82 179.42 196.484Z" fill="#1855F1"/>
<path d="M265.93 49.3845L181.764 0.807032C180.222 -0.122336 178.681 -0.248949 177.54 0.426837C177.323 0.553333 168.565 5.64515 169.113 5.32679H169.071C167.93 6.00258 167.297 7.35426 167.275 9.14963L167.085 76.1019C167.085 79.5868 169.535 83.8321 172.556 85.5852L256.721 134.184C258.052 134.944 259.615 135.303 260.945 134.564C260.945 134.543 260.966 134.564 260.966 134.543C261.184 134.416 269.983 129.303 269.436 129.622C270.555 128.967 271.189 127.615 271.21 125.82L271.4 58.8464C271.421 55.3826 268.971 51.1375 265.93 49.3845ZM178.068 1.33509C178.871 0.870402 180.011 0.997132 181.236 1.71528L264.62 49.828C264.408 49.9514 256.741 54.4203 257.228 54.1367L173.316 5.68598C172.844 5.42048 172.242 5.1905 171.69 5.05244L178.068 1.33509ZM261.706 130.72C261.706 133.555 259.874 134.769 257.249 133.275L173.084 84.6769C170.359 83.0929 168.141 79.2491 168.141 76.102L168.331 9.14976C168.377 6.15539 170.32 5.22696 172.788 6.61523L256.953 55.2138C259.678 56.7978 261.896 60.6206 261.896 63.7465C261.879 69.6219 261.715 127.42 261.706 130.72ZM270.154 125.82C270.154 127.214 269.689 128.249 268.908 128.714C268.694 128.838 262.115 132.649 262.529 132.41C262.782 131.651 262.953 65.164 262.952 64.0633C263.164 63.9403 270.831 59.4932 270.344 59.7758L270.154 125.82Z" fill="#061237"/>
<path d="M253.746 57.2986L174.761 11.6975C173.409 10.918 171.741 11.8988 171.736 13.4384L171.564 74.3664C171.554 77.7448 173.367 80.8944 176.293 82.5857L255.277 128.187C256.636 128.969 258.296 127.982 258.303 126.446L258.475 65.5199C258.485 62.1393 256.672 58.9898 253.746 57.2985V57.2986ZM257.247 126.442C257.245 127.186 256.44 127.64 255.805 127.271L176.821 81.6699C174.222 80.1683 172.612 77.3715 172.62 74.3705L172.792 13.4425C172.795 12.7033 173.593 12.2449 174.233 12.6133L253.218 58.2144C255.818 59.716 257.427 62.5148 257.419 65.5159L257.247 126.442Z" fill="#061237"/>
<path d="M251.674 68.5726C251.382 68.5726 251.146 68.8098 251.146 69.1007V115.112L246.476 112.417L246.51 98.8223C246.51 98.7274 246.486 98.6367 246.439 98.5562L240.195 87.7422C240.051 87.4906 239.729 87.4039 239.478 87.5483L233.989 90.6752L225.632 76.2023C225.487 75.9507 225.168 75.8639 224.914 76.0084L219.312 79.1992L209.056 61.4427C208.913 61.1911 208.592 61.1065 208.338 61.2467L202.323 64.6706L188.714 41.0996C188.594 40.8934 188.354 40.7944 188.121 40.8542C187.89 40.914 187.73 41.1244 187.729 41.3616L187.628 78.4392L178.628 73.2426C178.375 73.1003 178.053 73.1849 177.907 73.4365C177.761 73.688 177.847 74.0119 178.1 74.1584L251.41 116.484C251.752 116.683 252.202 116.439 252.202 116.026V69.101C252.202 68.8101 251.965 68.573 251.673 68.573L251.674 68.5726ZM218.589 96.2957L188.683 79.0297L188.78 43.3246L201.6 65.5286V84.0705C201.6 84.3614 201.836 84.5986 202.128 84.5986C202.42 84.5986 202.656 84.3614 202.656 84.0705V65.6958L208.404 62.4239L218.589 80.0572V96.2955L218.589 96.2957ZM233.266 104.769L219.645 96.9054V80.2225L224.98 77.1839L233.266 91.5336V104.769ZM245.422 111.787L234.322 105.379V91.6985L239.544 88.7237L245.454 98.9602L245.422 111.787Z" fill="#061237"/>
<path d="M188.242 36.141H188.243C188.534 36.141 188.77 35.9059 188.771 35.6151L188.78 32.4073L201.671 54.735C201.814 54.9846 202.136 55.0733 202.389 54.9289L208.404 51.505L218.66 69.2636C218.806 69.5152 219.129 69.604 219.379 69.4575L224.98 66.2647L233.338 80.7397C233.482 80.9913 233.803 81.08 234.056 80.9336L239.544 77.8047L245.525 88.165C245.622 88.3341 245.801 88.429 245.982 88.429C246.072 88.429 246.163 88.4063 246.246 88.3589C246.499 88.2124 246.585 87.8886 246.439 87.6369L240.196 76.823C240.051 76.5714 239.73 76.4846 239.477 76.6291L233.989 79.758L225.632 65.2829C225.487 65.0313 225.165 64.9446 224.913 65.089L219.312 68.2819L209.056 50.5232C208.913 50.2717 208.592 50.1849 208.338 50.3294L202.323 53.7532L189.7 31.8895L192.489 33.501C192.744 33.6475 193.065 33.5609 193.21 33.3072C193.357 33.0556 193.27 32.7317 193.018 32.5852L188.521 29.9885C188.493 29.972 188.46 29.9746 188.43 29.9639C188.401 29.9536 188.379 29.9472 188.349 29.9419C188.072 29.891 187.872 30.0063 187.776 30.2723C187.765 30.3018 187.759 30.3249 187.753 30.3559C187.748 30.3863 187.729 30.4127 187.729 30.4442L187.715 35.611C187.714 35.9039 187.95 36.141 188.242 36.141H188.242Z" fill="#1855F1"/>
</svg>
