<svg width="40" height="40" viewBox="0 0 40 40" fill="none" xmlns="http://www.w3.org/2000/svg">
<path d="M3.33561 14.1665L3.33154 31.6657C3.33113 33.507 4.82363 34.9998 6.66488 34.9998H33.3357C35.1766 34.9998 36.6691 33.5075 36.6691 31.6665L36.6689 14.1665" stroke="#1855F1" stroke-width="3" stroke-linecap="round" stroke-linejoin="round"/>
<path d="M25.8306 10.8333V7.5C25.8306 6.11928 24.7115 5 23.3306 5H16.6641C15.2833 5 14.1641 6.11928 14.1641 7.5V10.8333" stroke="#1855F1" stroke-width="3" stroke-linecap="round" stroke-linejoin="round"/>
<path d="M3.33105 14.1665V15.8341C3.33105 18.5955 5.56962 20.8342 8.33105 20.8342H31.6635C34.425 20.8342 36.6635 18.5955 36.6635 15.834L36.6633 14.1668C36.6633 12.3259 35.171 10.8335 33.33 10.8335H6.66439C4.82357 10.8335 3.33124 12.3257 3.33105 14.1665Z" stroke="#1855F1" stroke-width="3" stroke-linecap="round" stroke-linejoin="round"/>
<path d="M12.4976 18.3335V23.3335M27.4975 23.3335V18.3335" stroke="#1855F1" stroke-width="3" stroke-linecap="round" stroke-linejoin="round"/>
</svg>
