<svg width="272" height="219" viewBox="0 0 272 219" fill="none" xmlns="http://www.w3.org/2000/svg">
<path d="M122.898 92.0151C124.36 94.1248 127.257 94.7962 129.507 93.4875L143.674 85.2555C146.188 83.7965 146.925 80.4935 145.27 78.1025L109.955 27.0782C108.482 24.9526 105.58 24.3055 103.346 25.6058L89.1679 33.8419C86.6527 35.3012 85.915 38.602 87.5717 40.9968L122.898 92.0151ZM89.6943 34.747L103.872 26.5108C105.659 25.4761 107.942 26.0116 109.093 27.6759L144.408 78.7003C145.713 80.5849 145.145 83.1887 143.147 84.3502L128.981 92.5822C127.215 93.6061 124.923 93.0982 123.76 91.4169L88.434 40.3987C87.1227 38.5053 87.7026 35.9051 89.6943 34.747Z" fill="black"/>
<path d="M141.492 189.534C141.589 189.7 141.765 189.794 141.945 189.794C142.036 189.794 142.126 189.772 142.209 189.722L221.246 143.789C221.496 143.643 221.581 143.324 221.436 143.072C221.29 142.822 220.967 142.734 220.719 142.884L141.682 188.817C141.431 188.963 141.347 189.282 141.492 189.534Z" fill="black"/>
<path d="M64.727 155.197C64.5816 155.447 64.6676 155.768 64.9185 155.914L123.291 189.616C123.374 189.663 123.464 189.686 123.553 189.686C123.734 189.686 123.911 189.591 124.007 189.423C124.152 189.174 124.066 188.852 123.815 188.707L65.4426 155.004C65.195 154.863 64.8714 154.947 64.727 155.197Z" fill="black"/>
<path d="M249.686 80.1364C248.42 80.8675 247.407 82.6219 247.411 84.0774C247.415 85.517 248.435 86.098 249.701 85.3668C250.954 84.6437 251.967 82.8893 251.963 81.4497C251.958 79.9941 250.939 79.413 249.686 80.1364Z" fill="#1855F1"/>
<path d="M257.119 75.8447C255.853 76.5761 254.84 78.3308 254.844 79.7862C254.848 81.2255 255.867 81.8063 257.134 81.0752C258.387 80.3519 259.4 78.5974 259.396 77.1578C259.392 75.7027 258.372 75.1216 257.119 75.8447Z" fill="#1855F1"/>
<path d="M264.553 71.5536C263.3 72.2767 262.273 74.0394 262.277 75.4948C262.281 76.9344 263.315 77.5073 264.567 76.7838C265.834 76.0528 266.847 74.2984 266.843 72.8588C266.839 71.4034 265.819 70.8224 264.553 71.5536Z" fill="#1855F1"/>
<path d="M267.919 32.9424L231.055 11.6584C226.673 9.12112 219.543 9.12112 215.182 11.6584L178.548 32.9631C176.326 34.2423 175.109 35.9829 175.109 37.8489V37.8699L175.067 53.3245C175.067 54.4567 175.571 55.5261 176.43 56.4909C175.571 57.4554 175.109 58.5249 175.109 59.6573V59.72L175.067 75.1533C175.067 76.9986 176.326 78.802 178.527 80.0394L179.911 80.857L173.6 84.5057C173.432 84.5897 173.327 84.7785 173.327 84.9672L173.348 93.1033L162.842 87.0431L166.491 84.9043C166.868 84.7156 167.141 84.359 167.288 83.9187C167.665 82.8493 167.33 81.2976 166.407 79.9975L112.328 1.86613C111.887 1.23695 111.342 0.712674 110.755 0.377436C109.979 -0.063058 109.203 -0.125833 108.574 0.230527C-0.46353 63.6009 0.838838 62.8201 0.624786 62.9912C-0.339982 63.935 -0.172304 65.9481 1.02304 67.6885L50.4476 139.089C44.9944 139.207 42.4265 143.964 42.3953 149.531C42.3742 153.914 43.842 158.863 46.4842 163.476C49.1473 168.11 52.7122 171.885 56.5495 174.086L133.192 218.352C134.189 218.896 134.688 218.739 135.352 218.52C135.352 218.499 135.352 218.499 135.373 218.499L243.008 155.948C243.616 155.592 243.951 154.9 243.951 153.998C243.951 152.32 242.819 150.37 241.393 149.531L227.952 141.773C227.574 136.719 228.203 131.435 229.818 126.297C229.839 126.256 229.818 126.214 229.839 126.193C229.839 126.13 229.86 126.088 229.86 126.025C229.86 126.004 229.86 126.004 229.86 125.983C229.86 125.941 229.86 125.941 229.86 125.899C229.86 125.878 229.839 125.878 229.818 125.836C229.797 125.773 229.755 125.731 229.713 125.689L229.65 125.626C229.629 125.605 229.629 125.584 229.608 125.584L199.329 108.096L199.287 99.6454L205.871 95.8501L215.412 101.344C219.838 103.915 227.012 103.863 231.307 101.344L267.94 80.0392C270.142 78.7599 271.358 77.0405 271.358 75.1952L271.4 59.7199V59.6989C271.4 59.6989 271.4 59.6989 271.4 59.6781C271.4 58.5246 270.918 57.4342 270.037 56.4698C270.876 55.526 271.358 54.4776 271.358 53.3874L271.4 37.9118C271.4 37.8908 271.4 37.8908 271.4 37.8908C271.4 37.8698 271.4 37.8698 271.4 37.8698C271.4 35.9829 270.163 34.2423 267.919 32.9424ZM180.96 81.4649L192.367 88.0493L186.056 91.698C185.888 91.7819 185.783 91.9706 185.783 92.1595L185.825 100.316L174.418 93.7112L174.376 85.2605L180.96 81.4649ZM185.867 108.767V113.841L174.459 107.257L174.438 102.183L185.867 108.767ZM174.417 94.9273L185.825 101.512L185.846 107.551L174.438 100.967L174.417 94.9273ZM173.411 106.649L164.939 101.763C162.842 100.568 160.242 100.568 158.145 101.784L83.8306 144.981L81.7756 143.806C80.975 143.319 80.735 142.261 81.3354 141.542C81.8398 140.869 77.3081 143.792 158.67 96.4159C160.317 95.4353 162.561 95.3353 164.415 96.3949L173.39 101.574L173.411 106.649ZM108.742 138.732C108.91 139.382 109.35 139.906 110.084 140.326C112.328 141.626 115.704 140.934 118.996 140.242C122.078 139.591 125.266 138.942 127.174 140.032C127.656 140.326 127.929 140.64 128.034 140.997C128.243 141.856 127.489 143.072 126.776 144.268C125.916 145.631 125.056 147.036 125.392 148.315C125.559 148.965 126 149.51 126.733 149.929C128.977 151.251 132.374 150.537 135.666 149.846C138.728 149.217 141.915 148.545 143.824 149.636C144.285 149.908 144.578 150.223 144.662 150.6C144.872 151.46 144.117 152.676 143.404 153.872C142.565 155.235 141.685 156.64 142.02 157.94C142.188 158.59 142.628 159.135 143.362 159.554C145.627 160.855 149.024 160.163 152.295 159.47C154.832 158.946 157.454 158.401 159.383 158.842L136.568 172.115C136.401 172.22 136.212 172.262 136.023 172.346C134.346 173.08 132.416 173.038 130.823 172.115L84.8791 145.589L110.797 130.596C111.133 130.827 111.321 131.099 111.384 131.393C111.615 132.252 110.86 133.469 110.126 134.664C109.287 136.027 108.406 137.432 108.742 138.732ZM133.087 181.887C130.529 189.258 130.634 198.459 132.731 205.435L66.0907 166.956C59.8983 163.37 54.6433 154.068 55.7111 146.868C56.0464 147.015 56.361 147.12 56.6756 147.308C57.3466 147.686 58.0174 147.791 58.5837 147.581C58.8056 147.525 65.785 143.433 66.1538 143.219L67.3489 143.89C67.3489 143.911 67.3489 143.911 67.3489 143.911L133.087 181.887ZM15.5966 64.8995L110.336 9.85531L161.102 83.1846C161.794 84.1912 162.109 85.4283 161.836 86.1621C161.836 86.1621 161.836 86.1621 161.836 86.1831C161.637 86.713 165.628 84.107 67.3487 141.311C67.3907 140.347 67.0341 139.193 66.3423 138.166L15.5966 64.8995ZM133.716 217.429L57.0739 173.184C53.4043 171.066 49.9653 167.439 47.4071 162.951C44.8279 158.506 43.4438 153.725 43.4438 149.531C43.4438 144.065 46.0547 139.709 51.4332 140.158C51.81 140.241 52.1721 139.71 51.8945 139.34L1.88267 67.1009C0.677179 65.3594 0.715055 62.8069 2.55385 63.8298C2.57485 63.8298 2.59586 63.8508 2.59586 63.8508C3.03611 64.1022 3.45537 64.5218 3.8122 65.0249L57.9126 143.156C58.6044 144.163 58.919 145.379 58.6464 146.134C58.4133 146.774 57.7889 146.748 57.1996 146.406C54.1423 144.649 50.6174 144.322 48.5392 147.14C48.5184 147.161 48.4974 147.203 48.4974 147.224C44.5411 152.309 48.9912 164.365 56.5495 168.739L133.213 213.004C134.324 213.634 135.268 215.269 135.247 216.548C135.247 217.488 134.696 218.036 133.716 217.429ZM240.072 149.992L133.486 211.935L87.6682 185.493L57.8707 168.299L62.5468 165.573C65.6509 168.406 61.7409 165.426 133.381 207.008C133.402 207.029 133.423 207.029 133.444 207.029V207.05C133.613 207.106 133.761 207.117 133.905 207.008L229.546 151.439C229.756 151.314 229.86 151.041 229.776 150.81C228.917 148.357 228.392 145.736 228.099 143.073L240.072 149.992ZM228.644 150.747L133.968 205.77C131.808 197.483 131.558 190.276 134.157 181.97C255.941 111.207 222.456 130.664 228.455 127.178C226.191 135.188 226.253 143.492 228.644 150.747ZM228.308 126.046C219.019 131.443 255.746 110.104 133.716 181.006C126.917 177.082 158.346 195.22 67.223 142.632L67.202 142.611L161.794 87.6508L173.369 94.3191L173.39 100.358L164.939 95.4725C164.562 95.2628 164.164 95.1369 163.744 94.99C161.899 94.361 159.865 94.4867 158.145 95.4932L81.2514 140.179C79.5598 141.146 79.4703 143.658 81.2514 144.708C148.466 183.531 125.283 170.141 130.298 173.038C132.071 174.066 134.166 174.266 136.317 173.352C136.589 173.226 136.862 173.163 137.113 173.017C153.407 163.544 96.2709 196.762 214.008 128.31C215.749 127.302 215.683 124.76 213.987 123.802L199.35 115.351L199.329 109.312L228.308 126.046ZM211.428 128.604L199.371 121.642L199.35 116.567C199.562 116.69 214.368 125.225 213.462 124.704C214.517 125.346 214.476 126.835 213.462 127.409L211.428 128.604ZM199.392 128.079L199.371 122.858L210.38 129.212L160.557 158.17C158.313 157.164 155.147 157.793 152.085 158.443C149.003 159.093 145.816 159.764 143.886 158.653C143.404 158.359 143.132 158.045 143.027 157.688C142.817 156.828 143.572 155.591 144.285 154.417C145.145 153.054 146.004 151.628 145.669 150.349C145.522 149.699 145.061 149.154 144.348 148.734C142.083 147.434 138.707 148.147 135.436 148.818C132.353 149.468 129.166 150.139 127.258 149.028C126.776 148.755 126.503 148.44 126.398 148.063C126.188 147.204 126.923 145.987 127.656 144.813C128.495 143.45 129.376 142.024 129.041 140.745C128.873 140.095 128.432 139.549 127.698 139.13C125.434 137.83 122.058 138.543 118.766 139.214C115.683 139.864 112.496 140.514 110.608 139.424C110.126 139.151 109.854 138.837 109.749 138.48C109.539 137.62 110.294 136.383 111.028 135.209C111.867 133.846 112.747 132.42 112.412 131.141C112.307 130.7 112.013 130.344 111.657 130.008L158.67 102.686C160.431 101.658 162.654 101.658 164.415 102.686L173.411 107.865L173.453 121.327L160.641 113.946C160.473 113.841 160.284 113.841 160.117 113.946L149.423 120.216C148.626 120.027 147.682 120.111 147.032 120.489C146.172 120.992 146.193 121.809 147.053 122.313C147.913 122.795 149.318 122.795 150.177 122.313C150.89 121.893 150.974 121.285 150.513 120.782L160.389 114.994L173.705 122.69C173.789 122.732 173.893 122.774 173.977 122.774C174.061 122.774 174.166 122.732 174.229 122.69C174.397 122.606 174.501 122.418 174.501 122.229L174.459 108.473L185.887 115.058L185.908 121.936L175.571 127.996C174.753 127.765 173.768 127.849 173.076 128.247C172.216 128.73 172.237 129.548 173.097 130.051C173.956 130.554 175.361 130.554 176.221 130.051C176.892 129.652 177.018 129.065 176.619 128.604L186.706 122.69C186.852 122.606 186.957 122.418 186.957 122.229L186.936 115.666L198.322 122.25L198.343 127.786L188.005 133.846C187.188 133.615 186.181 133.699 185.51 134.077C184.651 134.58 184.651 135.398 185.531 135.901C186.391 136.404 187.796 136.404 188.656 135.901C189.327 135.503 189.452 134.915 189.054 134.433L199.14 128.541C199.287 128.436 199.392 128.268 199.392 128.079ZM186.894 108.159L186.873 102.12L198.281 108.704L198.302 114.743L186.894 108.159ZM198.322 121.034L186.936 114.449L186.915 109.375L198.302 115.959L198.322 121.034ZM198.511 98.8904C198.343 98.9743 198.239 99.1628 198.239 99.3517L198.281 107.488L186.873 100.903L186.831 92.4527L193.416 88.6575L204.823 95.2419L198.511 98.8904ZM270.31 75.1951C270.31 76.6628 269.282 78.0469 267.416 79.1374L230.783 100.442C226.694 102.812 220.047 102.832 215.937 100.442L206.92 95.2418L211.827 92.4107C212.078 92.264 212.183 91.9494 212.037 91.6979C211.89 91.4463 211.554 91.3623 211.303 91.5092L205.872 94.6336L194.464 88.0492L199.371 85.2184C199.623 85.0715 199.707 84.7571 199.581 84.5052C199.434 84.2538 199.098 84.1698 198.847 84.2958L193.416 87.4413L182.009 80.8566L186.915 78.026C187.167 77.8791 187.251 77.5645 187.104 77.313C186.978 77.0614 186.643 76.9776 186.391 77.1033L180.96 80.2487L179.052 79.1373C177.186 78.0678 176.116 76.6208 176.116 75.1531L176.158 62.5296C176.242 62.6345 176.368 62.7185 176.452 62.8234C177.018 63.4733 177.689 64.0603 178.569 64.5844L215.455 85.8684C215.958 86.1618 216.524 86.4136 217.09 86.6441C217.132 86.6441 217.174 86.6861 217.216 86.6861C221.809 88.4412 227.637 88.01 231.349 85.8684L255.946 71.5673L267.962 64.5844C268.507 64.2701 268.989 63.9135 269.408 63.557C269.471 63.4943 269.534 63.4103 269.597 63.3477C269.87 63.0957 270.142 62.8442 270.352 62.5926L270.31 75.1951ZM270.31 53.3874C270.31 54.8342 269.282 56.239 267.416 57.3293L230.783 78.6341C226.694 81.0037 220.047 81.0037 215.937 78.6341L179.052 57.3293C177.186 56.2599 176.116 54.7921 176.116 53.3244L176.158 40.7009C176.263 40.8475 176.41 40.9524 176.515 41.0782C176.707 41.2898 177.193 41.9282 178.569 42.7558L215.455 64.0394C219.38 66.2951 225.87 66.6291 230.427 64.4799C230.741 64.3332 231.056 64.2073 231.349 64.0394L267.983 42.7558C268.454 42.5195 269.613 41.6661 270.352 40.7639L270.31 53.3874ZM267.437 41.8543L230.825 63.1379C226.648 65.5821 220.04 65.4051 215.958 63.1379L179.115 41.8543C175.155 39.5478 175.204 36.0818 179.073 33.8649L215.706 12.5601C219.72 10.2428 226.367 10.1808 230.531 12.5601L267.395 33.8439C271.109 36.0072 271.546 39.3852 267.437 41.8543Z" fill="black"/>
<path d="M247.223 35.0183C220.269 19.4431 229.565 24.8149 227.554 23.6529C225.236 22.3278 221.341 22.1993 218.831 23.6529L199.267 35.0183C196.661 36.5374 196.657 39.1705 199.288 40.6799L218.977 52.0451C221.409 53.4704 225.268 53.4716 227.701 52.0451L247.265 40.6799C250.036 39.0172 249.698 36.4168 247.223 35.0183ZM227.177 51.1434C225.059 52.3596 221.62 52.3596 219.502 51.1434L201.992 41.0362L219.355 30.9711C221.452 29.734 224.912 29.734 227.03 30.9711L244.518 41.0572L227.177 51.1434Z" fill="#1855F1"/>
<path d="M249.686 58.318C248.42 59.0494 247.407 60.8038 247.411 62.2592C247.415 63.6986 248.435 64.2796 249.701 63.5486C250.954 62.8253 251.967 61.0709 251.963 59.6313C251.958 58.1757 250.939 57.5947 249.686 58.318Z" fill="#1855F1"/>
<path d="M257.119 54.0264C255.853 54.758 254.84 56.5124 254.844 57.9678C254.848 59.4072 255.867 59.9882 257.134 59.2568C258.387 58.5337 259.4 56.7791 259.396 55.3397C259.392 53.8843 258.372 53.3033 257.119 54.0264Z" fill="#1855F1"/>
<path d="M264.553 49.735C263.3 50.4581 262.273 52.2204 262.277 53.6759C262.281 55.1155 263.315 55.6884 264.567 54.9653C265.834 54.234 266.847 52.4795 266.843 51.0399C266.839 49.5844 265.819 49.0034 264.553 49.735Z" fill="#1855F1"/>
<path d="M200.145 60.4719L181.399 49.6483C180.48 49.1179 179.74 49.5398 179.737 50.5796C179.734 51.6191 180.469 52.8925 181.388 53.4229L200.135 64.2465C201.039 64.7686 201.78 64.3471 201.783 63.3075C201.786 62.2678 201.05 60.9941 200.145 60.4719Z" fill="#1855F1"/>
<path d="M144.369 125.626C139.84 123.026 132.5 123.026 128.013 125.626C125.727 126.947 124.49 128.73 124.49 130.659C124.49 132.588 125.748 134.391 128.055 135.712C130.257 136.992 133.15 137.684 136.233 137.684C136.233 137.684 136.233 137.684 136.254 137.684C139.336 137.684 142.251 136.97 144.432 135.712C146.696 134.391 147.934 132.609 147.934 130.68C147.934 128.751 146.676 126.968 144.369 125.626ZM128.579 134.811C126.629 133.678 125.539 132.211 125.539 130.659C125.539 129.128 126.608 127.66 128.537 126.549C130.634 125.312 133.402 124.704 136.17 124.704C138.602 124.704 141.035 125.165 143.027 126.109L140.07 127.828L139.588 128.101C137.533 127.052 134.492 127.115 132.542 128.248C131.452 128.877 130.865 129.736 130.865 130.68C130.865 131.624 131.473 132.483 132.542 133.112C133.423 133.616 134.513 133.909 135.709 133.972L135.73 136.635C133.024 136.551 130.508 135.922 128.579 134.811ZM136.233 132.945C135.017 132.945 133.905 132.672 133.066 132.19C132.333 131.77 131.913 131.225 131.913 130.68C131.913 130.135 132.333 129.589 133.066 129.149C134.786 128.164 137.617 128.143 139.336 129.149C140.091 129.589 140.511 130.135 140.511 130.68C140.511 131.225 140.112 131.77 139.378 132.19C138.56 132.672 137.428 132.945 136.233 132.945Z" fill="#1855F1"/>
<path d="M167.392 138.9C162.863 136.299 155.524 136.299 151.037 138.921C148.751 140.221 147.514 142.024 147.514 143.932C147.514 145.882 148.772 147.665 151.079 148.986C153.28 150.265 156.174 150.957 159.235 150.957C159.256 150.957 159.256 150.957 159.256 150.957H159.277C162.36 150.957 165.254 150.265 167.455 148.986C169.72 147.665 170.957 145.882 170.957 143.974C170.957 142.024 169.699 140.242 167.392 138.9ZM151.603 148.084C149.632 146.952 148.562 145.484 148.562 143.932C148.562 142.402 149.61 140.934 151.561 139.822C153.658 138.585 156.426 137.977 159.193 137.977C161.626 137.977 164.058 138.459 166.05 139.382L163.094 141.101L162.612 141.374C160.557 140.347 157.516 140.389 155.566 141.521C154.475 142.15 153.888 143.01 153.888 143.953C153.888 144.897 154.496 145.757 155.566 146.386C156.446 146.889 157.537 147.183 158.732 147.245L158.753 149.908C156.048 149.846 153.532 149.196 151.603 148.084ZM159.256 146.218C158.04 146.218 156.929 145.945 156.09 145.484C155.356 145.044 154.937 144.498 154.937 143.953C154.937 143.408 155.356 142.863 156.09 142.423C157.81 141.437 160.64 141.437 162.36 142.444C163.115 142.863 163.534 143.408 163.534 143.953C163.534 144.498 163.136 145.044 162.402 145.463C161.584 145.945 160.452 146.218 159.256 146.218Z" fill="#1855F1"/>
</svg>
