<svg width="272" height="269" viewBox="0 0 272 269" fill="none" xmlns="http://www.w3.org/2000/svg">
<path d="M180.431 195.467L180.452 181.304L186.129 184.569C186.15 184.569 186.15 184.569 186.171 184.59C188.77 186.087 192.181 186.836 195.592 186.836C198.982 186.836 202.371 186.087 204.95 184.611V184.59L246.543 160.445C249.122 158.906 250.537 156.868 250.537 154.726L250.62 87.7612C250.62 87.7612 250.62 87.7612 250.62 87.7405V87.7197C250.62 85.5152 249.185 83.4772 246.543 81.9591L231.591 73.3285C230.488 68.6908 226.891 64.4067 221.088 61.0585C215.162 57.6272 207.675 55.6723 199.938 55.09L199.959 43.3399C199.959 35.9363 199.959 30.2172 199.98 24.228L203.931 22.4186C204.118 22.3354 204.243 22.1484 204.243 21.9611L204.264 12.5402C204.264 12.3531 204.181 12.1867 204.014 12.1036L200.001 9.77444V2.84914C200.001 2.03801 199.502 1.28942 198.565 0.748621C196.819 -0.249541 194.115 -0.249541 192.389 0.748621C191.474 1.2893 190.975 2.01724 190.975 2.80749C190.975 2.80749 190.954 2.80748 190.954 2.82825V4.55436L187.21 2.39153C186.878 2.20427 186.441 2.43307 186.441 2.84902L186.4 12.2491C186.4 12.3531 186.441 12.4363 186.483 12.5195L190.933 19.6942L190.891 55.09C183.114 55.6515 175.627 57.6272 169.7 61.0585C163.981 64.386 160.446 68.6285 159.364 73.2453L144.328 81.9799C141.729 83.4774 140.315 85.5153 140.315 87.6782V87.7406L140.273 121.265L134.575 117.979C129.396 114.984 120.953 115.005 115.775 117.999L74.2024 142.165C71.6236 143.662 70.1883 145.7 70.1883 147.884C70.1883 147.884 70.1883 147.905 70.1883 147.926L70.1263 181.45L64.4489 178.185C59.2701 175.19 50.8271 175.19 45.6695 178.185L4.07643 202.35C1.49765 203.868 0.0628924 205.886 0.0831884 208.069C0.0831884 208.09 0.0831884 208.09 0.0831884 208.111L0 236.124C0 238.329 1.43535 240.367 4.05578 241.885L45.8981 266.03C45.8981 266.05 45.9189 266.05 45.9189 266.071C48.5184 267.568 51.9496 268.317 55.3606 268.317C58.7502 268.317 62.1196 267.568 64.6982 266.092C64.6982 266.071 64.719 266.071 64.719 266.071L106.312 241.926C108.891 240.387 110.305 238.349 110.305 236.207L110.347 222.045L116.024 225.31C116.024 225.31 116.024 225.31 116.045 225.31C118.644 226.828 122.055 227.576 125.466 227.576C128.856 227.576 132.245 226.828 134.824 225.33C134.824 225.33 134.824 225.33 134.845 225.33L176.417 201.186C178.996 199.647 180.431 197.609 180.431 195.467ZM249.497 154.726C249.497 156.494 248.269 158.199 246.023 159.53L205.221 183.238L205.283 117.48L223.355 106.957L246.606 93.4597C247.895 92.7111 248.893 91.8168 249.58 90.8601L249.497 154.726ZM192.909 1.66371C193.595 1.24776 194.531 1.06061 195.467 1.06061C196.403 1.06061 197.339 1.24776 198.045 1.66371C198.628 1.99647 198.961 2.43319 198.961 2.84914V2.86991C198.961 3.18178 198.773 3.49377 198.441 3.76411C198.42 3.80576 198.379 3.82641 198.337 3.8473C198.254 3.90972 198.17 3.97203 198.067 4.03457C197.942 4.11776 197.775 4.13852 197.63 4.20095C197.38 4.3049 197.151 4.42963 196.86 4.49205C195.551 4.80405 193.969 4.63766 192.93 4.03457C192.326 3.70181 191.994 3.26509 191.994 2.84914C191.994 2.41242 192.326 1.99659 192.909 1.66371ZM191.994 4.67932C192.119 4.76251 192.264 4.86647 192.41 4.94966C192.639 5.07438 192.909 5.1368 193.159 5.24088C193.886 5.51122 194.677 5.69837 195.488 5.69837C196.569 5.69837 197.63 5.4488 198.483 4.97054C198.503 4.97054 198.545 4.94978 198.587 4.94978C198.587 4.92901 198.587 4.92901 198.587 4.92901C198.607 4.92901 198.607 4.929 198.607 4.90824C198.732 4.84593 198.857 4.76263 198.961 4.70032V9.17146L198.129 8.69321C198.046 8.65155 197.963 8.6309 197.88 8.6309C197.775 8.6309 197.692 8.65155 197.609 8.69321C197.443 8.79717 197.36 8.96354 197.36 9.15081C197.36 9.44192 197.318 20.9632 197.318 21.7536V22.4606L197.297 24.6234C197.297 24.7068 197.318 24.8107 197.36 24.8731C197.401 24.9563 197.464 25.0186 197.547 25.0603C197.589 25.1019 197.651 25.1019 197.713 25.1227C197.734 25.1227 197.755 25.1434 197.796 25.1434H197.817C197.9 25.1434 197.963 25.1433 198.046 25.1018L198.94 24.7066C198.919 30.5088 198.919 36.124 198.919 43.3403L198.899 62.3069C198.878 62.8891 198.379 63.2843 197.984 63.5129C196.569 64.3241 194.261 64.3241 192.846 63.5129C192.244 63.1803 191.911 62.7435 191.911 62.3069L191.994 4.67932ZM192.326 64.4277C193.2 64.906 194.302 65.1556 195.405 65.1556C196.527 65.1556 197.63 64.906 198.503 64.4277C199.398 63.887 199.917 63.1592 199.938 62.3272V61.3081C200.271 61.5161 200.562 61.7448 200.77 61.9736C201.311 62.5767 201.498 63.263 201.29 63.9077C201.27 63.9077 201.27 63.9284 201.27 63.9284C201.248 64.0116 201.207 64.0948 201.145 64.2196C200.895 64.6979 200.437 65.1555 199.751 65.5507C197.38 66.9231 193.491 66.9231 191.1 65.5507C190.517 65.2179 190.06 64.8227 189.769 64.386C189.644 64.178 189.561 63.9701 189.498 63.6997C189.312 62.9718 189.665 62.3687 189.998 61.9736C190.227 61.7241 190.517 61.4954 190.871 61.2666V62.3064C190.871 63.1383 191.391 63.887 192.326 64.4277ZM195.405 75.9906L190.808 66.5698C193.45 67.9632 197.339 67.9632 199.98 66.5906L195.405 75.9906ZM192.451 72.1849C191.682 72.372 190.975 72.6424 190.351 72.9959C188.895 73.8278 188.084 74.9925 188.084 76.2402C188.084 77.5089 188.895 78.6735 190.372 79.5052C191.828 80.3372 193.658 80.7531 195.509 80.7531C197.339 80.7531 199.19 80.3372 200.625 79.5052C202.08 78.6735 202.87 77.5088 202.87 76.2609C202.87 74.9924 202.06 73.8486 200.583 72.9959C199.938 72.6216 199.21 72.372 198.42 72.1849L200.812 67.256C203.224 67.7344 205.491 68.5247 207.404 69.6269C210.523 71.4153 212.25 73.7861 212.25 76.2818C212.25 78.7567 210.565 81.0859 207.487 82.8743C200.916 86.7009 190.164 86.7009 183.551 82.8743C180.431 81.0859 178.705 78.715 178.705 76.2194C178.705 73.7446 180.39 71.4153 183.468 69.6269C185.381 68.5039 187.647 67.7344 190.081 67.2769L192.451 72.1849ZM170.22 61.9737C176.001 58.6047 183.301 56.6707 190.871 56.1091V60.0814C190.767 60.1437 190.642 60.1853 190.538 60.2476C190.351 60.3517 190.206 60.4764 190.039 60.5804C184.965 61.1626 180.119 62.5561 176.209 64.8229C171.01 67.8383 168.14 71.8938 168.161 76.2194C168.161 80.5658 171.073 84.642 176.334 87.6782C181.637 90.7562 188.604 92.2743 195.571 92.2743C202.517 92.2743 209.484 90.7562 214.766 87.6782C219.965 84.6628 222.815 80.6074 222.815 76.2817C222.815 74.0981 222.086 71.9976 220.693 70.0636C219.321 68.1087 217.262 66.341 214.642 64.8229C210.669 62.5353 205.824 61.1626 200.728 60.5804C200.562 60.4764 200.417 60.3517 200.23 60.2476C200.147 60.1853 200.042 60.1645 199.938 60.1021V56.1299C207.487 56.6915 214.766 58.6255 220.568 61.9737C227.244 65.8211 230.925 70.9163 230.946 76.3026C230.946 76.6561 230.883 76.9889 230.863 77.3424C230.821 77.6543 230.821 77.9871 230.759 78.3198C230.717 78.611 230.613 78.8814 230.551 79.1726C230.468 79.5469 230.385 79.9004 230.26 80.2747C230.177 80.5035 230.052 80.7323 229.968 80.961C229.802 81.3562 229.657 81.7721 229.449 82.1672C229.345 82.3544 229.22 82.5207 229.116 82.7079C228.845 83.1445 228.596 83.5813 228.305 84.018C228.201 84.1428 228.076 84.2676 227.972 84.4131C227.619 84.8707 227.265 85.3282 226.849 85.7858C226.724 85.9105 226.579 86.0354 226.454 86.1601C226.017 86.5968 225.58 87.0335 225.102 87.4495C224.873 87.6575 224.624 87.8238 224.374 88.0318C223.958 88.3644 223.543 88.718 223.064 89.0508C222.336 89.5708 221.566 90.0699 220.735 90.5274C206.905 98.5758 184.32 98.5758 170.386 90.5274C169.555 90.0491 168.764 89.55 168.015 89.0301C167.724 88.8222 167.475 88.6141 167.204 88.4062C166.789 88.0733 166.331 87.7615 165.956 87.4287C165.624 87.1584 165.354 86.8673 165.062 86.5762C164.771 86.2849 164.438 86.0146 164.168 85.7234C163.877 85.4115 163.648 85.0995 163.399 84.7876C163.17 84.4964 162.899 84.2261 162.691 83.9348C162.463 83.6022 162.276 83.2693 162.068 82.9367C161.901 82.6455 161.693 82.3751 161.548 82.0839C161.361 81.7513 161.256 81.4185 161.111 81.0857C160.966 80.7737 160.82 80.4619 160.695 80.1499C160.591 79.838 160.529 79.526 160.467 79.1934C160.362 78.8606 160.258 78.5279 160.196 78.1951C160.133 77.8624 160.133 77.5505 160.113 77.2386C160.092 76.8849 160.03 76.5314 160.03 76.1779C160.03 70.8331 163.648 65.7795 170.22 61.9737ZM160.009 81.273C160.155 81.6056 160.321 81.9385 160.487 82.2712C160.529 82.3751 160.571 82.4791 160.633 82.5624C160.945 83.1655 161.298 83.7478 161.715 84.33C161.797 84.4548 161.901 84.6004 162.006 84.7252C162.359 85.1828 162.733 85.6611 163.129 86.0979C163.253 86.2434 163.357 86.3681 163.482 86.493C164.002 87.0338 164.543 87.5744 165.146 88.0943C165.25 88.1777 165.354 88.2607 165.458 88.3647C165.978 88.8015 166.518 89.2175 167.101 89.6332C167.288 89.7579 167.454 89.9035 167.662 90.0284C168.349 90.5067 169.076 90.985 169.867 91.4425C170.761 91.9417 171.676 92.4408 172.633 92.8775C176.355 94.6452 180.556 95.893 184.965 96.6624C185.048 96.6832 185.153 96.7041 185.235 96.7249C186.192 96.8911 187.169 97.0161 188.147 97.1408C188.313 97.1615 188.48 97.1824 188.646 97.2031C189.353 97.2863 190.06 97.3279 190.767 97.3904C191.225 97.411 191.661 97.4736 192.119 97.4943C192.535 97.5151 192.971 97.5151 193.388 97.536C194.136 97.5567 194.864 97.5983 195.613 97.5983C195.779 97.5983 195.946 97.5775 196.112 97.5775C204.077 97.5152 212.022 95.9555 218.51 92.8775C219.467 92.42 220.382 91.9417 221.255 91.4425C222.045 90.985 222.752 90.5274 223.439 90.0491C223.626 89.9035 223.813 89.7788 224 89.654C224.561 89.238 225.103 88.8014 225.623 88.3646C225.726 88.2814 225.83 88.1982 225.913 88.115C226.496 87.6159 227.037 87.0959 227.536 86.5553L227.91 86.1184C228.305 85.6818 228.659 85.245 228.991 84.7875C229.095 84.6419 229.2 84.5172 229.304 84.3923C229.678 83.8308 230.031 83.2485 230.343 82.687C230.405 82.5414 230.468 82.3958 230.53 82.271C230.676 82.0007 230.822 81.7303 230.925 81.4599L230.905 85.7857C230.905 91.1096 227.286 96.1632 220.714 99.9689C206.884 108.017 184.279 108.017 170.366 99.9689C163.67 96.1008 159.989 90.9848 159.989 85.5778L160.009 81.273ZM144.848 82.8743L159.115 74.5765C159.052 75.0964 158.99 75.6163 158.99 76.1362C158.99 76.1362 158.99 76.1362 158.99 76.157L158.948 85.5779C158.948 91.3801 162.796 96.8079 169.846 100.863C184.071 109.078 207.134 109.057 221.234 100.863C228.138 96.8495 231.944 91.5048 231.944 85.7858L231.986 76.3443C231.986 76.3235 231.986 76.3235 231.986 76.3026C231.986 75.741 231.903 75.2004 231.84 74.6597L246.023 82.8534C248.311 84.1844 249.58 85.9105 249.58 87.7198C249.58 87.9902 249.497 88.2605 249.455 88.5517C249.413 88.718 249.413 88.8844 249.351 89.0508C249.268 89.3212 249.102 89.5708 248.956 89.8203C248.852 89.9867 248.789 90.1739 248.685 90.3402C248.664 90.361 248.623 90.3819 248.602 90.4025C248.02 91.1928 247.167 91.9207 246.065 92.5446L222.274 106.395L204.513 116.71C204.513 116.71 204.513 116.71 204.493 116.71C199.626 119.539 191.661 119.539 186.774 116.689C186.753 116.689 186.753 116.689 186.732 116.689L173.007 108.766L144.89 92.5447C143.974 92.004 143.268 91.4009 142.685 90.7563C141.854 89.7996 141.354 88.7597 141.354 87.6576C141.355 85.869 142.602 84.1844 144.848 82.8743ZM141.355 90.7977C141.458 90.9641 141.604 91.1097 141.729 91.2761C141.791 91.3593 141.854 91.4424 141.936 91.5257C141.958 91.5464 141.978 91.5672 141.999 91.588C142.644 92.2743 143.413 92.8981 144.37 93.4389L172.487 109.66L185.963 117.459L185.901 183.218L180.452 180.098L180.514 147.947C180.514 147.926 180.514 147.926 180.514 147.905C180.514 145.722 179.059 143.663 176.438 142.144L141.313 121.868L141.355 90.7977ZM45.6488 264.698L4.57557 240.99C2.28778 239.659 1.0397 237.933 1.0397 236.124L1.10271 211.168C1.24797 211.355 1.39358 211.543 1.53931 211.709C1.60126 211.771 1.64291 211.855 1.70534 211.917C1.74699 211.979 1.8303 212.042 1.89272 212.104C2.49594 212.728 3.24429 213.31 4.13885 213.83L32.3594 230.114L45.732 237.85L45.6488 264.698ZM109.265 236.207C109.265 237.975 108.038 239.68 105.792 241.032L64.9892 264.719L65.0522 237.871L83.7275 226.994L106.375 213.851C107.664 213.102 108.662 212.208 109.348 211.251L109.265 236.207ZM109.203 208.943C109.162 209.109 109.182 209.297 109.12 209.442C109.037 209.712 108.87 209.941 108.725 210.191C108.62 210.357 108.558 210.544 108.433 210.732C108.413 210.752 108.371 210.773 108.35 210.815C107.768 211.584 106.915 212.312 105.834 212.936L82.4793 226.516L64.2615 237.102C59.3949 239.93 51.4511 239.93 46.522 237.102V237.081L33.5242 229.594L30.0305 227.577L50.8479 215.473L55.8804 218.385L56.6085 207.3L37.4966 207.758L42.5292 210.669L21.712 222.773L4.65899 212.936C3.72278 212.395 3.01596 211.771 2.43363 211.106C1.6015 210.17 1.12324 209.13 1.12324 208.049C1.12324 206.26 2.35044 204.555 4.59657 203.266L46.1897 179.1C48.6435 177.665 51.8463 176.958 55.0693 176.958C58.2721 176.958 61.4956 177.665 63.9292 179.079L105.792 203.245C108.08 204.576 109.349 206.302 109.349 208.111C109.348 208.402 109.265 208.673 109.203 208.943ZM115.775 223.958L110.347 220.839L110.388 208.153C110.388 208.153 110.388 208.153 110.388 208.132V208.111C110.388 205.907 108.933 203.869 106.312 202.35L71.1663 182.053L71.2282 150.983C71.3531 151.17 71.4988 151.337 71.6445 151.524C71.7065 151.586 71.7481 151.649 71.811 151.711C71.8522 151.773 71.9146 151.815 71.9563 151.857C72.5803 152.501 73.3292 153.104 74.2441 153.645L103.546 170.532L115.858 177.644L115.775 223.958ZM134.387 176.916C129.521 179.745 121.556 179.745 116.648 176.895C116.648 176.895 116.648 176.895 116.627 176.895L102.881 168.951L100.156 167.371L120.953 155.288L125.986 158.199L126.714 147.115L107.602 147.572L112.634 150.484L91.8378 162.567L74.7847 152.73C73.8906 152.21 73.1834 151.628 72.6218 150.983C71.748 150.026 71.2281 148.966 71.2281 147.863C71.2495 146.075 72.4761 144.37 74.7223 143.059L116.315 118.894C118.748 117.48 121.972 116.773 125.196 116.773C128.398 116.773 131.601 117.48 134.055 118.894L175.918 143.059C178.206 144.37 179.474 146.096 179.474 147.926C179.474 148.175 179.392 148.446 179.329 148.695C179.287 148.883 179.308 149.07 179.246 149.257C179.163 149.486 178.996 149.714 178.872 149.922C178.31 150.962 177.354 151.94 175.96 152.73L151.794 166.788L134.387 176.916ZM135.095 223.979L135.178 177.665L152.876 167.371L176.48 153.645C177.79 152.896 178.788 152.023 179.453 151.045L179.391 195.467C179.391 197.234 178.143 198.94 175.897 200.271L135.095 223.979Z" fill="black"/>
<path d="M23.999 127.316L31.4236 131.621C31.4444 131.642 31.4653 131.663 31.486 131.663C31.5277 131.684 31.5484 131.705 31.5901 131.705C31.8602 131.85 32.1308 131.954 32.401 132.037C32.5051 132.079 32.5884 132.1 32.6925 132.12C33.0042 132.183 33.3373 132.224 33.649 132.224C33.6697 132.224 33.6906 132.245 33.6906 132.245C33.8571 132.245 34.0024 132.224 34.1689 132.204C34.2522 132.204 34.3557 132.183 34.439 132.183C34.6055 132.162 34.7721 132.12 34.9381 132.079C35.0422 132.058 35.1463 132.037 35.2503 132.016C35.4168 131.975 35.5621 131.912 35.7286 131.871C35.8536 131.809 35.9987 131.767 36.1237 131.705C36.2485 131.663 36.3938 131.6 36.5187 131.538C36.7685 131.434 37.0179 131.309 37.2677 131.164C37.2884 131.143 37.3093 131.143 37.3301 131.143L121.39 82.604C123.116 81.6058 124.717 80.0044 126.006 78.1328C127.566 75.8451 128.668 73.1832 128.98 70.6668C129.042 70.1677 129.105 69.6894 129.105 69.2111L129.084 63.0554L128.938 10.1905C128.938 7.54934 127.94 5.71928 126.38 4.86649L119.04 0.603268C117.438 -0.33259 115.359 -0.166209 113.175 1.10241L29.1566 49.6208C29.1566 49.6208 29.1363 49.6208 29.1363 49.6416C24.8521 52.0955 21.3792 58.1266 21.3995 63.0554L21.566 122.055C21.566 124.53 22.4393 126.381 23.999 127.316ZM128.065 69.2108C128.065 69.6268 128.003 70.0636 127.961 70.5003C127.649 73.0374 126.526 75.7202 124.883 77.9454C123.739 79.5051 122.346 80.8362 120.849 81.7096L38.2032 129.438L36.8099 130.228C34.9588 131.289 33.2538 131.476 32.0058 130.769C32.0058 130.748 32.0058 130.748 31.985 130.748C30.966 130.145 30.342 128.939 30.1343 127.358C30.113 127.046 30.051 126.734 30.051 126.381L30.0094 110.326C32.7339 113.091 36.6433 113.466 40.5113 111.22C45.2534 108.475 49.1005 102.36 51.0344 94.4785C53.5923 84.0179 59.2078 74.4931 64.7395 71.2903C66.1744 70.4586 68.2957 69.6683 70.292 70.6872C72.0807 71.54 73.5155 73.578 74.5553 76.7598C75.9069 80.8984 78.278 83.7267 81.4183 84.9328C84.2886 86.0143 87.5948 85.6191 90.7351 83.8098C93.6256 82.1252 96.2465 79.3593 98.2632 75.7824C100.572 71.7271 102.111 66.8607 102.86 61.3079C103.65 55.2561 104.877 50.3065 106.562 46.584C108.329 42.5287 110.243 40.8024 111.552 40.0539C112.987 39.222 114.422 39.1388 115.712 39.8252C116.938 40.4698 117.978 41.78 118.623 43.5061C119.788 46.7504 122.262 48.5596 125.757 48.7677C126.484 48.8092 127.233 48.7884 128.002 48.6844L128.044 63.0549L128.065 69.2108ZM124.28 5.42782C124.509 5.42782 124.717 5.40705 124.925 5.44859C125.279 5.51101 125.611 5.63585 125.902 5.80211L125.965 5.82288C127.171 6.53006 127.898 8.02735 127.898 10.1902L128.002 47.6239C127.254 47.7279 126.526 47.7694 125.819 47.7279C122.721 47.5615 120.62 46.0225 119.601 43.1526C118.852 41.177 117.646 39.6588 116.211 38.9102C114.61 38.0574 112.759 38.1406 111.033 39.1598C108.974 40.3244 107.102 42.7367 105.605 46.1474C103.9 49.9739 102.631 55.0276 101.82 61.1833C101.113 66.5905 99.5946 71.332 97.3692 75.2626C95.4353 78.6732 92.9606 81.3143 90.1945 82.9157C87.3451 84.5586 84.3713 84.9329 81.7925 83.9555C78.9436 82.874 76.7807 80.2745 75.5327 76.448C74.4102 72.9749 72.7874 70.7289 70.7495 69.7515C68.8572 68.795 66.5902 69.0237 64.2196 70.3961C58.3756 73.7652 52.6774 83.3524 50.0362 94.2291C48.144 101.841 44.4837 107.705 39.9913 110.326C36.1443 112.551 32.4216 111.948 30.0094 108.724L29.8845 67.3808C29.8845 62.7847 33.1081 57.1904 37.1008 54.882C37.1008 54.882 37.1008 54.882 37.1008 54.8612L83.3731 28.1584L121.161 6.34279C121.639 6.07245 122.096 5.86453 122.533 5.69815C122.595 5.67739 122.637 5.67739 122.699 5.6565C123.074 5.53177 123.448 5.44859 123.781 5.40693C123.968 5.38616 124.114 5.42782 124.28 5.42782ZM113.695 1.99649C115.545 0.935911 117.251 0.748646 118.52 1.49724L123.49 4.388C123.199 4.42965 122.887 4.53361 122.596 4.61668C122.471 4.65834 122.346 4.67911 122.221 4.72076C121.701 4.88702 121.161 5.13659 120.62 5.44859L76.6352 30.8412L36.8516 53.8214L30.7578 50.2651L30.4461 50.078L113.695 1.99649ZM28.8448 67.6926L28.9697 108.891C28.9697 108.891 28.9489 108.891 28.9489 108.911L29.0113 126.401C29.0113 126.713 29.053 126.984 29.0946 127.296C29.1149 127.524 29.1149 127.774 29.1566 127.982C29.219 128.294 29.3023 128.543 29.3856 128.814C29.448 128.98 29.4689 129.167 29.5314 129.313L24.5191 126.422C23.2923 125.694 22.6059 124.135 22.6059 122.055L22.4394 63.9493L28.8448 67.6926Z" fill="#1855F1"/>
<path d="M38.3607 60.0947C36.9843 60.8894 35.8724 62.8153 35.877 64.397C35.8816 65.9785 37.0006 66.6164 38.377 65.8218C39.7535 65.0272 40.8654 63.1012 40.8608 61.5195C40.8562 59.938 39.7372 59.3002 38.3607 60.0947Z" fill="black"/>
<path d="M46.0932 55.6016C44.7167 56.3964 43.6048 58.3222 43.6094 59.9039C43.6134 61.4855 44.733 62.1234 46.1095 61.3288C47.4855 60.534 48.5978 58.6079 48.5932 57.0264C48.5886 55.4447 47.4691 54.807 46.0932 55.6016Z" fill="black"/>
<path d="M53.8262 51.109C52.4492 51.9036 51.3373 53.8296 51.3418 55.4112C51.3464 56.9928 52.4654 57.6307 53.8423 56.8361C55.2183 56.0414 56.3303 54.1154 56.3261 52.5337C56.3216 50.952 55.2022 50.3143 53.8262 51.109Z" fill="black"/>
<path d="M212.79 220.88C203.141 215.307 187.46 215.307 177.852 220.88C173.131 223.625 170.532 227.306 170.511 231.237L170.47 241.24C170.47 245.233 173.111 248.956 177.915 251.742C184.154 255.34 192.909 256.609 200.916 255.548C200.937 255.548 200.937 255.569 200.937 255.569C200.978 255.569 200.978 255.548 200.999 255.548C205.366 254.966 209.505 253.697 212.895 251.742C217.615 248.997 220.215 245.316 220.215 241.386L220.257 231.383V231.362C220.257 227.369 217.595 223.667 212.79 220.88ZM181.408 238.869C177.749 236.811 175.731 234.128 175.731 231.299C175.731 228.471 177.728 225.788 181.325 223.75C185.173 221.587 190.247 220.506 195.321 220.506C200.375 220.506 205.47 221.587 209.338 223.75C212.999 225.809 215.016 228.513 215.016 231.341C215.037 234.169 213.04 236.831 209.443 238.869C201.727 243.216 189.166 243.216 181.408 238.869ZM178.081 250.619C173.839 248.061 171.51 244.755 171.51 241.24L171.53 235.48C171.53 235.5 171.551 235.521 171.572 235.542C171.842 236.062 172.175 236.582 172.549 237.102C172.633 237.226 172.757 237.351 172.861 237.497C173.153 237.871 173.485 238.246 173.839 238.599C173.984 238.765 174.151 238.911 174.317 239.077C174.691 239.41 175.087 239.743 175.482 240.055C175.669 240.2 175.835 240.346 176.002 240.471C176.626 240.907 177.249 241.344 177.956 241.739C177.998 241.76 178.04 241.781 178.081 241.802V250.619ZM200.417 254.591C193.034 255.486 185.048 254.363 179.121 251.202V242.342C181.575 243.59 184.341 244.526 187.273 245.108C187.939 245.233 188.583 245.358 189.249 245.462V251.493C189.249 252.179 190.288 252.179 190.288 251.493V245.607C193.637 246.023 197.089 246.023 200.417 245.628V254.591ZM211.605 251.243C208.631 252.824 205.137 253.885 201.456 254.446V245.483C205.117 244.963 208.59 243.944 211.605 242.426V251.243ZM219.175 241.386C219.175 244.859 216.846 248.145 212.645 250.661V241.885C212.728 241.843 212.832 241.781 212.915 241.739C213.602 241.344 214.226 240.928 214.808 240.491C214.995 240.367 215.161 240.221 215.327 240.096C215.722 239.763 216.118 239.452 216.451 239.119C216.638 238.973 216.784 238.807 216.95 238.64C217.282 238.308 217.595 237.954 217.885 237.601C217.99 237.455 218.114 237.309 218.219 237.164C218.593 236.665 218.925 236.145 219.196 235.625L219.175 241.386Z" fill="#1855F1"/>
<path d="M205.711 232.492C205.807 231.531 205.226 230.691 203.988 229.976C202.743 229.258 201.418 228.931 200.001 228.997C198.583 229.063 196.87 229.456 194.868 230.178L194.804 230.215L190.797 227.901C192.041 227.362 193.463 227.014 195.064 226.856L194.477 224.924C192.142 225.177 190.145 225.727 188.479 226.563L187.386 225.932L186.03 226.72L187.097 227.336C185.797 228.172 185.119 229.067 185.042 230.009C184.977 230.959 185.552 231.788 186.777 232.495C188.01 233.207 189.309 233.526 190.67 233.456C192.036 233.383 193.712 232.998 195.683 232.294L199.817 234.681C198.365 235.297 196.525 235.645 194.304 235.737L194.612 237.706C197.504 237.592 200.008 237.027 202.142 236.023L203.698 236.921L205.054 236.133L203.517 235.245C204.886 234.369 205.622 233.449 205.711 232.492ZM190.658 231.256C190.101 231.256 189.581 231.124 189.105 230.849C188.628 230.574 188.411 230.237 188.453 229.845C188.495 229.452 188.803 229.053 189.377 228.653L193.067 230.783C192.017 231.091 191.215 231.249 190.658 231.256ZM201.238 233.929L197.402 231.714C198.508 231.373 199.361 231.194 199.956 231.179C200.557 231.168 201.109 231.304 201.61 231.593C202.106 231.879 202.323 232.231 202.249 232.65C202.183 233.071 201.843 233.496 201.238 233.929Z" fill="#1855F1"/>
<path d="M271.399 192.266C271.399 188.31 268.75 184.604 263.953 181.848C254.287 176.245 238.588 176.263 228.993 181.848C224.268 184.586 221.672 188.238 221.654 192.158V195.792C218.056 198.37 216.069 201.574 216.069 204.975V205.011H216.052C216.052 205.011 216.069 205.011 216.069 205.029L216.033 214.999C216.015 218.973 218.647 222.678 223.462 225.453C226.828 227.404 230.926 228.639 235.241 229.23C235.258 229.247 235.276 229.266 235.312 229.266C236.125 229.266 240.326 230.116 246.464 229.266C246.482 229.266 246.5 229.283 246.518 229.283C246.553 229.283 246.571 229.266 246.607 229.248C250.957 228.675 255.074 227.404 258.457 225.453C263.165 222.714 265.76 219.062 265.76 215.142L265.778 211.526C269.394 208.949 271.363 205.745 271.363 202.326C271.392 194.119 271.399 192.514 271.4 192.297C271.4 192.352 271.399 192.447 271.399 192.266ZM232.412 184.586C240.19 180.193 252.828 180.244 260.552 184.586C268.127 188.832 268.28 195.577 260.659 199.873C252.926 204.241 240.289 204.241 232.484 199.873C224.817 195.556 224.894 188.825 232.412 184.586ZM262.861 203.256V212.26C259.853 213.871 256.309 214.945 252.568 215.5V206.371C256.291 205.852 259.817 204.814 262.861 203.256ZM240.467 211.007V215.482C236.708 214.927 233.164 213.835 230.157 212.207V203.185C236.189 206.282 244.208 207.391 251.673 206.496V215.626C248.272 216.055 244.745 216.055 241.362 215.608V211.007C241.362 210.423 240.467 210.409 240.467 211.007ZM222.549 196.239C222.567 196.222 222.585 196.222 222.603 196.204C222.621 196.257 222.657 196.311 222.692 196.365C222.909 196.798 223.074 197.123 223.569 197.851C223.569 197.851 223.587 197.851 223.587 197.869C224.985 199.789 227.102 201.49 229.083 202.612C229.137 202.648 229.208 202.684 229.262 202.702V211.723C224.912 209.128 222.513 205.763 222.513 202.2L222.549 196.239ZM223.659 224.522C219.309 221.926 216.911 218.561 216.928 214.999L216.946 208.895C217.16 209.43 217.985 210.664 217.985 210.685C219.492 212.665 221.469 214.279 223.498 215.429C223.552 215.464 223.605 215.482 223.659 215.518L223.659 224.522ZM234.864 228.299C231.123 227.726 227.561 226.634 224.554 225.023V215.983C224.823 216.127 225.091 216.288 225.377 216.413C228.224 217.755 231.481 218.669 234.864 219.17L234.864 228.299ZM246.07 228.442C242.669 228.872 239.161 228.854 235.76 228.424V219.295C239.161 219.724 242.669 219.724 246.07 219.313V228.442ZM217.036 205.888C217 205.601 216.964 205.297 216.964 204.993C216.964 202.039 218.611 199.247 221.636 196.884V201.627C219.471 205.548 221.135 209.987 226.666 213.066C232.901 216.562 239.927 216.278 240.843 216.431C240.879 216.431 240.879 216.467 240.915 216.467L240.933 216.449C246.532 217.202 252.006 216.731 255.772 215.804C241.986 222.439 218.305 217.297 217.036 205.888ZM257.276 225.077C254.251 226.688 250.706 227.762 246.965 228.317V219.206C250.688 218.669 254.233 217.63 257.276 216.073V225.077ZM264.866 215.142C264.866 218.686 262.484 222.016 258.171 224.576V215.608C258.448 215.423 258.029 215.742 259.746 214.623C261.267 214.068 262.717 213.424 264.06 212.636C264.346 212.475 264.597 212.296 264.883 212.117L264.866 215.142ZM270.468 202.326C270.468 205.87 268.069 209.217 263.756 211.777V202.791C266.13 201.601 269.138 198.985 270.415 196.347C270.432 196.311 270.468 196.275 270.486 196.222L270.468 202.326Z" fill="#1855F1"/>
<path d="M236.171 190.923C236.099 191.872 236.672 192.713 237.907 193.411C239.143 194.127 240.449 194.449 241.809 194.378C243.17 194.306 244.853 193.912 246.839 193.214L250.974 195.613C249.524 196.221 247.681 196.579 245.443 196.669L245.765 198.638C248.665 198.531 251.171 197.958 253.319 196.955L254.877 197.85L256.237 197.063L254.698 196.168C256.058 195.291 256.792 194.378 256.899 193.411C256.989 192.445 256.398 191.603 255.163 190.887C253.91 190.171 252.585 189.849 251.171 189.903C249.739 189.974 248.021 190.368 246.016 191.084L245.944 191.138L241.935 188.811C243.188 188.274 244.602 187.916 246.213 187.754L245.622 185.821C243.277 186.072 241.273 186.627 239.608 187.468L238.516 186.842L237.155 187.629L238.229 188.238C236.923 189.079 236.243 189.974 236.171 190.923ZM251.118 192.104C251.726 192.087 252.281 192.23 252.782 192.516C253.284 192.803 253.498 193.143 253.427 193.572C253.355 194.002 253.015 194.414 252.407 194.861L248.558 192.642C249.668 192.283 250.527 192.104 251.118 192.104ZM240.503 189.563L244.208 191.693C243.152 192.015 242.347 192.158 241.792 192.176C241.237 192.176 240.718 192.033 240.234 191.764C239.751 191.496 239.536 191.156 239.59 190.762C239.626 190.368 239.93 189.956 240.503 189.563Z" fill="#1855F1"/>
</svg>
